<svg xmlns="http://www.w3.org/2000/svg" xmlns:xlink="http://www.w3.org/1999/xlink" contentStyleType="text/css" data-diagram-type="CLASS" height="427px" preserveAspectRatio="none" style="width:1232px;height:427px;background:#FFFFFF;" version="1.1" viewBox="0 0 1232 427" width="1232px" zoomAndPan="magnify"><defs/><g><!--class SearchAlgorithm--><g class="entity" data-entity="SearchAlgorithm" data-source-line="1" data-uid="ent0002" id="entity_SearchAlgorithm"><rect fill="#F1F1F1" height="225.085" rx="2.5" ry="2.5" style="stroke:#181818;stroke-width:0.5;" width="348.9365" x="471.9" y="195.5"/><ellipse cx="590.3736" cy="211.5" fill="#A9DCDF" rx="11" ry="11" style="stroke:#181818;stroke-width:1;"/><path d="M586.2174,217.5 L589.3111,205 L591.6236,205 L594.7174,217.5 L592.6393,217.5 L592.0299,214.7969 L588.9049,214.7969 L588.3111,217.5 L586.2174,217.5 Z M591.6705,213.0781 L590.8111,209.1719 Q590.733,208.7812 590.6393,208.4062 Q590.5611,208.0156 590.4674,207.6406 Q590.3893,208.0156 590.2955,208.4062 Q590.2174,208.7812 590.1393,209.1719 L589.2799,213.0781 L591.6705,213.0781 Z " fill="#000000"/><text fill="#000000" font-family="sans-serif" font-size="14" font-style="italic" lengthAdjust="spacing" textLength="103.4893" x="610.8736" y="216.5825">SearchAlgorithm</text><line style="stroke:#181818;stroke-width:0.5;" x1="472.9" x2="819.8365" y1="227.5" y2="227.5"/><polygon fill="none" points="482.9,236.0493,486.9,240.0493,482.9,244.0493,478.9,240.0493" style="stroke:#B38D22;stroke-width:1;"/><text fill="#000000" font-family="sans-serif" font-size="14" lengthAdjust="spacing" textLength="101.165" x="491.9" y="244.6318">currentIndex: Int</text><polygon fill="none" points="482.9,252.1479,486.9,256.1479,482.9,260.1479,478.9,256.1479" style="stroke:#B38D22;stroke-width:1;"/><text fill="#000000" font-family="sans-serif" font-size="14" lengthAdjust="spacing" textLength="143.1992" x="491.9" y="260.7305">searchSpace: List&lt;Int&gt;</text><polygon fill="none" points="482.9,268.2466,486.9,272.2466,482.9,276.2466,478.9,272.2466" style="stroke:#B38D22;stroke-width:1;"/><text fill="#000000" font-family="sans-serif" font-size="14" lengthAdjust="spacing" textLength="116.7373" x="491.9" y="276.8291">solutions: List&lt;Int&gt;</text><polygon fill="none" points="482.9,284.3452,486.9,288.3452,482.9,292.3452,478.9,288.3452" style="stroke:#B38D22;stroke-width:1;"/><text fill="#000000" font-family="sans-serif" font-size="14" lengthAdjust="spacing" textLength="59.1445" x="491.9" y="292.9277">target: Int</text><line style="stroke:#181818;stroke-width:0.5;" x1="472.9" x2="819.8365" y1="299.8945" y2="299.8945"/><text fill="#000000" font-family="sans-serif" font-size="14" lengthAdjust="spacing" textLength="322.9365" x="491.9" y="317.0264">SearchAlgorithm(target: Int, searchSpace: List&lt;Int&gt;)</text><ellipse cx="482.9" cy="329.5425" fill="#84BE84" rx="3" ry="3" style="stroke:#038048;stroke-width:1;"/><text fill="#000000" font-family="sans-serif" font-size="14" lengthAdjust="spacing" textLength="189.0957" x="491.9" y="333.125">bruteForceSolution(): List&lt;Int&gt;</text><ellipse cx="482.9" cy="345.6411" fill="#84BE84" rx="3" ry="3" style="stroke:#038048;stroke-width:1;"/><text fill="#000000" font-family="sans-serif" font-size="14" lengthAdjust="spacing" textLength="55.2207" x="491.9" y="349.2236">first(): Int</text><ellipse cx="482.9" cy="361.7397" fill="#84BE84" rx="3" ry="3" style="stroke:#038048;stroke-width:1;"/><text fill="#000000" font-family="sans-serif" font-size="14" lengthAdjust="spacing" textLength="141.6338" x="491.9" y="365.3223">isSearching(): Boolean</text><ellipse cx="482.9" cy="377.8384" fill="#84BE84" rx="3" ry="3" style="stroke:#038048;stroke-width:1;"/><text fill="#000000" font-family="sans-serif" font-size="14" lengthAdjust="spacing" textLength="193.7852" x="491.9" y="381.4209">isValid(candidate: Int): Boolean</text><ellipse cx="482.9" cy="393.937" fill="#84BE84" rx="3" ry="3" style="stroke:#038048;stroke-width:1;"/><text fill="#000000" font-family="sans-serif" font-size="14" lengthAdjust="spacing" textLength="59.1309" x="491.9" y="397.5195">next(): Int</text><ellipse cx="482.9" cy="410.0356" fill="#84BE84" rx="3" ry="3" style="stroke:#038048;stroke-width:1;"/><text fill="#000000" font-family="sans-serif" font-size="14" lengthAdjust="spacing" textLength="186.7988" x="491.9" y="413.6182">updateSolution(candidate: Int)</text></g><!--class EqualitySearchAlgorithm--><g class="entity" data-entity="EqualitySearchAlgorithm" data-source-line="17" data-uid="ent0003" id="entity_EqualitySearchAlgorithm"><rect fill="#F1F1F1" height="96.2959" rx="2.5" ry="2.5" style="stroke:#181818;stroke-width:0.5;" width="398.7432" x="7" y="23.1"/><ellipse cx="125.4736" cy="39.1" fill="#ADD1B2" rx="11" ry="11" style="stroke:#181818;stroke-width:1;"/><path d="M125.5205,45.7406 Q125.0049,45.7406 124.4893,45.6469 Q123.9893,45.5687 123.5361,45.3344 Q123.0986,45.1 122.7236,44.7406 Q122.3643,44.3812 122.1143,43.9281 Q121.8799,43.4594 121.7861,42.9594 Q121.708,42.4594 121.708,41.9437 L121.708,36.7562 Q121.708,36.2562 121.7861,35.7562 Q121.8799,35.2406 122.1143,34.7875 Q122.3643,34.3344 122.7236,33.975 Q123.0986,33.6 123.5361,33.3656 Q123.9893,33.1312 124.4893,33.0531 Q125.0049,32.975 125.5205,32.975 Q126.0049,32.975 126.458,33.0375 Q126.9268,33.1 127.3643,33.2875 Q127.8174,33.4594 128.1924,33.7562 Q128.5674,34.0531 128.8174,34.4594 Q129.083,34.85 129.208,35.3187 Q129.333,35.7719 129.333,36.2562 L129.333,36.3187 L127.3018,36.3187 L127.3018,36.2875 Q127.3018,35.9437 127.1768,35.6312 Q127.0518,35.3031 126.7861,35.0844 Q126.5205,34.85 126.1924,34.7719 Q125.8643,34.6937 125.5205,34.6937 Q125.1299,34.6937 124.7549,34.85 Q124.3799,34.9906 124.1455,35.3031 Q123.9111,35.6 123.8174,35.9906 Q123.7393,36.3656 123.7393,36.7562 L123.7393,41.9437 Q123.7393,42.3344 123.8174,42.725 Q123.9111,43.1 124.1455,43.4125 Q124.3799,43.7094 124.7549,43.8656 Q125.1299,44.0219 125.5205,44.0219 Q125.8643,44.0219 126.1924,43.9437 Q126.5205,43.85 126.7861,43.6312 Q127.0518,43.4125 127.1768,43.0844 Q127.3018,42.7562 127.3018,42.4281 L127.3018,42.3812 L129.333,42.3812 L129.333,42.4594 Q129.333,42.9281 129.208,43.3969 Q129.083,43.85 128.8174,44.2562 Q128.5674,44.6469 128.1924,44.9437 Q127.8174,45.2406 127.3643,45.4281 Q126.9268,45.6 126.458,45.6625 Q126.0049,45.7406 125.5205,45.7406 Z " fill="#000000"/><text fill="#000000" font-family="sans-serif" font-size="14" lengthAdjust="spacing" textLength="153.2959" x="145.9736" y="44.1825">EqualitySearchAlgorithm</text><line style="stroke:#181818;stroke-width:0.5;" x1="8" x2="404.7432" y1="55.1" y2="55.1"/><line style="stroke:#181818;stroke-width:0.5;" x1="8" x2="404.7432" y1="63.1" y2="63.1"/><text fill="#000000" font-family="sans-serif" font-size="14" lengthAdjust="spacing" textLength="372.7432" x="27" y="80.2318">EqualitySearchAlgorithm(target: Int, searchSpace: List&lt;Int&gt;)</text><ellipse cx="18" cy="92.7479" fill="#84BE84" rx="3" ry="3" style="stroke:#038048;stroke-width:1;"/><text fill="#000000" font-family="sans-serif" font-size="14" lengthAdjust="spacing" textLength="193.7852" x="27" y="96.3305">isValid(candidate: Int): Boolean</text><ellipse cx="18" cy="108.8466" fill="#84BE84" rx="3" ry="3" style="stroke:#038048;stroke-width:1;"/><text fill="#000000" font-family="sans-serif" font-size="14" lengthAdjust="spacing" textLength="186.7988" x="27" y="112.4291">updateSolution(candidate: Int)</text></g><!--class DivisibilitySearchAlgorithm--><g class="entity" data-entity="DivisibilitySearchAlgorithm" data-source-line="25" data-uid="ent0005" id="entity_DivisibilitySearchAlgorithm"><rect fill="#F1F1F1" height="96.2959" rx="2.5" ry="2.5" style="stroke:#181818;stroke-width:0.5;" width="410.3848" x="441.18" y="23.1"/><ellipse cx="559.6536" cy="39.1" fill="#ADD1B2" rx="11" ry="11" style="stroke:#181818;stroke-width:1;"/><path d="M559.7005,45.7406 Q559.1849,45.7406 558.6693,45.6469 Q558.1693,45.5687 557.7161,45.3344 Q557.2786,45.1 556.9036,44.7406 Q556.5443,44.3812 556.2943,43.9281 Q556.0599,43.4594 555.9661,42.9594 Q555.888,42.4594 555.888,41.9437 L555.888,36.7562 Q555.888,36.2562 555.9661,35.7562 Q556.0599,35.2406 556.2943,34.7875 Q556.5443,34.3344 556.9036,33.975 Q557.2786,33.6 557.7161,33.3656 Q558.1693,33.1312 558.6693,33.0531 Q559.1849,32.975 559.7005,32.975 Q560.1849,32.975 560.638,33.0375 Q561.1068,33.1 561.5443,33.2875 Q561.9974,33.4594 562.3724,33.7562 Q562.7474,34.0531 562.9974,34.4594 Q563.263,34.85 563.388,35.3187 Q563.513,35.7719 563.513,36.2562 L563.513,36.3187 L561.4818,36.3187 L561.4818,36.2875 Q561.4818,35.9437 561.3568,35.6312 Q561.2318,35.3031 560.9661,35.0844 Q560.7005,34.85 560.3724,34.7719 Q560.0443,34.6937 559.7005,34.6937 Q559.3099,34.6937 558.9349,34.85 Q558.5599,34.9906 558.3255,35.3031 Q558.0911,35.6 557.9974,35.9906 Q557.9193,36.3656 557.9193,36.7562 L557.9193,41.9437 Q557.9193,42.3344 557.9974,42.725 Q558.0911,43.1 558.3255,43.4125 Q558.5599,43.7094 558.9349,43.8656 Q559.3099,44.0219 559.7005,44.0219 Q560.0443,44.0219 560.3724,43.9437 Q560.7005,43.85 560.9661,43.6312 Q561.2318,43.4125 561.3568,43.0844 Q561.4818,42.7562 561.4818,42.4281 L561.4818,42.3812 L563.513,42.3812 L563.513,42.4594 Q563.513,42.9281 563.388,43.3969 Q563.263,43.85 562.9974,44.2562 Q562.7474,44.6469 562.3724,44.9437 Q561.9974,45.2406 561.5443,45.4281 Q561.1068,45.6 560.638,45.6625 Q560.1849,45.7406 559.7005,45.7406 Z " fill="#000000"/><text fill="#000000" font-family="sans-serif" font-size="14" lengthAdjust="spacing" textLength="164.9375" x="580.1536" y="44.1825">DivisibilitySearchAlgorithm</text><line style="stroke:#181818;stroke-width:0.5;" x1="442.18" x2="850.5648" y1="55.1" y2="55.1"/><line style="stroke:#181818;stroke-width:0.5;" x1="442.18" x2="850.5648" y1="63.1" y2="63.1"/><text fill="#000000" font-family="sans-serif" font-size="14" lengthAdjust="spacing" textLength="384.3848" x="461.18" y="80.2318">DivisibilitySearchAlgorithm(target: Int, searchSpace: List&lt;Int&gt;)</text><ellipse cx="452.18" cy="92.7479" fill="#84BE84" rx="3" ry="3" style="stroke:#038048;stroke-width:1;"/><text fill="#000000" font-family="sans-serif" font-size="14" lengthAdjust="spacing" textLength="193.7852" x="461.18" y="96.3305">isValid(candidate: Int): Boolean</text><ellipse cx="452.18" cy="108.8466" fill="#84BE84" rx="3" ry="3" style="stroke:#038048;stroke-width:1;"/><text fill="#000000" font-family="sans-serif" font-size="14" lengthAdjust="spacing" textLength="186.7988" x="461.18" y="112.4291">updateSolution(candidate: Int)</text></g><!--class MinimumSearchAlgorithm--><g class="entity" data-entity="MinimumSearchAlgorithm" data-source-line="33" data-uid="ent0007" id="entity_MinimumSearchAlgorithm"><rect fill="#F1F1F1" height="128.4932" rx="2.5" ry="2.5" style="stroke:#181818;stroke-width:0.5;" width="338.792" x="886.98" y="7"/><ellipse cx="971.9917" cy="23" fill="#ADD1B2" rx="11" ry="11" style="stroke:#181818;stroke-width:1;"/><path d="M972.0386,29.6406 Q971.523,29.6406 971.0073,29.5469 Q970.5073,29.4688 970.0542,29.2344 Q969.6167,29 969.2417,28.6406 Q968.8823,28.2813 968.6323,27.8281 Q968.398,27.3594 968.3042,26.8594 Q968.2261,26.3594 968.2261,25.8438 L968.2261,20.6563 Q968.2261,20.1563 968.3042,19.6563 Q968.398,19.1406 968.6323,18.6875 Q968.8823,18.2344 969.2417,17.875 Q969.6167,17.5 970.0542,17.2656 Q970.5073,17.0313 971.0073,16.9531 Q971.523,16.875 972.0386,16.875 Q972.523,16.875 972.9761,16.9375 Q973.4448,17 973.8823,17.1875 Q974.3355,17.3594 974.7105,17.6563 Q975.0855,17.9531 975.3355,18.3594 Q975.6011,18.75 975.7261,19.2188 Q975.8511,19.6719 975.8511,20.1563 L975.8511,20.2188 L973.8198,20.2188 L973.8198,20.1875 Q973.8198,19.8438 973.6948,19.5313 Q973.5698,19.2031 973.3042,18.9844 Q973.0386,18.75 972.7105,18.6719 Q972.3823,18.5938 972.0386,18.5938 Q971.648,18.5938 971.273,18.75 Q970.898,18.8906 970.6636,19.2031 Q970.4292,19.5 970.3355,19.8906 Q970.2573,20.2656 970.2573,20.6563 L970.2573,25.8438 Q970.2573,26.2344 970.3355,26.625 Q970.4292,27 970.6636,27.3125 Q970.898,27.6094 971.273,27.7656 Q971.648,27.9219 972.0386,27.9219 Q972.3823,27.9219 972.7105,27.8438 Q973.0386,27.75 973.3042,27.5313 Q973.5698,27.3125 973.6948,26.9844 Q973.8198,26.6563 973.8198,26.3281 L973.8198,26.2813 L975.8511,26.2813 L975.8511,26.3594 Q975.8511,26.8281 975.7261,27.2969 Q975.6011,27.75 975.3355,28.1563 Q975.0855,28.5469 974.7105,28.8438 Q974.3355,29.1406 973.8823,29.3281 Q973.4448,29.5 972.9761,29.5625 Q972.523,29.6406 972.0386,29.6406 Z " fill="#000000"/><text fill="#000000" font-family="sans-serif" font-size="14" lengthAdjust="spacing" textLength="160.2686" x="992.4917" y="28.0825">MinimumSearchAlgorithm</text><line style="stroke:#181818;stroke-width:0.5;" x1="887.98" x2="1224.772" y1="39" y2="39"/><polygon fill="none" points="897.98,47.5493,901.98,51.5493,897.98,55.5493,893.98,51.5493" style="stroke:#B38D22;stroke-width:1;"/><text fill="#000000" font-family="sans-serif" font-size="14" lengthAdjust="spacing" textLength="101.165" x="906.98" y="56.1318">currentIndex: Int</text><polygon fill="none" points="897.98,63.6479,901.98,67.6479,897.98,71.6479,893.98,67.6479" style="stroke:#B38D22;stroke-width:1;"/><text fill="#000000" font-family="sans-serif" font-size="14" lengthAdjust="spacing" textLength="116.7373" x="906.98" y="72.2305">solutions: List&lt;Int&gt;</text><line style="stroke:#181818;stroke-width:0.5;" x1="887.98" x2="1224.772" y1="79.1973" y2="79.1973"/><text fill="#000000" font-family="sans-serif" font-size="14" lengthAdjust="spacing" textLength="312.792" x="906.98" y="96.3291">MinimumSearchAlgorithm(searchSpace: List&lt;Int&gt;)</text><ellipse cx="897.98" cy="108.8452" fill="#84BE84" rx="3" ry="3" style="stroke:#038048;stroke-width:1;"/><text fill="#000000" font-family="sans-serif" font-size="14" lengthAdjust="spacing" textLength="193.7852" x="906.98" y="112.4277">isValid(candidate: Int): Boolean</text><ellipse cx="897.98" cy="124.9438" fill="#84BE84" rx="3" ry="3" style="stroke:#038048;stroke-width:1;"/><text fill="#000000" font-family="sans-serif" font-size="14" lengthAdjust="spacing" textLength="186.7988" x="906.98" y="128.5264">updateSolution(candidate: Int)</text></g><!--link EqualitySearchAlgorithm to SearchAlgorithm--><g class="link" data-entity-1="EqualitySearchAlgorithm" data-entity-2="SearchAlgorithm" data-source-line="23" data-uid="lnk4" id="link_EqualitySearchAlgorithm_SearchAlgorithm"><path codeLine="23" d="M295.41,119.76 C346.01,146.76 395.259,173.047 455.649,205.267" fill="none" id="EqualitySearchAlgorithm-to-SearchAlgorithm" style="stroke:#181818;stroke-width:1;"/><polygon fill="none" points="471.53,213.74,458.4733,199.9733,452.8246,210.5606,471.53,213.74" style="stroke:#181818;stroke-width:1;"/></g><!--link DivisibilitySearchAlgorithm to SearchAlgorithm--><g class="link" data-entity-1="DivisibilitySearchAlgorithm" data-entity-2="SearchAlgorithm" data-source-line="31" data-uid="lnk6" id="link_DivisibilitySearchAlgorithm_SearchAlgorithm"><path codeLine="31" d="M646.37,119.76 C646.37,141.6 646.37,150.52 646.37,177.06" fill="none" id="DivisibilitySearchAlgorithm-to-SearchAlgorithm" style="stroke:#181818;stroke-width:1;"/><polygon fill="none" points="646.37,195.06,652.37,177.06,640.37,177.06,646.37,195.06" style="stroke:#181818;stroke-width:1;"/></g><!--link MinimumSearchAlgorithm to SearchAlgorithm--><g class="link" data-entity-1="MinimumSearchAlgorithm" data-entity-2="SearchAlgorithm" data-source-line="41" data-uid="lnk8" id="link_MinimumSearchAlgorithm_SearchAlgorithm"><path codeLine="41" d="M945.15,135.94 C906.97,157.8 878.881,173.8967 836.891,197.9367" fill="none" id="MinimumSearchAlgorithm-to-SearchAlgorithm" style="stroke:#181818;stroke-width:1;"/><polygon fill="none" points="821.27,206.88,839.8722,203.1437,833.9099,192.7297,821.27,206.88" style="stroke:#181818;stroke-width:1;"/></g><!--SRC=[nLFHIiCm57tFLrpmfMFk1uOC51K6srF1zpIzTXVQP2OtCb7_tJQhKzga3X7Cupdt9ESSScNXs4h5e6hf7EGehTfTrvMnnBj6l0fepm3DMDeAUGbhpPVW0fdlfS8bRCZnLGklPa5u0SfRYvhNkiH34FHuNFL9cjep6Ut6rBUd0pA7mdh6UsCLvhqicmrrStWawxWZleJaZhb8LnrnOqoDKf_81rbJcIcfIoebOr2EnZGU1hVwVJTziZBGYtSXnB7gkoVVli0lySeJxFdLdntXHyC9Ax1OlAr67wOFTqlFvAYWTC29YVy8EM5dCkYMD3M-YMUCazalDoQr57zNGjnl8ly7]--></g></svg>