<svg xmlns="http://www.w3.org/2000/svg" xmlns:xlink="http://www.w3.org/1999/xlink" contentStyleType="text/css" data-diagram-type="CLASS" height="544px" preserveAspectRatio="none" style="width:1904px;height:544px;background:#FFFFFF;" version="1.1" viewBox="0 0 1904 544" width="1904px" zoomAndPan="magnify"><defs/><g><!--class Fraction--><g class="entity" data-entity="Fraction" data-source-line="1" data-uid="ent0002" id="entity_Fraction"><rect fill="#F1F1F1" height="162.4075" rx="2.5" ry="2.5" style="stroke:#181818;stroke-width:0.5;" width="224.0012" x="964.5" y="375"/><ellipse cx="1045.5457" cy="391" fill="#ADD1B2" rx="11" ry="11" style="stroke:#181818;stroke-width:1;"/><path d="M1048.5145,396.6406 Q1047.9363,396.9375 1047.2957,397.0781 Q1046.6551,397.2344 1045.952,397.2344 Q1043.452,397.2344 1042.1238,395.5938 Q1040.8113,393.9375 1040.8113,390.8125 Q1040.8113,387.6875 1042.1238,386.0313 Q1043.452,384.375 1045.952,384.375 Q1046.6551,384.375 1047.2957,384.5313 Q1047.952,384.6875 1048.5145,384.9844 L1048.5145,387.7031 Q1047.8895,387.125 1047.2957,386.8594 Q1046.702,386.5781 1046.077,386.5781 Q1044.7332,386.5781 1044.0457,387.6563 Q1043.3582,388.7188 1043.3582,390.8125 Q1043.3582,392.9063 1044.0457,393.9844 Q1044.7332,395.0469 1046.077,395.0469 Q1046.702,395.0469 1047.2957,394.7813 Q1047.8895,394.5 1048.5145,393.9219 L1048.5145,396.6406 Z " fill="#000000"/><text fill="#000000" font-family="sans-serif" font-size="14" lengthAdjust="spacing" textLength="53.4098" x="1066.0457" y="396.432">Fraction</text><line style="stroke:#181818;stroke-width:0.5;" x1="965.5" x2="1187.5012" y1="407" y2="407"/><rect fill="none" height="6" style="stroke:#C82930;stroke-width:1;" width="6" x="972.5" y="419.034"/><text fill="#000000" font-family="sans-serif" font-size="14" lengthAdjust="spacing" textLength="72.5617" x="984.5" y="425.9659">denom: Int</text><rect fill="none" height="6" style="stroke:#C82930;stroke-width:1;" width="6" x="972.5" y="438.1019"/><text fill="#000000" font-family="sans-serif" font-size="14" lengthAdjust="spacing" textLength="56.2378" x="984.5" y="445.0339">num: Int</text><line style="stroke:#181818;stroke-width:0.5;" x1="965.5" x2="1187.5012" y1="453.1358" y2="453.1358"/><text fill="#000000" font-family="sans-serif" font-size="14" lengthAdjust="spacing" textLength="198.0012" x="984.5" y="472.1018">Fraction(num: Int, denom: Int)</text><ellipse cx="975.5" cy="487.2377" fill="#84BE84" rx="3" ry="3" style="stroke:#038048;stroke-width:1;"/><text fill="#000000" font-family="sans-serif" font-size="14" lengthAdjust="spacing" textLength="80.9617" x="984.5" y="491.1697">denom(): Int</text><ellipse cx="975.5" cy="506.3056" fill="#84BE84" rx="3" ry="3" style="stroke:#038048;stroke-width:1;"/><text fill="#000000" font-family="sans-serif" font-size="14" lengthAdjust="spacing" textLength="64.6377" x="984.5" y="510.2376">num(): Int</text><ellipse cx="975.5" cy="525.3735" fill="#84BE84" rx="3" ry="3" style="stroke:#038048;stroke-width:1;"/><text fill="#000000" font-family="sans-serif" font-size="14" lengthAdjust="spacing" textLength="108.1076" x="984.5" y="529.3055">toString(): String</text></g><!--class Calculation--><g class="entity" data-entity="Calculation" data-source-line="12" data-uid="ent0003" id="entity_Calculation"><rect fill="#F1F1F1" height="162.4075" rx="2.5" ry="2.5" style="stroke:#181818;stroke-width:0.5;" width="435.4705" x="7" y="7"/><ellipse cx="184.0154" cy="23" fill="#ADD1B2" rx="11" ry="11" style="stroke:#181818;stroke-width:1;"/><path d="M186.9841,28.6406 Q186.406,28.9375 185.7654,29.0781 Q185.1248,29.2344 184.4216,29.2344 Q181.9216,29.2344 180.5935,27.5938 Q179.281,25.9375 179.281,22.8125 Q179.281,19.6875 180.5935,18.0313 Q181.9216,16.375 184.4216,16.375 Q185.1248,16.375 185.7654,16.5313 Q186.4216,16.6875 186.9841,16.9844 L186.9841,19.7031 Q186.3591,19.125 185.7654,18.8594 Q185.1716,18.5781 184.5466,18.5781 Q183.2029,18.5781 182.5154,19.6563 Q181.8279,20.7188 181.8279,22.8125 Q181.8279,24.9063 182.5154,25.9844 Q183.2029,27.0469 184.5466,27.0469 Q185.1716,27.0469 185.7654,26.7813 Q186.3591,26.5 186.9841,25.9219 L186.9841,28.6406 Z " fill="#000000"/><text fill="#000000" font-family="sans-serif" font-size="14" lengthAdjust="spacing" textLength="72.9397" x="204.5154" y="28.432">Calculation</text><line style="stroke:#181818;stroke-width:0.5;" x1="8" x2="441.4705" y1="39" y2="39"/><rect fill="none" height="6" style="stroke:#C82930;stroke-width:1;" width="6" x="15" y="51.034"/><text fill="#000000" font-family="sans-serif" font-size="14" lengthAdjust="spacing" textLength="108.6956" x="27" y="57.9659">answer: Fraction</text><rect fill="none" height="6" style="stroke:#C82930;stroke-width:1;" width="6" x="15" y="70.1019"/><text fill="#000000" font-family="sans-serif" font-size="14" lengthAdjust="spacing" textLength="82.1797" x="27" y="77.0339">left: Fraction</text><rect fill="none" height="6" style="stroke:#C82930;stroke-width:1;" width="6" x="15" y="89.1698"/><text fill="#000000" font-family="sans-serif" font-size="14" lengthAdjust="spacing" textLength="138.6555" x="27" y="96.1018">operation: Operation</text><rect fill="none" height="6" style="stroke:#C82930;stroke-width:1;" width="6" x="15" y="108.2377"/><text fill="#000000" font-family="sans-serif" font-size="14" lengthAdjust="spacing" textLength="92.5117" x="27" y="115.1697">right: Fraction</text><line style="stroke:#181818;stroke-width:0.5;" x1="8" x2="441.4705" y1="123.2717" y2="123.2717"/><text fill="#000000" font-family="sans-serif" font-size="14" lengthAdjust="spacing" textLength="409.4705" x="27" y="142.2376">Calculation(left: Fraction, right: Fraction, operation: Operation)</text><ellipse cx="18" cy="157.3735" fill="#84BE84" rx="3" ry="3" style="stroke:#038048;stroke-width:1;"/><text fill="#000000" font-family="sans-serif" font-size="14" lengthAdjust="spacing" textLength="108.1076" x="27" y="161.3055">toString(): String</text></g><!--class Addition--><g class="entity" data-entity="Addition" data-source-line="23" data-uid="ent0004" id="entity_Addition"><rect fill="#F1F1F1" height="105.2038" rx="2.5" ry="2.5" style="stroke:#181818;stroke-width:0.5;" width="328.8049" x="477" y="35.5"/><ellipse cx="609.3695" cy="51.5" fill="#ADD1B2" rx="11" ry="11" style="stroke:#181818;stroke-width:1;"/><path d="M612.3383,57.1406 Q611.7602,57.4375 611.1195,57.5781 Q610.4789,57.7344 609.7758,57.7344 Q607.2758,57.7344 605.9477,56.0938 Q604.6352,54.4375 604.6352,51.3125 Q604.6352,48.1875 605.9477,46.5313 Q607.2758,44.875 609.7758,44.875 Q610.4789,44.875 611.1195,45.0313 Q611.7758,45.1875 612.3383,45.4844 L612.3383,48.2031 Q611.7133,47.625 611.1195,47.3594 Q610.5258,47.0781 609.9008,47.0781 Q608.557,47.0781 607.8695,48.1563 Q607.182,49.2188 607.182,51.3125 Q607.182,53.4063 607.8695,54.4844 Q608.557,55.5469 609.9008,55.5469 Q610.5258,55.5469 611.1195,55.2813 Q611.7133,55 612.3383,54.4219 L612.3383,57.1406 Z " fill="#000000"/><text fill="#000000" font-family="sans-serif" font-size="14" lengthAdjust="spacing" textLength="55.5658" x="629.8695" y="56.932">Addition</text><line style="stroke:#181818;stroke-width:0.5;" x1="478" x2="804.8049" y1="67.5" y2="67.5"/><line style="stroke:#181818;stroke-width:0.5;" x1="478" x2="804.8049" y1="75.5" y2="75.5"/><text fill="#000000" font-family="sans-serif" font-size="14" lengthAdjust="spacing" textLength="63.9658" x="497" y="94.4659">Addition()</text><ellipse cx="488" cy="109.6019" fill="#84BE84" rx="3" ry="3" style="stroke:#038048;stroke-width:1;"/><text fill="#000000" font-family="sans-serif" font-size="14" lengthAdjust="spacing" textLength="302.8049" x="497" y="113.5339">execute(left: Fraction, right: Fraction): Fraction</text><ellipse cx="488" cy="128.6698" fill="#84BE84" rx="3" ry="3" style="stroke:#038048;stroke-width:1;"/><text fill="#000000" font-family="sans-serif" font-size="14" lengthAdjust="spacing" textLength="108.1076" x="497" y="132.6018">toString(): String</text></g><!--class Operation--><g class="entity" data-entity="Operation" data-source-line="29" data-uid="ent0005" id="entity_Operation"><rect fill="#F1F1F1" height="86.1358" rx="2.5" ry="2.5" style="stroke:#181818;stroke-width:0.5;" width="328.8049" x="804" y="229"/><ellipse cx="932.6736" cy="245" fill="#B4A7E5" rx="11" ry="11" style="stroke:#181818;stroke-width:1;"/><path d="M928.5954,240.7656 L928.5954,238.6094 L935.9861,238.6094 L935.9861,240.7656 L933.5173,240.7656 L933.5173,248.8438 L935.9861,248.8438 L935.9861,251 L928.5954,251 L928.5954,248.8438 L931.0642,248.8438 L931.0642,240.7656 L928.5954,240.7656 Z " fill="#000000"/><text fill="#000000" font-family="sans-serif" font-size="14" font-style="italic" lengthAdjust="spacing" textLength="62.9578" x="953.1736" y="250.432">Operation</text><line style="stroke:#181818;stroke-width:0.5;" x1="805" x2="1131.8049" y1="261" y2="261"/><line style="stroke:#181818;stroke-width:0.5;" x1="805" x2="1131.8049" y1="269" y2="269"/><ellipse cx="815" cy="284.034" fill="#84BE84" rx="3" ry="3" style="stroke:#038048;stroke-width:1;"/><text fill="#000000" font-family="sans-serif" font-size="14" lengthAdjust="spacing" textLength="302.8049" x="824" y="287.9659">execute(left: Fraction, right: Fraction): Fraction</text><ellipse cx="815" cy="303.1019" fill="#84BE84" rx="3" ry="3" style="stroke:#038048;stroke-width:1;"/><text fill="#000000" font-family="sans-serif" font-size="14" lengthAdjust="spacing" textLength="108.1076" x="824" y="307.0339">toString(): String</text></g><!--class Subtraction--><g class="entity" data-entity="Subtraction" data-source-line="31" data-uid="ent0007" id="entity_Subtraction"><rect fill="#F1F1F1" height="105.2038" rx="2.5" ry="2.5" style="stroke:#181818;stroke-width:0.5;" width="328.8049" x="841" y="35.5"/><ellipse cx="963.0796" cy="51.5" fill="#ADD1B2" rx="11" ry="11" style="stroke:#181818;stroke-width:1;"/><path d="M966.0483,57.1406 Q965.4702,57.4375 964.8296,57.5781 Q964.1889,57.7344 963.4858,57.7344 Q960.9858,57.7344 959.6577,56.0938 Q958.3452,54.4375 958.3452,51.3125 Q958.3452,48.1875 959.6577,46.5313 Q960.9858,44.875 963.4858,44.875 Q964.1889,44.875 964.8296,45.0313 Q965.4858,45.1875 966.0483,45.4844 L966.0483,48.2031 Q965.4233,47.625 964.8296,47.3594 Q964.2358,47.0781 963.6108,47.0781 Q962.2671,47.0781 961.5796,48.1563 Q960.8921,49.2188 960.8921,51.3125 Q960.8921,53.4063 961.5796,54.4844 Q962.2671,55.5469 963.6108,55.5469 Q964.2358,55.5469 964.8296,55.2813 Q965.4233,55 966.0483,54.4219 L966.0483,57.1406 Z " fill="#000000"/><text fill="#000000" font-family="sans-serif" font-size="14" lengthAdjust="spacing" textLength="76.1457" x="983.5796" y="56.932">Subtraction</text><line style="stroke:#181818;stroke-width:0.5;" x1="842" x2="1168.8049" y1="67.5" y2="67.5"/><line style="stroke:#181818;stroke-width:0.5;" x1="842" x2="1168.8049" y1="75.5" y2="75.5"/><text fill="#000000" font-family="sans-serif" font-size="14" lengthAdjust="spacing" textLength="84.5457" x="861" y="94.4659">Subtraction()</text><ellipse cx="852" cy="109.6019" fill="#84BE84" rx="3" ry="3" style="stroke:#038048;stroke-width:1;"/><text fill="#000000" font-family="sans-serif" font-size="14" lengthAdjust="spacing" textLength="302.8049" x="861" y="113.5339">execute(left: Fraction, right: Fraction): Fraction</text><ellipse cx="852" cy="128.6698" fill="#84BE84" rx="3" ry="3" style="stroke:#038048;stroke-width:1;"/><text fill="#000000" font-family="sans-serif" font-size="14" lengthAdjust="spacing" textLength="108.1076" x="861" y="132.6018">toString(): String</text></g><!--class Multiplication--><g class="entity" data-entity="Multiplication" data-source-line="39" data-uid="ent0009" id="entity_Multiplication"><rect fill="#F1F1F1" height="105.2038" rx="2.5" ry="2.5" style="stroke:#181818;stroke-width:0.5;" width="328.8049" x="1205" y="35.5"/><ellipse cx="1320.2406" cy="51.5" fill="#ADD1B2" rx="11" ry="11" style="stroke:#181818;stroke-width:1;"/><path d="M1323.2094,57.1406 Q1322.6312,57.4375 1321.9906,57.5781 Q1321.35,57.7344 1320.6469,57.7344 Q1318.1469,57.7344 1316.8187,56.0938 Q1315.5062,54.4375 1315.5062,51.3125 Q1315.5062,48.1875 1316.8187,46.5313 Q1318.1469,44.875 1320.6469,44.875 Q1321.35,44.875 1321.9906,45.0313 Q1322.6469,45.1875 1323.2094,45.4844 L1323.2094,48.2031 Q1322.5844,47.625 1321.9906,47.3594 Q1321.3969,47.0781 1320.7719,47.0781 Q1319.4281,47.0781 1318.7406,48.1563 Q1318.0531,49.2188 1318.0531,51.3125 Q1318.0531,53.4063 1318.7406,54.4844 Q1319.4281,55.5469 1320.7719,55.5469 Q1321.3969,55.5469 1321.9906,55.2813 Q1322.5844,55 1323.2094,54.4219 L1323.2094,57.1406 Z " fill="#000000"/><text fill="#000000" font-family="sans-serif" font-size="14" lengthAdjust="spacing" textLength="89.8237" x="1340.7406" y="56.932">Multiplication</text><line style="stroke:#181818;stroke-width:0.5;" x1="1206" x2="1532.8049" y1="67.5" y2="67.5"/><line style="stroke:#181818;stroke-width:0.5;" x1="1206" x2="1532.8049" y1="75.5" y2="75.5"/><text fill="#000000" font-family="sans-serif" font-size="14" lengthAdjust="spacing" textLength="98.2236" x="1225" y="94.4659">Multiplication()</text><ellipse cx="1216" cy="109.6019" fill="#84BE84" rx="3" ry="3" style="stroke:#038048;stroke-width:1;"/><text fill="#000000" font-family="sans-serif" font-size="14" lengthAdjust="spacing" textLength="302.8049" x="1225" y="113.5339">execute(left: Fraction, right: Fraction): Fraction</text><ellipse cx="1216" cy="128.6698" fill="#84BE84" rx="3" ry="3" style="stroke:#038048;stroke-width:1;"/><text fill="#000000" font-family="sans-serif" font-size="14" lengthAdjust="spacing" textLength="108.1076" x="1225" y="132.6018">toString(): String</text></g><!--class Division--><g class="entity" data-entity="Division" data-source-line="47" data-uid="ent0011" id="entity_Division"><rect fill="#F1F1F1" height="105.2038" rx="2.5" ry="2.5" style="stroke:#181818;stroke-width:0.5;" width="328.8049" x="1569" y="35.5"/><ellipse cx="1703.1545" cy="51.5" fill="#ADD1B2" rx="11" ry="11" style="stroke:#181818;stroke-width:1;"/><path d="M1706.1233,57.1406 Q1705.5452,57.4375 1704.9045,57.5781 Q1704.2639,57.7344 1703.5608,57.7344 Q1701.0608,57.7344 1699.7327,56.0938 Q1698.4202,54.4375 1698.4202,51.3125 Q1698.4202,48.1875 1699.7327,46.5313 Q1701.0608,44.875 1703.5608,44.875 Q1704.2639,44.875 1704.9045,45.0313 Q1705.5608,45.1875 1706.1233,45.4844 L1706.1233,48.2031 Q1705.4983,47.625 1704.9045,47.3594 Q1704.3108,47.0781 1703.6858,47.0781 Q1702.342,47.0781 1701.6545,48.1563 Q1700.967,49.2188 1700.967,51.3125 Q1700.967,53.4063 1701.6545,54.4844 Q1702.342,55.5469 1703.6858,55.5469 Q1704.3108,55.5469 1704.9045,55.2813 Q1705.4983,55 1706.1233,54.4219 L1706.1233,57.1406 Z " fill="#000000"/><text fill="#000000" font-family="sans-serif" font-size="14" lengthAdjust="spacing" textLength="51.9958" x="1723.6545" y="56.932">Division</text><line style="stroke:#181818;stroke-width:0.5;" x1="1570" x2="1896.8049" y1="67.5" y2="67.5"/><line style="stroke:#181818;stroke-width:0.5;" x1="1570" x2="1896.8049" y1="75.5" y2="75.5"/><text fill="#000000" font-family="sans-serif" font-size="14" lengthAdjust="spacing" textLength="60.3958" x="1589" y="94.4659">Division()</text><ellipse cx="1580" cy="109.6019" fill="#84BE84" rx="3" ry="3" style="stroke:#038048;stroke-width:1;"/><text fill="#000000" font-family="sans-serif" font-size="14" lengthAdjust="spacing" textLength="302.8049" x="1589" y="113.5339">execute(left: Fraction, right: Fraction): Fraction</text><ellipse cx="1580" cy="128.6698" fill="#84BE84" rx="3" ry="3" style="stroke:#038048;stroke-width:1;"/><text fill="#000000" font-family="sans-serif" font-size="14" lengthAdjust="spacing" textLength="108.1076" x="1589" y="132.6018">toString(): String</text></g><!--link Addition to Operation--><g class="link" data-entity-1="Addition" data-entity-2="Operation" data-source-line="29" data-uid="lnk6" id="link_Addition_Operation"><path codeLine="29" d="M734.33,140.67 C784.46,168.57 829.8418,193.8266 877.0618,220.1066" fill="none" id="Addition-to-Operation" style="stroke:#181818;stroke-width:1;stroke-dasharray:7,7;"/><polygon fill="none" points="892.79,228.86,879.9796,214.8638,874.144,225.3493,892.79,228.86" style="stroke:#181818;stroke-width:1;"/></g><!--link Subtraction to Operation--><g class="link" data-entity-1="Subtraction" data-entity-2="Operation" data-source-line="37" data-uid="lnk8" id="link_Subtraction_Operation"><path codeLine="37" d="M995,140.67 C989.33,168.52 986.0269,184.811 980.6869,211.071" fill="none" id="Subtraction-to-Operation" style="stroke:#181818;stroke-width:1;stroke-dasharray:7,7;"/><polygon fill="none" points="977.1,228.71,986.5666,212.2666,974.8072,209.8754,977.1,228.71" style="stroke:#181818;stroke-width:1;"/></g><!--link Multiplication to Operation--><g class="link" data-entity-1="Multiplication" data-entity-2="Operation" data-source-line="45" data-uid="lnk10" id="link_Multiplication_Operation"><path codeLine="45" d="M1255.93,140.55 C1194.33,168.5 1135.5511,195.1816 1077.5311,221.5116" fill="none" id="Multiplication-to-Operation" style="stroke:#181818;stroke-width:1;stroke-dasharray:7,7;"/><polygon fill="none" points="1061.14,228.95,1080.0106,226.9753,1075.0517,216.0478,1061.14,228.95" style="stroke:#181818;stroke-width:1;"/></g><!--link Division to Operation--><g class="link" data-entity-1="Division" data-entity-2="Operation" data-source-line="53" data-uid="lnk12" id="link_Division_Operation"><path codeLine="53" d="M1627.82,140.56 C1603.19,151.14 1576.77,161.36 1551.5,169 C1413.31,210.79 1269.0463,235.0827 1150.8963,250.6227" fill="none" id="Division-to-Operation" style="stroke:#181818;stroke-width:1;stroke-dasharray:7,7;"/><polygon fill="none" points="1133.05,252.97,1151.6787,256.5715,1150.1139,244.674,1133.05,252.97" style="stroke:#181818;stroke-width:1;"/></g><!--link Calculation to Fraction--><g class="link" data-entity-1="Calculation" data-entity-2="Fraction" data-source-line="62" data-uid="lnk13" id="link_Calculation_Fraction"><path codeLine="62" d="M388.09,169.03 C481.25,213.69 600.56,269.34 708.5,315 C793.33,350.89 885.1872,385.7131 958.4972,412.6131" fill="none" id="Calculation-to-Fraction" style="stroke:#181818;stroke-width:1;stroke-dasharray:7,7;"/><polygon fill="#181818" points="964.13,414.68,957.0588,407.8245,959.436,412.9576,954.3029,415.3349,964.13,414.68" style="stroke:#181818;stroke-width:1;"/></g><!--link Calculation to Operation--><g class="link" data-entity-1="Calculation" data-entity-2="Operation" data-source-line="63" data-uid="lnk14" id="link_Calculation_Operation"><path codeLine="63" d="M442.17,164.19 C447.99,165.85 453.78,167.46 459.5,169 C573.29,199.63 697.715,224.5166 798.005,242.5766" fill="none" id="Calculation-to-Operation" style="stroke:#181818;stroke-width:1;stroke-dasharray:7,7;"/><polygon fill="#181818" points="803.91,243.64,795.7614,238.1083,798.9892,242.7539,794.3436,245.9816,803.91,243.64" style="stroke:#181818;stroke-width:1;"/></g><!--link Addition to Fraction--><g class="link" data-entity-1="Addition" data-entity-2="Fraction" data-source-line="64" data-uid="lnk15" id="link_Addition_Fraction"><path codeLine="64" d="M664.28,140.58 C688.52,190.57 731.02,265.84 786.5,315 C837.86,360.51 901.0807,392.3377 958.7607,415.4577" fill="none" id="Addition-to-Fraction" style="stroke:#181818;stroke-width:1;stroke-dasharray:7,7;"/><polygon fill="#181818" points="964.33,417.69,957.4643,410.6287,959.6889,415.8297,954.4879,418.0543,964.33,417.69" style="stroke:#181818;stroke-width:1;"/></g><!--link Subtraction to Fraction--><g class="link" data-entity-1="Subtraction" data-entity-2="Fraction" data-source-line="65" data-uid="lnk16" id="link_Subtraction_Fraction"><path codeLine="65" d="M1080.43,140.72 C1107.88,164.14 1135.8,194.37 1150.5,229 C1170.59,276.31 1156.3938,325.7344 1133.6838,369.4944" fill="none" id="Subtraction-to-Fraction" style="stroke:#181818;stroke-width:1;stroke-dasharray:7,7;"/><polygon fill="#181818" points="1130.92,374.82,1138.616,368.6742,1133.2232,370.382,1131.5153,364.9892,1130.92,374.82" style="stroke:#181818;stroke-width:1;"/></g><!--link Multiplication to Fraction--><g class="link" data-entity-1="Multiplication" data-entity-2="Fraction" data-source-line="66" data-uid="lnk17" id="link_Multiplication_Fraction"><path codeLine="66" d="M1328.14,140.66 C1279.4,201.55 1201.5795,298.7559 1144.5695,369.9759" fill="none" id="Multiplication-to-Fraction" style="stroke:#181818;stroke-width:1;stroke-dasharray:7,7;"/><polygon fill="#181818" points="1140.82,374.66,1149.567,370.1335,1143.9446,370.7566,1143.3216,365.1341,1140.82,374.66" style="stroke:#181818;stroke-width:1;"/></g><!--link Division to Fraction--><g class="link" data-entity-1="Division" data-entity-2="Fraction" data-source-line="67" data-uid="lnk18" id="link_Division_Fraction"><path codeLine="67" d="M1640.76,140.66 C1521.91,206.87 1321.2914,318.6298 1193.8014,389.6598" fill="none" id="Division-to-Fraction" style="stroke:#181818;stroke-width:1;stroke-dasharray:7,7;"/><polygon fill="#181818" points="1188.56,392.58,1198.3689,391.694,1192.9278,390.1465,1194.4753,384.7054,1188.56,392.58" style="stroke:#181818;stroke-width:1;"/></g><!--link Operation to Fraction--><g class="link" data-entity-1="Operation" data-entity-2="Fraction" data-source-line="68" data-uid="lnk19" id="link_Operation_Fraction"><path codeLine="68" d="M993.55,315.21 C1004.08,332.96 1013.6393,349.0594 1025.8093,369.5794" fill="none" id="Operation-to-Fraction" style="stroke:#181818;stroke-width:1;stroke-dasharray:7,7;"/><polygon fill="#181818" points="1028.87,374.74,1027.7194,364.9586,1026.3194,370.4395,1020.8386,369.0395,1028.87,374.74" style="stroke:#181818;stroke-width:1;"/></g><!--SRC=[jPFDRi8m383lUOeSM_7p03qWJKn87107dY2aXbaAAKeTG8Az-xeseGuCZKjxYZ-xzfUarKRLjLmufGahAwv2DayCC-iFXLnQ6iiIRDMjyxPamaW0iRWDHrq-opbgAb90rOOSslqlxLRYMmYXMwcvCjeRnRmOoGpigBYRZgN3_LS2gYEujhIGwxYCxihMPt1zTS1fpm3_wXDI3pFVsTH7MIBRKGopFBmC5z2UuB_jvUzDZUtbT7gRCVqWi_5RIc-UaO6Ks8GNLYjl28y6DR_w50xabWvveVU99wnxiHWEf1JRFycW9N0xfO71wo0AGh3_hl6OzMyz9deLzkMn-lJoMUBfv5cE7G6Zzr49_W40]--></g></svg>