<svg xmlns="http://www.w3.org/2000/svg" xmlns:xlink="http://www.w3.org/1999/xlink" contentStyleType="text/css" data-diagram-type="CLASS" height="659px" preserveAspectRatio="none" style="width:1021px;height:659px;background:#FFFFFF;" version="1.1" viewBox="0 0 1021 659" width="1021px" zoomAndPan="magnify"><defs/><g><!--class Collection--><g class="entity" data-entity="Collection" data-source-line="1" data-uid="ent0002" id="entity_Collection"><rect fill="#F1F1F1" height="64.0986" rx="2.5" ry="2.5" style="stroke:#181818;stroke-width:0.5;" width="182.3926" x="499.17" y="448.38"/><ellipse cx="555.3785" cy="464.38" fill="#B4A7E5" rx="11" ry="11" style="stroke:#181818;stroke-width:1;"/><path d="M552.5347,470.88 L552.5347,469.1612 L553.9722,469.1612 L553.9722,460.0987 L552.5347,460.0987 L552.5347,458.38 L557.4254,458.38 L557.4254,460.0987 L555.9879,460.0987 L555.9879,469.1612 L557.4254,469.1612 L557.4254,470.88 L552.5347,470.88 Z " fill="#000000"/><text fill="#000000" font-family="sans-serif" font-size="14" font-style="italic" lengthAdjust="spacing" textLength="61.4756" x="575.8785" y="469.4625">Collection</text><line style="stroke:#181818;stroke-width:0.5;" x1="500.17" x2="680.5626" y1="480.38" y2="480.38"/><line style="stroke:#181818;stroke-width:0.5;" x1="500.17" x2="680.5626" y1="488.38" y2="488.38"/><ellipse cx="510.17" cy="501.9293" fill="#84BE84" rx="3" ry="3" style="stroke:#038048;stroke-width:1;"/><text fill="#000000" font-family="sans-serif" font-size="14" lengthAdjust="spacing" textLength="156.3926" x="519.17" y="505.5118">newIterator(): Iterator&lt;T&gt;</text></g><!--class Iterator--><g class="entity" data-entity="Iterator" data-source-line="7" data-uid="ent0003" id="entity_Iterator"><rect fill="#F1F1F1" height="80.1973" rx="2.5" ry="2.5" style="stroke:#181818;stroke-width:0.5;" width="145.8408" x="517.45" y="572.48"/><ellipse cx="563.9446" cy="588.48" fill="#B4A7E5" rx="11" ry="11" style="stroke:#181818;stroke-width:1;"/><path d="M561.1009,594.98 L561.1009,593.2612 L562.5384,593.2612 L562.5384,584.1987 L561.1009,584.1987 L561.1009,582.48 L565.9915,582.48 L565.9915,584.1987 L564.554,584.1987 L564.554,593.2612 L565.9915,593.2612 L565.9915,594.98 L561.1009,594.98 Z " fill="#000000"/><text fill="#000000" font-family="sans-serif" font-size="14" font-style="italic" lengthAdjust="spacing" textLength="44.3516" x="584.4446" y="593.5625">Iterator</text><line style="stroke:#181818;stroke-width:0.5;" x1="518.45" x2="662.2908" y1="604.48" y2="604.48"/><line style="stroke:#181818;stroke-width:0.5;" x1="518.45" x2="662.2908" y1="612.48" y2="612.48"/><ellipse cx="528.45" cy="626.0293" fill="#84BE84" rx="3" ry="3" style="stroke:#038048;stroke-width:1;"/><text fill="#000000" font-family="sans-serif" font-size="14" lengthAdjust="spacing" textLength="119.8408" x="537.45" y="629.6118">hasNext(): Boolean</text><ellipse cx="528.45" cy="642.1279" fill="#84BE84" rx="3" ry="3" style="stroke:#038048;stroke-width:1;"/><text fill="#000000" font-family="sans-serif" font-size="14" lengthAdjust="spacing" textLength="52.1172" x="537.45" y="645.7105">next(): T</text></g><!--class ListIterator--><g class="entity" data-entity="ListIterator" data-source-line="14" data-uid="ent0004" id="entity_ListIterator"><rect fill="#F1F1F1" height="128.4932" rx="2.5" ry="2.5" style="stroke:#181818;stroke-width:0.5;" width="254.7373" x="7" y="15.05"/><ellipse cx="97.0498" cy="31.05" fill="#ADD1B2" rx="11" ry="11" style="stroke:#181818;stroke-width:1;"/><path d="M97.0967,37.6906 Q96.5811,37.6906 96.0654,37.5969 Q95.5654,37.5187 95.1123,37.2844 Q94.6748,37.05 94.2998,36.6906 Q93.9404,36.3312 93.6904,35.8781 Q93.4561,35.4094 93.3623,34.9094 Q93.2842,34.4094 93.2842,33.8937 L93.2842,28.7062 Q93.2842,28.2062 93.3623,27.7062 Q93.4561,27.1906 93.6904,26.7375 Q93.9404,26.2844 94.2998,25.925 Q94.6748,25.55 95.1123,25.3156 Q95.5654,25.0812 96.0654,25.0031 Q96.5811,24.925 97.0967,24.925 Q97.5811,24.925 98.0342,24.9875 Q98.5029,25.05 98.9404,25.2375 Q99.3936,25.4094 99.7686,25.7062 Q100.1436,26.0031 100.3936,26.4094 Q100.6592,26.8 100.7842,27.2687 Q100.9092,27.7219 100.9092,28.2062 L100.9092,28.2687 L98.8779,28.2687 L98.8779,28.2375 Q98.8779,27.8937 98.7529,27.5812 Q98.6279,27.2531 98.3623,27.0344 Q98.0967,26.8 97.7686,26.7219 Q97.4404,26.6437 97.0967,26.6437 Q96.7061,26.6437 96.3311,26.8 Q95.9561,26.9406 95.7217,27.2531 Q95.4873,27.55 95.3936,27.9406 Q95.3154,28.3156 95.3154,28.7062 L95.3154,33.8937 Q95.3154,34.2844 95.3936,34.675 Q95.4873,35.05 95.7217,35.3625 Q95.9561,35.6594 96.3311,35.8156 Q96.7061,35.9719 97.0967,35.9719 Q97.4404,35.9719 97.7686,35.8937 Q98.0967,35.8 98.3623,35.5812 Q98.6279,35.3625 98.7529,35.0344 Q98.8779,34.7062 98.8779,34.3781 L98.8779,34.3312 L100.9092,34.3312 L100.9092,34.4094 Q100.9092,34.8781 100.7842,35.3469 Q100.6592,35.8 100.3936,36.2062 Q100.1436,36.5969 99.7686,36.8937 Q99.3936,37.1906 98.9404,37.3781 Q98.5029,37.55 98.0342,37.6125 Q97.5811,37.6906 97.0967,37.6906 Z " fill="#000000"/><text fill="#000000" font-family="sans-serif" font-size="14" lengthAdjust="spacing" textLength="66.1377" x="117.5498" y="36.1325">ListIterator</text><line style="stroke:#181818;stroke-width:0.5;" x1="8" x2="260.7373" y1="47.05" y2="47.05"/><rect fill="none" height="6" style="stroke:#C82930;stroke-width:1;" width="6" x="15" y="57.5993"/><text fill="#000000" font-family="sans-serif" font-size="14" lengthAdjust="spacing" textLength="101.165" x="27" y="64.1818">currentIndex: Int</text><rect fill="none" height="6" style="stroke:#C82930;stroke-width:1;" width="6" x="15" y="73.6979"/><text fill="#000000" font-family="sans-serif" font-size="14" lengthAdjust="spacing" textLength="153.2754" x="27" y="80.2805">traversedList: MyList&lt;T&gt;</text><line style="stroke:#181818;stroke-width:0.5;" x1="8" x2="260.7373" y1="87.2473" y2="87.2473"/><text fill="#000000" font-family="sans-serif" font-size="14" lengthAdjust="spacing" textLength="228.7373" x="27" y="104.3791">ListIterator(traversedList: MyList&lt;T&gt;)</text><ellipse cx="18" cy="116.8952" fill="#84BE84" rx="3" ry="3" style="stroke:#038048;stroke-width:1;"/><text fill="#000000" font-family="sans-serif" font-size="14" lengthAdjust="spacing" textLength="119.8408" x="27" y="120.4777">hasNext(): Boolean</text><ellipse cx="18" cy="132.9938" fill="#84BE84" rx="3" ry="3" style="stroke:#038048;stroke-width:1;"/><text fill="#000000" font-family="sans-serif" font-size="14" lengthAdjust="spacing" textLength="52.1172" x="27" y="136.5764">next(): T</text></g><!--class ReverseListIterator--><g class="entity" data-entity="ReverseListIterator" data-source-line="24" data-uid="ent0006" id="entity_ReverseListIterator"><rect fill="#F1F1F1" height="128.4932" rx="2.5" ry="2.5" style="stroke:#181818;stroke-width:0.5;" width="306.8682" x="296.93" y="15.05"/><ellipse cx="386.9798" cy="31.05" fill="#ADD1B2" rx="11" ry="11" style="stroke:#181818;stroke-width:1;"/><path d="M387.0267,37.6906 Q386.5111,37.6906 385.9954,37.5969 Q385.4954,37.5187 385.0423,37.2844 Q384.6048,37.05 384.2298,36.6906 Q383.8704,36.3312 383.6204,35.8781 Q383.3861,35.4094 383.2923,34.9094 Q383.2142,34.4094 383.2142,33.8937 L383.2142,28.7062 Q383.2142,28.2062 383.2923,27.7062 Q383.3861,27.1906 383.6204,26.7375 Q383.8704,26.2844 384.2298,25.925 Q384.6048,25.55 385.0423,25.3156 Q385.4954,25.0812 385.9954,25.0031 Q386.5111,24.925 387.0267,24.925 Q387.5111,24.925 387.9642,24.9875 Q388.4329,25.05 388.8704,25.2375 Q389.3236,25.4094 389.6986,25.7062 Q390.0736,26.0031 390.3236,26.4094 Q390.5892,26.8 390.7142,27.2687 Q390.8392,27.7219 390.8392,28.2062 L390.8392,28.2687 L388.8079,28.2687 L388.8079,28.2375 Q388.8079,27.8937 388.6829,27.5812 Q388.5579,27.2531 388.2923,27.0344 Q388.0267,26.8 387.6986,26.7219 Q387.3704,26.6437 387.0267,26.6437 Q386.6361,26.6437 386.2611,26.8 Q385.8861,26.9406 385.6517,27.2531 Q385.4173,27.55 385.3236,27.9406 Q385.2454,28.3156 385.2454,28.7062 L385.2454,33.8937 Q385.2454,34.2844 385.3236,34.675 Q385.4173,35.05 385.6517,35.3625 Q385.8861,35.6594 386.2611,35.8156 Q386.6361,35.9719 387.0267,35.9719 Q387.3704,35.9719 387.6986,35.8937 Q388.0267,35.8 388.2923,35.5812 Q388.5579,35.3625 388.6829,35.0344 Q388.8079,34.7062 388.8079,34.3781 L388.8079,34.3312 L390.8392,34.3312 L390.8392,34.4094 Q390.8392,34.8781 390.7142,35.3469 Q390.5892,35.8 390.3236,36.2062 Q390.0736,36.5969 389.6986,36.8937 Q389.3236,37.1906 388.8704,37.3781 Q388.4329,37.55 387.9642,37.6125 Q387.5111,37.6906 387.0267,37.6906 Z " fill="#000000"/><text fill="#000000" font-family="sans-serif" font-size="14" lengthAdjust="spacing" textLength="118.2686" x="407.4798" y="36.1325">ReverseListIterator</text><line style="stroke:#181818;stroke-width:0.5;" x1="297.93" x2="602.7982" y1="47.05" y2="47.05"/><rect fill="none" height="6" style="stroke:#C82930;stroke-width:1;" width="6" x="304.93" y="57.5993"/><text fill="#000000" font-family="sans-serif" font-size="14" lengthAdjust="spacing" textLength="101.165" x="316.93" y="64.1818">currentIndex: Int</text><rect fill="none" height="6" style="stroke:#C82930;stroke-width:1;" width="6" x="304.93" y="73.6979"/><text fill="#000000" font-family="sans-serif" font-size="14" lengthAdjust="spacing" textLength="153.2754" x="316.93" y="80.2805">traversedList: MyList&lt;T&gt;</text><line style="stroke:#181818;stroke-width:0.5;" x1="297.93" x2="602.7982" y1="87.2473" y2="87.2473"/><text fill="#000000" font-family="sans-serif" font-size="14" lengthAdjust="spacing" textLength="280.8682" x="316.93" y="104.3791">ReverseListIterator(traversedList: MyList&lt;T&gt;)</text><ellipse cx="307.93" cy="116.8952" fill="#84BE84" rx="3" ry="3" style="stroke:#038048;stroke-width:1;"/><text fill="#000000" font-family="sans-serif" font-size="14" lengthAdjust="spacing" textLength="119.8408" x="316.93" y="120.4777">hasNext(): Boolean</text><ellipse cx="307.93" cy="132.9938" fill="#84BE84" rx="3" ry="3" style="stroke:#038048;stroke-width:1;"/><text fill="#000000" font-family="sans-serif" font-size="14" lengthAdjust="spacing" textLength="52.1172" x="316.93" y="136.5764">next(): T</text></g><!--class MyList--><g class="entity" data-entity="MyList" data-source-line="34" data-uid="ent0008" id="entity_MyList"><rect fill="#F1F1F1" height="128.4932" rx="2.5" ry="2.5" style="stroke:#181818;stroke-width:0.5;" width="205.751" x="187.49" y="235.74"/><ellipse cx="265.8914" cy="251.74" fill="#ADD1B2" rx="11" ry="11" style="stroke:#181818;stroke-width:1;"/><path d="M265.9382,258.3806 Q265.4226,258.3806 264.907,258.2869 Q264.407,258.2087 263.9539,257.9744 Q263.5164,257.74 263.1414,257.3806 Q262.782,257.0212 262.532,256.5681 Q262.2976,256.0994 262.2039,255.5994 Q262.1257,255.0994 262.1257,254.5837 L262.1257,249.3962 Q262.1257,248.8962 262.2039,248.3962 Q262.2976,247.8806 262.532,247.4275 Q262.782,246.9744 263.1414,246.615 Q263.5164,246.24 263.9539,246.0056 Q264.407,245.7712 264.907,245.6931 Q265.4226,245.615 265.9382,245.615 Q266.4226,245.615 266.8757,245.6775 Q267.3445,245.74 267.782,245.9275 Q268.2351,246.0994 268.6101,246.3962 Q268.9851,246.6931 269.2351,247.0994 Q269.5007,247.49 269.6257,247.9587 Q269.7507,248.4119 269.7507,248.8962 L269.7507,248.9587 L267.7195,248.9587 L267.7195,248.9275 Q267.7195,248.5837 267.5945,248.2712 Q267.4695,247.9431 267.2039,247.7244 Q266.9382,247.49 266.6101,247.4119 Q266.282,247.3337 265.9382,247.3337 Q265.5476,247.3337 265.1726,247.49 Q264.7976,247.6306 264.5632,247.9431 Q264.3289,248.24 264.2351,248.6306 Q264.157,249.0056 264.157,249.3962 L264.157,254.5837 Q264.157,254.9744 264.2351,255.365 Q264.3289,255.74 264.5632,256.0525 Q264.7976,256.3494 265.1726,256.5056 Q265.5476,256.6619 265.9382,256.6619 Q266.282,256.6619 266.6101,256.5837 Q266.9382,256.49 267.2039,256.2712 Q267.4695,256.0525 267.5945,255.7244 Q267.7195,255.3962 267.7195,255.0681 L267.7195,255.0212 L269.7507,255.0212 L269.7507,255.0994 Q269.7507,255.5681 269.6257,256.0369 Q269.5007,256.49 269.2351,256.8962 Q268.9851,257.2869 268.6101,257.5837 Q268.2351,257.8806 267.782,258.0681 Q267.3445,258.24 266.8757,258.3025 Q266.4226,258.3806 265.9382,258.3806 Z " fill="#000000"/><text fill="#000000" font-family="sans-serif" font-size="14" lengthAdjust="spacing" textLength="40.4482" x="286.3914" y="256.8225">MyList</text><line style="stroke:#181818;stroke-width:0.5;" x1="188.49" x2="392.241" y1="267.74" y2="267.74"/><rect fill="none" height="6" style="stroke:#C82930;stroke-width:1;" width="6" x="195.49" y="278.2893"/><text fill="#000000" font-family="sans-serif" font-size="14" lengthAdjust="spacing" textLength="111.2754" x="207.49" y="284.8718">elements: List&lt;T&gt;</text><line style="stroke:#181818;stroke-width:0.5;" x1="188.49" x2="392.241" y1="291.8386" y2="291.8386"/><text fill="#000000" font-family="sans-serif" font-size="14" lengthAdjust="spacing" textLength="161.0479" x="207.49" y="308.9705">MyList(elements: List&lt;T&gt;)</text><ellipse cx="198.49" cy="321.4866" fill="#84BE84" rx="3" ry="3" style="stroke:#038048;stroke-width:1;"/><text fill="#000000" font-family="sans-serif" font-size="14" lengthAdjust="spacing" textLength="179.751" x="207.49" y="325.0691">elementAtIndex(index: Int): T</text><ellipse cx="198.49" cy="337.5852" fill="#84BE84" rx="3" ry="3" style="stroke:#038048;stroke-width:1;"/><text fill="#000000" font-family="sans-serif" font-size="14" lengthAdjust="spacing" textLength="178.1787" x="207.49" y="341.1677">newIterator(): ListIterator&lt;T&gt;</text><ellipse cx="198.49" cy="353.6838" fill="#84BE84" rx="3" ry="3" style="stroke:#038048;stroke-width:1;"/><text fill="#000000" font-family="sans-serif" font-size="14" lengthAdjust="spacing" textLength="57.5654" x="207.49" y="357.2664">size(): Int</text></g><!--class MyBTree--><g class="entity" data-entity="MyBTree" data-source-line="44" data-uid="ent0010" id="entity_MyBTree"><rect fill="#F1F1F1" height="176.7891" rx="2.5" ry="2.5" style="stroke:#181818;stroke-width:0.5;" width="382.3164" x="499.21" y="211.59"/><ellipse cx="657.7251" cy="227.59" fill="#ADD1B2" rx="11" ry="11" style="stroke:#181818;stroke-width:1;"/><path d="M657.772,234.2306 Q657.2564,234.2306 656.7408,234.1369 Q656.2408,234.0587 655.7876,233.8244 Q655.3501,233.59 654.9751,233.2306 Q654.6158,232.8712 654.3658,232.4181 Q654.1314,231.9494 654.0376,231.4494 Q653.9595,230.9494 653.9595,230.4337 L653.9595,225.2462 Q653.9595,224.7462 654.0376,224.2462 Q654.1314,223.7306 654.3658,223.2775 Q654.6158,222.8244 654.9751,222.465 Q655.3501,222.09 655.7876,221.8556 Q656.2408,221.6212 656.7408,221.5431 Q657.2564,221.465 657.772,221.465 Q658.2564,221.465 658.7095,221.5275 Q659.1783,221.59 659.6158,221.7775 Q660.0689,221.9494 660.4439,222.2462 Q660.8189,222.5431 661.0689,222.9494 Q661.3345,223.34 661.4595,223.8087 Q661.5845,224.2619 661.5845,224.7462 L661.5845,224.8087 L659.5533,224.8087 L659.5533,224.7775 Q659.5533,224.4337 659.4283,224.1212 Q659.3033,223.7931 659.0376,223.5744 Q658.772,223.34 658.4439,223.2619 Q658.1158,223.1837 657.772,223.1837 Q657.3814,223.1837 657.0064,223.34 Q656.6314,223.4806 656.397,223.7931 Q656.1626,224.09 656.0689,224.4806 Q655.9908,224.8556 655.9908,225.2462 L655.9908,230.4337 Q655.9908,230.8244 656.0689,231.215 Q656.1626,231.59 656.397,231.9025 Q656.6314,232.1994 657.0064,232.3556 Q657.3814,232.5119 657.772,232.5119 Q658.1158,232.5119 658.4439,232.4337 Q658.772,232.34 659.0376,232.1212 Q659.3033,231.9025 659.4283,231.5744 Q659.5533,231.2462 659.5533,230.9181 L659.5533,230.8712 L661.5845,230.8712 L661.5845,230.9494 Q661.5845,231.4181 661.4595,231.8869 Q661.3345,232.34 661.0689,232.7462 Q660.8189,233.1369 660.4439,233.4337 Q660.0689,233.7306 659.6158,233.9181 Q659.1783,234.09 658.7095,234.1525 Q658.2564,234.2306 657.772,234.2306 Z " fill="#000000"/><text fill="#000000" font-family="sans-serif" font-size="14" lengthAdjust="spacing" textLength="56.7861" x="678.2251" y="232.6725">MyBTree</text><line style="stroke:#181818;stroke-width:0.5;" x1="500.21" x2="880.5264" y1="243.59" y2="243.59"/><rect fill="none" height="6" style="stroke:#C82930;stroke-width:1;" width="6" x="507.21" y="254.1393"/><text fill="#000000" font-family="sans-serif" font-size="14" lengthAdjust="spacing" textLength="108.1445" x="519.21" y="260.7218">left: MyBTree&lt;T&gt;</text><rect fill="none" height="6" style="stroke:#C82930;stroke-width:1;" width="6" x="507.21" y="270.2379"/><text fill="#000000" font-family="sans-serif" font-size="14" lengthAdjust="spacing" textLength="116.7031" x="519.21" y="276.8205">right: MyBTree&lt;T&gt;</text><rect fill="none" height="6" style="stroke:#C82930;stroke-width:1;" width="6" x="507.21" y="286.3366"/><text fill="#000000" font-family="sans-serif" font-size="14" lengthAdjust="spacing" textLength="49.7998" x="519.21" y="292.9191">value: T</text><line style="stroke:#181818;stroke-width:0.5;" x1="500.21" x2="880.5264" y1="299.8859" y2="299.8859"/><text fill="#000000" font-family="sans-serif" font-size="14" lengthAdjust="spacing" textLength="356.3164" x="519.21" y="317.0177">MyBTree(value: T, left: MyBTree&lt;T&gt;, right: MyBTree&lt;T&gt;)</text><ellipse cx="510.21" cy="329.5338" fill="#84BE84" rx="3" ry="3" style="stroke:#038048;stroke-width:1;"/><text fill="#000000" font-family="sans-serif" font-size="14" lengthAdjust="spacing" textLength="117.4688" x="519.21" y="333.1164">left(): MyBTree&lt;T&gt;</text><ellipse cx="510.21" cy="345.6325" fill="#84BE84" rx="3" ry="3" style="stroke:#038048;stroke-width:1;"/><text fill="#000000" font-family="sans-serif" font-size="14" lengthAdjust="spacing" textLength="156.3926" x="519.21" y="349.215">newIterator(): Iterator&lt;T&gt;</text><ellipse cx="510.21" cy="361.7311" fill="#84BE84" rx="3" ry="3" style="stroke:#038048;stroke-width:1;"/><text fill="#000000" font-family="sans-serif" font-size="14" lengthAdjust="spacing" textLength="126.0273" x="519.21" y="365.3136">right(): MyBTree&lt;T&gt;</text><ellipse cx="510.21" cy="377.8297" fill="#84BE84" rx="3" ry="3" style="stroke:#038048;stroke-width:1;"/><text fill="#000000" font-family="sans-serif" font-size="14" lengthAdjust="spacing" textLength="59.124" x="519.21" y="381.4123">value(): T</text></g><!--class InOrderIterator--><g class="entity" data-entity="InOrderIterator" data-source-line="57" data-uid="ent0012" id="entity_InOrderIterator"><rect fill="#F1F1F1" height="144.5918" rx="2.5" ry="2.5" style="stroke:#181818;stroke-width:0.5;" width="303.751" x="710.49" y="7"/><ellipse cx="812.2088" cy="23" fill="#ADD1B2" rx="11" ry="11" style="stroke:#181818;stroke-width:1;"/><path d="M812.2556,29.6406 Q811.74,29.6406 811.2244,29.5469 Q810.7244,29.4688 810.2713,29.2344 Q809.8338,29 809.4588,28.6406 Q809.0994,28.2813 808.8494,27.8281 Q808.615,27.3594 808.5213,26.8594 Q808.4431,26.3594 808.4431,25.8438 L808.4431,20.6563 Q808.4431,20.1563 808.5213,19.6563 Q808.615,19.1406 808.8494,18.6875 Q809.0994,18.2344 809.4588,17.875 Q809.8338,17.5 810.2713,17.2656 Q810.7244,17.0313 811.2244,16.9531 Q811.74,16.875 812.2556,16.875 Q812.74,16.875 813.1931,16.9375 Q813.6619,17 814.0994,17.1875 Q814.5525,17.3594 814.9275,17.6563 Q815.3025,17.9531 815.5525,18.3594 Q815.8181,18.75 815.9431,19.2188 Q816.0681,19.6719 816.0681,20.1563 L816.0681,20.2188 L814.0369,20.2188 L814.0369,20.1875 Q814.0369,19.8438 813.9119,19.5313 Q813.7869,19.2031 813.5213,18.9844 Q813.2556,18.75 812.9275,18.6719 Q812.5994,18.5938 812.2556,18.5938 Q811.865,18.5938 811.49,18.75 Q811.115,18.8906 810.8806,19.2031 Q810.6463,19.5 810.5525,19.8906 Q810.4744,20.2656 810.4744,20.6563 L810.4744,25.8438 Q810.4744,26.2344 810.5525,26.625 Q810.6463,27 810.8806,27.3125 Q811.115,27.6094 811.49,27.7656 Q811.865,27.9219 812.2556,27.9219 Q812.5994,27.9219 812.9275,27.8438 Q813.2556,27.75 813.5213,27.5313 Q813.7869,27.3125 813.9119,26.9844 Q814.0369,26.6563 814.0369,26.3281 L814.0369,26.2813 L816.0681,26.2813 L816.0681,26.3594 Q816.0681,26.8281 815.9431,27.2969 Q815.8181,27.75 815.5525,28.1563 Q815.3025,28.5469 814.9275,28.8438 Q814.5525,29.1406 814.0994,29.3281 Q813.6619,29.5 813.1931,29.5625 Q812.74,29.6406 812.2556,29.6406 Z " fill="#000000"/><text fill="#000000" font-family="sans-serif" font-size="14" lengthAdjust="spacing" textLength="91.8135" x="832.7088" y="28.0825">InOrderIterator</text><line style="stroke:#181818;stroke-width:0.5;" x1="711.49" x2="1013.241" y1="39" y2="39"/><rect fill="none" height="6" style="stroke:#C82930;stroke-width:1;" width="6" x="718.49" y="49.5493"/><text fill="#000000" font-family="sans-serif" font-size="14" lengthAdjust="spacing" textLength="160.2822" x="730.49" y="56.1318">stack: List&lt;MyBTree&lt;T&gt;&gt;</text><rect fill="none" height="6" style="stroke:#C82930;stroke-width:1;" width="6" x="718.49" y="65.6479"/><text fill="#000000" font-family="sans-serif" font-size="14" lengthAdjust="spacing" textLength="176.6133" x="730.49" y="72.2305">traversedTree: MyBTree&lt;T&gt;</text><rect fill="none" height="6" style="stroke:#C82930;stroke-width:1;" width="6" x="718.49" y="81.7466"/><text fill="#000000" font-family="sans-serif" font-size="14" lengthAdjust="spacing" textLength="167.2891" x="730.49" y="88.3291">visited: List&lt;MyBTree&lt;T&gt;&gt;</text><line style="stroke:#181818;stroke-width:0.5;" x1="711.49" x2="1013.241" y1="95.2959" y2="95.2959"/><text fill="#000000" font-family="sans-serif" font-size="14" lengthAdjust="spacing" textLength="277.751" x="730.49" y="112.4277">InOrderIterator(traversedTree: MyBTree&lt;T&gt;)</text><ellipse cx="721.49" cy="124.9438" fill="#84BE84" rx="3" ry="3" style="stroke:#038048;stroke-width:1;"/><text fill="#000000" font-family="sans-serif" font-size="14" lengthAdjust="spacing" textLength="119.8408" x="730.49" y="128.5264">hasNext(): Boolean</text><ellipse cx="721.49" cy="141.0425" fill="#84BE84" rx="3" ry="3" style="stroke:#038048;stroke-width:1;"/><text fill="#000000" font-family="sans-serif" font-size="14" lengthAdjust="spacing" textLength="52.1172" x="730.49" y="144.625">next(): T</text></g><!--link ListIterator to Iterator--><g class="link" data-entity-1="ListIterator" data-entity-2="Iterator" data-source-line="22" data-uid="lnk5" id="link_ListIterator_Iterator"><path codeLine="22" d="M125.57,144.04 C119.8,210.82 120.85,315.91 170.37,388.38 C252.35,508.38 402.7396,564.198 499.5896,590.288" fill="none" id="ListIterator-to-Iterator" style="stroke:#181818;stroke-width:1;stroke-dasharray:7,7;"/><polygon fill="none" points="516.97,594.97,501.1503,584.4945,498.0289,596.0814,516.97,594.97" style="stroke:#181818;stroke-width:1;"/></g><!--link ReverseListIterator to Iterator--><g class="link" data-entity-1="ReverseListIterator" data-entity-2="Iterator" data-source-line="32" data-uid="lnk7" id="link_ReverseListIterator_Iterator"><path codeLine="32" d="M440.82,143.78 C430.66,231.51 423.1,392.55 481.37,512.48 C492.66,535.72 498.1779,544.5096 517.4779,560.6096" fill="none" id="ReverseListIterator-to-Iterator" style="stroke:#181818;stroke-width:1;stroke-dasharray:7,7;"/><polygon fill="none" points="531.3,572.14,521.3213,556.0023,513.6344,565.217,531.3,572.14" style="stroke:#181818;stroke-width:1;"/></g><!--link MyList to Collection--><g class="link" data-entity-1="MyList" data-entity-2="Collection" data-source-line="42" data-uid="lnk9" id="link_MyList_Collection"><path codeLine="42" d="M393.61,362.4 C442.09,391.23 482.3302,415.1675 522.0702,438.8075" fill="none" id="MyList-to-Collection" style="stroke:#181818;stroke-width:1;stroke-dasharray:7,7;"/><polygon fill="none" points="537.54,448.01,525.1377,433.6509,519.0027,443.9641,537.54,448.01" style="stroke:#181818;stroke-width:1;"/></g><!--link MyBTree to Collection--><g class="link" data-entity-1="MyBTree" data-entity-2="Collection" data-source-line="55" data-uid="lnk11" id="link_MyBTree_Collection"><path codeLine="55" d="M641.25,388.64 C629.29,409.97 626.0674,415.7163 616.7174,432.4063" fill="none" id="MyBTree-to-Collection" style="stroke:#181818;stroke-width:1;stroke-dasharray:7,7;"/><polygon fill="none" points="607.92,448.11,621.952,435.3388,611.4829,429.4739,607.92,448.11" style="stroke:#181818;stroke-width:1;"/></g><!--link InOrderIterator to Iterator--><g class="link" data-entity-1="InOrderIterator" data-entity-2="Iterator" data-source-line="66" data-uid="lnk13" id="link_InOrderIterator_Iterator"><path codeLine="66" d="M892.73,151.8 C915.47,216.89 936.82,313.9 899.37,388.38 C850.84,484.91 754.9572,541.6871 679.9572,575.5271" fill="none" id="InOrderIterator-to-Iterator" style="stroke:#181818;stroke-width:1;stroke-dasharray:7,7;"/><polygon fill="none" points="663.55,582.93,682.4249,580.9961,677.4896,570.058,663.55,582.93" style="stroke:#181818;stroke-width:1;"/></g><!--link Collection to Iterator--><g class="link" data-entity-1="Collection" data-entity-2="Iterator" data-source-line="68" data-uid="lnk14" id="link_Collection_Iterator"><path codeLine="68" d="M590.37,512.94 C590.37,530.84 590.37,547.42 590.37,566.45" fill="none" id="Collection-to-Iterator" style="stroke:#181818;stroke-width:1;stroke-dasharray:7,7;"/><polygon fill="#181818" points="590.37,572.45,594.37,563.45,590.37,567.45,586.37,563.45,590.37,572.45" style="stroke:#181818;stroke-width:1;"/></g><!--link ListIterator to MyList--><g class="link" data-entity-1="ListIterator" data-entity-2="MyList" data-source-line="69" data-uid="lnk15" id="link_ListIterator_MyList"><path codeLine="69" d="M167.66,143.85 C186.73,172.6 207.2695,201.7406 229.2295,230.5106" fill="none" id="ListIterator-to-MyList" style="stroke:#181818;stroke-width:1;stroke-dasharray:7,7;"/><polygon fill="#181818" points="232.87,235.28,230.5889,225.6989,229.8363,231.3055,224.2297,230.5529,232.87,235.28" style="stroke:#181818;stroke-width:1;"/></g><!--link MyList to ListIterator--><g class="link" data-entity-1="MyList" data-entity-2="ListIterator" data-source-line="71" data-uid="lnk17" id="link_MyList_ListIterator"><path codeLine="71" d="M256.98,235.28 C237.89,206.51 217.331,177.369 195.381,148.619" fill="none" id="MyList-to-ListIterator" style="stroke:#181818;stroke-width:1;stroke-dasharray:7,7;"/><polygon fill="#181818" points="191.74,143.85,194.0222,153.4308,194.7742,147.8241,200.3808,148.5761,191.74,143.85" style="stroke:#181818;stroke-width:1;"/></g><!--link ReverseListIterator to MyList--><g class="link" data-entity-1="ReverseListIterator" data-entity-2="MyList" data-source-line="70" data-uid="lnk16" id="link_ReverseListIterator_MyList"><path codeLine="70" d="M403.88,143.85 C382.84,172.6 361.5729,201.6677 340.5229,230.4377" fill="none" id="ReverseListIterator-to-MyList" style="stroke:#181818;stroke-width:1;stroke-dasharray:7,7;"/><polygon fill="#181818" points="336.98,235.28,345.5226,230.3785,339.9324,231.2448,339.0662,225.6546,336.98,235.28" style="stroke:#181818;stroke-width:1;"/></g><!--link MyBTree to Iterator--><g class="link" data-entity-1="MyBTree" data-entity-2="Iterator" data-source-line="72" data-uid="lnk18" id="link_MyBTree_Iterator"><path codeLine="72" d="M711.25,388.65 C716.39,428.04 716.32,474.17 699.37,512.48 C689.02,535.87 674.7407,552.2705 655.5507,568.2505" fill="none" id="MyBTree-to-Iterator" style="stroke:#181818;stroke-width:1;stroke-dasharray:7,7;"/><polygon fill="#181818" points="650.94,572.09,660.4157,569.4046,654.7823,568.8905,655.2964,563.257,650.94,572.09" style="stroke:#181818;stroke-width:1;"/></g><!--link InOrderIterator to MyBTree--><g class="link" data-entity-1="InOrderIterator" data-entity-2="MyBTree" data-source-line="73" data-uid="lnk19" id="link_InOrderIterator_MyBTree"><path codeLine="73" d="M806.05,151.91 C791.16,170.84 778.6195,186.7841 763.1395,206.4641" fill="none" id="InOrderIterator-to-MyBTree" style="stroke:#181818;stroke-width:1;stroke-dasharray:7,7;"/><polygon fill="#181818" points="759.43,211.18,768.1381,206.5791,762.5212,207.2501,761.8503,201.6332,759.43,211.18" style="stroke:#181818;stroke-width:1;"/></g><!--SRC=[nLJBJiCm4BpxAtnCHUa7HCWIvLI9XuJo0rQofHQk8zbkAO_-EtudTHm49t99ChEFsSquJ6YGMze2lkivXrQpNg1FXCrrXGMyRGnDTI-hHOtZyqr3q1aXn59kP5BcZgf7E6cRjUvx3bIaaXvjN8MMKwNmFLCwgp26AYtf4QI2pg8rVdYtToDYuKAlSNkG4eJUY0vEHgNG0P_B-ul6iH2yMdsHOTQW_XbSay8G1UPVPodeAO_aguSf_4i57FP6cAfnfdX2XCu1l_MpL2nDvDGK3JPMDXHIx0ES_SmopiZByRf7batAruq4IDBTMtMa_02cwn9psBhjEToqM6B9NdONK9mh3mtm93xWiKSGRREjw2pknpFb0ro3Ogfh4JzcOESMiH5FiWEPEJ931pVQKgKbA4tRr_1b1vRafipJuqwOOXgwcVnVkZRJd3js6Dqm8o9pEOccBX-2H2TxaSlVqh3kKO-fD1ANy0q0]--></g></svg>