<svg xmlns="http://www.w3.org/2000/svg" xmlns:xlink="http://www.w3.org/1999/xlink" contentStyleType="text/css" data-diagram-type="CLASS" height="298px" preserveAspectRatio="none" style="width:816px;height:298px;background:#FFFFFF;" version="1.1" viewBox="0 0 816 298" width="816px" zoomAndPan="magnify"><defs/><g><!--class Observer--><g class="entity" data-entity="Observer" data-source-line="1" data-uid="ent0002" id="entity_Observer"><rect fill="#F1F1F1" height="64.0986" rx="2.5" ry="2.5" style="stroke:#181818;stroke-width:0.5;" width="241.5713" x="290.48" y="227.69"/><ellipse cx="378.2295" cy="243.69" fill="#B4A7E5" rx="11" ry="11" style="stroke:#181818;stroke-width:1;"/><path d="M374.2608,250.19 L374.2608,248.2681 L376.7608,248.2681 L376.7608,239.7056 L374.2608,239.7056 L374.2608,237.7838 L381.4014,237.7838 L381.4014,239.7056 L378.9014,239.7056 L378.9014,248.2681 L381.4014,248.2681 L381.4014,250.19 L374.2608,250.19 Z " fill="#000000"/><text fill="#000000" font-family="sans-serif" font-size="14" font-style="italic" lengthAdjust="spacing" textLength="57.5723" x="398.7295" y="248.7725">Observer</text><line style="stroke:#181818;stroke-width:0.5;" x1="291.48" x2="531.0513" y1="259.69" y2="259.69"/><line style="stroke:#181818;stroke-width:0.5;" x1="291.48" x2="531.0513" y1="267.69" y2="267.69"/><ellipse cx="301.48" cy="281.2393" fill="#84BE84" rx="3" ry="3" style="stroke:#038048;stroke-width:1;"/><text fill="#000000" font-family="sans-serif" font-size="14" lengthAdjust="spacing" textLength="215.5713" x="310.48" y="284.8218">updateSubject(newSubject: String)</text></g><!--class Publisher--><g class="entity" data-entity="Publisher" data-source-line="7" data-uid="ent0003" id="entity_Publisher"><rect fill="#F1F1F1" height="160.6904" rx="2.5" ry="2.5" style="stroke:#181818;stroke-width:0.5;" width="248.5234" x="7" y="7"/><ellipse cx="97.8291" cy="23" fill="#ADD1B2" rx="11" ry="11" style="stroke:#181818;stroke-width:1;"/><path d="M98.0635,29.6719 Q96.8604,29.6719 95.9697,29.2188 Q95.0947,28.7656 94.6104,27.9531 Q94.126,27.125 94.126,26 L94.126,20.5938 Q94.126,19.4688 94.6104,18.6563 Q95.0947,17.8281 95.9697,17.375 Q96.8604,16.9219 98.0635,16.9219 Q99.251,16.9219 100.126,17.375 Q101.0166,17.8281 101.5166,18.6563 Q102.0166,19.4688 102.0166,20.5938 L99.8604,20.5938 Q99.8604,19.7188 99.3916,19.2656 Q98.9385,18.7969 98.0635,18.7969 Q97.2041,18.7969 96.7197,19.2656 Q96.251,19.7188 96.251,20.5938 L96.251,26 Q96.251,26.8594 96.7197,27.3281 Q97.2041,27.7969 98.0635,27.7969 Q98.9385,27.7969 99.3916,27.3281 Q99.8604,26.8594 99.8604,26 L102.0166,26 Q102.0166,27.125 101.5166,27.9531 Q101.0166,28.7656 100.126,29.2188 Q99.251,29.6719 98.0635,29.6719 Z " fill="#000000"/><text fill="#000000" font-family="sans-serif" font-size="14" lengthAdjust="spacing" textLength="58.3652" x="118.3291" y="28.0825">Publisher</text><line style="stroke:#181818;stroke-width:0.5;" x1="8" x2="254.5234" y1="39" y2="39"/><rect fill="none" height="6" style="stroke:#C82930;stroke-width:1;" width="6" x="15" y="49.5493"/><text fill="#000000" font-family="sans-serif" font-size="14" lengthAdjust="spacing" textLength="88.71" x="27" y="56.1318">subject: String</text><rect fill="none" height="6" style="stroke:#C82930;stroke-width:1;" width="6" x="15" y="65.6479"/><text fill="#000000" font-family="sans-serif" font-size="14" lengthAdjust="spacing" textLength="175.0684" x="27" y="72.2305">subscribers: List&lt;Observer&gt;</text><line style="stroke:#181818;stroke-width:0.5;" x1="8" x2="254.5234" y1="79.1973" y2="79.1973"/><text fill="#000000" font-family="sans-serif" font-size="14" lengthAdjust="spacing" textLength="67.6895" x="27" y="96.3291">Publisher()</text><ellipse cx="18" cy="108.8452" fill="#84BE84" rx="3" ry="3" style="stroke:#038048;stroke-width:1;"/><text fill="#000000" font-family="sans-serif" font-size="14" lengthAdjust="spacing" textLength="107.3584" x="27" y="112.4277">notifyObservers()</text><ellipse cx="18" cy="124.9438" fill="#84BE84" rx="3" ry="3" style="stroke:#038048;stroke-width:1;"/><text fill="#000000" font-family="sans-serif" font-size="14" lengthAdjust="spacing" textLength="217.8477" x="27" y="128.5264">subscribe(newObserver: Observer)</text><ellipse cx="18" cy="141.0425" fill="#84BE84" rx="3" ry="3" style="stroke:#038048;stroke-width:1;"/><text fill="#000000" font-family="sans-serif" font-size="14" lengthAdjust="spacing" textLength="222.5234" x="27" y="144.625">unsubscribe(exObserver: Observer)</text><ellipse cx="18" cy="157.1411" fill="#84BE84" rx="3" ry="3" style="stroke:#038048;stroke-width:1;"/><text fill="#000000" font-family="sans-serif" font-size="14" lengthAdjust="spacing" textLength="215.5713" x="27" y="160.7236">updateSubject(newSubject: String)</text></g><!--class RealObserver1--><g class="entity" data-entity="RealObserver1" data-source-line="19" data-uid="ent0004" id="entity_RealObserver1"><rect fill="#F1F1F1" height="96.2959" rx="2.5" ry="2.5" style="stroke:#181818;stroke-width:0.5;" width="241.5713" x="290.48" y="39.2"/><ellipse cx="359.94" cy="55.2" fill="#ADD1B2" rx="11" ry="11" style="stroke:#181818;stroke-width:1;"/><path d="M360.1743,61.8719 Q358.9712,61.8719 358.0806,61.4188 Q357.2056,60.9656 356.7212,60.1531 Q356.2368,59.325 356.2368,58.2 L356.2368,52.7938 Q356.2368,51.6688 356.7212,50.8563 Q357.2056,50.0281 358.0806,49.575 Q358.9712,49.1219 360.1743,49.1219 Q361.3618,49.1219 362.2368,49.575 Q363.1275,50.0281 363.6275,50.8563 Q364.1275,51.6688 364.1275,52.7938 L361.9712,52.7938 Q361.9712,51.9188 361.5025,51.4656 Q361.0493,50.9969 360.1743,50.9969 Q359.315,50.9969 358.8306,51.4656 Q358.3618,51.9188 358.3618,52.7938 L358.3618,58.2 Q358.3618,59.0594 358.8306,59.5281 Q359.315,59.9969 360.1743,59.9969 Q361.0493,59.9969 361.5025,59.5281 Q361.9712,59.0594 361.9712,58.2 L364.1275,58.2 Q364.1275,59.325 363.6275,60.1531 Q363.1275,60.9656 362.2368,61.4188 Q361.3618,61.8719 360.1743,61.8719 Z " fill="#000000"/><text fill="#000000" font-family="sans-serif" font-size="14" lengthAdjust="spacing" textLength="94.1514" x="380.44" y="60.2825">RealObserver1</text><line style="stroke:#181818;stroke-width:0.5;" x1="291.48" x2="531.0513" y1="71.2" y2="71.2"/><ellipse cx="301.48" cy="84.7493" fill="none" rx="3" ry="3" style="stroke:#038048;stroke-width:1;"/><text fill="#000000" font-family="sans-serif" font-size="14" lengthAdjust="spacing" textLength="121.3926" x="310.48" y="88.3318">subjectCopy: String</text><line style="stroke:#181818;stroke-width:0.5;" x1="291.48" x2="531.0513" y1="95.2986" y2="95.2986"/><text fill="#000000" font-family="sans-serif" font-size="14" lengthAdjust="spacing" textLength="103.4756" x="310.48" y="112.4305">RealObserver1()</text><ellipse cx="301.48" cy="124.9466" fill="#84BE84" rx="3" ry="3" style="stroke:#038048;stroke-width:1;"/><text fill="#000000" font-family="sans-serif" font-size="14" lengthAdjust="spacing" textLength="215.5713" x="310.48" y="128.5291">updateSubject(newSubject: String)</text></g><!--class RealObserver2--><g class="entity" data-entity="RealObserver2" data-source-line="27" data-uid="ent0006" id="entity_RealObserver2"><rect fill="#F1F1F1" height="80.1973" rx="2.5" ry="2.5" style="stroke:#181818;stroke-width:0.5;" width="241.5713" x="567.48" y="47.25"/><ellipse cx="636.94" cy="63.25" fill="#ADD1B2" rx="11" ry="11" style="stroke:#181818;stroke-width:1;"/><path d="M637.1743,69.9219 Q635.9712,69.9219 635.0806,69.4688 Q634.2056,69.0156 633.7212,68.2031 Q633.2368,67.375 633.2368,66.25 L633.2368,60.8438 Q633.2368,59.7188 633.7212,58.9063 Q634.2056,58.0781 635.0806,57.625 Q635.9712,57.1719 637.1743,57.1719 Q638.3618,57.1719 639.2368,57.625 Q640.1275,58.0781 640.6275,58.9063 Q641.1275,59.7188 641.1275,60.8438 L638.9712,60.8438 Q638.9712,59.9688 638.5025,59.5156 Q638.0493,59.0469 637.1743,59.0469 Q636.315,59.0469 635.8306,59.5156 Q635.3618,59.9688 635.3618,60.8438 L635.3618,66.25 Q635.3618,67.1094 635.8306,67.5781 Q636.315,68.0469 637.1743,68.0469 Q638.0493,68.0469 638.5025,67.5781 Q638.9712,67.1094 638.9712,66.25 L641.1275,66.25 Q641.1275,67.375 640.6275,68.2031 Q640.1275,69.0156 639.2368,69.4688 Q638.3618,69.9219 637.1743,69.9219 Z " fill="#000000"/><text fill="#000000" font-family="sans-serif" font-size="14" lengthAdjust="spacing" textLength="94.1514" x="657.44" y="68.3325">RealObserver2</text><line style="stroke:#181818;stroke-width:0.5;" x1="568.48" x2="808.0513" y1="79.25" y2="79.25"/><line style="stroke:#181818;stroke-width:0.5;" x1="568.48" x2="808.0513" y1="87.25" y2="87.25"/><text fill="#000000" font-family="sans-serif" font-size="14" lengthAdjust="spacing" textLength="103.4756" x="587.48" y="104.3818">RealObserver2()</text><ellipse cx="578.48" cy="116.8979" fill="#84BE84" rx="3" ry="3" style="stroke:#038048;stroke-width:1;"/><text fill="#000000" font-family="sans-serif" font-size="14" lengthAdjust="spacing" textLength="215.5713" x="587.48" y="120.4805">updateSubject(newSubject: String)</text></g><!--link RealObserver1 to Observer--><g class="link" data-entity-1="RealObserver1" data-entity-2="Observer" data-source-line="25" data-uid="lnk5" id="link_RealObserver1_Observer"><path codeLine="25" d="M411.26,135.81 C411.26,165.06 411.26,183.74 411.26,209.39" fill="none" id="RealObserver1-to-Observer" style="stroke:#181818;stroke-width:1;stroke-dasharray:7,7;"/><polygon fill="none" points="411.26,227.39,417.26,209.39,405.26,209.39,411.26,227.39" style="stroke:#181818;stroke-width:1;"/></g><!--link RealObserver2 to Observer--><g class="link" data-entity-1="RealObserver2" data-entity-2="Observer" data-source-line="32" data-uid="lnk7" id="link_RealObserver2_Observer"><path codeLine="32" d="M624.02,127.87 C574.79,158.15 523.1318,189.9294 477.5618,217.9594" fill="none" id="RealObserver2-to-Observer" style="stroke:#181818;stroke-width:1;stroke-dasharray:7,7;"/><polygon fill="none" points="462.23,227.39,480.7053,223.07,474.4183,212.8488,462.23,227.39" style="stroke:#181818;stroke-width:1;"/></g><!--link Publisher to Observer--><g class="link" data-entity-1="Publisher" data-entity-2="Observer" data-source-line="34" data-uid="lnk8" id="link_Publisher_Observer"><path codeLine="34" d="M255.7,164.08 C292.22,186.3 325.0343,206.2712 354.3043,224.0812" fill="none" id="Publisher-to-Observer" style="stroke:#181818;stroke-width:1;stroke-dasharray:7,7;"/><polygon fill="#181818" points="359.43,227.2,353.8207,219.1046,355.1586,224.601,349.6622,225.9389,359.43,227.2" style="stroke:#181818;stroke-width:1;"/></g><!--SRC=[dL513e8m4Bpt5Jr2Y2Ho98QBLnEDl83MHMj88TsY4lNlWg6jDSIeFNLdTsPdia9gK6N1WQuPWZg18bT2-nVHjjaL6lAM7O7hGC9v_AOqrqh8VKZkX11U5OXqqx9AuC6oRHs4ptf6qISx5BaI31IcT2LGBuoDR7GXQotApg0uwaMEEJWpxTIcC6EjT8Dm-J3tGzWj59NXpyV07lPgSX1Pratd1VzkdwT9u_YMkIDDM4ach2H1-EV2v7sXFMdVSFW3]--></g></svg>