<svg xmlns="http://www.w3.org/2000/svg" xmlns:xlink="http://www.w3.org/1999/xlink" contentStyleType="text/css" data-diagram-type="CLASS" height="582px" preserveAspectRatio="none" style="width:1621px;height:582px;background:#FFFFFF;" version="1.1" viewBox="0 0 1621 582" width="1621px" zoomAndPan="magnify"><defs/><g><!--class Delivery--><g class="entity" data-entity="Delivery" data-source-line="1" data-uid="ent0002" id="entity_Delivery"><rect fill="#F1F1F1" height="124.2717" rx="2.5" ry="2.5" style="stroke:#181818;stroke-width:0.5;" width="411.1945" x="503" y="451"/><ellipse cx="679.7564" cy="467" fill="#A9DCDF" rx="11" ry="11" style="stroke:#181818;stroke-width:1;"/><path d="M679.8657,462.3438 L678.7095,467.4219 L681.0376,467.4219 L679.8657,462.3438 Z M678.3814,460.1094 L681.3657,460.1094 L684.7251,472.5 L682.272,472.5 L681.5064,469.4375 L678.2251,469.4375 L677.4751,472.5 L675.0376,472.5 L678.3814,460.1094 Z " fill="#000000"/><text fill="#000000" font-family="sans-serif" font-size="14" font-style="italic" lengthAdjust="spacing" textLength="49.1818" x="700.2564" y="472.432">Delivery</text><line style="stroke:#181818;stroke-width:0.5;" x1="504" x2="913.1945" y1="483" y2="483"/><line style="stroke:#181818;stroke-width:0.5;" x1="504" x2="913.1945" y1="491" y2="491"/><ellipse cx="514" cy="506.034" fill="#84BE84" rx="3" ry="3" style="stroke:#038048;stroke-width:1;"/><text fill="#000000" font-family="sans-serif" font-size="14" lengthAdjust="spacing" textLength="266.405" x="523" y="509.9659">changeDeliveryStatus(newStatus: String)</text><ellipse cx="514" cy="525.1019" fill="#84BE84" rx="3" ry="3" style="stroke:#038048;stroke-width:1;"/><text fill="#000000" font-family="sans-serif" font-size="14" lengthAdjust="spacing" textLength="151.8014" x="523" y="529.0339">deliveryDetails(): String</text><ellipse cx="514" cy="544.1698" fill="#84BE84" rx="3" ry="3" style="stroke:#038048;stroke-width:1;"/><text fill="#000000" font-family="sans-serif" font-size="14" lengthAdjust="spacing" textLength="122.7655" x="523" y="548.1018">deliveryFee(): Float</text><ellipse cx="514" cy="563.2377" fill="#84BE84" rx="3" ry="3" style="stroke:#038048;stroke-width:1;"/><text fill="#000000" font-family="sans-serif" font-size="14" lengthAdjust="spacing" textLength="385.1945" x="523" y="567.1697">estimatedDeliveryDate(processDate: LocalDate): LocalDate</text></g><!--class Order--><g class="entity" data-entity="Order" data-source-line="11" data-uid="ent0003" id="entity_Order"><rect fill="#F1F1F1" height="143.3396" rx="2.5" ry="2.5" style="stroke:#181818;stroke-width:0.5;" width="342.9868" x="1272" y="7"/><ellipse cx="1419.7415" cy="23" fill="#ADD1B2" rx="11" ry="11" style="stroke:#181818;stroke-width:1;"/><path d="M1422.7102,28.6406 Q1422.1321,28.9375 1421.4915,29.0781 Q1420.8509,29.2344 1420.1477,29.2344 Q1417.6477,29.2344 1416.3196,27.5938 Q1415.0071,25.9375 1415.0071,22.8125 Q1415.0071,19.6875 1416.3196,18.0313 Q1417.6477,16.375 1420.1477,16.375 Q1420.8509,16.375 1421.4915,16.5313 Q1422.1477,16.6875 1422.7102,16.9844 L1422.7102,19.7031 Q1422.0852,19.125 1421.4915,18.8594 Q1420.8977,18.5781 1420.2727,18.5781 Q1418.929,18.5781 1418.2415,19.6563 Q1417.554,20.7188 1417.554,22.8125 Q1417.554,24.9063 1418.2415,25.9844 Q1418.929,27.0469 1420.2727,27.0469 Q1420.8977,27.0469 1421.4915,26.7813 Q1422.0852,26.5 1422.7102,25.9219 L1422.7102,28.6406 Z " fill="#000000"/><text fill="#000000" font-family="sans-serif" font-size="14" lengthAdjust="spacing" textLength="39.0039" x="1440.2415" y="28.432">Order</text><line style="stroke:#181818;stroke-width:0.5;" x1="1273" x2="1613.9868" y1="39" y2="39"/><rect fill="none" height="6" style="stroke:#C82930;stroke-width:1;" width="6" x="1280" y="51.034"/><text fill="#000000" font-family="sans-serif" font-size="14" lengthAdjust="spacing" textLength="138.1655" x="1292" y="57.9659">productName: String</text><rect fill="none" height="6" style="stroke:#C82930;stroke-width:1;" width="6" x="1280" y="70.1019"/><text fill="#000000" font-family="sans-serif" font-size="14" lengthAdjust="spacing" textLength="124.0255" x="1292" y="77.0339">productPrice: Float</text><line style="stroke:#181818;stroke-width:0.5;" x1="1273" x2="1613.9868" y1="85.1358" y2="85.1358"/><text fill="#000000" font-family="sans-serif" font-size="14" lengthAdjust="spacing" textLength="316.9868" x="1292" y="104.1018">Order(productName: String, productPrice: Float)</text><ellipse cx="1283" cy="119.2377" fill="#84BE84" rx="3" ry="3" style="stroke:#038048;stroke-width:1;"/><text fill="#000000" font-family="sans-serif" font-size="14" lengthAdjust="spacing" textLength="131.1235" x="1292" y="123.1697">orderString(): String</text><ellipse cx="1283" cy="138.3056" fill="#84BE84" rx="3" ry="3" style="stroke:#038048;stroke-width:1;"/><text fill="#000000" font-family="sans-serif" font-size="14" lengthAdjust="spacing" textLength="80.6677" x="1292" y="142.2376">price(): Float</text></g><!--class StandardDelivery--><g class="entity" data-entity="StandardDelivery" data-source-line="22" data-uid="ent0004" id="entity_StandardDelivery"><rect fill="#F1F1F1" height="181.4754" rx="2.5" ry="2.5" style="stroke:#181818;stroke-width:0.5;" width="411.1945" x="7" y="210"/><ellipse cx="151.6615" cy="226" fill="#ADD1B2" rx="11" ry="11" style="stroke:#181818;stroke-width:1;"/><path d="M154.6302,231.6406 Q154.0521,231.9375 153.4115,232.0781 Q152.7709,232.2344 152.0677,232.2344 Q149.5677,232.2344 148.2396,230.5938 Q146.9271,228.9375 146.9271,225.8125 Q146.9271,222.6875 148.2396,221.0313 Q149.5677,219.375 152.0677,219.375 Q152.7709,219.375 153.4115,219.5313 Q154.0677,219.6875 154.6302,219.9844 L154.6302,222.7031 Q154.0052,222.125 153.4115,221.8594 Q152.8177,221.5781 152.1927,221.5781 Q150.849,221.5781 150.1615,222.6563 Q149.474,223.7188 149.474,225.8125 Q149.474,227.9063 150.1615,228.9844 Q150.849,230.0469 152.1927,230.0469 Q152.8177,230.0469 153.4115,229.7813 Q154.0052,229.5 154.6302,228.9219 L154.6302,231.6406 Z " fill="#000000"/><text fill="#000000" font-family="sans-serif" font-size="14" lengthAdjust="spacing" textLength="113.3716" x="172.1615" y="231.432">StandardDelivery</text><line style="stroke:#181818;stroke-width:0.5;" x1="8" x2="417.1945" y1="242" y2="242"/><rect fill="none" height="6" style="stroke:#C82930;stroke-width:1;" width="6" x="15" y="254.034"/><text fill="#000000" font-family="sans-serif" font-size="14" lengthAdjust="spacing" textLength="139.4535" x="27" y="260.9659">deliveryStatus: String</text><rect fill="none" height="6" style="stroke:#C82930;stroke-width:1;" width="6" x="15" y="273.1019"/><text fill="#000000" font-family="sans-serif" font-size="14" lengthAdjust="spacing" textLength="99.2316" x="27" y="280.0339">location: String</text><line style="stroke:#181818;stroke-width:0.5;" x1="8" x2="417.1945" y1="288.1358" y2="288.1358"/><text fill="#000000" font-family="sans-serif" font-size="14" lengthAdjust="spacing" textLength="221.0032" x="27" y="307.1018">StandardDelivery(location: String)</text><ellipse cx="18" cy="322.2377" fill="#84BE84" rx="3" ry="3" style="stroke:#038048;stroke-width:1;"/><text fill="#000000" font-family="sans-serif" font-size="14" lengthAdjust="spacing" textLength="266.405" x="27" y="326.1697">changeDeliveryStatus(newStatus: String)</text><ellipse cx="18" cy="341.3056" fill="#84BE84" rx="3" ry="3" style="stroke:#038048;stroke-width:1;"/><text fill="#000000" font-family="sans-serif" font-size="14" lengthAdjust="spacing" textLength="151.8014" x="27" y="345.2376">deliveryDetails(): String</text><ellipse cx="18" cy="360.3735" fill="#84BE84" rx="3" ry="3" style="stroke:#038048;stroke-width:1;"/><text fill="#000000" font-family="sans-serif" font-size="14" lengthAdjust="spacing" textLength="122.7655" x="27" y="364.3055">deliveryFee(): Float</text><ellipse cx="18" cy="379.4415" fill="#84BE84" rx="3" ry="3" style="stroke:#038048;stroke-width:1;"/><text fill="#000000" font-family="sans-serif" font-size="14" lengthAdjust="spacing" textLength="385.1945" x="27" y="383.3734">estimatedDeliveryDate(processDate: LocalDate): LocalDate</text></g><!--class Shipment--><g class="entity" data-entity="Shipment" data-source-line="35" data-uid="ent0006" id="entity_Shipment"><rect fill="#F1F1F1" height="181.4754" rx="2.5" ry="2.5" style="stroke:#181818;stroke-width:0.5;" width="510.3562" x="453.5" y="210"/><ellipse cx="672.8022" cy="226" fill="#ADD1B2" rx="11" ry="11" style="stroke:#181818;stroke-width:1;"/><path d="M675.771,231.6406 Q675.1929,231.9375 674.5522,232.0781 Q673.9116,232.2344 673.2085,232.2344 Q670.7085,232.2344 669.3804,230.5938 Q668.0679,228.9375 668.0679,225.8125 Q668.0679,222.6875 669.3804,221.0313 Q670.7085,219.375 673.2085,219.375 Q673.9116,219.375 674.5522,219.5313 Q675.2085,219.6875 675.771,219.9844 L675.771,222.7031 Q675.146,222.125 674.5522,221.8594 Q673.9585,221.5781 673.3335,221.5781 Q671.9897,221.5781 671.3022,222.6563 Q670.6147,223.7188 670.6147,225.8125 Q670.6147,227.9063 671.3022,228.9844 Q671.9897,230.0469 673.3335,230.0469 Q673.9585,230.0469 674.5522,229.7813 Q675.146,229.5 675.771,228.9219 L675.771,231.6406 Z " fill="#000000"/><text fill="#000000" font-family="sans-serif" font-size="14" lengthAdjust="spacing" textLength="63.2518" x="693.3022" y="231.432">Shipment</text><line style="stroke:#181818;stroke-width:0.5;" x1="454.5" x2="962.8562" y1="242" y2="242"/><polygon fill="none" points="464.5,252.034,468.5,256.034,464.5,260.034,460.5,256.034" style="stroke:#B38D22;stroke-width:1;"/><text fill="#000000" font-family="sans-serif" font-size="14" lengthAdjust="spacing" textLength="112.3215" x="473.5" y="260.9659">delivery: Delivery</text><polygon fill="none" points="464.5,271.1019,468.5,275.1019,464.5,279.1019,460.5,275.1019" style="stroke:#B38D22;stroke-width:1;"/><text fill="#000000" font-family="sans-serif" font-size="14" lengthAdjust="spacing" textLength="144.3675" x="473.5" y="280.0339">orderList: List&lt;Order&gt;</text><polygon fill="none" points="464.5,290.1698,468.5,294.1698,464.5,298.1698,460.5,294.1698" style="stroke:#B38D22;stroke-width:1;"/><text fill="#000000" font-family="sans-serif" font-size="14" lengthAdjust="spacing" textLength="154.3214" x="473.5" y="299.1018">processDate: LocalDate</text><line style="stroke:#181818;stroke-width:0.5;" x1="454.5" x2="962.8562" y1="307.2038" y2="307.2038"/><text fill="#000000" font-family="sans-serif" font-size="14" lengthAdjust="spacing" textLength="484.3562" x="473.5" y="326.1697">Shipment(orderList: List&lt;Order&gt;, processDate: LocalDate, location: String)</text><ellipse cx="464.5" cy="341.3056" fill="#84BE84" rx="3" ry="3" style="stroke:#038048;stroke-width:1;"/><text fill="#000000" font-family="sans-serif" font-size="14" lengthAdjust="spacing" textLength="249.115" x="473.5" y="345.2376">newDelivery(location: String): Delivery</text><ellipse cx="464.5" cy="360.3735" fill="#84BE84" rx="3" ry="3" style="stroke:#038048;stroke-width:1;"/><text fill="#000000" font-family="sans-serif" font-size="14" lengthAdjust="spacing" textLength="162.4134" x="473.5" y="364.3055">shipmentDetails(): String</text><polygon fill="#FFFF44" points="464.5,374.4415,468.5,378.4415,464.5,382.4415,460.5,378.4415" style="stroke:#B38D22;stroke-width:1;"/><text fill="#000000" font-family="sans-serif" font-size="14" lengthAdjust="spacing" textLength="110.5716" x="473.5" y="383.3734">totalPrice(): Float</text></g><!--class ExpressDelivery--><g class="entity" data-entity="ExpressDelivery" data-source-line="48" data-uid="ent0007" id="entity_ExpressDelivery"><rect fill="#F1F1F1" height="181.4754" rx="2.5" ry="2.5" style="stroke:#181818;stroke-width:0.5;" width="411.1945" x="999" y="210"/><ellipse cx="1148.2675" cy="226" fill="#ADD1B2" rx="11" ry="11" style="stroke:#181818;stroke-width:1;"/><path d="M1151.2362,231.6406 Q1150.6581,231.9375 1150.0175,232.0781 Q1149.3769,232.2344 1148.6737,232.2344 Q1146.1737,232.2344 1144.8456,230.5938 Q1143.5331,228.9375 1143.5331,225.8125 Q1143.5331,222.6875 1144.8456,221.0313 Q1146.1737,219.375 1148.6737,219.375 Q1149.3769,219.375 1150.0175,219.5313 Q1150.6737,219.6875 1151.2362,219.9844 L1151.2362,222.7031 Q1150.6112,222.125 1150.0175,221.8594 Q1149.4237,221.5781 1148.7987,221.5781 Q1147.455,221.5781 1146.7675,222.6563 Q1146.08,223.7188 1146.08,225.8125 Q1146.08,227.9063 1146.7675,228.9844 Q1147.455,230.0469 1148.7987,230.0469 Q1149.4237,230.0469 1150.0175,229.7813 Q1150.6112,229.5 1151.2362,228.9219 L1151.2362,231.6406 Z " fill="#000000"/><text fill="#000000" font-family="sans-serif" font-size="14" lengthAdjust="spacing" textLength="104.1596" x="1168.7675" y="231.432">ExpressDelivery</text><line style="stroke:#181818;stroke-width:0.5;" x1="1000" x2="1409.1945" y1="242" y2="242"/><rect fill="none" height="6" style="stroke:#C82930;stroke-width:1;" width="6" x="1007" y="254.034"/><text fill="#000000" font-family="sans-serif" font-size="14" lengthAdjust="spacing" textLength="139.4535" x="1019" y="260.9659">deliveryStatus: String</text><rect fill="none" height="6" style="stroke:#C82930;stroke-width:1;" width="6" x="1007" y="273.1019"/><text fill="#000000" font-family="sans-serif" font-size="14" lengthAdjust="spacing" textLength="99.2316" x="1019" y="280.0339">location: String</text><line style="stroke:#181818;stroke-width:0.5;" x1="1000" x2="1409.1945" y1="288.1358" y2="288.1358"/><text fill="#000000" font-family="sans-serif" font-size="14" lengthAdjust="spacing" textLength="211.7912" x="1019" y="307.1018">ExpressDelivery(location: String)</text><ellipse cx="1010" cy="322.2377" fill="#84BE84" rx="3" ry="3" style="stroke:#038048;stroke-width:1;"/><text fill="#000000" font-family="sans-serif" font-size="14" lengthAdjust="spacing" textLength="266.405" x="1019" y="326.1697">changeDeliveryStatus(newStatus: String)</text><ellipse cx="1010" cy="341.3056" fill="#84BE84" rx="3" ry="3" style="stroke:#038048;stroke-width:1;"/><text fill="#000000" font-family="sans-serif" font-size="14" lengthAdjust="spacing" textLength="151.8014" x="1019" y="345.2376">deliveryDetails(): String</text><ellipse cx="1010" cy="360.3735" fill="#84BE84" rx="3" ry="3" style="stroke:#038048;stroke-width:1;"/><text fill="#000000" font-family="sans-serif" font-size="14" lengthAdjust="spacing" textLength="122.7655" x="1019" y="364.3055">deliveryFee(): Float</text><ellipse cx="1010" cy="379.4415" fill="#84BE84" rx="3" ry="3" style="stroke:#038048;stroke-width:1;"/><text fill="#000000" font-family="sans-serif" font-size="14" lengthAdjust="spacing" textLength="385.1945" x="1019" y="383.3734">estimatedDeliveryDate(processDate: LocalDate): LocalDate</text></g><!--class ExpressShipment--><g class="entity" data-entity="ExpressShipment" data-source-line="61" data-uid="ent0009" id="entity_ExpressShipment"><rect fill="#F1F1F1" height="86.1358" rx="2.5" ry="2.5" style="stroke:#181818;stroke-width:0.5;" width="561.246" x="676" y="35.5"/><ellipse cx="895.3022" cy="51.5" fill="#ADD1B2" rx="11" ry="11" style="stroke:#181818;stroke-width:1;"/><path d="M898.271,57.1406 Q897.6928,57.4375 897.0522,57.5781 Q896.4116,57.7344 895.7085,57.7344 Q893.2085,57.7344 891.8803,56.0938 Q890.5678,54.4375 890.5678,51.3125 Q890.5678,48.1875 891.8803,46.5313 Q893.2085,44.875 895.7085,44.875 Q896.4116,44.875 897.0522,45.0313 Q897.7085,45.1875 898.271,45.4844 L898.271,48.2031 Q897.646,47.625 897.0522,47.3594 Q896.4585,47.0781 895.8335,47.0781 Q894.4897,47.0781 893.8022,48.1563 Q893.1147,49.2188 893.1147,51.3125 Q893.1147,53.4063 893.8022,54.4844 Q894.4897,55.5469 895.8335,55.5469 Q896.4585,55.5469 897.0522,55.2813 Q897.646,55 898.271,54.4219 L898.271,57.1406 Z " fill="#000000"/><text fill="#000000" font-family="sans-serif" font-size="14" lengthAdjust="spacing" textLength="114.1416" x="915.8022" y="56.932">ExpressShipment</text><line style="stroke:#181818;stroke-width:0.5;" x1="677" x2="1236.246" y1="67.5" y2="67.5"/><line style="stroke:#181818;stroke-width:0.5;" x1="677" x2="1236.246" y1="75.5" y2="75.5"/><text fill="#000000" font-family="sans-serif" font-size="14" lengthAdjust="spacing" textLength="535.246" x="696" y="94.4659">ExpressShipment(orderList: List&lt;Order&gt;, processDate: LocalDate, location: String)</text><ellipse cx="687" cy="109.6019" fill="#84BE84" rx="3" ry="3" style="stroke:#038048;stroke-width:1;"/><text fill="#000000" font-family="sans-serif" font-size="14" lengthAdjust="spacing" textLength="300.0048" x="696" y="113.5339">newDelivery(location: String): ExpressDelivery</text></g><!--link StandardDelivery to Delivery--><g class="link" data-entity-1="StandardDelivery" data-entity-2="Delivery" data-source-line="33" data-uid="lnk5" id="link_StandardDelivery_Delivery"><path codeLine="33" d="M418.18,388.79 C467.32,409.64 502.1696,424.4399 547.8496,443.8199" fill="none" id="StandardDelivery-to-Delivery" style="stroke:#181818;stroke-width:1;stroke-dasharray:7,7;"/><polygon fill="none" points="564.42,450.85,550.193,438.2965,545.5062,449.3434,564.42,450.85" style="stroke:#181818;stroke-width:1;"/></g><!--link ExpressDelivery to Delivery--><g class="link" data-entity-1="ExpressDelivery" data-entity-2="Delivery" data-source-line="59" data-uid="lnk8" id="link_ExpressDelivery_Delivery"><path codeLine="59" d="M998.82,388.79 C949.68,409.64 914.8304,424.4399 869.1504,443.8199" fill="none" id="ExpressDelivery-to-Delivery" style="stroke:#181818;stroke-width:1;stroke-dasharray:7,7;"/><polygon fill="none" points="852.58,450.85,871.4938,449.3434,866.807,438.2965,852.58,450.85" style="stroke:#181818;stroke-width:1;"/></g><!--link ExpressShipment to Shipment--><g class="link" data-entity-1="ExpressShipment" data-entity-2="Shipment" data-source-line="67" data-uid="lnk10" id="link_ExpressShipment_Shipment"><path codeLine="67" d="M908.98,121.66 C880.78,146.67 857.3863,167.426 822.9763,197.946" fill="none" id="ExpressShipment-to-Shipment" style="stroke:#181818;stroke-width:1;"/><polygon fill="none" points="809.51,209.89,826.9576,202.4348,818.995,193.4573,809.51,209.89" style="stroke:#181818;stroke-width:1;"/></g><!--link Shipment to Delivery--><g class="link" data-entity-1="Shipment" data-entity-2="Delivery" data-source-line="73" data-uid="lnk11" id="link_Shipment_Delivery"><path codeLine="73" d="M708.5,391.08 C708.5,411.22 708.5,426.14 708.5,444.81" fill="none" id="Shipment-to-Delivery" style="stroke:#181818;stroke-width:1;stroke-dasharray:7,7;"/><polygon fill="#181818" points="708.5,450.81,712.5,441.81,708.5,445.81,704.5,441.81,708.5,450.81" style="stroke:#181818;stroke-width:1;"/></g><!--link ExpressShipment to ExpressDelivery--><g class="link" data-entity-1="ExpressShipment" data-entity-2="ExpressDelivery" data-source-line="76" data-uid="lnk12" id="link_ExpressShipment_ExpressDelivery"><path codeLine="76" d="M1004.02,121.66 C1032.22,146.67 1064.5912,175.3887 1099.0012,205.9087" fill="none" id="ExpressShipment-to-ExpressDelivery" style="stroke:#181818;stroke-width:1;stroke-dasharray:7,7;"/><polygon fill="#181818" points="1103.49,209.89,1099.4111,200.9255,1099.7494,206.5722,1094.1026,206.9105,1103.49,209.89" style="stroke:#181818;stroke-width:1;"/></g><!--SRC=[vLBBRi8m4BpxArRY4WJ91w2AKye9KII-m7LMOCbvo5xwKDj_hvtO2HYZNdgfcWEoTzRipEpmPqEQ2mAXk35Gef8lgD_P1sDWlmM84s-E6Ee7udGsMOElmsa51zAoESvzT-NxIYGkbSdceI72DuWEswYMauVGaAmvOHLcbVQITReLQ8mxhs3R2gxSSNvnPb-CiO7zawvG1-hznRslpe9slCP0PGc-kDTIe2Sn2CWXqN-DN3xop5itQUYz4TovzadgnDNwrrHSLx7ZSJrJLYZ9jhcsEX-jl5w41-D7VsYPiG5G59_hAPZ1lfFiQcnejCtVituPMsd8_glzVUXZiEvtdfYzXBIzir7SQXez0Ea17anFyQPOe-zlDPgp0ECLfTsV0RN4rVvUl1xVEks8HEcAolykN97-TBPyKnongFnBIVin5l4cHn612EIv5J6oxRyHAufBVJTF7HmD-0O0]--></g></svg>