<svg xmlns="http://www.w3.org/2000/svg" xmlns:xlink="http://www.w3.org/1999/xlink" contentStyleType="text/css" data-diagram-type="CLASS" height="455px" preserveAspectRatio="none" style="width:549px;height:455px;background:#FFFFFF;" version="1.1" viewBox="0 0 549 455" width="549px" zoomAndPan="magnify"><defs/><g><!--class Context--><g class="entity" data-entity="Context" data-source-line="1" data-uid="ent0002" id="entity_Context"><rect fill="#F1F1F1" height="128.4932" rx="2.5" ry="2.5" style="stroke:#181818;stroke-width:0.5;" width="212.7852" x="168.23" y="179.39"/><ellipse cx="246.2486" cy="195.39" fill="#ADD1B2" rx="11" ry="11" style="stroke:#181818;stroke-width:1;"/><path d="M246.2954,202.0306 Q245.7798,202.0306 245.2642,201.9369 Q244.7642,201.8588 244.3111,201.6244 Q243.8736,201.39 243.4986,201.0306 Q243.1392,200.6713 242.8892,200.2181 Q242.6548,199.7494 242.5611,199.2494 Q242.4829,198.7494 242.4829,198.2338 L242.4829,193.0463 Q242.4829,192.5463 242.5611,192.0463 Q242.6548,191.5306 242.8892,191.0775 Q243.1392,190.6244 243.4986,190.265 Q243.8736,189.89 244.3111,189.6556 Q244.7642,189.4213 245.2642,189.3431 Q245.7798,189.265 246.2954,189.265 Q246.7798,189.265 247.2329,189.3275 Q247.7017,189.39 248.1392,189.5775 Q248.5923,189.7494 248.9673,190.0463 Q249.3423,190.3431 249.5923,190.7494 Q249.8579,191.14 249.9829,191.6088 Q250.1079,192.0619 250.1079,192.5463 L250.1079,192.6088 L248.0767,192.6088 L248.0767,192.5775 Q248.0767,192.2338 247.9517,191.9213 Q247.8267,191.5931 247.5611,191.3744 Q247.2954,191.14 246.9673,191.0619 Q246.6392,190.9838 246.2954,190.9838 Q245.9048,190.9838 245.5298,191.14 Q245.1548,191.2806 244.9204,191.5931 Q244.6861,191.89 244.5923,192.2806 Q244.5142,192.6556 244.5142,193.0463 L244.5142,198.2338 Q244.5142,198.6244 244.5923,199.015 Q244.6861,199.39 244.9204,199.7025 Q245.1548,199.9994 245.5298,200.1556 Q245.9048,200.3119 246.2954,200.3119 Q246.6392,200.3119 246.9673,200.2338 Q247.2954,200.14 247.5611,199.9213 Q247.8267,199.7025 247.9517,199.3744 Q248.0767,199.0463 248.0767,198.7181 L248.0767,198.6713 L250.1079,198.6713 L250.1079,198.7494 Q250.1079,199.2181 249.9829,199.6869 Q249.8579,200.14 249.5923,200.5463 Q249.3423,200.9369 248.9673,201.2338 Q248.5923,201.5306 248.1392,201.7181 Q247.7017,201.89 247.2329,201.9525 Q246.7798,202.0306 246.2954,202.0306 Z " fill="#000000"/><text fill="#000000" font-family="sans-serif" font-size="14" lengthAdjust="spacing" textLength="48.248" x="266.7486" y="200.4725">Context</text><line style="stroke:#181818;stroke-width:0.5;" x1="169.23" x2="380.0152" y1="211.39" y2="211.39"/><rect fill="none" height="6" style="stroke:#C82930;stroke-width:1;" width="6" x="176.23" y="221.9393"/><text fill="#000000" font-family="sans-serif" font-size="14" lengthAdjust="spacing" textLength="116.7305" x="188.23" y="228.5218">currentState: State</text><line style="stroke:#181818;stroke-width:0.5;" x1="169.23" x2="380.0152" y1="235.4886" y2="235.4886"/><text fill="#000000" font-family="sans-serif" font-size="14" lengthAdjust="spacing" textLength="57.5723" x="188.23" y="252.6205">Context()</text><ellipse cx="179.23" cy="265.1366" fill="#84BE84" rx="3" ry="3" style="stroke:#038048;stroke-width:1;"/><text fill="#000000" font-family="sans-serif" font-size="14" lengthAdjust="spacing" textLength="112.0615" x="188.23" y="268.7191">anotherBehavior()</text><ellipse cx="179.23" cy="281.2352" fill="#84BE84" rx="3" ry="3" style="stroke:#038048;stroke-width:1;"/><text fill="#000000" font-family="sans-serif" font-size="14" lengthAdjust="spacing" textLength="63.0273" x="188.23" y="284.8177">behavior()</text><ellipse cx="179.23" cy="297.3338" fill="#84BE84" rx="3" ry="3" style="stroke:#038048;stroke-width:1;"/><text fill="#000000" font-family="sans-serif" font-size="14" lengthAdjust="spacing" textLength="186.7852" x="188.23" y="300.9164">changeState(newState: State)</text></g><!--class State--><g class="entity" data-entity="State" data-source-line="11" data-uid="ent0003" id="entity_State"><rect fill="#F1F1F1" height="80.1973" rx="2.5" ry="2.5" style="stroke:#181818;stroke-width:0.5;" width="239.2539" x="155" y="367.88"/><ellipse cx="254.0322" cy="383.88" fill="#B4A7E5" rx="11" ry="11" style="stroke:#181818;stroke-width:1;"/><path d="M251.1885,390.38 L251.1885,388.6613 L252.626,388.6613 L252.626,379.5988 L251.1885,379.5988 L251.1885,377.88 L256.0791,377.88 L256.0791,379.5988 L254.6416,379.5988 L254.6416,388.6613 L256.0791,388.6613 L256.0791,390.38 L251.1885,390.38 Z " fill="#000000"/><text fill="#000000" font-family="sans-serif" font-size="14" font-style="italic" lengthAdjust="spacing" textLength="32.6895" x="274.5322" y="388.9625">State</text><line style="stroke:#181818;stroke-width:0.5;" x1="156" x2="393.2539" y1="399.88" y2="399.88"/><line style="stroke:#181818;stroke-width:0.5;" x1="156" x2="393.2539" y1="407.88" y2="407.88"/><ellipse cx="166" cy="421.4293" fill="#84BE84" rx="3" ry="3" style="stroke:#038048;stroke-width:1;"/><text fill="#000000" font-family="sans-serif" font-size="14" lengthAdjust="spacing" textLength="213.2539" x="175" y="425.0118">anotherStateDependentBehavior()</text><ellipse cx="166" cy="437.5279" fill="#84BE84" rx="3" ry="3" style="stroke:#038048;stroke-width:1;"/><text fill="#000000" font-family="sans-serif" font-size="14" lengthAdjust="spacing" textLength="163.4336" x="175" y="441.1105">stateDependentBehavior()</text></g><!--class InitialState--><g class="entity" data-entity="InitialState" data-source-line="18" data-uid="ent0004" id="entity_InitialState"><rect fill="#F1F1F1" height="112.3945" rx="2.5" ry="2.5" style="stroke:#181818;stroke-width:0.5;" width="239.2539" x="7" y="7"/><ellipse cx="89.6909" cy="23" fill="#ADD1B2" rx="11" ry="11" style="stroke:#181818;stroke-width:1;"/><path d="M89.7378,29.6406 Q89.2222,29.6406 88.7065,29.5469 Q88.2065,29.4688 87.7534,29.2344 Q87.3159,29 86.9409,28.6406 Q86.5815,28.2813 86.3315,27.8281 Q86.0972,27.3594 86.0034,26.8594 Q85.9253,26.3594 85.9253,25.8438 L85.9253,20.6563 Q85.9253,20.1563 86.0034,19.6563 Q86.0972,19.1406 86.3315,18.6875 Q86.5815,18.2344 86.9409,17.875 Q87.3159,17.5 87.7534,17.2656 Q88.2065,17.0313 88.7065,16.9531 Q89.2222,16.875 89.7378,16.875 Q90.2222,16.875 90.6753,16.9375 Q91.144,17 91.5815,17.1875 Q92.0347,17.3594 92.4097,17.6563 Q92.7847,17.9531 93.0347,18.3594 Q93.3003,18.75 93.4253,19.2188 Q93.5503,19.6719 93.5503,20.1563 L93.5503,20.2188 L91.519,20.2188 L91.519,20.1875 Q91.519,19.8438 91.394,19.5313 Q91.269,19.2031 91.0034,18.9844 Q90.7378,18.75 90.4097,18.6719 Q90.0815,18.5938 89.7378,18.5938 Q89.3472,18.5938 88.9722,18.75 Q88.5972,18.8906 88.3628,19.2031 Q88.1284,19.5 88.0347,19.8906 Q87.9565,20.2656 87.9565,20.6563 L87.9565,25.8438 Q87.9565,26.2344 88.0347,26.625 Q88.1284,27 88.3628,27.3125 Q88.5972,27.6094 88.9722,27.7656 Q89.3472,27.9219 89.7378,27.9219 Q90.0815,27.9219 90.4097,27.8438 Q90.7378,27.75 91.0034,27.5313 Q91.269,27.3125 91.394,26.9844 Q91.519,26.6563 91.519,26.3281 L91.519,26.2813 L93.5503,26.2813 L93.5503,26.3594 Q93.5503,26.8281 93.4253,27.2969 Q93.3003,27.75 93.0347,28.1563 Q92.7847,28.5469 92.4097,28.8438 Q92.0347,29.1406 91.5815,29.3281 Q91.144,29.5 90.6753,29.5625 Q90.2222,29.6406 89.7378,29.6406 Z " fill="#000000"/><text fill="#000000" font-family="sans-serif" font-size="14" lengthAdjust="spacing" textLength="65.3721" x="110.1909" y="28.0825">InitialState</text><line style="stroke:#181818;stroke-width:0.5;" x1="8" x2="245.2539" y1="39" y2="39"/><rect fill="none" height="6" style="stroke:#C82930;stroke-width:1;" width="6" x="15" y="49.5493"/><text fill="#000000" font-family="sans-serif" font-size="14" lengthAdjust="spacing" textLength="94.1582" x="27" y="56.1318">owner: Context</text><line style="stroke:#181818;stroke-width:0.5;" x1="8" x2="245.2539" y1="63.0986" y2="63.0986"/><text fill="#000000" font-family="sans-serif" font-size="14" lengthAdjust="spacing" textLength="168.8545" x="27" y="80.2305">InitialState(owner: Context)</text><ellipse cx="18" cy="92.7466" fill="#84BE84" rx="3" ry="3" style="stroke:#038048;stroke-width:1;"/><text fill="#000000" font-family="sans-serif" font-size="14" lengthAdjust="spacing" textLength="213.2539" x="27" y="96.3291">anotherStateDependentBehavior()</text><ellipse cx="18" cy="108.8452" fill="#84BE84" rx="3" ry="3" style="stroke:#038048;stroke-width:1;"/><text fill="#000000" font-family="sans-serif" font-size="14" lengthAdjust="spacing" textLength="163.4336" x="27" y="112.4277">stateDependentBehavior()</text></g><!--class AnotherState--><g class="entity" data-entity="AnotherState" data-source-line="27" data-uid="ent0006" id="entity_AnotherState"><rect fill="#F1F1F1" height="112.3945" rx="2.5" ry="2.5" style="stroke:#181818;stroke-width:0.5;" width="239.2539" x="303" y="7"/><ellipse cx="377.5151" cy="23" fill="#ADD1B2" rx="11" ry="11" style="stroke:#181818;stroke-width:1;"/><path d="M377.562,29.6406 Q377.0464,29.6406 376.5308,29.5469 Q376.0308,29.4688 375.5776,29.2344 Q375.1401,29 374.7651,28.6406 Q374.4058,28.2813 374.1558,27.8281 Q373.9214,27.3594 373.8276,26.8594 Q373.7495,26.3594 373.7495,25.8438 L373.7495,20.6563 Q373.7495,20.1563 373.8276,19.6563 Q373.9214,19.1406 374.1558,18.6875 Q374.4058,18.2344 374.7651,17.875 Q375.1401,17.5 375.5776,17.2656 Q376.0308,17.0313 376.5308,16.9531 Q377.0464,16.875 377.562,16.875 Q378.0464,16.875 378.4995,16.9375 Q378.9683,17 379.4058,17.1875 Q379.8589,17.3594 380.2339,17.6563 Q380.6089,17.9531 380.8589,18.3594 Q381.1245,18.75 381.2495,19.2188 Q381.3745,19.6719 381.3745,20.1563 L381.3745,20.2188 L379.3433,20.2188 L379.3433,20.1875 Q379.3433,19.8438 379.2183,19.5313 Q379.0933,19.2031 378.8276,18.9844 Q378.562,18.75 378.2339,18.6719 Q377.9058,18.5938 377.562,18.5938 Q377.1714,18.5938 376.7964,18.75 Q376.4214,18.8906 376.187,19.2031 Q375.9526,19.5 375.8589,19.8906 Q375.7808,20.2656 375.7808,20.6563 L375.7808,25.8438 Q375.7808,26.2344 375.8589,26.625 Q375.9526,27 376.187,27.3125 Q376.4214,27.6094 376.7964,27.7656 Q377.1714,27.9219 377.562,27.9219 Q377.9058,27.9219 378.2339,27.8438 Q378.562,27.75 378.8276,27.5313 Q379.0933,27.3125 379.2183,26.9844 Q379.3433,26.6563 379.3433,26.3281 L379.3433,26.2813 L381.3745,26.2813 L381.3745,26.3594 Q381.3745,26.8281 381.2495,27.2969 Q381.1245,27.75 380.8589,28.1563 Q380.6089,28.5469 380.2339,28.8438 Q379.8589,29.1406 379.4058,29.3281 Q378.9683,29.5 378.4995,29.5625 Q378.0464,29.6406 377.562,29.6406 Z " fill="#000000"/><text fill="#000000" font-family="sans-serif" font-size="14" lengthAdjust="spacing" textLength="81.7236" x="398.0151" y="28.0825">AnotherState</text><line style="stroke:#181818;stroke-width:0.5;" x1="304" x2="541.2539" y1="39" y2="39"/><rect fill="none" height="6" style="stroke:#C82930;stroke-width:1;" width="6" x="311" y="49.5493"/><text fill="#000000" font-family="sans-serif" font-size="14" lengthAdjust="spacing" textLength="94.1582" x="323" y="56.1318">owner: Context</text><line style="stroke:#181818;stroke-width:0.5;" x1="304" x2="541.2539" y1="63.0986" y2="63.0986"/><text fill="#000000" font-family="sans-serif" font-size="14" lengthAdjust="spacing" textLength="185.2061" x="323" y="80.2305">AnotherState(owner: Context)</text><ellipse cx="314" cy="92.7466" fill="#84BE84" rx="3" ry="3" style="stroke:#038048;stroke-width:1;"/><text fill="#000000" font-family="sans-serif" font-size="14" lengthAdjust="spacing" textLength="213.2539" x="323" y="96.3291">anotherStateDependentBehavior()</text><ellipse cx="314" cy="108.8452" fill="#84BE84" rx="3" ry="3" style="stroke:#038048;stroke-width:1;"/><text fill="#000000" font-family="sans-serif" font-size="14" lengthAdjust="spacing" textLength="163.4336" x="323" y="112.4277">stateDependentBehavior()</text></g><!--link InitialState to State--><g class="link" data-entity-1="InitialState" data-entity-2="State" data-source-line="25" data-uid="lnk5" id="link_InitialState_State"><path codeLine="25" d="M120.3,119.52 C116.98,171.36 118.88,249.41 150.63,307.88 C163.51,331.62 170.239,340.9818 191.489,356.7318" fill="none" id="InitialState-to-State" style="stroke:#181818;stroke-width:1;stroke-dasharray:7,7;"/><polygon fill="none" points="205.95,367.45,195.0617,351.9115,187.9163,361.5522,205.95,367.45" style="stroke:#181818;stroke-width:1;"/></g><!--link AnotherState to State--><g class="link" data-entity-1="AnotherState" data-entity-2="State" data-source-line="34" data-uid="lnk7" id="link_AnotherState_State"><path codeLine="34" d="M428.95,119.52 C432.27,171.36 430.37,249.41 398.63,307.88 C385.74,331.62 379.011,340.9818 357.761,356.7318" fill="none" id="AnotherState-to-State" style="stroke:#181818;stroke-width:1;stroke-dasharray:7,7;"/><polygon fill="none" points="343.3,367.45,361.3337,361.5522,354.1883,351.9115,343.3,367.45" style="stroke:#181818;stroke-width:1;"/></g><!--link Context to State--><g class="link" data-entity-1="Context" data-entity-2="State" data-source-line="36" data-uid="lnk8" id="link_Context_State"><path codeLine="36" d="M274.63,308.33 C274.63,328.41 274.63,343.98 274.63,361.82" fill="none" id="Context-to-State" style="stroke:#181818;stroke-width:1;stroke-dasharray:7,7;"/><polygon fill="#181818" points="274.63,367.82,278.63,358.82,274.63,362.82,270.63,358.82,274.63,367.82" style="stroke:#181818;stroke-width:1;"/></g><!--link InitialState to Context--><g class="link" data-entity-1="InitialState" data-entity-2="Context" data-source-line="37" data-uid="lnk9" id="link_InitialState_Context"><path codeLine="37" d="M172.64,119.67 C188.26,138.5 201.9908,155.0507 218.0808,174.4607" fill="none" id="InitialState-to-Context" style="stroke:#181818;stroke-width:1;stroke-dasharray:7,7;"/><polygon fill="#181818" points="221.91,179.08,219.2458,169.5983,218.719,175.2306,213.0868,174.7039,221.91,179.08" style="stroke:#181818;stroke-width:1;"/></g><!--link AnotherState to Context--><g class="link" data-entity-1="AnotherState" data-entity-2="Context" data-source-line="38" data-uid="lnk10" id="link_AnotherState_Context"><path codeLine="38" d="M376.61,119.67 C361,138.5 347.2592,155.0507 331.1692,174.4607" fill="none" id="AnotherState-to-Context" style="stroke:#181818;stroke-width:1;stroke-dasharray:7,7;"/><polygon fill="#181818" points="327.34,179.08,336.1632,174.7039,330.531,175.2306,330.0042,169.5983,327.34,179.08" style="stroke:#181818;stroke-width:1;"/></g><!--SRC=[lOzB2i8m48RtESKiMueUe8k2ZurhJp36qGRAHD9eXUhTZI4jquexCPimtp3_GpVOjh2nxEdkLQyWl3HbUPmMeA_E4VkzHqybn2zk2a2slYQtfXflnhfqKS1X3dIDVAPucZ5rKYfNJwMK2PRkX9gIVZzrY71B5-9ZIFBXrtvRlwLrhBXZumqsKbsYp7PChXow3zMdz5UPf34ibuygbKvHLq8_HPNehr6byIHgyWbiGBDMrHXbfZ4kNW00]--></g></svg>