<svg xmlns="http://www.w3.org/2000/svg" xmlns:xlink="http://www.w3.org/1999/xlink" contentStyleType="text/css" data-diagram-type="CLASS" height="218px" preserveAspectRatio="none" style="width:385px;height:218px;background:#FFFFFF;" version="1.1" viewBox="0 0 385 218" width="385px" zoomAndPan="magnify"><defs/><g><!--class Strategy--><g class="entity" data-entity="Strategy" data-source-line="1" data-uid="ent0002" id="entity_Strategy"><rect fill="#F1F1F1" height="64.0986" rx="2.5" ry="2.5" style="stroke:#181818;stroke-width:0.5;" width="168.3926" x="108" y="147.2"/><ellipse cx="161.8774" cy="163.2" fill="#B4A7E5" rx="11" ry="11" style="stroke:#181818;stroke-width:1;"/><path d="M159.0337,169.7 L159.0337,167.9813 L160.4712,167.9813 L160.4712,158.9188 L159.0337,158.9188 L159.0337,157.2 L163.9243,157.2 L163.9243,158.9188 L162.4868,158.9188 L162.4868,167.9813 L163.9243,167.9813 L163.9243,169.7 L159.0337,169.7 Z " fill="#000000"/><text fill="#000000" font-family="sans-serif" font-size="14" font-style="italic" lengthAdjust="spacing" textLength="52.1377" x="182.3774" y="168.2825">Strategy</text><line style="stroke:#181818;stroke-width:0.5;" x1="109" x2="275.3926" y1="179.2" y2="179.2"/><line style="stroke:#181818;stroke-width:0.5;" x1="109" x2="275.3926" y1="187.2" y2="187.2"/><ellipse cx="119" cy="200.7493" fill="#84BE84" rx="3" ry="3" style="stroke:#038048;stroke-width:1;"/><text fill="#000000" font-family="sans-serif" font-size="14" lengthAdjust="spacing" textLength="142.3926" x="128" y="204.3318">execute(param: String)</text></g><!--class Strategy1--><g class="entity" data-entity="Strategy1" data-source-line="7" data-uid="ent0003" id="entity_Strategy1"><rect fill="#F1F1F1" height="80.1973" rx="2.5" ry="2.5" style="stroke:#181818;stroke-width:0.5;" width="168.3926" x="7" y="7"/><ellipse cx="56.9844" cy="23" fill="#ADD1B2" rx="11" ry="11" style="stroke:#181818;stroke-width:1;"/><path d="M57.0313,29.6406 Q56.5156,29.6406 56,29.5469 Q55.5,29.4688 55.0469,29.2344 Q54.6094,29 54.2344,28.6406 Q53.875,28.2813 53.625,27.8281 Q53.3906,27.3594 53.2969,26.8594 Q53.2188,26.3594 53.2188,25.8438 L53.2188,20.6563 Q53.2188,20.1563 53.2969,19.6563 Q53.3906,19.1406 53.625,18.6875 Q53.875,18.2344 54.2344,17.875 Q54.6094,17.5 55.0469,17.2656 Q55.5,17.0313 56,16.9531 Q56.5156,16.875 57.0313,16.875 Q57.5156,16.875 57.9688,16.9375 Q58.4375,17 58.875,17.1875 Q59.3281,17.3594 59.7031,17.6563 Q60.0781,17.9531 60.3281,18.3594 Q60.5938,18.75 60.7188,19.2188 Q60.8438,19.6719 60.8438,20.1563 L60.8438,20.2188 L58.8125,20.2188 L58.8125,20.1875 Q58.8125,19.8438 58.6875,19.5313 Q58.5625,19.2031 58.2969,18.9844 Q58.0313,18.75 57.7031,18.6719 Q57.375,18.5938 57.0313,18.5938 Q56.6406,18.5938 56.2656,18.75 Q55.8906,18.8906 55.6563,19.2031 Q55.4219,19.5 55.3281,19.8906 Q55.25,20.2656 55.25,20.6563 L55.25,25.8438 Q55.25,26.2344 55.3281,26.625 Q55.4219,27 55.6563,27.3125 Q55.8906,27.6094 56.2656,27.7656 Q56.6406,27.9219 57.0313,27.9219 Q57.375,27.9219 57.7031,27.8438 Q58.0313,27.75 58.2969,27.5313 Q58.5625,27.3125 58.6875,26.9844 Q58.8125,26.6563 58.8125,26.3281 L58.8125,26.2813 L60.8438,26.2813 L60.8438,26.3594 Q60.8438,26.8281 60.7188,27.2969 Q60.5938,27.75 60.3281,28.1563 Q60.0781,28.5469 59.7031,28.8438 Q59.3281,29.1406 58.875,29.3281 Q58.4375,29.5 57.9688,29.5625 Q57.5156,29.6406 57.0313,29.6406 Z " fill="#000000"/><text fill="#000000" font-family="sans-serif" font-size="14" lengthAdjust="spacing" textLength="59.9238" x="77.4844" y="28.0825">Strategy1</text><line style="stroke:#181818;stroke-width:0.5;" x1="8" x2="174.3926" y1="39" y2="39"/><line style="stroke:#181818;stroke-width:0.5;" x1="8" x2="174.3926" y1="47" y2="47"/><text fill="#000000" font-family="sans-serif" font-size="14" lengthAdjust="spacing" textLength="69.248" x="27" y="64.1318">Strategy1()</text><ellipse cx="18" cy="76.6479" fill="#84BE84" rx="3" ry="3" style="stroke:#038048;stroke-width:1;"/><text fill="#000000" font-family="sans-serif" font-size="14" lengthAdjust="spacing" textLength="142.3926" x="27" y="80.2305">execute(param: String)</text></g><!--class Strategy2--><g class="entity" data-entity="Strategy2" data-source-line="14" data-uid="ent0005" id="entity_Strategy2"><rect fill="#F1F1F1" height="80.1973" rx="2.5" ry="2.5" style="stroke:#181818;stroke-width:0.5;" width="168.3926" x="210" y="7"/><ellipse cx="259.9844" cy="23" fill="#ADD1B2" rx="11" ry="11" style="stroke:#181818;stroke-width:1;"/><path d="M260.0313,29.6406 Q259.5156,29.6406 259,29.5469 Q258.5,29.4688 258.0469,29.2344 Q257.6094,29 257.2344,28.6406 Q256.875,28.2813 256.625,27.8281 Q256.3906,27.3594 256.2969,26.8594 Q256.2188,26.3594 256.2188,25.8438 L256.2188,20.6563 Q256.2188,20.1563 256.2969,19.6563 Q256.3906,19.1406 256.625,18.6875 Q256.875,18.2344 257.2344,17.875 Q257.6094,17.5 258.0469,17.2656 Q258.5,17.0313 259,16.9531 Q259.5156,16.875 260.0313,16.875 Q260.5156,16.875 260.9688,16.9375 Q261.4375,17 261.875,17.1875 Q262.3281,17.3594 262.7031,17.6563 Q263.0781,17.9531 263.3281,18.3594 Q263.5938,18.75 263.7188,19.2188 Q263.8438,19.6719 263.8438,20.1563 L263.8438,20.2188 L261.8125,20.2188 L261.8125,20.1875 Q261.8125,19.8438 261.6875,19.5313 Q261.5625,19.2031 261.2969,18.9844 Q261.0313,18.75 260.7031,18.6719 Q260.375,18.5938 260.0313,18.5938 Q259.6406,18.5938 259.2656,18.75 Q258.8906,18.8906 258.6563,19.2031 Q258.4219,19.5 258.3281,19.8906 Q258.25,20.2656 258.25,20.6563 L258.25,25.8438 Q258.25,26.2344 258.3281,26.625 Q258.4219,27 258.6563,27.3125 Q258.8906,27.6094 259.2656,27.7656 Q259.6406,27.9219 260.0313,27.9219 Q260.375,27.9219 260.7031,27.8438 Q261.0313,27.75 261.2969,27.5313 Q261.5625,27.3125 261.6875,26.9844 Q261.8125,26.6563 261.8125,26.3281 L261.8125,26.2813 L263.8438,26.2813 L263.8438,26.3594 Q263.8438,26.8281 263.7188,27.2969 Q263.5938,27.75 263.3281,28.1563 Q263.0781,28.5469 262.7031,28.8438 Q262.3281,29.1406 261.875,29.3281 Q261.4375,29.5 260.9688,29.5625 Q260.5156,29.6406 260.0313,29.6406 Z " fill="#000000"/><text fill="#000000" font-family="sans-serif" font-size="14" lengthAdjust="spacing" textLength="59.9238" x="280.4844" y="28.0825">Strategy2</text><line style="stroke:#181818;stroke-width:0.5;" x1="211" x2="377.3926" y1="39" y2="39"/><line style="stroke:#181818;stroke-width:0.5;" x1="211" x2="377.3926" y1="47" y2="47"/><text fill="#000000" font-family="sans-serif" font-size="14" lengthAdjust="spacing" textLength="69.248" x="230" y="64.1318">Strategy2()</text><ellipse cx="221" cy="76.6479" fill="#84BE84" rx="3" ry="3" style="stroke:#038048;stroke-width:1;"/><text fill="#000000" font-family="sans-serif" font-size="14" lengthAdjust="spacing" textLength="142.3926" x="230" y="80.2305">execute(param: String)</text></g><!--link Strategy1 to Strategy--><g class="link" data-entity-1="Strategy1" data-entity-2="Strategy" data-source-line="12" data-uid="lnk4" id="link_Strategy1_Strategy"><path codeLine="12" d="M121.77,87.5 C136.52,106.51 142.9329,114.7709 156.7729,132.6009" fill="none" id="Strategy1-to-Strategy" style="stroke:#181818;stroke-width:1;stroke-dasharray:7,7;"/><polygon fill="none" points="167.81,146.82,161.5126,128.9219,152.0332,136.28,167.81,146.82" style="stroke:#181818;stroke-width:1;"/></g><!--link Strategy2 to Strategy--><g class="link" data-entity-1="Strategy2" data-entity-2="Strategy" data-source-line="19" data-uid="lnk6" id="link_Strategy2_Strategy"><path codeLine="19" d="M263.32,87.5 C248.42,106.51 241.9015,114.8211 227.9315,132.6511" fill="none" id="Strategy2-to-Strategy" style="stroke:#181818;stroke-width:1;stroke-dasharray:7,7;"/><polygon fill="none" points="216.83,146.82,232.6544,136.3516,223.2085,128.9506,216.83,146.82" style="stroke:#181818;stroke-width:1;"/></g><!--SRC=[oymhIIrAIqnELGWkAKeiIKslvAhcKW02RONKYjJaqf9KZOB4eiHSAv1yPbww9bSj5nTNSavYSJ5SXo5K2voleKd82BXI1Jsz6Zk4tMWc6w6PR4IyoKRe9WC0]--></g></svg>