<svg xmlns="http://www.w3.org/2000/svg" xmlns:xlink="http://www.w3.org/1999/xlink" contentStyleType="text/css" data-diagram-type="CLASS" height="314px" preserveAspectRatio="none" style="width:309px;height:314px;background:#FFFFFF;" version="1.1" viewBox="0 0 309 314" width="309px" zoomAndPan="magnify"><defs/><g><!--class Template--><g class="entity" data-entity="Template" data-source-line="1" data-uid="ent0002" id="entity_Template"><rect fill="#F1F1F1" height="144.5918" rx="2.5" ry="2.5" style="stroke:#181818;stroke-width:0.5;" width="135.7168" x="87.89" y="163.3"/><ellipse cx="123.3013" cy="179.3" fill="#A9DCDF" rx="11" ry="11" style="stroke:#181818;stroke-width:1;"/><path d="M118.395,185.3 L121.52,172.8937 L124.2544,172.8937 L127.4107,185.3 L125.2232,185.3 L124.5513,182.2844 L121.2544,182.2844 L120.5669,185.3 L118.395,185.3 Z M121.645,180.55 L124.1607,180.55 L123.4107,177.2219 Q123.2232,176.3937 123.0825,175.7219 Q122.9575,175.05 122.895,174.7375 Q122.8482,175.05 122.7075,175.7219 Q122.5825,176.3937 122.395,177.2062 L121.645,180.55 Z " fill="#000000"/><text fill="#000000" font-family="sans-serif" font-size="14" font-style="italic" lengthAdjust="spacing" textLength="58.3584" x="141.8371" y="184.3825">Template</text><line style="stroke:#181818;stroke-width:0.5;" x1="88.89" x2="222.6068" y1="195.3" y2="195.3"/><line style="stroke:#181818;stroke-width:0.5;" x1="88.89" x2="222.6068" y1="203.3" y2="203.3"/><text fill="#000000" font-family="sans-serif" font-size="14" lengthAdjust="spacing" textLength="67.6826" x="107.89" y="220.4318">Template()</text><polygon fill="#FFFF44" points="98.89,227.9479,102.89,231.9479,98.89,235.9479,94.89,231.9479" style="stroke:#B38D22;stroke-width:1;"/><text fill="#000000" font-family="sans-serif" font-size="14" lengthAdjust="spacing" textLength="43.5723" x="107.89" y="236.5305">step1()</text><polygon fill="#FFFF44" points="98.89,244.0466,102.89,248.0466,98.89,252.0466,94.89,248.0466" style="stroke:#B38D22;stroke-width:1;"/><text fill="#000000" font-family="sans-serif" font-size="14" lengthAdjust="spacing" textLength="43.5723" x="107.89" y="252.6291">step2()</text><polygon fill="#FFFF44" points="98.89,260.1452,102.89,264.1452,98.89,268.1452,94.89,264.1452" style="stroke:#B38D22;stroke-width:1;"/><text fill="#000000" font-family="sans-serif" font-size="14" lengthAdjust="spacing" textLength="43.5723" x="107.89" y="268.7277">step3()</text><polygon fill="#FFFF44" points="98.89,276.2438,102.89,280.2438,98.89,284.2438,94.89,280.2438" style="stroke:#B38D22;stroke-width:1;"/><text fill="#000000" font-family="sans-serif" font-size="14" lengthAdjust="spacing" textLength="43.5723" x="107.89" y="284.8264">step4()</text><ellipse cx="98.89" cy="297.3425" fill="#84BE84" rx="3" ry="3" style="stroke:#038048;stroke-width:1;"/><text fill="#000000" font-family="sans-serif" font-size="14" lengthAdjust="spacing" textLength="109.7168" x="107.89" y="300.925">templateMethod()</text></g><!--class Specialization1--><g class="entity" data-entity="Specialization1" data-source-line="12" data-uid="ent0003" id="entity_Specialization1"><rect fill="#F1F1F1" height="96.2959" rx="2.5" ry="2.5" style="stroke:#181818;stroke-width:0.5;" width="129.4961" x="9" y="7"/><ellipse cx="25.4959" cy="23" fill="#ADD1B2" rx="11" ry="11" style="stroke:#181818;stroke-width:1;"/><path d="M25.7303,29.6719 Q24.5271,29.6719 23.6365,29.2188 Q22.7615,28.7656 22.2771,27.9531 Q21.7928,27.125 21.7928,26 L21.7928,20.5938 Q21.7928,19.4688 22.2771,18.6563 Q22.7615,17.8281 23.6365,17.375 Q24.5271,16.9219 25.7303,16.9219 Q26.9178,16.9219 27.7928,17.375 Q28.6834,17.8281 29.1834,18.6563 Q29.6834,19.4688 29.6834,20.5938 L27.5271,20.5938 Q27.5271,19.7188 27.0584,19.2656 Q26.6053,18.7969 25.7303,18.7969 Q24.8709,18.7969 24.3865,19.2656 Q23.9178,19.7188 23.9178,20.5938 L23.9178,26 Q23.9178,26.8594 24.3865,27.3281 Q24.8709,27.7969 25.7303,27.7969 Q26.6053,27.7969 27.0584,27.3281 Q27.5271,26.8594 27.5271,26 L29.6834,26 Q29.6834,27.125 29.1834,27.9531 Q28.6834,28.7656 27.7928,29.2188 Q26.9178,29.6719 25.7303,29.6719 Z " fill="#000000"/><text fill="#000000" font-family="sans-serif" font-size="14" lengthAdjust="spacing" textLength="94.1719" x="39.8283" y="28.0825">Specialization1</text><line style="stroke:#181818;stroke-width:0.5;" x1="10" x2="137.4961" y1="39" y2="39"/><line style="stroke:#181818;stroke-width:0.5;" x1="10" x2="137.4961" y1="47" y2="47"/><text fill="#000000" font-family="sans-serif" font-size="14" lengthAdjust="spacing" textLength="103.4961" x="29" y="64.1318">Specialization1()</text><polygon fill="#FFFF44" points="20,71.6479,24,75.6479,20,79.6479,16,75.6479" style="stroke:#B38D22;stroke-width:1;"/><text fill="#000000" font-family="sans-serif" font-size="14" lengthAdjust="spacing" textLength="43.5723" x="29" y="80.2305">step1()</text><polygon fill="#FFFF44" points="20,87.7466,24,91.7466,20,95.7466,16,91.7466" style="stroke:#B38D22;stroke-width:1;"/><text fill="#000000" font-family="sans-serif" font-size="14" lengthAdjust="spacing" textLength="43.5723" x="29" y="96.3291">step4()</text></g><!--class Specialization2--><g class="entity" data-entity="Specialization2" data-source-line="20" data-uid="ent0005" id="entity_Specialization2"><rect fill="#F1F1F1" height="96.2959" rx="2.5" ry="2.5" style="stroke:#181818;stroke-width:0.5;" width="129.4961" x="173" y="7"/><ellipse cx="189.4959" cy="23" fill="#ADD1B2" rx="11" ry="11" style="stroke:#181818;stroke-width:1;"/><path d="M189.7303,29.6719 Q188.5271,29.6719 187.6365,29.2188 Q186.7615,28.7656 186.2771,27.9531 Q185.7928,27.125 185.7928,26 L185.7928,20.5938 Q185.7928,19.4688 186.2771,18.6563 Q186.7615,17.8281 187.6365,17.375 Q188.5271,16.9219 189.7303,16.9219 Q190.9178,16.9219 191.7928,17.375 Q192.6834,17.8281 193.1834,18.6563 Q193.6834,19.4688 193.6834,20.5938 L191.5271,20.5938 Q191.5271,19.7188 191.0584,19.2656 Q190.6053,18.7969 189.7303,18.7969 Q188.8709,18.7969 188.3865,19.2656 Q187.9178,19.7188 187.9178,20.5938 L187.9178,26 Q187.9178,26.8594 188.3865,27.3281 Q188.8709,27.7969 189.7303,27.7969 Q190.6053,27.7969 191.0584,27.3281 Q191.5271,26.8594 191.5271,26 L193.6834,26 Q193.6834,27.125 193.1834,27.9531 Q192.6834,28.7656 191.7928,29.2188 Q190.9178,29.6719 189.7303,29.6719 Z " fill="#000000"/><text fill="#000000" font-family="sans-serif" font-size="14" lengthAdjust="spacing" textLength="94.1719" x="203.8283" y="28.0825">Specialization2</text><line style="stroke:#181818;stroke-width:0.5;" x1="174" x2="301.4961" y1="39" y2="39"/><line style="stroke:#181818;stroke-width:0.5;" x1="174" x2="301.4961" y1="47" y2="47"/><text fill="#000000" font-family="sans-serif" font-size="14" lengthAdjust="spacing" textLength="103.4961" x="193" y="64.1318">Specialization2()</text><polygon fill="#FFFF44" points="184,71.6479,188,75.6479,184,79.6479,180,75.6479" style="stroke:#B38D22;stroke-width:1;"/><text fill="#000000" font-family="sans-serif" font-size="14" lengthAdjust="spacing" textLength="43.5723" x="193" y="80.2305">step1()</text><polygon fill="#FFFF44" points="184,87.7466,188,91.7466,184,95.7466,180,91.7466" style="stroke:#B38D22;stroke-width:1;"/><text fill="#000000" font-family="sans-serif" font-size="14" lengthAdjust="spacing" textLength="43.5723" x="193" y="96.3291">step4()</text></g><!--link Specialization1 to Template--><g class="link" data-entity-1="Specialization1" data-entity-2="Template" data-source-line="18" data-uid="lnk4" id="link_Specialization1_Template"><path codeLine="18" d="M95.51,103.5 C103.86,121.67 106.0755,126.4836 115.2455,146.4436" fill="none" id="Specialization1-to-Template" style="stroke:#181818;stroke-width:1;"/><polygon fill="none" points="122.76,162.8,120.6977,143.9387,109.7934,148.9484,122.76,162.8" style="stroke:#181818;stroke-width:1;"/></g><!--link Specialization2 to Template--><g class="link" data-entity-1="Specialization2" data-entity-2="Template" data-source-line="26" data-uid="lnk6" id="link_Specialization2_Template"><path codeLine="26" d="M215.99,103.5 C207.64,121.67 205.4245,126.4836 196.2545,146.4436" fill="none" id="Specialization2-to-Template" style="stroke:#181818;stroke-width:1;"/><polygon fill="none" points="188.74,162.8,201.7066,148.9484,190.8023,143.9387,188.74,162.8" style="stroke:#181818;stroke-width:1;"/></g><!--SRC=[IqmgBYbAJ2vHICv9B2vM24dDBSX9B4dbgkPI008OLqCJp5LMA2v9BJ14uHcXy8nHU2PGdhP22TGWtzIIZFmKe70j5nSNnChWWjJapCISpAh4aipyF4EepMYYU1nW0ZODJRs2hcwD7S8tMAqomcgL4ObM6Q5R1G00]--></g></svg>