<svg xmlns="http://www.w3.org/2000/svg" xmlns:xlink="http://www.w3.org/1999/xlink" contentStyleType="text/css" data-diagram-type="CLASS" height="519px" preserveAspectRatio="none" style="width:1260px;height:519px;background:#FFFFFF;" version="1.1" viewBox="0 0 1260 519" width="1260px" zoomAndPan="magnify"><defs/><g><!--class PushNotifier--><g class="entity" data-entity="PushNotifier" data-source-line="1" data-uid="ent0002" id="entity_PushNotifier"><rect fill="#F1F1F1" height="192.8877" rx="2.5" ry="2.5" style="stroke:#181818;stroke-width:0.5;" width="438.4053" x="7" y="7"/><ellipse cx="183.8252" cy="23" fill="#ADD1B2" rx="11" ry="11" style="stroke:#181818;stroke-width:1;"/><path d="M183.8721,29.6406 Q183.3564,29.6406 182.8408,29.5469 Q182.3408,29.4688 181.8877,29.2344 Q181.4502,29 181.0752,28.6406 Q180.7158,28.2813 180.4658,27.8281 Q180.2314,27.3594 180.1377,26.8594 Q180.0596,26.3594 180.0596,25.8438 L180.0596,20.6563 Q180.0596,20.1563 180.1377,19.6563 Q180.2314,19.1406 180.4658,18.6875 Q180.7158,18.2344 181.0752,17.875 Q181.4502,17.5 181.8877,17.2656 Q182.3408,17.0313 182.8408,16.9531 Q183.3564,16.875 183.8721,16.875 Q184.3564,16.875 184.8096,16.9375 Q185.2783,17 185.7158,17.1875 Q186.1689,17.3594 186.5439,17.6563 Q186.9189,17.9531 187.1689,18.3594 Q187.4346,18.75 187.5596,19.2188 Q187.6846,19.6719 187.6846,20.1563 L187.6846,20.2188 L185.6533,20.2188 L185.6533,20.1875 Q185.6533,19.8438 185.5283,19.5313 Q185.4033,19.2031 185.1377,18.9844 Q184.8721,18.75 184.5439,18.6719 Q184.2158,18.5938 183.8721,18.5938 Q183.4814,18.5938 183.1064,18.75 Q182.7314,18.8906 182.4971,19.2031 Q182.2627,19.5 182.1689,19.8906 Q182.0908,20.2656 182.0908,20.6563 L182.0908,25.8438 Q182.0908,26.2344 182.1689,26.625 Q182.2627,27 182.4971,27.3125 Q182.7314,27.6094 183.1064,27.7656 Q183.4814,27.9219 183.8721,27.9219 Q184.2158,27.9219 184.5439,27.8438 Q184.8721,27.75 185.1377,27.5313 Q185.4033,27.3125 185.5283,26.9844 Q185.6533,26.6563 185.6533,26.3281 L185.6533,26.2813 L187.6846,26.2813 L187.6846,26.3594 Q187.6846,26.8281 187.5596,27.2969 Q187.4346,27.75 187.1689,28.1563 Q186.9189,28.5469 186.5439,28.8438 Q186.1689,29.1406 185.7158,29.3281 Q185.2783,29.5 184.8096,29.5625 Q184.3564,29.6406 183.8721,29.6406 Z " fill="#000000"/><text fill="#000000" font-family="sans-serif" font-size="14" lengthAdjust="spacing" textLength="76.2549" x="204.3252" y="28.0825">PushNotifier</text><line style="stroke:#181818;stroke-width:0.5;" x1="8" x2="444.4053" y1="39" y2="39"/><rect fill="none" height="6" style="stroke:#C82930;stroke-width:1;" width="6" x="15" y="49.5493"/><text fill="#000000" font-family="sans-serif" font-size="14" lengthAdjust="spacing" textLength="161.875" x="27" y="56.1318">currentHeadline: Headline</text><rect fill="none" height="6" style="stroke:#C82930;stroke-width:1;" width="6" x="15" y="65.6479"/><text fill="#000000" font-family="sans-serif" font-size="14" lengthAdjust="spacing" textLength="157.1719" x="27" y="72.2305">currentWeather: Weather</text><rect fill="none" height="6" style="stroke:#C82930;stroke-width:1;" width="6" x="15" y="81.7466"/><text fill="#000000" font-family="sans-serif" font-size="14" lengthAdjust="spacing" textLength="184.4131" x="27" y="88.3291">subscribers: List&lt;Subscriber&gt;</text><line style="stroke:#181818;stroke-width:0.5;" x1="8" x2="444.4053" y1="95.2959" y2="95.2959"/><text fill="#000000" font-family="sans-serif" font-size="14" lengthAdjust="spacing" textLength="412.4053" x="27" y="112.4277">PushNotifier(currentHeadline: Headline, currentWeather: Weather)</text><rect fill="#F24D5C" height="6" style="stroke:#C82930;stroke-width:1;" width="6" x="15" y="121.9438"/><text fill="#000000" font-family="sans-serif" font-size="14" lengthAdjust="spacing" textLength="116.7031" x="27" y="128.5264">notifySubscribers()</text><ellipse cx="18" cy="141.0425" fill="#84BE84" rx="3" ry="3" style="stroke:#038048;stroke-width:1;"/><text fill="#000000" font-family="sans-serif" font-size="14" lengthAdjust="spacing" textLength="236.5371" x="27" y="144.625">subscribe(newSubscriber: Subscriber)</text><ellipse cx="18" cy="157.1411" fill="#84BE84" rx="3" ry="3" style="stroke:#038048;stroke-width:1;"/><text fill="#000000" font-family="sans-serif" font-size="14" lengthAdjust="spacing" textLength="241.2129" x="27" y="160.7236">unsubscribe(exSubscriber: Subscriber)</text><ellipse cx="18" cy="173.2397" fill="#84BE84" rx="3" ry="3" style="stroke:#038048;stroke-width:1;"/><text fill="#000000" font-family="sans-serif" font-size="14" lengthAdjust="spacing" textLength="256.833" x="27" y="176.8223">updateHeadline(freshHeadline: Headline)</text><ellipse cx="18" cy="189.3384" fill="#84BE84" rx="3" ry="3" style="stroke:#038048;stroke-width:1;"/><text fill="#000000" font-family="sans-serif" font-size="14" lengthAdjust="spacing" textLength="249.7783" x="27" y="192.9209">updateWeather(freshWeather: Weather)</text></g><!--class Subscriber--><g class="entity" data-entity="Subscriber" data-source-line="15" data-uid="ent0003" id="entity_Subscriber"><rect fill="#F1F1F1" height="64.0986" rx="2.5" ry="2.5" style="stroke:#181818;stroke-width:0.5;" width="369.1914" x="480.61" y="259.89"/><ellipse cx="627.4972" cy="275.89" fill="#B4A7E5" rx="11" ry="11" style="stroke:#181818;stroke-width:1;"/><path d="M624.6535,282.39 L624.6535,280.6713 L626.091,280.6713 L626.091,271.6088 L624.6535,271.6088 L624.6535,269.89 L629.5441,269.89 L629.5441,271.6088 L628.1066,271.6088 L628.1066,280.6713 L629.5441,280.6713 L629.5441,282.39 L624.6535,282.39 Z " fill="#000000"/><text fill="#000000" font-family="sans-serif" font-size="14" font-style="italic" lengthAdjust="spacing" textLength="66.917" x="647.9972" y="280.9725">Subscriber</text><line style="stroke:#181818;stroke-width:0.5;" x1="481.61" x2="848.8014" y1="291.89" y2="291.89"/><line style="stroke:#181818;stroke-width:0.5;" x1="481.61" x2="848.8014" y1="299.89" y2="299.89"/><ellipse cx="491.61" cy="313.4393" fill="#84BE84" rx="3" ry="3" style="stroke:#038048;stroke-width:1;"/><text fill="#000000" font-family="sans-serif" font-size="14" lengthAdjust="spacing" textLength="343.1914" x="500.61" y="317.0218">update(newHeadline: Headline, newWeather: Weather)</text></g><!--class EmailSubscriber--><g class="entity" data-entity="EmailSubscriber" data-source-line="21" data-uid="ent0004" id="entity_EmailSubscriber"><rect fill="#F1F1F1" height="96.2959" rx="2.5" ry="2.5" style="stroke:#181818;stroke-width:0.5;" width="369.1914" x="480.61" y="55.3"/><ellipse cx="609.9938" cy="71.3" fill="#ADD1B2" rx="11" ry="11" style="stroke:#181818;stroke-width:1;"/><path d="M610.0407,77.9406 Q609.525,77.9406 609.0094,77.8469 Q608.5094,77.7688 608.0563,77.5344 Q607.6188,77.3 607.2438,76.9406 Q606.8844,76.5813 606.6344,76.1281 Q606.4,75.6594 606.3063,75.1594 Q606.2282,74.6594 606.2282,74.1438 L606.2282,68.9563 Q606.2282,68.4563 606.3063,67.9563 Q606.4,67.4406 606.6344,66.9875 Q606.8844,66.5344 607.2438,66.175 Q607.6188,65.8 608.0563,65.5656 Q608.5094,65.3313 609.0094,65.2531 Q609.525,65.175 610.0407,65.175 Q610.525,65.175 610.9782,65.2375 Q611.4469,65.3 611.8844,65.4875 Q612.3375,65.6594 612.7125,65.9563 Q613.0875,66.2531 613.3375,66.6594 Q613.6032,67.05 613.7282,67.5188 Q613.8532,67.9719 613.8532,68.4563 L613.8532,68.5188 L611.8219,68.5188 L611.8219,68.4875 Q611.8219,68.1438 611.6969,67.8313 Q611.5719,67.5031 611.3063,67.2844 Q611.0407,67.05 610.7125,66.9719 Q610.3844,66.8938 610.0407,66.8938 Q609.65,66.8938 609.275,67.05 Q608.9,67.1906 608.6657,67.5031 Q608.4313,67.8 608.3375,68.1906 Q608.2594,68.5656 608.2594,68.9563 L608.2594,74.1438 Q608.2594,74.5344 608.3375,74.925 Q608.4313,75.3 608.6657,75.6125 Q608.9,75.9094 609.275,76.0656 Q609.65,76.2219 610.0407,76.2219 Q610.3844,76.2219 610.7125,76.1438 Q611.0407,76.05 611.3063,75.8313 Q611.5719,75.6125 611.6969,75.2844 Q611.8219,74.9563 611.8219,74.6281 L611.8219,74.5813 L613.8532,74.5813 L613.8532,74.6594 Q613.8532,75.1281 613.7282,75.5969 Q613.6032,76.05 613.3375,76.4563 Q613.0875,76.8469 612.7125,77.1438 Q612.3375,77.4406 611.8844,77.6281 Q611.4469,77.8 610.9782,77.8625 Q610.525,77.9406 610.0407,77.9406 Z " fill="#000000"/><text fill="#000000" font-family="sans-serif" font-size="14" lengthAdjust="spacing" textLength="101.9238" x="630.4938" y="76.3825">EmailSubscriber</text><line style="stroke:#181818;stroke-width:0.5;" x1="481.61" x2="848.8014" y1="87.3" y2="87.3"/><rect fill="none" height="6" style="stroke:#C82930;stroke-width:1;" width="6" x="488.61" y="97.8493"/><text fill="#000000" font-family="sans-serif" font-size="14" lengthAdjust="spacing" textLength="77.8066" x="500.61" y="104.4318">email: String</text><line style="stroke:#181818;stroke-width:0.5;" x1="481.61" x2="848.8014" y1="111.3986" y2="111.3986"/><text fill="#000000" font-family="sans-serif" font-size="14" lengthAdjust="spacing" textLength="189.0547" x="500.61" y="128.5305">EmailSubscriber(email: String)</text><ellipse cx="491.61" cy="141.0466" fill="#84BE84" rx="3" ry="3" style="stroke:#038048;stroke-width:1;"/><text fill="#000000" font-family="sans-serif" font-size="14" lengthAdjust="spacing" textLength="343.1914" x="500.61" y="144.6291">update(newHeadline: Headline, newWeather: Weather)</text></g><!--class FileLogger--><g class="entity" data-entity="FileLogger" data-source-line="29" data-uid="ent0006" id="entity_FileLogger"><rect fill="#F1F1F1" height="96.2959" rx="2.5" ry="2.5" style="stroke:#181818;stroke-width:0.5;" width="369.1914" x="884.61" y="55.3"/><ellipse cx="1031.88" cy="71.3" fill="#ADD1B2" rx="11" ry="11" style="stroke:#181818;stroke-width:1;"/><path d="M1031.9269,77.9406 Q1031.4113,77.9406 1030.8956,77.8469 Q1030.3956,77.7688 1029.9425,77.5344 Q1029.505,77.3 1029.13,76.9406 Q1028.7706,76.5813 1028.5206,76.1281 Q1028.2863,75.6594 1028.1925,75.1594 Q1028.1144,74.6594 1028.1144,74.1438 L1028.1144,68.9563 Q1028.1144,68.4563 1028.1925,67.9563 Q1028.2863,67.4406 1028.5206,66.9875 Q1028.7706,66.5344 1029.13,66.175 Q1029.505,65.8 1029.9425,65.5656 Q1030.3956,65.3313 1030.8956,65.2531 Q1031.4113,65.175 1031.9269,65.175 Q1032.4113,65.175 1032.8644,65.2375 Q1033.3331,65.3 1033.7706,65.4875 Q1034.2238,65.6594 1034.5988,65.9563 Q1034.9738,66.2531 1035.2238,66.6594 Q1035.4894,67.05 1035.6144,67.5188 Q1035.7394,67.9719 1035.7394,68.4563 L1035.7394,68.5188 L1033.7081,68.5188 L1033.7081,68.4875 Q1033.7081,68.1438 1033.5831,67.8313 Q1033.4581,67.5031 1033.1925,67.2844 Q1032.9269,67.05 1032.5988,66.9719 Q1032.2706,66.8938 1031.9269,66.8938 Q1031.5363,66.8938 1031.1613,67.05 Q1030.7863,67.1906 1030.5519,67.5031 Q1030.3175,67.8 1030.2238,68.1906 Q1030.1456,68.5656 1030.1456,68.9563 L1030.1456,74.1438 Q1030.1456,74.5344 1030.2238,74.925 Q1030.3175,75.3 1030.5519,75.6125 Q1030.7863,75.9094 1031.1613,76.0656 Q1031.5363,76.2219 1031.9269,76.2219 Q1032.2706,76.2219 1032.5988,76.1438 Q1032.9269,76.05 1033.1925,75.8313 Q1033.4581,75.6125 1033.5831,75.2844 Q1033.7081,74.9563 1033.7081,74.6281 L1033.7081,74.5813 L1035.7394,74.5813 L1035.7394,74.6594 Q1035.7394,75.1281 1035.6144,75.5969 Q1035.4894,76.05 1035.2238,76.4563 Q1034.9738,76.8469 1034.5988,77.1438 Q1034.2238,77.4406 1033.7706,77.6281 Q1033.3331,77.8 1032.8644,77.8625 Q1032.4113,77.9406 1031.9269,77.9406 Z " fill="#000000"/><text fill="#000000" font-family="sans-serif" font-size="14" lengthAdjust="spacing" textLength="66.1514" x="1052.38" y="76.3825">FileLogger</text><line style="stroke:#181818;stroke-width:0.5;" x1="885.61" x2="1252.8014" y1="87.3" y2="87.3"/><rect fill="none" height="6" style="stroke:#C82930;stroke-width:1;" width="6" x="892.61" y="97.8493"/><text fill="#000000" font-family="sans-serif" font-size="14" lengthAdjust="spacing" textLength="48.2344" x="904.61" y="104.4318">file: File</text><line style="stroke:#181818;stroke-width:0.5;" x1="885.61" x2="1252.8014" y1="111.3986" y2="111.3986"/><text fill="#000000" font-family="sans-serif" font-size="14" lengthAdjust="spacing" textLength="172.7441" x="904.61" y="128.5305">FileLogger(filename: String)</text><ellipse cx="895.61" cy="141.0466" fill="#84BE84" rx="3" ry="3" style="stroke:#038048;stroke-width:1;"/><text fill="#000000" font-family="sans-serif" font-size="14" lengthAdjust="spacing" textLength="343.1914" x="904.61" y="144.6291">update(newHeadline: Headline, newWeather: Weather)</text></g><!--class Headline--><g class="entity" data-entity="Headline" data-source-line="37" data-uid="ent0008" id="entity_Headline"><rect fill="#F1F1F1" height="128.4932" rx="2.5" ry="2.5" style="stroke:#181818;stroke-width:0.5;" width="374.626" x="277.89" y="383.99"/><ellipse cx="433.3221" cy="399.99" fill="#ADD1B2" rx="11" ry="11" style="stroke:#181818;stroke-width:1;"/><path d="M433.369,406.6306 Q432.8534,406.6306 432.3378,406.5369 Q431.8378,406.4588 431.3846,406.2244 Q430.9471,405.99 430.5721,405.6306 Q430.2128,405.2713 429.9628,404.8181 Q429.7284,404.3494 429.6346,403.8494 Q429.5565,403.3494 429.5565,402.8338 L429.5565,397.6463 Q429.5565,397.1463 429.6346,396.6463 Q429.7284,396.1306 429.9628,395.6775 Q430.2128,395.2244 430.5721,394.865 Q430.9471,394.49 431.3846,394.2556 Q431.8378,394.0213 432.3378,393.9431 Q432.8534,393.865 433.369,393.865 Q433.8534,393.865 434.3065,393.9275 Q434.7753,393.99 435.2128,394.1775 Q435.6659,394.3494 436.0409,394.6463 Q436.4159,394.9431 436.6659,395.3494 Q436.9315,395.74 437.0565,396.2088 Q437.1815,396.6619 437.1815,397.1463 L437.1815,397.2088 L435.1503,397.2088 L435.1503,397.1775 Q435.1503,396.8338 435.0253,396.5213 Q434.9003,396.1931 434.6346,395.9744 Q434.369,395.74 434.0409,395.6619 Q433.7128,395.5838 433.369,395.5838 Q432.9784,395.5838 432.6034,395.74 Q432.2284,395.8806 431.994,396.1931 Q431.7596,396.49 431.6659,396.8806 Q431.5878,397.2556 431.5878,397.6463 L431.5878,402.8338 Q431.5878,403.2244 431.6659,403.615 Q431.7596,403.99 431.994,404.3025 Q432.2284,404.5994 432.6034,404.7556 Q432.9784,404.9119 433.369,404.9119 Q433.7128,404.9119 434.0409,404.8338 Q434.369,404.74 434.6346,404.5213 Q434.9003,404.3025 435.0253,403.9744 Q435.1503,403.6463 435.1503,403.3181 L435.1503,403.2713 L437.1815,403.2713 L437.1815,403.3494 Q437.1815,403.8181 437.0565,404.2869 Q436.9315,404.74 436.6659,405.1463 Q436.4159,405.5369 436.0409,405.8338 Q435.6659,406.1306 435.2128,406.3181 Q434.7753,406.49 434.3065,406.5525 Q433.8534,406.6306 433.369,406.6306 Z " fill="#000000"/><text fill="#000000" font-family="sans-serif" font-size="14" lengthAdjust="spacing" textLength="55.2617" x="453.8221" y="405.0725">Headline</text><line style="stroke:#181818;stroke-width:0.5;" x1="278.89" x2="651.516" y1="415.99" y2="415.99"/><rect fill="none" height="6" style="stroke:#C82930;stroke-width:1;" width="6" x="285.89" y="426.5393"/><text fill="#000000" font-family="sans-serif" font-size="14" lengthAdjust="spacing" textLength="84.8203" x="297.89" y="433.1218">details: String</text><rect fill="none" height="6" style="stroke:#C82930;stroke-width:1;" width="6" x="285.89" y="442.6379"/><text fill="#000000" font-family="sans-serif" font-size="14" lengthAdjust="spacing" textLength="97.2891" x="297.89" y="449.2205">headline: String</text><rect fill="none" height="6" style="stroke:#C82930;stroke-width:1;" width="6" x="285.89" y="458.7366"/><text fill="#000000" font-family="sans-serif" font-size="14" lengthAdjust="spacing" textLength="86.3721" x="297.89" y="465.3191">source: String</text><line style="stroke:#181818;stroke-width:0.5;" x1="278.89" x2="651.516" y1="472.2859" y2="472.2859"/><text fill="#000000" font-family="sans-serif" font-size="14" lengthAdjust="spacing" textLength="348.626" x="297.89" y="489.4177">Headline(headline: String, details: String, source: String)</text><ellipse cx="288.89" cy="501.9338" fill="#84BE84" rx="3" ry="3" style="stroke:#038048;stroke-width:1;"/><text fill="#000000" font-family="sans-serif" font-size="14" lengthAdjust="spacing" textLength="101.9238" x="297.89" y="505.5164">toString(): String</text></g><!--class Weather--><g class="entity" data-entity="Weather" data-source-line="47" data-uid="ent0009" id="entity_Weather"><rect fill="#F1F1F1" height="128.4932" rx="2.5" ry="2.5" style="stroke:#181818;stroke-width:0.5;" width="354.3506" x="706.03" y="383.99"/><ellipse cx="852.5002" cy="399.99" fill="#ADD1B2" rx="11" ry="11" style="stroke:#181818;stroke-width:1;"/><path d="M852.5471,406.6306 Q852.0315,406.6306 851.5158,406.5369 Q851.0158,406.4588 850.5627,406.2244 Q850.1252,405.99 849.7502,405.6306 Q849.3908,405.2713 849.1408,404.8181 Q848.9065,404.3494 848.8127,403.8494 Q848.7346,403.3494 848.7346,402.8338 L848.7346,397.6463 Q848.7346,397.1463 848.8127,396.6463 Q848.9065,396.1306 849.1408,395.6775 Q849.3908,395.2244 849.7502,394.865 Q850.1252,394.49 850.5627,394.2556 Q851.0158,394.0213 851.5158,393.9431 Q852.0315,393.865 852.5471,393.865 Q853.0315,393.865 853.4846,393.9275 Q853.9533,393.99 854.3908,394.1775 Q854.844,394.3494 855.219,394.6463 Q855.594,394.9431 855.844,395.3494 Q856.1096,395.74 856.2346,396.2088 Q856.3596,396.6619 856.3596,397.1463 L856.3596,397.2088 L854.3283,397.2088 L854.3283,397.1775 Q854.3283,396.8338 854.2033,396.5213 Q854.0783,396.1931 853.8127,395.9744 Q853.5471,395.74 853.219,395.6619 Q852.8908,395.5838 852.5471,395.5838 Q852.1565,395.5838 851.7815,395.74 Q851.4065,395.8806 851.1721,396.1931 Q850.9377,396.49 850.844,396.8806 Q850.7658,397.2556 850.7658,397.6463 L850.7658,402.8338 Q850.7658,403.2244 850.844,403.615 Q850.9377,403.99 851.1721,404.3025 Q851.4065,404.5994 851.7815,404.7556 Q852.1565,404.9119 852.5471,404.9119 Q852.8908,404.9119 853.219,404.8338 Q853.5471,404.74 853.8127,404.5213 Q854.0783,404.3025 854.2033,403.9744 Q854.3283,403.6463 854.3283,403.3181 L854.3283,403.2713 L856.3596,403.2713 L856.3596,403.3494 Q856.3596,403.8181 856.2346,404.2869 Q856.1096,404.74 855.844,405.1463 Q855.594,405.5369 855.219,405.8338 Q854.844,406.1306 854.3908,406.3181 Q853.9533,406.49 853.4846,406.5525 Q853.0315,406.6306 852.5471,406.6306 Z " fill="#000000"/><text fill="#000000" font-family="sans-serif" font-size="14" lengthAdjust="spacing" textLength="52.9102" x="873.0002" y="405.0725">Weather</text><line style="stroke:#181818;stroke-width:0.5;" x1="707.03" x2="1059.3806" y1="415.99" y2="415.99"/><rect fill="none" height="6" style="stroke:#C82930;stroke-width:1;" width="6" x="714.03" y="426.5393"/><text fill="#000000" font-family="sans-serif" font-size="14" lengthAdjust="spacing" textLength="91.0342" x="726.03" y="433.1218">humidity: Float</text><rect fill="none" height="6" style="stroke:#C82930;stroke-width:1;" width="6" x="714.03" y="442.6379"/><text fill="#000000" font-family="sans-serif" font-size="14" lengthAdjust="spacing" textLength="89.4961" x="726.03" y="449.2205">outlook: String</text><rect fill="none" height="6" style="stroke:#C82930;stroke-width:1;" width="6" x="714.03" y="458.7366"/><text fill="#000000" font-family="sans-serif" font-size="14" lengthAdjust="spacing" textLength="70.0273" x="726.03" y="465.3191">temp: Float</text><line style="stroke:#181818;stroke-width:0.5;" x1="707.03" x2="1059.3806" y1="472.2859" y2="472.2859"/><text fill="#000000" font-family="sans-serif" font-size="14" lengthAdjust="spacing" textLength="328.3506" x="726.03" y="489.4177">Weather(temp: Float, humidity: Float, outlook: String)</text><ellipse cx="717.03" cy="501.9338" fill="#84BE84" rx="3" ry="3" style="stroke:#038048;stroke-width:1;"/><text fill="#000000" font-family="sans-serif" font-size="14" lengthAdjust="spacing" textLength="101.9238" x="726.03" y="505.5164">toString(): String</text></g><!--link EmailSubscriber to Subscriber--><g class="link" data-entity-1="EmailSubscriber" data-entity-2="Subscriber" data-source-line="27" data-uid="lnk5" id="link_EmailSubscriber_Subscriber"><path codeLine="27" d="M665.2,151.99 C665.2,185.76 665.2,212.17 665.2,241.59" fill="none" id="EmailSubscriber-to-Subscriber" style="stroke:#181818;stroke-width:1;stroke-dasharray:7,7;"/><polygon fill="none" points="665.2,259.59,671.2,241.59,659.2,241.59,665.2,259.59" style="stroke:#181818;stroke-width:1;"/></g><!--link FileLogger to Subscriber--><g class="link" data-entity-1="FileLogger" data-entity-2="Subscriber" data-source-line="35" data-uid="lnk7" id="link_FileLogger_Subscriber"><path codeLine="35" d="M969.45,152.01 C936.91,167.41 900.57,184.49 867.2,199.89 C823.72,219.96 791.1778,234.6828 752.3478,252.0728" fill="none" id="FileLogger-to-Subscriber" style="stroke:#181818;stroke-width:1;stroke-dasharray:7,7;"/><polygon fill="none" points="735.92,259.43,754.8002,257.5488,749.8954,246.5969,735.92,259.43" style="stroke:#181818;stroke-width:1;"/></g><!--link PushNotifier to Subscriber--><g class="link" data-entity-1="PushNotifier" data-entity-2="Subscriber" data-source-line="57" data-uid="lnk10" id="link_PushNotifier_Subscriber"><path codeLine="57" d="M445.7,197.69 C498.22,220 545.2176,239.9641 585.7076,257.1641" fill="none" id="PushNotifier-to-Subscriber" style="stroke:#181818;stroke-width:1;stroke-dasharray:7,7;"/><polygon fill="#181818" points="591.23,259.51,584.5103,252.3096,586.628,257.5551,581.3825,259.6728,591.23,259.51" style="stroke:#181818;stroke-width:1;"/></g><!--link PushNotifier to Headline--><g class="link" data-entity-1="PushNotifier" data-entity-2="Headline" data-source-line="58" data-uid="lnk11" id="link_PushNotifier_Headline"><path codeLine="58" d="M253.39,200.28 C267.74,240.84 288.1,287.13 315.2,323.99 C331.28,345.85 347.4708,362.2868 368.4308,379.8468" fill="none" id="PushNotifier-to-Headline" style="stroke:#181818;stroke-width:1;stroke-dasharray:7,7;"/><polygon fill="#181818" points="373.03,383.7,368.6999,374.8541,369.1973,380.489,363.5624,380.9864,373.03,383.7" style="stroke:#181818;stroke-width:1;"/></g><!--link PushNotifier to Weather--><g class="link" data-entity-1="PushNotifier" data-entity-2="Weather" data-source-line="59" data-uid="lnk12" id="link_PushNotifier_Weather"><path codeLine="59" d="M309.96,200.32 C352.13,243.47 406.33,291.82 463.2,323.99 C546.58,371.14 578.29,357.02 670.2,383.99 C681.77,387.38 687.9348,389.1936 699.9448,392.7336" fill="none" id="PushNotifier-to-Weather" style="stroke:#181818;stroke-width:1;stroke-dasharray:7,7;"/><polygon fill="#181818" points="705.7,394.43,698.1981,388.0486,700.904,393.0164,695.9363,395.7222,705.7,394.43" style="stroke:#181818;stroke-width:1;"/></g><!--link Subscriber to Headline--><g class="link" data-entity-1="Subscriber" data-entity-2="Headline" data-source-line="60" data-uid="lnk13" id="link_Subscriber_Headline"><path codeLine="60" d="M624.73,324.16 C602.59,341.24 579.0704,359.3848 552.5004,379.8848" fill="none" id="Subscriber-to-Headline" style="stroke:#181818;stroke-width:1;stroke-dasharray:7,7;"/><polygon fill="#181818" points="547.75,383.55,557.3191,381.2192,551.7087,380.4957,552.4322,374.8853,547.75,383.55" style="stroke:#181818;stroke-width:1;"/></g><!--link Subscriber to Weather--><g class="link" data-entity-1="Subscriber" data-entity-2="Weather" data-source-line="61" data-uid="lnk14" id="link_Subscriber_Weather"><path codeLine="61" d="M709.58,324.35 C733.73,341.44 759.6132,359.7528 788.5232,380.2228" fill="none" id="Subscriber-to-Weather" style="stroke:#181818;stroke-width:1;stroke-dasharray:7,7;"/><polygon fill="#181818" points="793.42,383.69,788.3863,375.2247,789.3394,380.8007,783.7634,381.7537,793.42,383.69" style="stroke:#181818;stroke-width:1;"/></g><!--link EmailSubscriber to Headline--><g class="link" data-entity-1="EmailSubscriber" data-entity-2="Headline" data-source-line="62" data-uid="lnk15" id="link_EmailSubscriber_Headline"><path codeLine="62" d="M569.85,152.08 C529.1,177.91 485.78,214.03 463.2,259.89 C444.45,297.97 444.4972,339.9695 449.8672,377.8195" fill="none" id="EmailSubscriber-to-Headline" style="stroke:#181818;stroke-width:1;stroke-dasharray:7,7;"/><polygon fill="#181818" points="450.71,383.76,453.4061,374.2874,450.0077,378.8096,445.4854,375.4111,450.71,383.76" style="stroke:#181818;stroke-width:1;"/></g><!--link EmailSubscriber to Weather--><g class="link" data-entity-1="EmailSubscriber" data-entity-2="Weather" data-source-line="63" data-uid="lnk16" id="link_EmailSubscriber_Weather"><path codeLine="63" d="M757.23,151.98 C798.05,178.08 842.38,214.45 867.2,259.89 C887.71,297.42 891.6199,339.5933 890.3499,377.6933" fill="none" id="EmailSubscriber-to-Weather" style="stroke:#181818;stroke-width:1;stroke-dasharray:7,7;"/><polygon fill="#181818" points="890.15,383.69,894.4476,374.8283,890.3166,378.6928,886.4521,374.5617,890.15,383.69" style="stroke:#181818;stroke-width:1;"/></g><!--link FileLogger to Headline--><g class="link" data-entity-1="FileLogger" data-entity-2="Headline" data-source-line="64" data-uid="lnk17" id="link_FileLogger_Headline"><path codeLine="64" d="M1037.21,152.04 C1001.38,201.81 938.85,278.84 867.2,323.99 C857.12,330.34 758.41,360.5859 658.51,390.3659" fill="none" id="FileLogger-to-Headline" style="stroke:#181818;stroke-width:1;stroke-dasharray:7,7;"/><polygon fill="#181818" points="652.76,392.08,662.5276,393.3422,657.5516,390.6516,660.2422,385.6756,652.76,392.08" style="stroke:#181818;stroke-width:1;"/></g><!--link FileLogger to Weather--><g class="link" data-entity-1="FileLogger" data-entity-2="Weather" data-source-line="65" data-uid="lnk18" id="link_FileLogger_Weather"><path codeLine="65" d="M1064.51,151.86 C1058.22,198.38 1043.92,270 1012.2,323.99 C999.5,345.62 986.2081,361.7136 968.1181,379.3336" fill="none" id="FileLogger-to-Weather" style="stroke:#181818;stroke-width:1;stroke-dasharray:7,7;"/><polygon fill="#181818" points="963.82,383.52,973.0581,380.1057,967.4018,380.0313,967.4762,374.3749,963.82,383.52" style="stroke:#181818;stroke-width:1;"/></g><!--SRC=[fLJ9JiCm4BtdAtnqHUa7HAWt48UgGkB0sKqcZKLYLru45V3lE8rtft1eJlQRDpDl5gSPY9JeHSj-pnNjA8ZggqBcYo7SQ260gMSWxK0PrCYTriYQte2e7aIDx65r2NAFhdgczjpTMgK-o4RG0mXPensLwk7L8rlBOPF8Sy0bddFV1M_Cu2CGQXJEZgfP8CFdFznJInIuEd0dGFPbVIdRbZMJorxzL5L5cGBHaGQYb7OMBifKnz8C3BmSixbCzt4aT2Y2PYY6wMxgLOAoenjV0jwY9Sk6DfllRLoebVf41zZnuz6h303kp96H4NAD4rvVYBS838ckQVEREolp2z3x9BEkDMf1cMfb02JNeYc4PpIBvk7SKqX2s4eLdwzuvGrXxEufpNBT1YeOJwPR0oTgZNezqfQgimUuLWFdxxdIZ6VHZ6pHAC7VAkC_ZEbvqlB2vfjVM5oPoN953XdkwEL2HZvBHkUOB4haa-6M_Wi0]--></g></svg>