<svg xmlns="http://www.w3.org/2000/svg" xmlns:xlink="http://www.w3.org/1999/xlink" contentStyleType="text/css" data-diagram-type="CLASS" height="628px" preserveAspectRatio="none" style="width:1417px;height:628px;background:#FFFFFF;" version="1.1" viewBox="0 0 1417 628" width="1417px" zoomAndPan="magnify"><defs/><g><!--class Board--><g class="entity" data-entity="Board" data-source-line="1" data-uid="ent0002" id="entity_Board"><rect fill="#F1F1F1" height="353.0867" rx="2.5" ry="2.5" style="stroke:#181818;stroke-width:0.5;" width="324.7169" x="550.5" y="268"/><ellipse cx="688.7005" cy="284" fill="#ADD1B2" rx="11" ry="11" style="stroke:#181818;stroke-width:1;"/><path d="M691.6693,289.6406 Q691.0911,289.9375 690.4505,290.0781 Q689.8099,290.2344 689.1068,290.2344 Q686.6068,290.2344 685.2786,288.5938 Q683.9661,286.9375 683.9661,283.8125 Q683.9661,280.6875 685.2786,279.0313 Q686.6068,277.375 689.1068,277.375 Q689.8099,277.375 690.4505,277.5313 Q691.1068,277.6875 691.6693,277.9844 L691.6693,280.7031 Q691.0443,280.125 690.4505,279.8594 Q689.8568,279.5781 689.2318,279.5781 Q687.888,279.5781 687.2005,280.6563 Q686.513,281.7188 686.513,283.8125 Q686.513,285.9063 687.2005,286.9844 Q687.888,288.0469 689.2318,288.0469 Q689.8568,288.0469 690.4505,287.7813 Q691.0443,287.5 691.6693,286.9219 L691.6693,289.6406 Z " fill="#000000"/><text fill="#000000" font-family="sans-serif" font-size="14" lengthAdjust="spacing" textLength="39.8159" x="709.2005" y="289.432">Board</text><line style="stroke:#181818;stroke-width:0.5;" x1="551.5" x2="874.2169" y1="300" y2="300"/><rect fill="none" height="6" style="stroke:#C82930;stroke-width:1;" width="6" x="558.5" y="312.034"/><text fill="#000000" font-family="sans-serif" font-size="14" lengthAdjust="spacing" textLength="119.0275" x="570.5" y="318.9659">cLoc: Pair&lt;Int,Int&gt;</text><rect fill="none" height="6" style="stroke:#C82930;stroke-width:1;" width="6" x="558.5" y="331.1019"/><text fill="#000000" font-family="sans-serif" font-size="14" lengthAdjust="spacing" textLength="114.9396" x="570.5" y="338.0339">end: Pair&lt;Int,Int&gt;</text><rect fill="none" height="6" style="stroke:#C82930;stroke-width:1;" width="6" x="558.5" y="350.1698"/><text fill="#000000" font-family="sans-serif" font-size="14" lengthAdjust="spacing" textLength="181.2013" x="570.5" y="357.1018">isSolid: List&lt;List&lt;Boolean&gt;&gt;</text><rect fill="none" height="6" style="stroke:#C82930;stroke-width:1;" width="6" x="558.5" y="369.2377"/><text fill="#000000" font-family="sans-serif" font-size="14" lengthAdjust="spacing" textLength="120.2316" x="570.5" y="376.1697">start: Pair&lt;Int,Int&gt;</text><line style="stroke:#181818;stroke-width:0.5;" x1="551.5" x2="874.2169" y1="384.2717" y2="384.2717"/><text fill="#000000" font-family="sans-serif" font-size="14" lengthAdjust="spacing" textLength="152.4314" x="570.5" y="403.2376">Board(filename: String)</text><ellipse cx="561.5" cy="418.3735" fill="#84BE84" rx="3" ry="3" style="stroke:#038048;stroke-width:1;"/><text fill="#000000" font-family="sans-serif" font-size="14" lengthAdjust="spacing" textLength="167.5933" x="570.5" y="422.3055">canMoveDown(): Boolean</text><ellipse cx="561.5" cy="437.4415" fill="#84BE84" rx="3" ry="3" style="stroke:#038048;stroke-width:1;"/><text fill="#000000" font-family="sans-serif" font-size="14" lengthAdjust="spacing" textLength="154.3494" x="570.5" y="441.3734">canMoveLeft(): Boolean</text><ellipse cx="561.5" cy="456.5094" fill="#84BE84" rx="3" ry="3" style="stroke:#038048;stroke-width:1;"/><text fill="#000000" font-family="sans-serif" font-size="14" lengthAdjust="spacing" textLength="163.8833" x="570.5" y="460.4414">canMoveRight(): Boolean</text><ellipse cx="561.5" cy="475.5773" fill="#84BE84" rx="3" ry="3" style="stroke:#038048;stroke-width:1;"/><text fill="#000000" font-family="sans-serif" font-size="14" lengthAdjust="spacing" textLength="148.0914" x="570.5" y="479.5093">canMoveUp(): Boolean</text><ellipse cx="561.5" cy="494.6452" fill="#84BE84" rx="3" ry="3" style="stroke:#038048;stroke-width:1;"/><text fill="#000000" font-family="sans-serif" font-size="14" lengthAdjust="spacing" textLength="216.6632" x="570.5" y="498.5772">characterLocation(): Pair&lt;Int,Int&gt;</text><ellipse cx="561.5" cy="513.7131" fill="#84BE84" rx="3" ry="3" style="stroke:#038048;stroke-width:1;"/><text fill="#000000" font-family="sans-serif" font-size="14" lengthAdjust="spacing" textLength="83.3137" x="570.5" y="517.6451">moveDown()</text><ellipse cx="561.5" cy="532.781" fill="#84BE84" rx="3" ry="3" style="stroke:#038048;stroke-width:1;"/><text fill="#000000" font-family="sans-serif" font-size="14" lengthAdjust="spacing" textLength="70.0697" x="570.5" y="536.713">moveLeft()</text><ellipse cx="561.5" cy="551.849" fill="#84BE84" rx="3" ry="3" style="stroke:#038048;stroke-width:1;"/><text fill="#000000" font-family="sans-serif" font-size="14" lengthAdjust="spacing" textLength="79.6037" x="570.5" y="555.7809">moveRight()</text><ellipse cx="561.5" cy="570.9169" fill="#84BE84" rx="3" ry="3" style="stroke:#038048;stroke-width:1;"/><text fill="#000000" font-family="sans-serif" font-size="14" lengthAdjust="spacing" textLength="63.8118" x="570.5" y="574.8489">moveUp()</text><ellipse cx="561.5" cy="589.9848" fill="#84BE84" rx="3" ry="3" style="stroke:#038048;stroke-width:1;"/><text fill="#000000" font-family="sans-serif" font-size="14" lengthAdjust="spacing" textLength="298.7169" x="570.5" y="593.9168">teleportCharacter(newLocation: Pair&lt;Int,Int&gt;)</text><ellipse cx="561.5" cy="609.0527" fill="#84BE84" rx="3" ry="3" style="stroke:#038048;stroke-width:1;"/><text fill="#000000" font-family="sans-serif" font-size="14" lengthAdjust="spacing" textLength="108.1076" x="570.5" y="612.9847">toString(): String</text></g><!--class Controller--><g class="entity" data-entity="Controller" data-source-line="22" data-uid="ent0003" id="entity_Controller"><rect fill="#F1F1F1" height="200.5433" rx="2.5" ry="2.5" style="stroke:#181818;stroke-width:0.5;" width="254.3531" x="7" y="7"/><ellipse cx="96.8377" cy="23" fill="#ADD1B2" rx="11" ry="11" style="stroke:#181818;stroke-width:1;"/><path d="M99.8064,28.6406 Q99.2283,28.9375 98.5877,29.0781 Q97.9471,29.2344 97.2439,29.2344 Q94.7439,29.2344 93.4158,27.5938 Q92.1033,25.9375 92.1033,22.8125 Q92.1033,19.6875 93.4158,18.0313 Q94.7439,16.375 97.2439,16.375 Q97.9471,16.375 98.5877,16.5313 Q99.2439,16.6875 99.8064,16.9844 L99.8064,19.7031 Q99.1814,19.125 98.5877,18.8594 Q97.9939,18.5781 97.3689,18.5781 Q96.0252,18.5781 95.3377,19.6563 Q94.6502,20.7188 94.6502,22.8125 Q94.6502,24.9063 95.3377,25.9844 Q96.0252,27.0469 97.3689,27.0469 Q97.9939,27.0469 98.5877,26.7813 Q99.1814,26.5 99.8064,25.9219 L99.8064,28.6406 Z " fill="#000000"/><text fill="#000000" font-family="sans-serif" font-size="14" lengthAdjust="spacing" textLength="66.1777" x="117.3377" y="28.432">Controller</text><line style="stroke:#181818;stroke-width:0.5;" x1="8" x2="260.3531" y1="39" y2="39"/><rect fill="none" height="6" style="stroke:#C82930;stroke-width:1;" width="6" x="15" y="51.034"/><text fill="#000000" font-family="sans-serif" font-size="14" lengthAdjust="spacing" textLength="86.5337" x="27" y="57.9659">board: Board</text><rect fill="none" height="6" style="stroke:#C82930;stroke-width:1;" width="6" x="15" y="70.1019"/><text fill="#000000" font-family="sans-serif" font-size="14" lengthAdjust="spacing" textLength="228.3531" x="27" y="77.0339">commandHistory: List&lt;Command&gt;</text><line style="stroke:#181818;stroke-width:0.5;" x1="8" x2="260.3531" y1="85.1358" y2="85.1358"/><text fill="#000000" font-family="sans-serif" font-size="14" lengthAdjust="spacing" textLength="161.1114" x="27" y="104.1018">Controller(board: Board)</text><ellipse cx="18" cy="119.2377" fill="#84BE84" rx="3" ry="3" style="stroke:#038048;stroke-width:1;"/><text fill="#000000" font-family="sans-serif" font-size="14" lengthAdjust="spacing" textLength="82.4457" x="27" y="123.1697">pressDown()</text><ellipse cx="18" cy="138.3056" fill="#84BE84" rx="3" ry="3" style="stroke:#038048;stroke-width:1;"/><text fill="#000000" font-family="sans-serif" font-size="14" lengthAdjust="spacing" textLength="69.2017" x="27" y="142.2376">pressLeft()</text><ellipse cx="18" cy="157.3735" fill="#84BE84" rx="3" ry="3" style="stroke:#038048;stroke-width:1;"/><text fill="#000000" font-family="sans-serif" font-size="14" lengthAdjust="spacing" textLength="78.7357" x="27" y="161.3055">pressRight()</text><ellipse cx="18" cy="176.4415" fill="#84BE84" rx="3" ry="3" style="stroke:#038048;stroke-width:1;"/><text fill="#000000" font-family="sans-serif" font-size="14" lengthAdjust="spacing" textLength="62.9438" x="27" y="180.3734">pressUp()</text><ellipse cx="18" cy="195.5094" fill="#84BE84" rx="3" ry="3" style="stroke:#038048;stroke-width:1;"/><text fill="#000000" font-family="sans-serif" font-size="14" lengthAdjust="spacing" textLength="42.7838" x="27" y="199.4414">undo()</text></g><!--class Command--><g class="entity" data-entity="Command" data-source-line="35" data-uid="ent0004" id="entity_Command"><rect fill="#F1F1F1" height="86.1358" rx="2.5" ry="2.5" style="stroke:#181818;stroke-width:0.5;" width="96.7638" x="932.5" y="401.5"/><ellipse cx="947.5" cy="417.5" fill="#B4A7E5" rx="11" ry="11" style="stroke:#181818;stroke-width:1;"/><path d="M943.4219,413.2656 L943.4219,411.1094 L950.8125,411.1094 L950.8125,413.2656 L948.3438,413.2656 L948.3438,421.3438 L950.8125,421.3438 L950.8125,423.5 L943.4219,423.5 L943.4219,421.3438 L945.8906,421.3438 L945.8906,413.2656 L943.4219,413.2656 Z " fill="#000000"/><text fill="#000000" font-family="sans-serif" font-size="14" font-style="italic" lengthAdjust="spacing" textLength="64.7638" x="961.5" y="422.932">Command</text><line style="stroke:#181818;stroke-width:0.5;" x1="933.5" x2="1028.2638" y1="433.5" y2="433.5"/><line style="stroke:#181818;stroke-width:0.5;" x1="933.5" x2="1028.2638" y1="441.5" y2="441.5"/><ellipse cx="943.5" cy="456.534" fill="#84BE84" rx="3" ry="3" style="stroke:#038048;stroke-width:1;"/><text fill="#000000" font-family="sans-serif" font-size="14" lengthAdjust="spacing" textLength="59.9198" x="952.5" y="460.4659">execute()</text><ellipse cx="943.5" cy="475.6019" fill="#84BE84" rx="3" ry="3" style="stroke:#038048;stroke-width:1;"/><text fill="#000000" font-family="sans-serif" font-size="14" lengthAdjust="spacing" textLength="42.7838" x="952.5" y="479.5339">undo()</text></g><!--class DashUpCommand--><g class="entity" data-entity="DashUpCommand" data-source-line="42" data-uid="ent0005" id="entity_DashUpCommand"><rect fill="#F1F1F1" height="143.3396" rx="2.5" ry="2.5" style="stroke:#181818;stroke-width:0.5;" width="241.8232" x="1169" y="36"/><ellipse cx="1225.2168" cy="52" fill="#ADD1B2" rx="11" ry="11" style="stroke:#181818;stroke-width:1;"/><path d="M1228.1856,57.6406 Q1227.6075,57.9375 1226.9668,58.0781 Q1226.3262,58.2344 1225.6231,58.2344 Q1223.1231,58.2344 1221.795,56.5938 Q1220.4825,54.9375 1220.4825,51.8125 Q1220.4825,48.6875 1221.795,47.0313 Q1223.1231,45.375 1225.6231,45.375 Q1226.3262,45.375 1226.9668,45.5313 Q1227.6231,45.6875 1228.1856,45.9844 L1228.1856,48.7031 Q1227.5606,48.125 1226.9668,47.8594 Q1226.3731,47.5781 1225.7481,47.5781 Q1224.4043,47.5781 1223.7168,48.6563 Q1223.0293,49.7188 1223.0293,51.8125 Q1223.0293,53.9063 1223.7168,54.9844 Q1224.4043,56.0469 1225.7481,56.0469 Q1226.3731,56.0469 1226.9668,55.7813 Q1227.5606,55.5 1228.1856,54.9219 L1228.1856,57.6406 Z " fill="#000000"/><text fill="#000000" font-family="sans-serif" font-size="14" lengthAdjust="spacing" textLength="120.8895" x="1245.7168" y="57.432">DashUpCommand</text><line style="stroke:#181818;stroke-width:0.5;" x1="1170" x2="1409.8232" y1="68" y2="68"/><rect fill="none" height="6" style="stroke:#C82930;stroke-width:1;" width="6" x="1177" y="80.034"/><text fill="#000000" font-family="sans-serif" font-size="14" lengthAdjust="spacing" textLength="195.4533" x="1189" y="86.9659">backUpLocation: Pair&lt;Int,Int&gt;</text><rect fill="none" height="6" style="stroke:#C82930;stroke-width:1;" width="6" x="1177" y="99.1019"/><text fill="#000000" font-family="sans-serif" font-size="14" lengthAdjust="spacing" textLength="86.5337" x="1189" y="106.0339">board: Board</text><line style="stroke:#181818;stroke-width:0.5;" x1="1170" x2="1409.8232" y1="114.1358" y2="114.1358"/><text fill="#000000" font-family="sans-serif" font-size="14" lengthAdjust="spacing" textLength="215.8232" x="1189" y="133.1018">DashUpCommand(board: Board)</text><ellipse cx="1180" cy="148.2377" fill="#84BE84" rx="3" ry="3" style="stroke:#038048;stroke-width:1;"/><text fill="#000000" font-family="sans-serif" font-size="14" lengthAdjust="spacing" textLength="59.9198" x="1189" y="152.1697">execute()</text><ellipse cx="1180" cy="167.3056" fill="#84BE84" rx="3" ry="3" style="stroke:#038048;stroke-width:1;"/><text fill="#000000" font-family="sans-serif" font-size="14" lengthAdjust="spacing" textLength="42.7838" x="1189" y="171.2376">undo()</text></g><!--class DashRightCommand--><g class="entity" data-entity="DashRightCommand" data-source-line="52" data-uid="ent0007" id="entity_DashRightCommand"><rect fill="#F1F1F1" height="143.3396" rx="2.5" ry="2.5" style="stroke:#181818;stroke-width:0.5;" width="257.6151" x="296" y="36"/><ellipse cx="352.2168" cy="52" fill="#ADD1B2" rx="11" ry="11" style="stroke:#181818;stroke-width:1;"/><path d="M355.1856,57.6406 Q354.6075,57.9375 353.9668,58.0781 Q353.3262,58.2344 352.6231,58.2344 Q350.1231,58.2344 348.795,56.5938 Q347.4825,54.9375 347.4825,51.8125 Q347.4825,48.6875 348.795,47.0313 Q350.1231,45.375 352.6231,45.375 Q353.3262,45.375 353.9668,45.5313 Q354.6231,45.6875 355.1856,45.9844 L355.1856,48.7031 Q354.5606,48.125 353.9668,47.8594 Q353.3731,47.5781 352.7481,47.5781 Q351.4043,47.5781 350.7168,48.6563 Q350.0293,49.7188 350.0293,51.8125 Q350.0293,53.9063 350.7168,54.9844 Q351.4043,56.0469 352.7481,56.0469 Q353.3731,56.0469 353.9668,55.7813 Q354.5606,55.5 355.1856,54.9219 L355.1856,57.6406 Z " fill="#000000"/><text fill="#000000" font-family="sans-serif" font-size="14" lengthAdjust="spacing" textLength="136.6815" x="372.7168" y="57.432">DashRightCommand</text><line style="stroke:#181818;stroke-width:0.5;" x1="297" x2="552.6151" y1="68" y2="68"/><rect fill="none" height="6" style="stroke:#C82930;stroke-width:1;" width="6" x="304" y="80.034"/><text fill="#000000" font-family="sans-serif" font-size="14" lengthAdjust="spacing" textLength="195.4533" x="316" y="86.9659">backUpLocation: Pair&lt;Int,Int&gt;</text><rect fill="none" height="6" style="stroke:#C82930;stroke-width:1;" width="6" x="304" y="99.1019"/><text fill="#000000" font-family="sans-serif" font-size="14" lengthAdjust="spacing" textLength="86.5337" x="316" y="106.0339">board: Board</text><line style="stroke:#181818;stroke-width:0.5;" x1="297" x2="552.6151" y1="114.1358" y2="114.1358"/><text fill="#000000" font-family="sans-serif" font-size="14" lengthAdjust="spacing" textLength="231.6151" x="316" y="133.1018">DashRightCommand(board: Board)</text><ellipse cx="307" cy="148.2377" fill="#84BE84" rx="3" ry="3" style="stroke:#038048;stroke-width:1;"/><text fill="#000000" font-family="sans-serif" font-size="14" lengthAdjust="spacing" textLength="59.9198" x="316" y="152.1697">execute()</text><ellipse cx="307" cy="167.3056" fill="#84BE84" rx="3" ry="3" style="stroke:#038048;stroke-width:1;"/><text fill="#000000" font-family="sans-serif" font-size="14" lengthAdjust="spacing" textLength="42.7838" x="316" y="171.2376">undo()</text></g><!--class DashLeftCommand--><g class="entity" data-entity="DashLeftCommand" data-source-line="62" data-uid="ent0009" id="entity_DashLeftCommand"><rect fill="#F1F1F1" height="143.3396" rx="2.5" ry="2.5" style="stroke:#181818;stroke-width:0.5;" width="248.0812" x="589" y="36"/><ellipse cx="645.2168" cy="52" fill="#ADD1B2" rx="11" ry="11" style="stroke:#181818;stroke-width:1;"/><path d="M648.1856,57.6406 Q647.6075,57.9375 646.9668,58.0781 Q646.3262,58.2344 645.6231,58.2344 Q643.1231,58.2344 641.795,56.5938 Q640.4825,54.9375 640.4825,51.8125 Q640.4825,48.6875 641.795,47.0313 Q643.1231,45.375 645.6231,45.375 Q646.3262,45.375 646.9668,45.5313 Q647.6231,45.6875 648.1856,45.9844 L648.1856,48.7031 Q647.5606,48.125 646.9668,47.8594 Q646.3731,47.5781 645.7481,47.5781 Q644.4043,47.5781 643.7168,48.6563 Q643.0293,49.7188 643.0293,51.8125 Q643.0293,53.9063 643.7168,54.9844 Q644.4043,56.0469 645.7481,56.0469 Q646.3731,56.0469 646.9668,55.7813 Q647.5606,55.5 648.1856,54.9219 L648.1856,57.6406 Z " fill="#000000"/><text fill="#000000" font-family="sans-serif" font-size="14" lengthAdjust="spacing" textLength="127.1475" x="665.7168" y="57.432">DashLeftCommand</text><line style="stroke:#181818;stroke-width:0.5;" x1="590" x2="836.0812" y1="68" y2="68"/><rect fill="none" height="6" style="stroke:#C82930;stroke-width:1;" width="6" x="597" y="80.034"/><text fill="#000000" font-family="sans-serif" font-size="14" lengthAdjust="spacing" textLength="195.4533" x="609" y="86.9659">backUpLocation: Pair&lt;Int,Int&gt;</text><rect fill="none" height="6" style="stroke:#C82930;stroke-width:1;" width="6" x="597" y="99.1019"/><text fill="#000000" font-family="sans-serif" font-size="14" lengthAdjust="spacing" textLength="86.5337" x="609" y="106.0339">board: Board</text><line style="stroke:#181818;stroke-width:0.5;" x1="590" x2="836.0812" y1="114.1358" y2="114.1358"/><text fill="#000000" font-family="sans-serif" font-size="14" lengthAdjust="spacing" textLength="222.0812" x="609" y="133.1018">DashLeftCommand(board: Board)</text><ellipse cx="600" cy="148.2377" fill="#84BE84" rx="3" ry="3" style="stroke:#038048;stroke-width:1;"/><text fill="#000000" font-family="sans-serif" font-size="14" lengthAdjust="spacing" textLength="59.9198" x="609" y="152.1697">execute()</text><ellipse cx="600" cy="167.3056" fill="#84BE84" rx="3" ry="3" style="stroke:#038048;stroke-width:1;"/><text fill="#000000" font-family="sans-serif" font-size="14" lengthAdjust="spacing" textLength="42.7838" x="609" y="171.2376">undo()</text></g><!--class DashDownCommand--><g class="entity" data-entity="DashDownCommand" data-source-line="72" data-uid="ent0011" id="entity_DashDownCommand"><rect fill="#F1F1F1" height="143.3396" rx="2.5" ry="2.5" style="stroke:#181818;stroke-width:0.5;" width="261.3251" x="872.5" y="36"/><ellipse cx="928.7168" cy="52" fill="#ADD1B2" rx="11" ry="11" style="stroke:#181818;stroke-width:1;"/><path d="M931.6856,57.6406 Q931.1075,57.9375 930.4668,58.0781 Q929.8262,58.2344 929.1231,58.2344 Q926.6231,58.2344 925.295,56.5938 Q923.9825,54.9375 923.9825,51.8125 Q923.9825,48.6875 925.295,47.0313 Q926.6231,45.375 929.1231,45.375 Q929.8262,45.375 930.4668,45.5313 Q931.1231,45.6875 931.6856,45.9844 L931.6856,48.7031 Q931.0606,48.125 930.4668,47.8594 Q929.8731,47.5781 929.2481,47.5781 Q927.9043,47.5781 927.2168,48.6563 Q926.5293,49.7188 926.5293,51.8125 Q926.5293,53.9063 927.2168,54.9844 Q927.9043,56.0469 929.2481,56.0469 Q929.8731,56.0469 930.4668,55.7813 Q931.0606,55.5 931.6856,54.9219 L931.6856,57.6406 Z " fill="#000000"/><text fill="#000000" font-family="sans-serif" font-size="14" lengthAdjust="spacing" textLength="140.3914" x="949.2168" y="57.432">DashDownCommand</text><line style="stroke:#181818;stroke-width:0.5;" x1="873.5" x2="1132.8251" y1="68" y2="68"/><rect fill="none" height="6" style="stroke:#C82930;stroke-width:1;" width="6" x="880.5" y="80.034"/><text fill="#000000" font-family="sans-serif" font-size="14" lengthAdjust="spacing" textLength="195.4533" x="892.5" y="86.9659">backUpLocation: Pair&lt;Int,Int&gt;</text><rect fill="none" height="6" style="stroke:#C82930;stroke-width:1;" width="6" x="880.5" y="99.1019"/><text fill="#000000" font-family="sans-serif" font-size="14" lengthAdjust="spacing" textLength="86.5337" x="892.5" y="106.0339">board: Board</text><line style="stroke:#181818;stroke-width:0.5;" x1="873.5" x2="1132.8251" y1="114.1358" y2="114.1358"/><text fill="#000000" font-family="sans-serif" font-size="14" lengthAdjust="spacing" textLength="235.3251" x="892.5" y="133.1018">DashDownCommand(board: Board)</text><ellipse cx="883.5" cy="148.2377" fill="#84BE84" rx="3" ry="3" style="stroke:#038048;stroke-width:1;"/><text fill="#000000" font-family="sans-serif" font-size="14" lengthAdjust="spacing" textLength="59.9198" x="892.5" y="152.1697">execute()</text><ellipse cx="883.5" cy="167.3056" fill="#84BE84" rx="3" ry="3" style="stroke:#038048;stroke-width:1;"/><text fill="#000000" font-family="sans-serif" font-size="14" lengthAdjust="spacing" textLength="42.7838" x="892.5" y="171.2376">undo()</text></g><!--link DashUpCommand to Command--><g class="link" data-entity-1="DashUpCommand" data-entity-2="Command" data-source-line="50" data-uid="lnk6" id="link_DashUpCommand_Command"><path codeLine="50" d="M1224.85,179.14 C1162.87,246.32 1083.8833,331.9583 1032.3833,387.7983" fill="none" id="DashUpCommand-to-Command" style="stroke:#181818;stroke-width:1;stroke-dasharray:7,7;"/><polygon fill="none" points="1020.18,401.03,1036.7939,391.866,1027.9728,383.7305,1020.18,401.03" style="stroke:#181818;stroke-width:1;"/></g><!--link DashRightCommand to Command--><g class="link" data-entity-1="DashRightCommand" data-entity-2="Command" data-source-line="60" data-uid="lnk8" id="link_DashRightCommand_Command"><path codeLine="60" d="M516.36,179.07 C533.8,190.08 552.43,200.34 571,208 C705.58,263.51 776.68,180.47 893,268 C936.44,300.69 955.0022,343.452 966.5222,384.102" fill="none" id="DashRightCommand-to-Command" style="stroke:#181818;stroke-width:1;stroke-dasharray:7,7;"/><polygon fill="none" points="971.43,401.42,972.2948,382.4661,960.7495,385.7379,971.43,401.42" style="stroke:#181818;stroke-width:1;"/></g><!--link DashLeftCommand to Command--><g class="link" data-entity-1="DashLeftCommand" data-entity-2="Command" data-source-line="70" data-uid="lnk10" id="link_DashLeftCommand_Command"><path codeLine="70" d="M806.03,179.09 C836.17,204.89 868.19,235.72 893,268 C924.78,309.35 943.2148,347.2878 958.3748,384.5378" fill="none" id="DashLeftCommand-to-Command" style="stroke:#181818;stroke-width:1;stroke-dasharray:7,7;"/><polygon fill="none" points="965.16,401.21,963.9322,382.2761,952.8174,386.7996,965.16,401.21" style="stroke:#181818;stroke-width:1;"/></g><!--link DashDownCommand to Command--><g class="link" data-entity-1="DashDownCommand" data-entity-2="Command" data-source-line="80" data-uid="lnk12" id="link_DashDownCommand_Command"><path codeLine="80" d="M998.36,179.14 C993.95,246.32 988.6405,327.2288 984.9705,383.0688" fill="none" id="DashDownCommand-to-Command" style="stroke:#181818;stroke-width:1;stroke-dasharray:7,7;"/><polygon fill="none" points="983.79,401.03,990.9576,383.4622,978.9834,382.6753,983.79,401.03" style="stroke:#181818;stroke-width:1;"/></g><!--link Controller to Board--><g class="link" data-entity-1="Controller" data-entity-2="Board" data-source-line="82" data-uid="lnk13" id="link_Controller_Board"><path codeLine="82" d="M261.11,197.41 C266.78,201.04 272.43,204.58 278,208 C366.11,262.07 462.2269,314.5724 544.9669,357.9824" fill="none" id="Controller-to-Board" style="stroke:#181818;stroke-width:1;stroke-dasharray:7,7;"/><polygon fill="#181818" points="550.28,360.77,544.1687,353.0466,545.8524,358.447,540.4519,360.1307,550.28,360.77" style="stroke:#181818;stroke-width:1;"/></g><!--link DashUpCommand to Board--><g class="link" data-entity-1="DashUpCommand" data-entity-2="Board" data-source-line="83" data-uid="lnk14" id="link_DashUpCommand_Board"><path codeLine="83" d="M1201.4,179.2 C1185.25,189.93 1168.09,200.06 1151,208 C1052.86,253.62 1010.89,217.82 915,268 C901.73,274.95 893.5655,279.5768 880.7455,288.2168" fill="none" id="DashUpCommand-to-Board" style="stroke:#181818;stroke-width:1;stroke-dasharray:7,7;"/><polygon fill="#181818" points="875.77,291.57,885.4688,289.8572,879.9163,288.7756,880.9978,283.2231,875.77,291.57" style="stroke:#181818;stroke-width:1;"/></g><!--link DashRightCommand to Board--><g class="link" data-entity-1="DashRightCommand" data-entity-2="Board" data-source-line="84" data-uid="lnk15" id="link_DashRightCommand_Board"><path codeLine="84" d="M485.73,179.14 C508.25,205.34 531.0088,231.81 558.0088,263.22" fill="none" id="DashRightCommand-to-Board" style="stroke:#181818;stroke-width:1;stroke-dasharray:7,7;"/><polygon fill="#181818" points="561.92,267.77,559.0866,258.3375,558.6607,263.9783,553.0199,263.5524,561.92,267.77" style="stroke:#181818;stroke-width:1;"/></g><!--link DashLeftCommand to Board--><g class="link" data-entity-1="DashLeftCommand" data-entity-2="Board" data-source-line="85" data-uid="lnk16" id="link_DashLeftCommand_Board"><path codeLine="85" d="M713,179.14 C713,205.34 713,230.36 713,261.77" fill="none" id="DashLeftCommand-to-Board" style="stroke:#181818;stroke-width:1;stroke-dasharray:7,7;"/><polygon fill="#181818" points="713,267.77,717,258.77,713,262.77,709,258.77,713,267.77" style="stroke:#181818;stroke-width:1;"/></g><!--link DashDownCommand to Board--><g class="link" data-entity-1="DashDownCommand" data-entity-2="Board" data-source-line="86" data-uid="lnk17" id="link_DashDownCommand_Board"><path codeLine="86" d="M941.85,179.14 C919.17,205.34 896.2469,231.8236 869.0569,263.2336" fill="none" id="DashDownCommand-to-Board" style="stroke:#181818;stroke-width:1;stroke-dasharray:7,7;"/><polygon fill="#181818" points="865.13,267.77,874.0447,263.5833,868.4025,263.9896,867.9961,258.3474,865.13,267.77" style="stroke:#181818;stroke-width:1;"/></g><!--SRC=[lLFHRe8m57tdA_g8SVC3YE51VTWIbompVa1NhjeCUabRvvPj_xvIYjuY-2W91CxXSixfAQBanh05SbqaFmbpXxzFTx84nIl8sCPggVOJppqoiKQHiLSkzVnPsGTtve41LGmJqcomb8vSIsFd_h90B86hl7l5MAxjqFIK2QvUy1DMU5Bf96DXCYRNiBEZv9lS7yRPRJr07RZcme9sMRcLw8M7l5LdOmHepH0W62188neUBPHGexRBJZDLSEfqUwhd6MmxQMorTybVaYJ2Lxb4PJMM9UZGvmL8tvjgixRXhb2ATHrZLN5LFBccK7-7tfOjs4MlDHWJPVT85DuZSNeFaVX7LQ1xQEnBvTBlk00Mf8B_AOCl44SBGqDjvXKtXsqTZqNOS78kFhRro5gFhSuDDv4Ycyr-ytCIujElnxLL2j_DBHKTDTnKUksNe7UpIpH7tJPRyjejGU_cbcZst5x-I4VauOlztKFnNa-KYjU4Ch5-OFu1]--></g></svg>