<svg xmlns="http://www.w3.org/2000/svg" xmlns:xlink="http://www.w3.org/1999/xlink" contentStyleType="text/css" data-diagram-type="CLASS" height="628px" preserveAspectRatio="none" style="width:1418px;height:628px;background:#FFFFFF;" version="1.1" viewBox="0 0 1418 628" width="1418px" zoomAndPan="magnify"><defs/><g><!--class Board--><g class="entity" data-entity="Board" data-source-line="1" data-uid="ent0002" id="entity_Board"><rect fill="#F1F1F1" height="353.0867" rx="2.5" ry="2.5" style="stroke:#181818;stroke-width:0.5;" width="324.7169" x="415.5" y="268"/><ellipse cx="553.7005" cy="284" fill="#ADD1B2" rx="11" ry="11" style="stroke:#181818;stroke-width:1;"/><path d="M556.6693,289.6406 Q556.0911,289.9375 555.4505,290.0781 Q554.8099,290.2344 554.1068,290.2344 Q551.6068,290.2344 550.2786,288.5938 Q548.9661,286.9375 548.9661,283.8125 Q548.9661,280.6875 550.2786,279.0313 Q551.6068,277.375 554.1068,277.375 Q554.8099,277.375 555.4505,277.5313 Q556.1068,277.6875 556.6693,277.9844 L556.6693,280.7031 Q556.0443,280.125 555.4505,279.8594 Q554.8568,279.5781 554.2318,279.5781 Q552.888,279.5781 552.2005,280.6563 Q551.513,281.7188 551.513,283.8125 Q551.513,285.9063 552.2005,286.9844 Q552.888,288.0469 554.2318,288.0469 Q554.8568,288.0469 555.4505,287.7813 Q556.0443,287.5 556.6693,286.9219 L556.6693,289.6406 Z " fill="#000000"/><text fill="#000000" font-family="sans-serif" font-size="14" lengthAdjust="spacing" textLength="39.8159" x="574.2005" y="289.432">Board</text><line style="stroke:#181818;stroke-width:0.5;" x1="416.5" x2="739.2169" y1="300" y2="300"/><rect fill="none" height="6" style="stroke:#C82930;stroke-width:1;" width="6" x="423.5" y="312.034"/><text fill="#000000" font-family="sans-serif" font-size="14" lengthAdjust="spacing" textLength="119.0275" x="435.5" y="318.9659">cLoc: Pair&lt;Int,Int&gt;</text><rect fill="none" height="6" style="stroke:#C82930;stroke-width:1;" width="6" x="423.5" y="331.1019"/><text fill="#000000" font-family="sans-serif" font-size="14" lengthAdjust="spacing" textLength="114.9396" x="435.5" y="338.0339">end: Pair&lt;Int,Int&gt;</text><rect fill="none" height="6" style="stroke:#C82930;stroke-width:1;" width="6" x="423.5" y="350.1698"/><text fill="#000000" font-family="sans-serif" font-size="14" lengthAdjust="spacing" textLength="181.2013" x="435.5" y="357.1018">isSolid: List&lt;List&lt;Boolean&gt;&gt;</text><rect fill="none" height="6" style="stroke:#C82930;stroke-width:1;" width="6" x="423.5" y="369.2377"/><text fill="#000000" font-family="sans-serif" font-size="14" lengthAdjust="spacing" textLength="120.2316" x="435.5" y="376.1697">start: Pair&lt;Int,Int&gt;</text><line style="stroke:#181818;stroke-width:0.5;" x1="416.5" x2="739.2169" y1="384.2717" y2="384.2717"/><text fill="#000000" font-family="sans-serif" font-size="14" lengthAdjust="spacing" textLength="152.4314" x="435.5" y="403.2376">Board(filename: String)</text><ellipse cx="426.5" cy="418.3735" fill="#84BE84" rx="3" ry="3" style="stroke:#038048;stroke-width:1;"/><text fill="#000000" font-family="sans-serif" font-size="14" lengthAdjust="spacing" textLength="167.5933" x="435.5" y="422.3055">canMoveDown(): Boolean</text><ellipse cx="426.5" cy="437.4415" fill="#84BE84" rx="3" ry="3" style="stroke:#038048;stroke-width:1;"/><text fill="#000000" font-family="sans-serif" font-size="14" lengthAdjust="spacing" textLength="154.3494" x="435.5" y="441.3734">canMoveLeft(): Boolean</text><ellipse cx="426.5" cy="456.5094" fill="#84BE84" rx="3" ry="3" style="stroke:#038048;stroke-width:1;"/><text fill="#000000" font-family="sans-serif" font-size="14" lengthAdjust="spacing" textLength="163.8833" x="435.5" y="460.4414">canMoveRight(): Boolean</text><ellipse cx="426.5" cy="475.5773" fill="#84BE84" rx="3" ry="3" style="stroke:#038048;stroke-width:1;"/><text fill="#000000" font-family="sans-serif" font-size="14" lengthAdjust="spacing" textLength="148.0914" x="435.5" y="479.5093">canMoveUp(): Boolean</text><ellipse cx="426.5" cy="494.6452" fill="#84BE84" rx="3" ry="3" style="stroke:#038048;stroke-width:1;"/><text fill="#000000" font-family="sans-serif" font-size="14" lengthAdjust="spacing" textLength="216.6632" x="435.5" y="498.5772">characterLocation(): Pair&lt;Int,Int&gt;</text><ellipse cx="426.5" cy="513.7131" fill="#84BE84" rx="3" ry="3" style="stroke:#038048;stroke-width:1;"/><text fill="#000000" font-family="sans-serif" font-size="14" lengthAdjust="spacing" textLength="83.3137" x="435.5" y="517.6451">moveDown()</text><ellipse cx="426.5" cy="532.781" fill="#84BE84" rx="3" ry="3" style="stroke:#038048;stroke-width:1;"/><text fill="#000000" font-family="sans-serif" font-size="14" lengthAdjust="spacing" textLength="70.0697" x="435.5" y="536.713">moveLeft()</text><ellipse cx="426.5" cy="551.849" fill="#84BE84" rx="3" ry="3" style="stroke:#038048;stroke-width:1;"/><text fill="#000000" font-family="sans-serif" font-size="14" lengthAdjust="spacing" textLength="79.6037" x="435.5" y="555.7809">moveRight()</text><ellipse cx="426.5" cy="570.9169" fill="#84BE84" rx="3" ry="3" style="stroke:#038048;stroke-width:1;"/><text fill="#000000" font-family="sans-serif" font-size="14" lengthAdjust="spacing" textLength="63.8118" x="435.5" y="574.8489">moveUp()</text><ellipse cx="426.5" cy="589.9848" fill="#84BE84" rx="3" ry="3" style="stroke:#038048;stroke-width:1;"/><text fill="#000000" font-family="sans-serif" font-size="14" lengthAdjust="spacing" textLength="298.7169" x="435.5" y="593.9168">teleportCharacter(newLocation: Pair&lt;Int,Int&gt;)</text><ellipse cx="426.5" cy="609.0527" fill="#84BE84" rx="3" ry="3" style="stroke:#038048;stroke-width:1;"/><text fill="#000000" font-family="sans-serif" font-size="14" lengthAdjust="spacing" textLength="108.1076" x="435.5" y="612.9847">toString(): String</text></g><!--class Controller--><g class="entity" data-entity="Controller" data-source-line="22" data-uid="ent0003" id="entity_Controller"><rect fill="#F1F1F1" height="200.5433" rx="2.5" ry="2.5" style="stroke:#181818;stroke-width:0.5;" width="254.3531" x="1157" y="7"/><ellipse cx="1246.8377" cy="23" fill="#ADD1B2" rx="11" ry="11" style="stroke:#181818;stroke-width:1;"/><path d="M1249.8064,28.6406 Q1249.2283,28.9375 1248.5877,29.0781 Q1247.9471,29.2344 1247.2439,29.2344 Q1244.7439,29.2344 1243.4158,27.5938 Q1242.1033,25.9375 1242.1033,22.8125 Q1242.1033,19.6875 1243.4158,18.0313 Q1244.7439,16.375 1247.2439,16.375 Q1247.9471,16.375 1248.5877,16.5313 Q1249.2439,16.6875 1249.8064,16.9844 L1249.8064,19.7031 Q1249.1814,19.125 1248.5877,18.8594 Q1247.9939,18.5781 1247.3689,18.5781 Q1246.0252,18.5781 1245.3377,19.6563 Q1244.6502,20.7188 1244.6502,22.8125 Q1244.6502,24.9063 1245.3377,25.9844 Q1246.0252,27.0469 1247.3689,27.0469 Q1247.9939,27.0469 1248.5877,26.7813 Q1249.1814,26.5 1249.8064,25.9219 L1249.8064,28.6406 Z " fill="#000000"/><text fill="#000000" font-family="sans-serif" font-size="14" lengthAdjust="spacing" textLength="66.1777" x="1267.3377" y="28.432">Controller</text><line style="stroke:#181818;stroke-width:0.5;" x1="1158" x2="1410.3531" y1="39" y2="39"/><rect fill="none" height="6" style="stroke:#C82930;stroke-width:1;" width="6" x="1165" y="51.034"/><text fill="#000000" font-family="sans-serif" font-size="14" lengthAdjust="spacing" textLength="86.5337" x="1177" y="57.9659">board: Board</text><rect fill="none" height="6" style="stroke:#C82930;stroke-width:1;" width="6" x="1165" y="70.1019"/><text fill="#000000" font-family="sans-serif" font-size="14" lengthAdjust="spacing" textLength="228.3531" x="1177" y="77.0339">commandHistory: List&lt;Command&gt;</text><line style="stroke:#181818;stroke-width:0.5;" x1="1158" x2="1410.3531" y1="85.1358" y2="85.1358"/><text fill="#000000" font-family="sans-serif" font-size="14" lengthAdjust="spacing" textLength="161.1114" x="1177" y="104.1018">Controller(board: Board)</text><ellipse cx="1168" cy="119.2377" fill="#84BE84" rx="3" ry="3" style="stroke:#038048;stroke-width:1;"/><text fill="#000000" font-family="sans-serif" font-size="14" lengthAdjust="spacing" textLength="82.4457" x="1177" y="123.1697">pressDown()</text><ellipse cx="1168" cy="138.3056" fill="#84BE84" rx="3" ry="3" style="stroke:#038048;stroke-width:1;"/><text fill="#000000" font-family="sans-serif" font-size="14" lengthAdjust="spacing" textLength="69.2017" x="1177" y="142.2376">pressLeft()</text><ellipse cx="1168" cy="157.3735" fill="#84BE84" rx="3" ry="3" style="stroke:#038048;stroke-width:1;"/><text fill="#000000" font-family="sans-serif" font-size="14" lengthAdjust="spacing" textLength="78.7357" x="1177" y="161.3055">pressRight()</text><ellipse cx="1168" cy="176.4415" fill="#84BE84" rx="3" ry="3" style="stroke:#038048;stroke-width:1;"/><text fill="#000000" font-family="sans-serif" font-size="14" lengthAdjust="spacing" textLength="62.9438" x="1177" y="180.3734">pressUp()</text><ellipse cx="1168" cy="195.5094" fill="#84BE84" rx="3" ry="3" style="stroke:#038048;stroke-width:1;"/><text fill="#000000" font-family="sans-serif" font-size="14" lengthAdjust="spacing" textLength="42.7838" x="1177" y="199.4414">undo()</text></g><!--class Command--><g class="entity" data-entity="Command" data-source-line="35" data-uid="ent0004" id="entity_Command"><rect fill="#F1F1F1" height="86.1358" rx="2.5" ry="2.5" style="stroke:#181818;stroke-width:0.5;" width="96.7638" x="775.5" y="401.5"/><ellipse cx="790.5" cy="417.5" fill="#B4A7E5" rx="11" ry="11" style="stroke:#181818;stroke-width:1;"/><path d="M786.4219,413.2656 L786.4219,411.1094 L793.8125,411.1094 L793.8125,413.2656 L791.3438,413.2656 L791.3438,421.3438 L793.8125,421.3438 L793.8125,423.5 L786.4219,423.5 L786.4219,421.3438 L788.8906,421.3438 L788.8906,413.2656 L786.4219,413.2656 Z " fill="#000000"/><text fill="#000000" font-family="sans-serif" font-size="14" font-style="italic" lengthAdjust="spacing" textLength="64.7638" x="804.5" y="422.932">Command</text><line style="stroke:#181818;stroke-width:0.5;" x1="776.5" x2="871.2638" y1="433.5" y2="433.5"/><line style="stroke:#181818;stroke-width:0.5;" x1="776.5" x2="871.2638" y1="441.5" y2="441.5"/><ellipse cx="786.5" cy="456.534" fill="#84BE84" rx="3" ry="3" style="stroke:#038048;stroke-width:1;"/><text fill="#000000" font-family="sans-serif" font-size="14" lengthAdjust="spacing" textLength="59.9198" x="795.5" y="460.4659">execute()</text><ellipse cx="786.5" cy="475.6019" fill="#84BE84" rx="3" ry="3" style="stroke:#038048;stroke-width:1;"/><text fill="#000000" font-family="sans-serif" font-size="14" lengthAdjust="spacing" textLength="42.7838" x="795.5" y="479.5339">undo()</text></g><!--class DashUpCommand--><g class="entity" data-entity="DashUpCommand" data-source-line="42" data-uid="ent0005" id="entity_DashUpCommand"><rect fill="#F1F1F1" height="143.3396" rx="2.5" ry="2.5" style="stroke:#181818;stroke-width:0.5;" width="241.8232" x="7" y="36"/><ellipse cx="63.2168" cy="52" fill="#ADD1B2" rx="11" ry="11" style="stroke:#181818;stroke-width:1;"/><path d="M66.1856,57.6406 Q65.6075,57.9375 64.9668,58.0781 Q64.3262,58.2344 63.6231,58.2344 Q61.1231,58.2344 59.795,56.5938 Q58.4825,54.9375 58.4825,51.8125 Q58.4825,48.6875 59.795,47.0313 Q61.1231,45.375 63.6231,45.375 Q64.3262,45.375 64.9668,45.5313 Q65.6231,45.6875 66.1856,45.9844 L66.1856,48.7031 Q65.5606,48.125 64.9668,47.8594 Q64.3731,47.5781 63.7481,47.5781 Q62.4043,47.5781 61.7168,48.6563 Q61.0293,49.7188 61.0293,51.8125 Q61.0293,53.9063 61.7168,54.9844 Q62.4043,56.0469 63.7481,56.0469 Q64.3731,56.0469 64.9668,55.7813 Q65.5606,55.5 66.1856,54.9219 L66.1856,57.6406 Z " fill="#000000"/><text fill="#000000" font-family="sans-serif" font-size="14" lengthAdjust="spacing" textLength="120.8895" x="83.7168" y="57.432">DashUpCommand</text><line style="stroke:#181818;stroke-width:0.5;" x1="8" x2="247.8232" y1="68" y2="68"/><rect fill="none" height="6" style="stroke:#C82930;stroke-width:1;" width="6" x="15" y="80.034"/><text fill="#000000" font-family="sans-serif" font-size="14" lengthAdjust="spacing" textLength="195.4533" x="27" y="86.9659">backUpLocation: Pair&lt;Int,Int&gt;</text><rect fill="none" height="6" style="stroke:#C82930;stroke-width:1;" width="6" x="15" y="99.1019"/><text fill="#000000" font-family="sans-serif" font-size="14" lengthAdjust="spacing" textLength="86.5337" x="27" y="106.0339">board: Board</text><line style="stroke:#181818;stroke-width:0.5;" x1="8" x2="247.8232" y1="114.1358" y2="114.1358"/><text fill="#000000" font-family="sans-serif" font-size="14" lengthAdjust="spacing" textLength="215.8232" x="27" y="133.1018">DashUpCommand(board: Board)</text><ellipse cx="18" cy="148.2377" fill="#84BE84" rx="3" ry="3" style="stroke:#038048;stroke-width:1;"/><text fill="#000000" font-family="sans-serif" font-size="14" lengthAdjust="spacing" textLength="59.9198" x="27" y="152.1697">execute()</text><ellipse cx="18" cy="167.3056" fill="#84BE84" rx="3" ry="3" style="stroke:#038048;stroke-width:1;"/><text fill="#000000" font-family="sans-serif" font-size="14" lengthAdjust="spacing" textLength="42.7838" x="27" y="171.2376">undo()</text></g><!--class DashRightCommand--><g class="entity" data-entity="DashRightCommand" data-source-line="52" data-uid="ent0007" id="entity_DashRightCommand"><rect fill="#F1F1F1" height="143.3396" rx="2.5" ry="2.5" style="stroke:#181818;stroke-width:0.5;" width="257.6151" x="284" y="36"/><ellipse cx="340.2168" cy="52" fill="#ADD1B2" rx="11" ry="11" style="stroke:#181818;stroke-width:1;"/><path d="M343.1856,57.6406 Q342.6075,57.9375 341.9668,58.0781 Q341.3262,58.2344 340.6231,58.2344 Q338.1231,58.2344 336.795,56.5938 Q335.4825,54.9375 335.4825,51.8125 Q335.4825,48.6875 336.795,47.0313 Q338.1231,45.375 340.6231,45.375 Q341.3262,45.375 341.9668,45.5313 Q342.6231,45.6875 343.1856,45.9844 L343.1856,48.7031 Q342.5606,48.125 341.9668,47.8594 Q341.3731,47.5781 340.7481,47.5781 Q339.4043,47.5781 338.7168,48.6563 Q338.0293,49.7188 338.0293,51.8125 Q338.0293,53.9063 338.7168,54.9844 Q339.4043,56.0469 340.7481,56.0469 Q341.3731,56.0469 341.9668,55.7813 Q342.5606,55.5 343.1856,54.9219 L343.1856,57.6406 Z " fill="#000000"/><text fill="#000000" font-family="sans-serif" font-size="14" lengthAdjust="spacing" textLength="136.6815" x="360.7168" y="57.432">DashRightCommand</text><line style="stroke:#181818;stroke-width:0.5;" x1="285" x2="540.6151" y1="68" y2="68"/><rect fill="none" height="6" style="stroke:#C82930;stroke-width:1;" width="6" x="292" y="80.034"/><text fill="#000000" font-family="sans-serif" font-size="14" lengthAdjust="spacing" textLength="195.4533" x="304" y="86.9659">backUpLocation: Pair&lt;Int,Int&gt;</text><rect fill="none" height="6" style="stroke:#C82930;stroke-width:1;" width="6" x="292" y="99.1019"/><text fill="#000000" font-family="sans-serif" font-size="14" lengthAdjust="spacing" textLength="86.5337" x="304" y="106.0339">board: Board</text><line style="stroke:#181818;stroke-width:0.5;" x1="285" x2="540.6151" y1="114.1358" y2="114.1358"/><text fill="#000000" font-family="sans-serif" font-size="14" lengthAdjust="spacing" textLength="231.6151" x="304" y="133.1018">DashRightCommand(board: Board)</text><ellipse cx="295" cy="148.2377" fill="#84BE84" rx="3" ry="3" style="stroke:#038048;stroke-width:1;"/><text fill="#000000" font-family="sans-serif" font-size="14" lengthAdjust="spacing" textLength="59.9198" x="304" y="152.1697">execute()</text><ellipse cx="295" cy="167.3056" fill="#84BE84" rx="3" ry="3" style="stroke:#038048;stroke-width:1;"/><text fill="#000000" font-family="sans-serif" font-size="14" lengthAdjust="spacing" textLength="42.7838" x="304" y="171.2376">undo()</text></g><!--class DashLeftCommand--><g class="entity" data-entity="DashLeftCommand" data-source-line="62" data-uid="ent0009" id="entity_DashLeftCommand"><rect fill="#F1F1F1" height="143.3396" rx="2.5" ry="2.5" style="stroke:#181818;stroke-width:0.5;" width="248.0812" x="577" y="36"/><ellipse cx="633.2168" cy="52" fill="#ADD1B2" rx="11" ry="11" style="stroke:#181818;stroke-width:1;"/><path d="M636.1856,57.6406 Q635.6075,57.9375 634.9668,58.0781 Q634.3262,58.2344 633.6231,58.2344 Q631.1231,58.2344 629.795,56.5938 Q628.4825,54.9375 628.4825,51.8125 Q628.4825,48.6875 629.795,47.0313 Q631.1231,45.375 633.6231,45.375 Q634.3262,45.375 634.9668,45.5313 Q635.6231,45.6875 636.1856,45.9844 L636.1856,48.7031 Q635.5606,48.125 634.9668,47.8594 Q634.3731,47.5781 633.7481,47.5781 Q632.4043,47.5781 631.7168,48.6563 Q631.0293,49.7188 631.0293,51.8125 Q631.0293,53.9063 631.7168,54.9844 Q632.4043,56.0469 633.7481,56.0469 Q634.3731,56.0469 634.9668,55.7813 Q635.5606,55.5 636.1856,54.9219 L636.1856,57.6406 Z " fill="#000000"/><text fill="#000000" font-family="sans-serif" font-size="14" lengthAdjust="spacing" textLength="127.1475" x="653.7168" y="57.432">DashLeftCommand</text><line style="stroke:#181818;stroke-width:0.5;" x1="578" x2="824.0812" y1="68" y2="68"/><rect fill="none" height="6" style="stroke:#C82930;stroke-width:1;" width="6" x="585" y="80.034"/><text fill="#000000" font-family="sans-serif" font-size="14" lengthAdjust="spacing" textLength="195.4533" x="597" y="86.9659">backUpLocation: Pair&lt;Int,Int&gt;</text><rect fill="none" height="6" style="stroke:#C82930;stroke-width:1;" width="6" x="585" y="99.1019"/><text fill="#000000" font-family="sans-serif" font-size="14" lengthAdjust="spacing" textLength="86.5337" x="597" y="106.0339">board: Board</text><line style="stroke:#181818;stroke-width:0.5;" x1="578" x2="824.0812" y1="114.1358" y2="114.1358"/><text fill="#000000" font-family="sans-serif" font-size="14" lengthAdjust="spacing" textLength="222.0812" x="597" y="133.1018">DashLeftCommand(board: Board)</text><ellipse cx="588" cy="148.2377" fill="#84BE84" rx="3" ry="3" style="stroke:#038048;stroke-width:1;"/><text fill="#000000" font-family="sans-serif" font-size="14" lengthAdjust="spacing" textLength="59.9198" x="597" y="152.1697">execute()</text><ellipse cx="588" cy="167.3056" fill="#84BE84" rx="3" ry="3" style="stroke:#038048;stroke-width:1;"/><text fill="#000000" font-family="sans-serif" font-size="14" lengthAdjust="spacing" textLength="42.7838" x="597" y="171.2376">undo()</text></g><!--class DashDownCommand--><g class="entity" data-entity="DashDownCommand" data-source-line="72" data-uid="ent0011" id="entity_DashDownCommand"><rect fill="#F1F1F1" height="143.3396" rx="2.5" ry="2.5" style="stroke:#181818;stroke-width:0.5;" width="261.3251" x="860.5" y="36"/><ellipse cx="916.7168" cy="52" fill="#ADD1B2" rx="11" ry="11" style="stroke:#181818;stroke-width:1;"/><path d="M919.6856,57.6406 Q919.1075,57.9375 918.4668,58.0781 Q917.8262,58.2344 917.1231,58.2344 Q914.6231,58.2344 913.295,56.5938 Q911.9825,54.9375 911.9825,51.8125 Q911.9825,48.6875 913.295,47.0313 Q914.6231,45.375 917.1231,45.375 Q917.8262,45.375 918.4668,45.5313 Q919.1231,45.6875 919.6856,45.9844 L919.6856,48.7031 Q919.0606,48.125 918.4668,47.8594 Q917.8731,47.5781 917.2481,47.5781 Q915.9043,47.5781 915.2168,48.6563 Q914.5293,49.7188 914.5293,51.8125 Q914.5293,53.9063 915.2168,54.9844 Q915.9043,56.0469 917.2481,56.0469 Q917.8731,56.0469 918.4668,55.7813 Q919.0606,55.5 919.6856,54.9219 L919.6856,57.6406 Z " fill="#000000"/><text fill="#000000" font-family="sans-serif" font-size="14" lengthAdjust="spacing" textLength="140.3914" x="937.2168" y="57.432">DashDownCommand</text><line style="stroke:#181818;stroke-width:0.5;" x1="861.5" x2="1120.8251" y1="68" y2="68"/><rect fill="none" height="6" style="stroke:#C82930;stroke-width:1;" width="6" x="868.5" y="80.034"/><text fill="#000000" font-family="sans-serif" font-size="14" lengthAdjust="spacing" textLength="195.4533" x="880.5" y="86.9659">backUpLocation: Pair&lt;Int,Int&gt;</text><rect fill="none" height="6" style="stroke:#C82930;stroke-width:1;" width="6" x="868.5" y="99.1019"/><text fill="#000000" font-family="sans-serif" font-size="14" lengthAdjust="spacing" textLength="86.5337" x="880.5" y="106.0339">board: Board</text><line style="stroke:#181818;stroke-width:0.5;" x1="861.5" x2="1120.8251" y1="114.1358" y2="114.1358"/><text fill="#000000" font-family="sans-serif" font-size="14" lengthAdjust="spacing" textLength="235.3251" x="880.5" y="133.1018">DashDownCommand(board: Board)</text><ellipse cx="871.5" cy="148.2377" fill="#84BE84" rx="3" ry="3" style="stroke:#038048;stroke-width:1;"/><text fill="#000000" font-family="sans-serif" font-size="14" lengthAdjust="spacing" textLength="59.9198" x="880.5" y="152.1697">execute()</text><ellipse cx="871.5" cy="167.3056" fill="#84BE84" rx="3" ry="3" style="stroke:#038048;stroke-width:1;"/><text fill="#000000" font-family="sans-serif" font-size="14" lengthAdjust="spacing" textLength="42.7838" x="880.5" y="171.2376">undo()</text></g><!--link DashUpCommand to Command--><g class="link" data-entity-1="DashUpCommand" data-entity-2="Command" data-source-line="50" data-uid="lnk6" id="link_DashUpCommand_Command"><path codeLine="50" d="M212.08,179.08 C229.06,190.38 247.43,200.73 266,208 C471.14,288.28 584.82,131.86 758,268 C798.82,300.09 811.7956,342.508 817.7456,383.358" fill="none" id="DashUpCommand-to-Command" style="stroke:#181818;stroke-width:1;stroke-dasharray:7,7;"/><polygon fill="none" points="820.34,401.17,823.6829,382.4931,811.8082,384.2228,820.34,401.17" style="stroke:#181818;stroke-width:1;"/></g><!--link DashRightCommand to Command--><g class="link" data-entity-1="DashRightCommand" data-entity-2="Command" data-source-line="60" data-uid="lnk8" id="link_DashRightCommand_Command"><path codeLine="60" d="M508.59,179.16 C525.23,189.71 542.75,199.78 560,208 C643.01,247.55 690.89,205.14 758,268 C795.54,303.16 808.7516,344.0439 815.7616,383.7639" fill="none" id="DashRightCommand-to-Command" style="stroke:#181818;stroke-width:1;stroke-dasharray:7,7;"/><polygon fill="none" points="818.89,401.49,821.6703,382.7211,809.8529,384.8067,818.89,401.49" style="stroke:#181818;stroke-width:1;"/></g><!--link DashLeftCommand to Command--><g class="link" data-entity-1="DashLeftCommand" data-entity-2="Command" data-source-line="70" data-uid="lnk10" id="link_DashLeftCommand_Command"><path codeLine="70" d="M726.93,179.14 C751.6,246.32 781.694,328.2937 802.204,384.1337" fill="none" id="DashLeftCommand-to-Command" style="stroke:#181818;stroke-width:1;stroke-dasharray:7,7;"/><polygon fill="none" points="808.41,401.03,807.8361,382.065,796.5719,386.2024,808.41,401.03" style="stroke:#181818;stroke-width:1;"/></g><!--link DashDownCommand to Command--><g class="link" data-entity-1="DashDownCommand" data-entity-2="Command" data-source-line="80" data-uid="lnk12" id="link_DashDownCommand_Command"><path codeLine="80" d="M955.79,179.14 C922.29,246.32 881.0414,329.0811 853.2014,384.9211" fill="none" id="DashDownCommand-to-Command" style="stroke:#181818;stroke-width:1;stroke-dasharray:7,7;"/><polygon fill="none" points="845.17,401.03,858.571,387.5982,847.8317,382.244,845.17,401.03" style="stroke:#181818;stroke-width:1;"/></g><!--link Controller to Board--><g class="link" data-entity-1="Controller" data-entity-2="Board" data-source-line="82" data-uid="lnk13" id="link_Controller_Board"><path codeLine="82" d="M1156.83,200.11 C1150.91,202.98 1144.96,205.63 1139,208 C979.73,271.39 911.26,191.21 758,268 C752.15,270.93 751.5089,271.0397 745.8089,274.4497" fill="none" id="Controller-to-Board" style="stroke:#181818;stroke-width:1;stroke-dasharray:7,7;"/><polygon fill="#181818" points="740.66,277.53,750.437,276.3421,744.9508,274.9631,746.3299,269.4769,740.66,277.53" style="stroke:#181818;stroke-width:1;"/></g><!--link Controller to Command--><g class="link" data-entity-1="Controller" data-entity-2="Command" data-source-line="83" data-uid="lnk14" id="link_Controller_Command"><path codeLine="83" d="M1156.78,201.15 C1062.65,269.7 944.4501,355.7778 877.4701,404.5578" fill="none" id="Controller-to-Command" style="stroke:#181818;stroke-width:1;stroke-dasharray:7,7;"/><polygon fill="#181818" points="872.62,408.09,882.25,406.0251,876.6617,405.1465,877.5403,399.5583,872.62,408.09" style="stroke:#181818;stroke-width:1;"/></g><!--link DashUpCommand to Board--><g class="link" data-entity-1="DashUpCommand" data-entity-2="Board" data-source-line="84" data-uid="lnk15" id="link_DashUpCommand_Board"><path codeLine="84" d="M222.88,179.14 C278.71,220.7 346.0072,270.7972 410.6472,318.9172" fill="none" id="DashUpCommand-to-Board" style="stroke:#181818;stroke-width:1;stroke-dasharray:7,7;"/><polygon fill="#181818" points="415.46,322.5,410.6293,313.9172,411.4493,319.5143,405.8522,320.3343,415.46,322.5" style="stroke:#181818;stroke-width:1;"/></g><!--link DashRightCommand to Board--><g class="link" data-entity-1="DashRightCommand" data-entity-2="Board" data-source-line="85" data-uid="lnk16" id="link_DashRightCommand_Board"><path codeLine="85" d="M447.79,179.14 C460.7,205.34 473.329,230.9774 488.799,262.3874" fill="none" id="DashRightCommand-to-Board" style="stroke:#181818;stroke-width:1;stroke-dasharray:7,7;"/><polygon fill="#181818" points="491.45,267.77,491.0619,257.9288,489.2408,263.2845,483.8851,261.4635,491.45,267.77" style="stroke:#181818;stroke-width:1;"/></g><!--link DashLeftCommand to Board--><g class="link" data-entity-1="DashLeftCommand" data-entity-2="Board" data-source-line="86" data-uid="lnk17" id="link_DashLeftCommand_Board"><path codeLine="86" d="M675.07,179.14 C665.44,205.34 656.1176,230.7275 644.5876,262.1375" fill="none" id="DashLeftCommand-to-Board" style="stroke:#181818;stroke-width:1;stroke-dasharray:7,7;"/><polygon fill="#181818" points="642.52,267.77,649.3764,260.6996,644.243,263.0762,641.8664,257.9429,642.52,267.77" style="stroke:#181818;stroke-width:1;"/></g><!--link DashDownCommand to Board--><g class="link" data-entity-1="DashDownCommand" data-entity-2="Board" data-source-line="87" data-uid="lnk18" id="link_DashDownCommand_Board"><path codeLine="87" d="M886.19,179.04 C830.21,216.93 770.32,257.9 758,268 C752.26,272.7 751.04,273.6488 745.27,278.6088" fill="none" id="DashDownCommand-to-Board" style="stroke:#181818;stroke-width:1;stroke-dasharray:7,7;"/><polygon fill="#181818" points="740.72,282.52,750.1524,279.6865,744.5116,279.2606,744.9375,273.6198,740.72,282.52" style="stroke:#181818;stroke-width:1;"/></g><!--SRC=[lLFHRe8m57tdA_g8SVC3YE51VTWIbompVa1Nhjgiz9AspYtR_dsbjDeY-2W91CxfvPpJ0qnGhSa2gQgodupOmztdEov0qXeAiZ6Ao_t4SO-4hP4Lv9LoDN-Mvi6UfMT0LiC4rniKt99hhitSNHQ80gWimn9jg393qrF2g7p1JrZXIUQJWlZ9b5p3peoIRtn_66UtpG1re8eo0yfcfOQZ4nxoLf-DHK1d9WAyWGXfHVsZ0G4DAhCCchc4Kz3jgPvdiEkajTNTPNzPbZ5NvHAbKIW4AD_d1SZVssgBhk5GQ8o5Zh6kgQoUR5EeldrlomuCqHi5MYVP7PA4TqYQta5H_AEiq3wqzhcqwNUK0V5Itl-Km1Umeu6XeIxpYkh3jad74cmuEMKVssPahyTsvuQRH97CPh_bEKdaq-t7jTKOlflRM7JKS5lfjTy8lPlTI7FKRVj9NhkDqBkvZJHxRYz_f2LA_yOU61RtFwgmVA2-c4gtAcPIMvxv1m00]--></g></svg>