<svg xmlns="http://www.w3.org/2000/svg" xmlns:xlink="http://www.w3.org/1999/xlink" contentStyleType="text/css" data-diagram-type="CLASS" height="265px" preserveAspectRatio="none" style="width:373px;height:265px;background:#FFFFFF;" version="1.1" viewBox="0 0 373 265" width="373px" zoomAndPan="magnify"><defs/><g><!--class AbstractService--><g class="entity" data-entity="AbstractService" data-source-line="2" data-uid="ent0002" id="entity_AbstractService"><rect fill="#F1F1F1" height="86.1358" rx="2.5" ry="2.5" style="stroke:#181818;stroke-width:0.5;" width="131.4196" x="23.5" y="172"/><ellipse cx="40.8085" cy="188" fill="#B4A7E5" rx="11" ry="11" style="stroke:#181818;stroke-width:1;"/><path d="M36.7304,183.7656 L36.7304,181.6094 L44.121,181.6094 L44.121,183.7656 L41.6522,183.7656 L41.6522,191.8438 L44.121,191.8438 L44.121,194 L36.7304,194 L36.7304,191.8438 L39.1991,191.8438 L39.1991,183.7656 L36.7304,183.7656 Z " fill="#000000"/><text fill="#000000" font-family="sans-serif" font-size="14" font-style="italic" lengthAdjust="spacing" textLength="94.2896" x="55.3215" y="193.432">AbstractService</text><line style="stroke:#181818;stroke-width:0.5;" x1="24.5" x2="153.9196" y1="204" y2="204"/><line style="stroke:#181818;stroke-width:0.5;" x1="24.5" x2="153.9196" y1="212" y2="212"/><ellipse cx="34.5" cy="227.034" fill="#84BE84" rx="3" ry="3" style="stroke:#038048;stroke-width:1;"/><text fill="#000000" font-family="sans-serif" font-size="14" font-style="italic" lengthAdjust="spacing" textLength="105.4196" x="43.5" y="230.9659">serviceMethod1()</text><ellipse cx="34.5" cy="246.1019" fill="#84BE84" rx="3" ry="3" style="stroke:#038048;stroke-width:1;"/><text fill="#000000" font-family="sans-serif" font-size="14" font-style="italic" lengthAdjust="spacing" textLength="105.4196" x="43.5" y="250.0339">serviceMethod2()</text></g><!--class RealService--><g class="entity" data-entity="RealService" data-source-line="7" data-uid="ent0003" id="entity_RealService"><rect fill="#F1F1F1" height="86.1358" rx="2.5" ry="2.5" style="stroke:#181818;stroke-width:0.5;" width="139.5116" x="7" y="16.5"/><ellipse cx="36.732" cy="32.5" fill="#ADD1B2" rx="11" ry="11" style="stroke:#181818;stroke-width:1;"/><path d="M39.7008,38.1406 Q39.1227,38.4375 38.482,38.5781 Q37.8414,38.7344 37.1383,38.7344 Q34.6383,38.7344 33.3102,37.0938 Q31.9977,35.4375 31.9977,32.3125 Q31.9977,29.1875 33.3102,27.5313 Q34.6383,25.875 37.1383,25.875 Q37.8414,25.875 38.482,26.0313 Q39.1383,26.1875 39.7008,26.4844 L39.7008,29.2031 Q39.0758,28.625 38.482,28.3594 Q37.8883,28.0781 37.2633,28.0781 Q35.9195,28.0781 35.232,29.1563 Q34.5445,30.2188 34.5445,32.3125 Q34.5445,34.4063 35.232,35.4844 Q35.9195,36.5469 37.2633,36.5469 Q37.8883,36.5469 38.482,36.2813 Q39.0758,36 39.7008,35.4219 L39.7008,38.1406 Z " fill="#000000"/><text fill="#000000" font-family="sans-serif" font-size="14" lengthAdjust="spacing" textLength="74.7737" x="54.0058" y="37.932">RealService</text><line style="stroke:#181818;stroke-width:0.5;" x1="8" x2="145.5116" y1="48.5" y2="48.5"/><line style="stroke:#181818;stroke-width:0.5;" x1="8" x2="145.5116" y1="56.5" y2="56.5"/><ellipse cx="18" cy="71.534" fill="#84BE84" rx="3" ry="3" style="stroke:#038048;stroke-width:1;"/><text fill="#000000" font-family="sans-serif" font-size="14" lengthAdjust="spacing" textLength="113.5116" x="27" y="75.4659">serviceMethod1()</text><ellipse cx="18" cy="90.6019" fill="#84BE84" rx="3" ry="3" style="stroke:#038048;stroke-width:1;"/><text fill="#000000" font-family="sans-serif" font-size="14" lengthAdjust="spacing" textLength="113.5116" x="27" y="94.5339">serviceMethod2()</text></g><!--class RequiredInterface--><g class="entity" data-entity="RequiredInterface" data-source-line="12" data-uid="ent0004" id="entity_RequiredInterface"><rect fill="#F1F1F1" height="86.1358" rx="2.5" ry="2.5" style="stroke:#181818;stroke-width:0.5;" width="143.0756" x="202.5" y="172"/><ellipse cx="217.5" cy="188" fill="#B4A7E5" rx="11" ry="11" style="stroke:#181818;stroke-width:1;"/><path d="M213.4219,183.7656 L213.4219,181.6094 L220.8125,181.6094 L220.8125,183.7656 L218.3438,183.7656 L218.3438,191.8438 L220.8125,191.8438 L220.8125,194 L213.4219,194 L213.4219,191.8438 L215.8906,191.8438 L215.8906,183.7656 L213.4219,183.7656 Z " fill="#000000"/><text fill="#000000" font-family="sans-serif" font-size="14" font-style="italic" lengthAdjust="spacing" textLength="111.0756" x="231.5" y="193.432">RequiredInterface</text><line style="stroke:#181818;stroke-width:0.5;" x1="203.5" x2="344.5756" y1="204" y2="204"/><line style="stroke:#181818;stroke-width:0.5;" x1="203.5" x2="344.5756" y1="212" y2="212"/><ellipse cx="213.5" cy="227.034" fill="#84BE84" rx="3" ry="3" style="stroke:#038048;stroke-width:1;"/><text fill="#000000" font-family="sans-serif" font-size="14" font-style="italic" lengthAdjust="spacing" textLength="63.8118" x="222.5" y="230.9659">method1()</text><ellipse cx="213.5" cy="246.1019" fill="#84BE84" rx="3" ry="3" style="stroke:#038048;stroke-width:1;"/><text fill="#000000" font-family="sans-serif" font-size="14" font-style="italic" lengthAdjust="spacing" textLength="63.8118" x="222.5" y="250.0339">method2()</text></g><!--class ServiceAdapter--><g class="entity" data-entity="ServiceAdapter" data-source-line="17" data-uid="ent0005" id="entity_ServiceAdapter"><rect fill="#F1F1F1" height="105.2038" rx="2.5" ry="2.5" style="stroke:#181818;stroke-width:0.5;" width="184.1854" x="182" y="7"/><ellipse cx="220.7284" cy="23" fill="#ADD1B2" rx="11" ry="11" style="stroke:#181818;stroke-width:1;"/><path d="M223.6971,28.6406 Q223.119,28.9375 222.4784,29.0781 Q221.8378,29.2344 221.1346,29.2344 Q218.6346,29.2344 217.3065,27.5938 Q215.994,25.9375 215.994,22.8125 Q215.994,19.6875 217.3065,18.0313 Q218.6346,16.375 221.1346,16.375 Q221.8378,16.375 222.4784,16.5313 Q223.1346,16.6875 223.6971,16.9844 L223.6971,19.7031 Q223.0721,19.125 222.4784,18.8594 Q221.8846,18.5781 221.2596,18.5781 Q219.9159,18.5781 219.2284,19.6563 Q218.5409,20.7188 218.5409,22.8125 Q218.5409,24.9063 219.2284,25.9844 Q219.9159,27.0469 221.2596,27.0469 Q221.8846,27.0469 222.4784,26.7813 Q223.0721,26.5 223.6971,25.9219 L223.6971,28.6406 Z " fill="#000000"/><text fill="#000000" font-family="sans-serif" font-size="14" lengthAdjust="spacing" textLength="99.4556" x="240.0014" y="28.432">ServiceAdapter</text><line style="stroke:#181818;stroke-width:0.5;" x1="183" x2="365.1854" y1="39" y2="39"/><rect fill="none" height="6" style="stroke:#C82930;stroke-width:1;" width="6" x="190" y="51.034"/><text fill="#000000" font-family="sans-serif" font-size="14" lengthAdjust="spacing" textLength="158.1854" x="202" y="57.9659">service : AbstractService</text><line style="stroke:#181818;stroke-width:0.5;" x1="183" x2="365.1854" y1="66.0679" y2="66.0679"/><ellipse cx="193" cy="81.1019" fill="#84BE84" rx="3" ry="3" style="stroke:#038048;stroke-width:1;"/><text fill="#000000" font-family="sans-serif" font-size="14" lengthAdjust="spacing" textLength="68.1797" x="202" y="85.0339">method1()</text><ellipse cx="193" cy="100.1698" fill="#84BE84" rx="3" ry="3" style="stroke:#038048;stroke-width:1;"/><text fill="#000000" font-family="sans-serif" font-size="14" lengthAdjust="spacing" textLength="68.1797" x="202" y="104.1018">method2()</text></g><!--link RealService to AbstractService--><g class="link" data-entity-1="RealService" data-entity-2="AbstractService" data-source-line="23" data-uid="lnk6" id="link_RealService_AbstractService"><path codeLine="23" d="M80.31,102.85 C81.99,124.33 82.6152,132.3849 84.2952,153.8449" fill="none" id="RealService-to-AbstractService" style="stroke:#181818;stroke-width:1;stroke-dasharray:7,7;"/><polygon fill="none" points="85.7,171.79,90.2769,153.3766,78.3135,154.3132,85.7,171.79" style="stroke:#181818;stroke-width:1;"/></g><!--link ServiceAdapter to RequiredInterface--><g class="link" data-entity-1="ServiceAdapter" data-entity-2="RequiredInterface" data-source-line="24" data-uid="lnk7" id="link_ServiceAdapter_RequiredInterface"><path codeLine="24" d="M274,112.04 C274,131.38 274,135.11 274,153.53" fill="none" id="ServiceAdapter-to-RequiredInterface" style="stroke:#181818;stroke-width:1;stroke-dasharray:7,7;"/><polygon fill="none" points="274,171.53,280,153.53,268,153.53,274,171.53" style="stroke:#181818;stroke-width:1;"/></g><!--link ServiceAdapter to AbstractService--><g class="link" data-entity-1="ServiceAdapter" data-entity-2="AbstractService" data-source-line="25" data-uid="lnk8" id="link_ServiceAdapter_AbstractService"><path codeLine="25" d="M202.6442,119.7016 C179.2342,139.1216 166.7683,149.4797 144.4983,167.9497" fill="none" id="ServiceAdapter-AbstractService" style="stroke:#181818;stroke-width:1;"/><polygon fill="none" points="211.88,112.04,204.7082,112.7922,202.6442,119.7016,209.816,118.9494,211.88,112.04" style="stroke:#181818;stroke-width:1;"/><polygon fill="#181818" points="139.88,171.78,149.361,169.1135,143.7286,168.5881,144.254,162.9557,139.88,171.78" style="stroke:#181818;stroke-width:1;"/></g><!--SRC=[Kr38p2j9BKfBJ4vLS4mgBYbAJ2u9JYqgoqnEhUPI009jXUf4g7YjGZ54nZUr92C_nL13au0A8x2AMYuWaPoJM5oi49IQc8DcEWuZSPc3S6rGQc5fPb5gYYTC18jxSt4xD1Ux2w6kSqn9B00Q2p5I5-OQ1IlqC8AQYsuFXk587bVGqwknms8EgiqGLHX-n5INhwkBQHe0]--></g></svg>