<svg xmlns="http://www.w3.org/2000/svg" xmlns:xlink="http://www.w3.org/1999/xlink" contentStyleType="text/css" height="475px" preserveAspectRatio="none" style="width:1015px;height:475px;background:#FFFFFF;" version="1.1" viewBox="0 0 1015 475" width="1015px" zoomAndPan="magnify"><defs/><g><!--class Shipment--><g id="elem_Shipment"><rect codeLine="1" fill="#F1F1F1" height="129.4844" id="Shipment" rx="2.5" ry="2.5" style="stroke:#181818;stroke-width:0.5;" width="372.9512" x="569.56" y="140.45"/><ellipse cx="718.2109" cy="156.45" fill="#ADD1B2" rx="11" ry="11" style="stroke:#181818;stroke-width:1.0;"/><path d="M721.1796,162.0906 Q720.6015,162.3875 719.9609,162.5281 Q719.3203,162.6844 718.6171,162.6844 Q716.1171,162.6844 714.789,161.0438 Q713.4765,159.3875 713.4765,156.2625 Q713.4765,153.1375 714.789,151.4813 Q716.1171,149.825 718.6171,149.825 Q719.3203,149.825 719.9609,149.9813 Q720.6171,150.1375 721.1796,150.4344 L721.1796,153.1531 Q720.5546,152.575 719.9609,152.3094 Q719.3671,152.0281 718.7421,152.0281 Q717.3984,152.0281 716.7109,153.1063 Q716.0234,154.1688 716.0234,156.2625 Q716.0234,158.3563 716.7109,159.4344 Q717.3984,160.4969 718.7421,160.4969 Q719.3671,160.4969 719.9609,160.2313 Q720.5546,159.95 721.1796,159.3719 L721.1796,162.0906 Z " fill="#000000"/><text fill="#000000" font-family="sans-serif" font-size="14" lengthAdjust="spacing" textLength="67.1494" x="738.7109" y="161.2967">Shipment</text><line style="stroke:#181818;stroke-width:0.5;" x1="570.56" x2="941.5112" y1="172.45" y2="172.45"/><rect fill="none" height="6" style="stroke:#C82930;stroke-width:1.0;" width="6" x="577.56" y="183.0984"/><text fill="#000000" font-family="sans-serif" font-size="14" lengthAdjust="spacing" textLength="134.6475" x="589.56" y="189.4451">processDate : Date</text><rect fill="none" height="6" style="stroke:#C82930;stroke-width:1.0;" width="6" x="577.56" y="199.3953"/><text fill="#000000" font-family="sans-serif" font-size="14" lengthAdjust="spacing" textLength="126.6221" x="589.56" y="205.742">orderList : [Order]</text><rect fill="none" height="6" style="stroke:#C82930;stroke-width:1.0;" width="6" x="577.56" y="215.6922"/><text fill="#000000" font-family="sans-serif" font-size="14" lengthAdjust="spacing" textLength="127.9482" x="589.56" y="222.0389">delivery : Delivery</text><line style="stroke:#181818;stroke-width:0.5;" x1="570.56" x2="941.5112" y1="229.3406" y2="229.3406"/><ellipse cx="580.56" cy="242.9891" fill="#84BE84" rx="3" ry="3" style="stroke:#038048;stroke-width:1.0;"/><text fill="#000000" font-family="sans-serif" font-size="14" lengthAdjust="spacing" textLength="157.1719" x="589.56" y="246.3357">shipmentDetails() : str</text><ellipse cx="580.56" cy="259.2859" fill="#84BE84" rx="3" ry="3" style="stroke:#038048;stroke-width:1.0;"/><text fill="#000000" font-family="sans-serif" font-size="14" lengthAdjust="spacing" textLength="346.9512" x="589.56" y="262.6326">newDelivery(location) : Delivery //factory method</text></g><!--class ExpressShipment--><g id="elem_ExpressShipment"><rect codeLine="9" fill="#F1F1F1" height="64.2969" id="ExpressShipment" rx="2.5" ry="2.5" style="stroke:#181818;stroke-width:0.5;" width="504.8164" x="503.63" y="7"/><ellipse cx="690.7262" cy="23" fill="#ADD1B2" rx="11" ry="11" style="stroke:#181818;stroke-width:1.0;"/><path d="M693.6949,28.6406 Q693.1168,28.9375 692.4762,29.0781 Q691.8356,29.2344 691.1324,29.2344 Q688.6324,29.2344 687.3043,27.5938 Q685.9918,25.9375 685.9918,22.8125 Q685.9918,19.6875 687.3043,18.0313 Q688.6324,16.375 691.1324,16.375 Q691.8356,16.375 692.4762,16.5313 Q693.1324,16.6875 693.6949,16.9844 L693.6949,19.7031 Q693.0699,19.125 692.4762,18.8594 Q691.8824,18.5781 691.2574,18.5781 Q689.9137,18.5781 689.2262,19.6563 Q688.5387,20.7188 688.5387,22.8125 Q688.5387,24.9063 689.2262,25.9844 Q689.9137,27.0469 691.2574,27.0469 Q691.8824,27.0469 692.4762,26.7813 Q693.0699,26.5 693.6949,25.9219 L693.6949,28.6406 Z " fill="#000000"/><text fill="#000000" font-family="sans-serif" font-size="14" lengthAdjust="spacing" textLength="122.124" x="711.2262" y="27.8467">ExpressShipment</text><line style="stroke:#181818;stroke-width:0.5;" x1="504.63" x2="1007.4464" y1="39" y2="39"/><line style="stroke:#181818;stroke-width:0.5;" x1="504.63" x2="1007.4464" y1="47" y2="47"/><ellipse cx="514.63" cy="60.6484" fill="#84BE84" rx="3" ry="3" style="stroke:#038048;stroke-width:1.0;"/><text fill="#000000" font-family="sans-serif" font-size="14" lengthAdjust="spacing" textLength="478.8164" x="523.63" y="63.9951">newDelivery(location) : Delivery //overrides Shipment.newDelivery()</text></g><!--class Delivery--><g id="elem_Delivery"><rect codeLine="13" fill="#F1F1F1" height="113.1875" id="Delivery" rx="2.5" ry="2.5" style="stroke:#181818;stroke-width:0.5;" width="246.0693" x="288" y="355.08"/><ellipse cx="377.7285" cy="371.08" fill="#B4A7E5" rx="11" ry="11" style="stroke:#181818;stroke-width:1.0;"/><path d="M373.6504,366.8456 L373.6504,364.6894 L381.041,364.6894 L381.041,366.8456 L378.5723,366.8456 L378.5723,374.9238 L381.041,374.9238 L381.041,377.08 L373.6504,377.08 L373.6504,374.9238 L376.1191,374.9238 L376.1191,366.8456 L373.6504,366.8456 Z " fill="#000000"/><text fill="#000000" font-family="sans-serif" font-size="14" font-style="italic" lengthAdjust="spacing" textLength="58.1123" x="398.2285" y="375.9267">Delivery</text><line style="stroke:#181818;stroke-width:0.5;" x1="289" x2="533.0693" y1="387.08" y2="387.08"/><line style="stroke:#181818;stroke-width:0.5;" x1="289" x2="533.0693" y1="395.08" y2="395.08"/><ellipse cx="299" cy="408.7284" fill="#84BE84" rx="3" ry="3" style="stroke:#038048;stroke-width:1.0;"/><text fill="#000000" font-family="sans-serif" font-size="14" font-style="italic" lengthAdjust="spacing" textLength="220.0693" x="308" y="412.0751">estimatedDeliveryDate() : Date</text><ellipse cx="299" cy="425.0253" fill="#84BE84" rx="3" ry="3" style="stroke:#038048;stroke-width:1.0;"/><text fill="#000000" font-family="sans-serif" font-size="14" font-style="italic" lengthAdjust="spacing" textLength="137.4912" x="308" y="428.372">deliveryFee() : float</text><ellipse cx="299" cy="441.3222" fill="#84BE84" rx="3" ry="3" style="stroke:#038048;stroke-width:1.0;"/><text fill="#000000" font-family="sans-serif" font-size="14" font-style="italic" lengthAdjust="spacing" textLength="147.834" x="308" y="444.6689">deliveryDetails() : str</text><ellipse cx="299" cy="457.6191" fill="#84BE84" rx="3" ry="3" style="stroke:#038048;stroke-width:1.0;"/><text fill="#000000" font-family="sans-serif" font-size="14" font-style="italic" lengthAdjust="spacing" textLength="208.4141" x="308" y="460.9657">changeDeliveryStatus() : void</text></g><!--class ExpressDelivery--><g id="elem_ExpressDelivery"><rect codeLine="20" fill="#F1F1F1" height="145.7813" id="ExpressDelivery" rx="2.5" ry="2.5" style="stroke:#181818;stroke-width:0.5;" width="246.0693" x="7" y="132.3"/><ellipse cx="69.2412" cy="148.3" fill="#ADD1B2" rx="11" ry="11" style="stroke:#181818;stroke-width:1.0;"/><path d="M72.21,153.9406 Q71.6318,154.2375 70.9912,154.3781 Q70.3506,154.5344 69.6475,154.5344 Q67.1475,154.5344 65.8193,152.8937 Q64.5068,151.2375 64.5068,148.1125 Q64.5068,144.9875 65.8193,143.3312 Q67.1475,141.675 69.6475,141.675 Q70.3506,141.675 70.9912,141.8312 Q71.6475,141.9875 72.21,142.2844 L72.21,145.0031 Q71.585,144.425 70.9912,144.1594 Q70.3975,143.8781 69.7725,143.8781 Q68.4287,143.8781 67.7412,144.9562 Q67.0537,146.0187 67.0537,148.1125 Q67.0537,150.2062 67.7412,151.2844 Q68.4287,152.3469 69.7725,152.3469 Q70.3975,152.3469 70.9912,152.0812 Q71.585,151.8 72.21,151.2219 L72.21,153.9406 Z " fill="#000000"/><text fill="#000000" font-family="sans-serif" font-size="14" lengthAdjust="spacing" textLength="113.0869" x="89.7412" y="153.1467">ExpressDelivery</text><line style="stroke:#181818;stroke-width:0.5;" x1="8" x2="252.0693" y1="164.3" y2="164.3"/><rect fill="none" height="6" style="stroke:#C82930;stroke-width:1.0;" width="6" x="15" y="174.9484"/><text fill="#000000" font-family="sans-serif" font-size="14" lengthAdjust="spacing" textLength="87.7051" x="27" y="181.2951">location : str</text><rect fill="none" height="6" style="stroke:#C82930;stroke-width:1.0;" width="6" x="15" y="191.2453"/><text fill="#000000" font-family="sans-serif" font-size="14" lengthAdjust="spacing" textLength="132.9863" x="27" y="197.592">deliveryStatus : str</text><line style="stroke:#181818;stroke-width:0.5;" x1="8" x2="252.0693" y1="204.8937" y2="204.8937"/><ellipse cx="18" cy="218.5422" fill="#84BE84" rx="3" ry="3" style="stroke:#038048;stroke-width:1.0;"/><text fill="#000000" font-family="sans-serif" font-size="14" lengthAdjust="spacing" textLength="220.0693" x="27" y="221.8889">estimatedDeliveryDate() : Date</text><ellipse cx="18" cy="234.8391" fill="#84BE84" rx="3" ry="3" style="stroke:#038048;stroke-width:1.0;"/><text fill="#000000" font-family="sans-serif" font-size="14" lengthAdjust="spacing" textLength="137.4912" x="27" y="238.1857">deliveryFee() : float</text><ellipse cx="18" cy="251.1359" fill="#84BE84" rx="3" ry="3" style="stroke:#038048;stroke-width:1.0;"/><text fill="#000000" font-family="sans-serif" font-size="14" lengthAdjust="spacing" textLength="147.834" x="27" y="254.4826">deliveryDetails() : str</text><ellipse cx="18" cy="267.4328" fill="#84BE84" rx="3" ry="3" style="stroke:#038048;stroke-width:1.0;"/><text fill="#000000" font-family="sans-serif" font-size="14" lengthAdjust="spacing" textLength="208.4141" x="27" y="270.7795">changeDeliveryStatus() : void</text></g><!--class StandardDelivery--><g id="elem_StandardDelivery"><rect codeLine="29" fill="#F1F1F1" height="145.7813" id="StandardDelivery" rx="2.5" ry="2.5" style="stroke:#181818;stroke-width:0.5;" width="246.0693" x="288" y="132.3"/><ellipse cx="345.7603" cy="148.3" fill="#ADD1B2" rx="11" ry="11" style="stroke:#181818;stroke-width:1.0;"/><path d="M348.729,153.9406 Q348.1509,154.2375 347.5103,154.3781 Q346.8696,154.5344 346.1665,154.5344 Q343.6665,154.5344 342.3384,152.8937 Q341.0259,151.2375 341.0259,148.1125 Q341.0259,144.9875 342.3384,143.3312 Q343.6665,141.675 346.1665,141.675 Q346.8696,141.675 347.5103,141.8312 Q348.1665,141.9875 348.729,142.2844 L348.729,145.0031 Q348.104,144.425 347.5103,144.1594 Q346.9165,143.8781 346.2915,143.8781 Q344.9478,143.8781 344.2603,144.9562 Q343.5728,146.0187 343.5728,148.1125 Q343.5728,150.2062 344.2603,151.2844 Q344.9478,152.3469 346.2915,152.3469 Q346.9165,152.3469 347.5103,152.0812 Q348.104,151.8 348.729,151.2219 L348.729,153.9406 Z " fill="#000000"/><text fill="#000000" font-family="sans-serif" font-size="14" lengthAdjust="spacing" textLength="122.0488" x="366.2603" y="153.1467">StandardDelivery</text><line style="stroke:#181818;stroke-width:0.5;" x1="289" x2="533.0693" y1="164.3" y2="164.3"/><rect fill="none" height="6" style="stroke:#C82930;stroke-width:1.0;" width="6" x="296" y="174.9484"/><text fill="#000000" font-family="sans-serif" font-size="14" lengthAdjust="spacing" textLength="87.7051" x="308" y="181.2951">location : str</text><rect fill="none" height="6" style="stroke:#C82930;stroke-width:1.0;" width="6" x="296" y="191.2453"/><text fill="#000000" font-family="sans-serif" font-size="14" lengthAdjust="spacing" textLength="132.9863" x="308" y="197.592">deliveryStatus : str</text><line style="stroke:#181818;stroke-width:0.5;" x1="289" x2="533.0693" y1="204.8937" y2="204.8937"/><ellipse cx="299" cy="218.5422" fill="#84BE84" rx="3" ry="3" style="stroke:#038048;stroke-width:1.0;"/><text fill="#000000" font-family="sans-serif" font-size="14" lengthAdjust="spacing" textLength="220.0693" x="308" y="221.8889">estimatedDeliveryDate() : Date</text><ellipse cx="299" cy="234.8391" fill="#84BE84" rx="3" ry="3" style="stroke:#038048;stroke-width:1.0;"/><text fill="#000000" font-family="sans-serif" font-size="14" lengthAdjust="spacing" textLength="137.4912" x="308" y="238.1857">deliveryFee() : float</text><ellipse cx="299" cy="251.1359" fill="#84BE84" rx="3" ry="3" style="stroke:#038048;stroke-width:1.0;"/><text fill="#000000" font-family="sans-serif" font-size="14" lengthAdjust="spacing" textLength="147.834" x="308" y="254.4826">deliveryDetails() : str</text><ellipse cx="299" cy="267.4328" fill="#84BE84" rx="3" ry="3" style="stroke:#038048;stroke-width:1.0;"/><text fill="#000000" font-family="sans-serif" font-size="14" lengthAdjust="spacing" textLength="208.4141" x="308" y="270.7795">changeDeliveryStatus() : void</text></g><!--link Shipment to Delivery--><g id="link_Shipment_Delivery"><path codeLine="38" d="M637.4973,276.449 C591.8473,303.509 554.6814,325.5406 510.6314,351.6506 " fill="none" id="Shipment-Delivery" style="stroke:#181818;stroke-width:1.0;"/><polygon fill="#181818" points="647.82,270.33,640.619,269.9486,637.4973,276.449,644.6983,276.8304,647.82,270.33" style="stroke:#181818;stroke-width:1.0;"/><polygon fill="#181818" points="505.47,354.71,515.2517,353.5619,509.7712,352.1605,511.1726,346.68,505.47,354.71" style="stroke:#181818;stroke-width:1.0;"/><polygon fill="#000000" points="583.7289,319.196,593.0083,317.1119,590.0111,312.0556,583.7289,319.196" style="stroke:#000000;stroke-width:1.0;"/><text fill="#000000" font-family="sans-serif" font-size="13" lengthAdjust="spacing" textLength="93.8755" x="597.03" y="321.1469">produces,uses</text></g><!--link StandardDelivery to Delivery--><g id="link_StandardDelivery_Delivery"><path codeLine="39" d="M411.03,278.57 C411.03,303.62 411.03,313.29 411.03,336.8 " fill="none" id="StandardDelivery-to-Delivery" style="stroke:#181818;stroke-width:1.0;stroke-dasharray:7.0,7.0;"/><polygon fill="none" points="411.03,354.8,417.03,336.8,405.03,336.8,411.03,354.8" style="stroke:#181818;stroke-width:1.0;"/></g><!--link ExpressDelivery to Delivery--><g id="link_ExpressDelivery_Delivery"><path codeLine="40" d="M229.5,278.57 C263.92,303.62 287.3853,320.6994 319.6953,344.2094 " fill="none" id="ExpressDelivery-to-Delivery" style="stroke:#181818;stroke-width:1.0;stroke-dasharray:7.0,7.0;"/><polygon fill="none" points="334.25,354.8,323.2255,339.3579,316.1651,349.061,334.25,354.8" style="stroke:#181818;stroke-width:1.0;"/></g><!--link ExpressShipment to Shipment--><g id="link_ExpressShipment_Shipment"><path codeLine="41" d="M756.03,71.78 C756.03,91.15 756.03,98.63 756.03,122.07 " fill="none" id="ExpressShipment-to-Shipment" style="stroke:#181818;stroke-width:1.0;"/><polygon fill="none" points="756.03,140.07,762.03,122.07,750.03,122.07,756.03,140.07" style="stroke:#181818;stroke-width:1.0;"/></g><!--SRC=[bPCzRyCW48Pt_mh6k2xEdY5JsYbIXunL1mgN6ia62yvfgpJ_lUSF_14vRkh11h_ltV4S87FXFJjakYp0u3bYz71MEYl1-vr0O1jMVph1EWLkhptIxzUNUlBMAGfoVGBtNVkxOQCap7V9Tu12vtuLayMZwrG3dy6_ogqKgAs9HqdOUdqK4YsD2i3CAegxHFIIpSgVlaf7Avq2t9NLqjTf1GDzEewAGnrj41mj0VhWKEGitec35dTXu54Nr2OLF7NF6jA-UHD_wDOpjAvZRWNUjistRcIKcJ0V48eVK63LkazMptTi3CDPw56VVzZGDbal97-p9ZVnaWMYv3yG91ebd9fkoGp70ibTB4iqopnt4eN3nnuutmxdSrFVGLNHBNoiF9tHRNIDpDBqPmY8hhPrNksBSKvgcFq2]--></g></svg>