<?xml version="1.0" encoding="UTF-8" standalone="no"?><svg xmlns="http://www.w3.org/2000/svg" xmlns:xlink="http://www.w3.org/1999/xlink" contentScriptType="application/ecmascript" contentStyleType="text/css" height="416px" preserveAspectRatio="none" style="width:539px;height:416px;" version="1.1" viewBox="0 0 539 416" width="539px" zoomAndPan="magnify"><defs><filter height="300%" id="fkcj7q9hn7fhy" width="300%" x="-1" y="-1"><feGaussianBlur result="blurOut" stdDeviation="2.0"/><feColorMatrix in="blurOut" result="blurOut2" type="matrix" values="0 0 0 0 0 0 0 0 0 0 0 0 0 0 0 0 0 0 .4 0"/><feOffset dx="4.0" dy="4.0" in="blurOut2" result="blurOut3"/><feBlend in="SourceGraphic" in2="blurOut3" mode="normal"/></filter></defs><g><!--class BorrowableItem--><rect fill="#FEFECE" filter="url(#fkcj7q9hn7fhy)" height="75.6719" id="BorrowableItem" style="stroke: #A80036; stroke-width: 1.5;" width="123" x="286" y="301.5"/><ellipse cx="302.35" cy="317.5" fill="#B4A7E5" rx="11" ry="11" style="stroke: #A80036; stroke-width: 1.0;"/><path d="M303.3031,314.1406 L303.3031,320.7969 L305.0219,320.7969 Q305.6313,320.7969 305.8969,321.0313 Q306.1625,321.2656 306.1625,321.6563 Q306.1625,322.0313 305.8969,322.2656 Q305.6313,322.5 305.0219,322.5 L299.8813,322.5 Q299.2719,322.5 299.0063,322.2656 Q298.7406,322.0313 298.7406,321.6406 Q298.7406,321.2656 299.0063,321.0313 Q299.2719,320.7969 299.8813,320.7969 L301.6,320.7969 L301.6,314.1406 L299.8813,314.1406 Q299.2719,314.1406 299.0063,313.9063 Q298.7406,313.6719 298.7406,313.2813 Q298.7406,312.9063 299.0063,312.6719 Q299.2719,312.4375 299.8813,312.4375 L305.0219,312.4375 Q305.6313,312.4375 305.8969,312.6719 Q306.1625,312.9063 306.1625,313.2813 Q306.1625,313.6719 305.8969,313.9063 Q305.6313,314.1406 305.0219,314.1406 L303.3031,314.1406 Z "/><text fill="#000000" font-family="sans-serif" font-size="12" font-style="italic" lengthAdjust="spacingAndGlyphs" textLength="88" x="316.65" y="322.4102">BorrowableItem</text><line style="stroke: #A80036; stroke-width: 1.5;" x1="287" x2="408" y1="333.5" y2="333.5"/><line style="stroke: #A80036; stroke-width: 1.5;" x1="287" x2="408" y1="341.5" y2="341.5"/><text fill="#000000" font-family="sans-serif" font-size="11" lengthAdjust="spacingAndGlyphs" textLength="87" x="292" y="356.9189">uniqueItemId() : int</text><text fill="#000000" font-family="sans-serif" font-size="11" lengthAdjust="spacingAndGlyphs" textLength="111" x="292" y="370.7549">commonName() : string</text><!--class LibraryCard--><rect fill="#FEFECE" filter="url(#fkcj7q9hn7fhy)" height="172.5234" id="LibraryCard" style="stroke: #A80036; stroke-width: 1.5;" width="222" x="306.5" y="24.5"/><ellipse cx="381.25" cy="40.5" fill="#ADD1B2" rx="11" ry="11" style="stroke: #A80036; stroke-width: 1.0;"/><path d="M384.0156,36.375 Q384.1719,36.1563 384.3594,36.0469 Q384.5469,35.9375 384.7656,35.9375 Q385.1406,35.9375 385.375,36.1953 Q385.6094,36.4531 385.6094,37.0625 L385.6094,38.5156 Q385.6094,39.125 385.375,39.3906 Q385.1406,39.6563 384.7656,39.6563 Q384.4219,39.6563 384.2188,39.4531 Q384.0156,39.2656 383.9063,38.75 Q383.8594,38.3906 383.6719,38.2031 Q383.3438,37.8281 382.7344,37.6094 Q382.125,37.3906 381.5,37.3906 Q380.7344,37.3906 380.1016,37.7188 Q379.4688,38.0469 378.9766,38.7969 Q378.4844,39.5469 378.4844,40.5781 L378.4844,41.6719 Q378.4844,42.9063 379.375,43.7266 Q380.2656,44.5469 381.8594,44.5469 Q382.7969,44.5469 383.4531,44.2969 Q383.8438,44.1406 384.2656,43.7031 Q384.5313,43.4375 384.6797,43.3594 Q384.8281,43.2813 385.0313,43.2813 Q385.3594,43.2813 385.6172,43.5391 Q385.875,43.7969 385.875,44.1406 Q385.875,44.4844 385.5313,44.8906 Q385.0313,45.4688 384.2344,45.7969 Q383.1563,46.25 381.8594,46.25 Q380.3438,46.25 379.1406,45.625 Q378.1563,45.125 377.4688,44.0547 Q376.7813,42.9844 376.7813,41.7031 L376.7813,40.5469 Q376.7813,39.2188 377.3984,38.0703 Q378.0156,36.9219 379.1094,36.3047 Q380.2031,35.6875 381.4375,35.6875 Q382.1719,35.6875 382.8203,35.8516 Q383.4688,36.0156 384.0156,36.375 Z "/><text fill="#000000" font-family="sans-serif" font-size="12" lengthAdjust="spacingAndGlyphs" textLength="64" x="401.75" y="45.4102">LibraryCard</text><line style="stroke: #A80036; stroke-width: 1.5;" x1="307.5" x2="527.5" y1="56.5" y2="56.5"/><rect fill="none" height="6" style="stroke: #C82930; stroke-width: 1.0;" width="6" x="314.5" y="65.918"/><text fill="#000000" font-family="sans-serif" font-size="11" lengthAdjust="spacingAndGlyphs" textLength="65" x="326.5" y="71.9189">idNumber : int</text><rect fill="none" height="6" style="stroke: #C82930; stroke-width: 1.0;" width="6" x="314.5" y="79.7539"/><text fill="#000000" font-family="sans-serif" font-size="11" lengthAdjust="spacingAndGlyphs" textLength="62" x="326.5" y="85.7549">name : string</text><rect fill="none" height="6" style="stroke: #C82930; stroke-width: 1.0;" width="6" x="314.5" y="93.5898"/><text fill="#000000" font-family="sans-serif" font-size="11" lengthAdjust="spacingAndGlyphs" textLength="196" x="326.5" y="99.5908">borrowedBooks : {BorrowableItem:Date}</text><line style="stroke: #A80036; stroke-width: 1.5;" x1="307.5" x2="527.5" y1="106.0078" y2="106.0078"/><text fill="#000000" font-family="sans-serif" font-size="11" lengthAdjust="spacingAndGlyphs" textLength="92" x="312.5" y="121.4268">borrowItem() : void</text><text fill="#000000" font-family="sans-serif" font-size="11" lengthAdjust="spacingAndGlyphs" textLength="122" x="312.5" y="135.2627">borrowerReport() : string</text><text fill="#000000" font-family="sans-serif" font-size="11" lengthAdjust="spacingAndGlyphs" textLength="85" x="312.5" y="149.0986">returnItem() : void</text><text fill="#000000" font-family="sans-serif" font-size="11" lengthAdjust="spacingAndGlyphs" textLength="174" x="312.5" y="162.9346">penalty(BorrowableItem,Date) : float</text><text fill="#000000" font-family="sans-serif" font-size="11" lengthAdjust="spacingAndGlyphs" textLength="165" x="312.5" y="176.7705">itemsDue(Date) : [BorrowableItem]</text><text fill="#000000" font-family="sans-serif" font-size="11" lengthAdjust="spacingAndGlyphs" textLength="115" x="312.5" y="190.6064">totalPenalty(Date) : float</text><path d="M6,8 L6,214.2188 A0,0 0 0 0 6,214.2188 L271,214.2188 A0,0 0 0 0 271,214.2188 L271,115 L306.338,111 L271,107 L271,18 L261,8 L6,8 A0,0 0 0 0 6,8 " fill="#FBFB77" filter="url(#fkcj7q9hn7fhy)" style="stroke: #A80036; stroke-width: 1.0;"/><path d="M261,8 L261,18 L271,18 L261,8 " fill="#FBFB77" style="stroke: #A80036; stroke-width: 1.0;"/><text fill="#000000" font-family="sans-serif" font-size="13" lengthAdjust="spacingAndGlyphs" textLength="244" x="12" y="26.4951">penalty(b:BorrowableItem, d:Date) -&gt; float:</text><text fill="#000000" font-family="sans-serif" font-size="13" lengthAdjust="spacingAndGlyphs" textLength="12" x="20" y="42.8467">...</text><text fill="#000000" font-family="sans-serif" font-size="13" lengthAdjust="spacingAndGlyphs" textLength="124" x="20" y="59.1982">day d = (d.getDay() +</text><text fill="#000000" font-family="sans-serif" font-size="13" lengthAdjust="spacingAndGlyphs" textLength="104" x="20" y="75.5498">d.getMonth()*30 +</text><text fill="#000000" font-family="sans-serif" font-size="13" lengthAdjust="spacingAndGlyphs" textLength="98" x="20" y="91.9014">d.getYear()* 360)</text><text fill="#000000" font-family="sans-serif" font-size="13" lengthAdjust="spacingAndGlyphs" textLength="12" x="20" y="108.2529">...</text><text fill="#000000" font-family="sans-serif" font-size="13" lengthAdjust="spacingAndGlyphs" textLength="80" x="20" y="124.6045">if b is a Book:</text><text fill="#000000" font-family="sans-serif" font-size="13" lengthAdjust="spacingAndGlyphs" textLength="147" x="28" y="140.9561">...something book related</text><text fill="#000000" font-family="sans-serif" font-size="13" lengthAdjust="spacingAndGlyphs" textLength="135" x="20" y="157.3076">else if b is a Periodical:</text><text fill="#000000" font-family="sans-serif" font-size="13" lengthAdjust="spacingAndGlyphs" textLength="174" x="28" y="173.6592">...something periodical related</text><text fill="#000000" font-family="sans-serif" font-size="13" lengthAdjust="spacingAndGlyphs" textLength="12" x="20" y="190.0107">...</text><text fill="#000000" font-family="sans-serif" font-size="13" lengthAdjust="spacingAndGlyphs" textLength="0" x="16" y="206.3623"/><!--class Date--><rect fill="#FEFECE" filter="url(#fkcj7q9hn7fhy)" height="131.0156" id="Date" style="stroke: #A80036; stroke-width: 1.5;" width="84" x="444.5" y="274"/><ellipse cx="471.2" cy="290" fill="#ADD1B2" rx="11" ry="11" style="stroke: #A80036; stroke-width: 1.0;"/><path d="M473.9656,285.875 Q474.1219,285.6563 474.3094,285.5469 Q474.4969,285.4375 474.7156,285.4375 Q475.0906,285.4375 475.325,285.6953 Q475.5594,285.9531 475.5594,286.5625 L475.5594,288.0156 Q475.5594,288.625 475.325,288.8906 Q475.0906,289.1563 474.7156,289.1563 Q474.3719,289.1563 474.1688,288.9531 Q473.9656,288.7656 473.8563,288.25 Q473.8094,287.8906 473.6219,287.7031 Q473.2938,287.3281 472.6844,287.1094 Q472.075,286.8906 471.45,286.8906 Q470.6844,286.8906 470.0516,287.2188 Q469.4188,287.5469 468.9266,288.2969 Q468.4344,289.0469 468.4344,290.0781 L468.4344,291.1719 Q468.4344,292.4063 469.325,293.2266 Q470.2156,294.0469 471.8094,294.0469 Q472.7469,294.0469 473.4031,293.7969 Q473.7938,293.6406 474.2156,293.2031 Q474.4813,292.9375 474.6297,292.8594 Q474.7781,292.7813 474.9813,292.7813 Q475.3094,292.7813 475.5672,293.0391 Q475.825,293.2969 475.825,293.6406 Q475.825,293.9844 475.4813,294.3906 Q474.9813,294.9688 474.1844,295.2969 Q473.1063,295.75 471.8094,295.75 Q470.2938,295.75 469.0906,295.125 Q468.1063,294.625 467.4188,293.5547 Q466.7313,292.4844 466.7313,291.2031 L466.7313,290.0469 Q466.7313,288.7188 467.3484,287.5703 Q467.9656,286.4219 469.0594,285.8047 Q470.1531,285.1875 471.3875,285.1875 Q472.1219,285.1875 472.7703,285.3516 Q473.4188,285.5156 473.9656,285.875 Z "/><text fill="#000000" font-family="sans-serif" font-size="12" lengthAdjust="spacingAndGlyphs" textLength="26" x="487.8" y="294.9102">Date</text><line style="stroke: #A80036; stroke-width: 1.5;" x1="445.5" x2="527.5" y1="306" y2="306"/><rect fill="none" height="6" style="stroke: #C82930; stroke-width: 1.0;" width="6" x="452.5" y="315.418"/><text fill="#000000" font-family="sans-serif" font-size="11" lengthAdjust="spacingAndGlyphs" textLength="49" x="464.5" y="321.4189">month : int</text><rect fill="none" height="6" style="stroke: #C82930; stroke-width: 1.0;" width="6" x="452.5" y="329.2539"/><text fill="#000000" font-family="sans-serif" font-size="11" lengthAdjust="spacingAndGlyphs" textLength="38" x="464.5" y="335.2549">day : int</text><rect fill="none" height="6" style="stroke: #C82930; stroke-width: 1.0;" width="6" x="452.5" y="343.0898"/><text fill="#000000" font-family="sans-serif" font-size="11" lengthAdjust="spacingAndGlyphs" textLength="42" x="464.5" y="349.0908">year : int</text><line style="stroke: #A80036; stroke-width: 1.5;" x1="445.5" x2="527.5" y1="355.5078" y2="355.5078"/><text fill="#000000" font-family="sans-serif" font-size="11" lengthAdjust="spacingAndGlyphs" textLength="72" x="450.5" y="370.9268">getMonth() : int</text><text fill="#000000" font-family="sans-serif" font-size="11" lengthAdjust="spacingAndGlyphs" textLength="62" x="450.5" y="384.7627">getDay() : int</text><text fill="#000000" font-family="sans-serif" font-size="11" lengthAdjust="spacingAndGlyphs" textLength="67" x="450.5" y="398.5986">getYear() : int</text><!--link LibraryCard to BorrowableItem--><path d="M387.101,210.363 C378.729,237.451 370,265.696 362.875,288.752 " fill="none" id="LibraryCard-BorrowableItem" style="stroke: #A80036; stroke-width: 1.0;"/><polygon fill="#A80036" points="358.987,301.332,365.4659,293.9142,360.4633,296.5549,357.8226,291.5522,358.987,301.332" style="stroke: #A80036; stroke-width: 1.0;"/><line style="stroke: #A80036; stroke-width: 1.0;" x1="360.4633" x2="362.8255" y1="296.5549" y2="288.9115"/><polygon fill="#FFFFFF" points="391.036,197.63,385.4428,202.1815,387.493,209.095,393.0862,204.5435,391.036,197.63" style="stroke: #A80036; stroke-width: 1.0;"/><!--link LibraryCard to Date--><path d="M447.421,210.219 C452.605,227.237 457.93,244.717 462.916,261.083 " fill="none" id="LibraryCard-Date" style="stroke: #A80036; stroke-width: 1.0;"/><polygon fill="#A80036" points="466.833,273.94,468.0365,264.165,465.3759,269.157,460.3838,266.4964,466.833,273.94" style="stroke: #A80036; stroke-width: 1.0;"/><line style="stroke: #A80036; stroke-width: 1.0;" x1="465.3759" x2="463.0445" y1="269.157" y2="261.504"/><polygon fill="#FFFFFF" points="443.586,197.63,441.5082,204.5353,447.0831,209.1091,449.1609,202.2038,443.586,197.63" style="stroke: #A80036; stroke-width: 1.0;"/><!--
@startuml
interface BorrowableItem{
  uniqueItemId() : int
  commonName() : string
}

note left of LibraryCard
  penalty(b:BorrowableItem, d:Date) -> float:
    ...
    day d = (d.getDay() +
    d.getMonth()*30 +
    d.getYear()* 360)
    ...
    if b is a Book:
      ...something book related
    else if b is a Periodical:
      ...something periodical related
    ...

end note

class LibraryCard{
  -idNumber : int
  -name : string
  -borrowedBooks : {BorrowableItem:Date}
  borrowItem() : void
  borrowerReport() : string
  returnItem() : void
  penalty(BorrowableItem,Date) : float
  itemsDue(Date) : [BorrowableItem]
  totalPenalty(Date) : float
}

class Date{
  -month : int
  -day : int
  -year : int
  getMonth() : int
  getDay() : int
  getYear() : int
}

LibraryCard o- -> BorrowableItem
LibraryCard o- -> Date
@enduml

PlantUML version 1.2018.01(Mon Jan 29 02:08:22 CST 2018)
(GPL source distribution)
Java Runtime: Java(TM) SE Runtime Environment
JVM: Java HotSpot(TM) 64-Bit Server VM
Java Version: 1.8.0_221-b11
Operating System: Windows 10
OS Version: 10.0
Default Encoding: Cp1252
Language: en
Country: PH
--></g></svg>