<?xml version="1.0" encoding="windows-1252" standalone="no"?>
<svg xmlns="http://www.w3.org/2000/svg" xmlns:xlink="http://www.w3.org/1999/xlink" contentStyleType="text/css" height="424px" preserveAspectRatio="none" style="width:1131px;height:424px;background:#FFFFFF;" version="1.1" viewBox="0 0 1131 424" width="1131px" zoomAndPan="magnify"><defs/><g><!--class Subscriber--><g id="elem_Subscriber"><rect codeLine="2" fill="#F1F1F1" height="64.2969" id="Subscriber" rx="2.5" ry="2.5" style="stroke:#181818;stroke-width:0.5;" width="416" x="482" y="220"/><ellipse cx="647.75" cy="236" fill="#B4A7E5" rx="11" ry="11" style="stroke:#181818;stroke-width:1.0;"/><path d="M648.7031,232.7813 L650.4219,232.7813 C650.8125,232.7813 651,232.75 651.125,232.6719 C651.3906,232.5156 651.5313,232.2344 651.5313,231.9375 C651.5313,231.6719 651.4219,231.4063 651.1875,231.2344 C651.0156,231.125 650.875,231.0938 650.4219,231.0938 L645.2813,231.0938 C644.8438,231.0938 644.7188,231.1094 644.5625,231.2031 C644.3125,231.3594 644.1563,231.6563 644.1563,231.9375 C644.1563,232.2188 644.2969,232.4688 644.5156,232.6406 C644.6719,232.75 644.8594,232.7813 645.2813,232.7813 L647,232.7813 L647,239.2969 L645.2813,239.2969 C644.8438,239.2969 644.7188,239.3125 644.5625,239.4219 C644.3125,239.5781 644.1563,239.8594 644.1563,240.1563 C644.1563,240.4063 644.2969,240.6719 644.5156,240.8281 C644.6719,240.9531 644.875,241 645.2813,241 L650.4219,241 C651.1719,241 651.5313,240.7188 651.5313,240.1563 C651.5313,239.875 651.4219,239.625 651.1875,239.4531 C651.0156,239.3281 650.875,239.2969 650.4219,239.2969 L648.7031,239.2969 L648.7031,232.7813 Z " fill="#000000"/><text fill="#000000" font-family="sans-serif" font-size="14" font-style="italic" lengthAdjust="spacing" textLength="76" x="668.25" y="240.8467">Subscriber</text><line style="stroke:#181818;stroke-width:0.5;" x1="483" x2="897" y1="252" y2="252"/><line style="stroke:#181818;stroke-width:0.5;" x1="483" x2="897" y1="260" y2="260"/><ellipse cx="493" cy="273.6484" fill="#84BE84" rx="3" ry="3" style="stroke:#038048;stroke-width:1.0;"/><text fill="#000000" font-family="sans-serif" font-size="14" font-style="italic" lengthAdjust="spacing" textLength="390" x="502" y="276.9951">update(newHeadline:Headline, newWeather: Weather)</text></g><!--class PushNotifier--><g id="elem_PushNotifier"><rect codeLine="6" fill="#F1F1F1" height="178.375" id="PushNotifier" rx="2.5" ry="2.5" style="stroke:#181818;stroke-width:0.5;" width="307" x="61" y="7"/><ellipse cx="166.25" cy="23" fill="#ADD1B2" rx="11" ry="11" style="stroke:#181818;stroke-width:1.0;"/><path d="M168.5938,18.6719 C167.6563,18.2344 167.0625,18.0938 166.1875,18.0938 C163.5625,18.0938 161.5625,20.1719 161.5625,22.8906 L161.5625,24.0156 C161.5625,26.5938 163.6719,28.4844 166.5625,28.4844 C167.7813,28.4844 168.9375,28.1875 169.6875,27.6406 C170.2656,27.2344 170.5938,26.7813 170.5938,26.3906 C170.5938,25.9375 170.2031,25.5469 169.7344,25.5469 C169.5156,25.5469 169.3125,25.625 169.125,25.8125 C168.6719,26.2969 168.6719,26.2969 168.4844,26.3906 C168.0625,26.6563 167.375,26.7813 166.6094,26.7813 C164.5625,26.7813 163.2656,25.6875 163.2656,23.9844 L163.2656,22.8906 C163.2656,21.1094 164.5156,19.7969 166.25,19.7969 C166.8281,19.7969 167.4375,19.9531 167.9063,20.2031 C168.3906,20.4844 168.5625,20.7031 168.6563,21.1094 C168.7188,21.5156 168.75,21.6406 168.8906,21.7656 C169.0313,21.9063 169.2656,22.0156 169.4844,22.0156 C169.75,22.0156 170.0156,21.875 170.1875,21.6563 C170.2969,21.5 170.3281,21.3125 170.3281,20.8906 L170.3281,19.4688 C170.3281,19.0313 170.3125,18.9063 170.2188,18.75 C170.0625,18.4844 169.7813,18.3438 169.4844,18.3438 C169.1875,18.3438 168.9844,18.4375 168.7656,18.75 L168.5938,18.6719 Z " fill="#000000"/><text fill="#000000" font-family="sans-serif" font-size="14" lengthAdjust="spacing" textLength="88" x="186.75" y="27.8467">PushNotifier</text><line style="stroke:#181818;stroke-width:0.5;" x1="62" x2="367" y1="39" y2="39"/><rect fill="none" height="6" style="stroke:#C82930;stroke-width:1.0;" width="6" x="69" y="49.6484"/><text fill="#000000" font-family="sans-serif" font-size="14" lengthAdjust="spacing" textLength="190" x="81" y="55.9951">currentWeather : Weather</text><rect fill="none" height="6" style="stroke:#C82930;stroke-width:1.0;" width="6" x="69" y="65.9453"/><text fill="#000000" font-family="sans-serif" font-size="14" lengthAdjust="spacing" textLength="190" x="81" y="72.292">currentHeadline : Headline</text><rect fill="none" height="6" style="stroke:#C82930;stroke-width:1.0;" width="6" x="69" y="82.2422"/><text fill="#000000" font-family="sans-serif" font-size="14" lengthAdjust="spacing" textLength="182" x="81" y="88.5889">subscribers : [Subscriber]</text><line style="stroke:#181818;stroke-width:0.5;" x1="62" x2="367" y1="95.8906" y2="95.8906"/><ellipse cx="72" cy="109.5391" fill="#84BE84" rx="3" ry="3" style="stroke:#038048;stroke-width:1.0;"/><text fill="#000000" font-family="sans-serif" font-size="14" lengthAdjust="spacing" textLength="281" x="81" y="112.8857">updateHeadline(newHeadline:Headline)</text><ellipse cx="72" cy="125.8359" fill="#84BE84" rx="3" ry="3" style="stroke:#038048;stroke-width:1.0;"/><text fill="#000000" font-family="sans-serif" font-size="14" lengthAdjust="spacing" textLength="281" x="81" y="129.1826">updateWeather(newWeather:Weather)</text><ellipse cx="72" cy="142.1328" fill="#84BE84" rx="3" ry="3" style="stroke:#038048;stroke-width:1.0;"/><text fill="#000000" font-family="sans-serif" font-size="14" lengthAdjust="spacing" textLength="267" x="81" y="145.4795">subscribe(newSubscriber:Subscriber)</text><ellipse cx="72" cy="158.4297" fill="#84BE84" rx="3" ry="3" style="stroke:#038048;stroke-width:1.0;"/><text fill="#000000" font-family="sans-serif" font-size="14" lengthAdjust="spacing" textLength="272" x="81" y="161.7764">unsubscribe(exSubscriber:Subscriber)</text><ellipse cx="72" cy="174.7266" fill="#84BE84" rx="3" ry="3" style="stroke:#038048;stroke-width:1.0;"/><text fill="#000000" font-family="sans-serif" font-size="14" lengthAdjust="spacing" textLength="137" x="81" y="178.0732">notifySubscribers()</text></g><!--class Weather--><g id="elem_Weather"><rect codeLine="17" fill="#F1F1F1" height="96.8906" id="Weather" rx="2.5" ry="2.5" style="stroke:#181818;stroke-width:0.5;" width="166" x="958" y="191.5"/><ellipse cx="1005.75" cy="207.5" fill="#ADD1B2" rx="11" ry="11" style="stroke:#181818;stroke-width:1.0;"/><path d="M1008.0938,203.1719 C1007.1563,202.7344 1006.5625,202.5938 1005.6875,202.5938 C1003.0625,202.5938 1001.0625,204.6719 1001.0625,207.3906 L1001.0625,208.5156 C1001.0625,211.0938 1003.1719,212.9844 1006.0625,212.9844 C1007.2813,212.9844 1008.4375,212.6875 1009.1875,212.1406 C1009.7656,211.7344 1010.0938,211.2813 1010.0938,210.8906 C1010.0938,210.4375 1009.7031,210.0469 1009.2344,210.0469 C1009.0156,210.0469 1008.8125,210.125 1008.625,210.3125 C1008.1719,210.7969 1008.1719,210.7969 1007.9844,210.8906 C1007.5625,211.1563 1006.875,211.2813 1006.1094,211.2813 C1004.0625,211.2813 1002.7656,210.1875 1002.7656,208.4844 L1002.7656,207.3906 C1002.7656,205.6094 1004.0156,204.2969 1005.75,204.2969 C1006.3281,204.2969 1006.9375,204.4531 1007.4063,204.7031 C1007.8906,204.9844 1008.0625,205.2031 1008.1563,205.6094 C1008.2188,206.0156 1008.25,206.1406 1008.3906,206.2656 C1008.5313,206.4063 1008.7656,206.5156 1008.9844,206.5156 C1009.25,206.5156 1009.5156,206.375 1009.6875,206.1563 C1009.7969,206 1009.8281,205.8125 1009.8281,205.3906 L1009.8281,203.9688 C1009.8281,203.5313 1009.8125,203.4063 1009.7188,203.25 C1009.5625,202.9844 1009.2813,202.8438 1008.9844,202.8438 C1008.6875,202.8438 1008.4844,202.9375 1008.2656,203.25 L1008.0938,203.1719 Z " fill="#000000"/><text fill="#000000" font-family="sans-serif" font-size="14" lengthAdjust="spacing" textLength="62" x="1026.25" y="212.3467">Weather</text><line style="stroke:#181818;stroke-width:0.5;" x1="959" x2="1123" y1="223.5" y2="223.5"/><rect fill="none" height="6" style="stroke:#C82930;stroke-width:1.0;" width="6" x="966" y="234.1484"/><text fill="#000000" font-family="sans-serif" font-size="14" lengthAdjust="spacing" textLength="140" x="978" y="240.4951">temperature : float</text><rect fill="none" height="6" style="stroke:#C82930;stroke-width:1.0;" width="6" x="966" y="250.4453"/><text fill="#000000" font-family="sans-serif" font-size="14" lengthAdjust="spacing" textLength="110" x="978" y="256.792">humidity : float</text><rect fill="none" height="6" style="stroke:#C82930;stroke-width:1.0;" width="6" x="966" y="266.7422"/><text fill="#000000" font-family="sans-serif" font-size="14" lengthAdjust="spacing" textLength="102" x="978" y="273.0889">outlook : float</text><line style="stroke:#181818;stroke-width:0.5;" x1="959" x2="1123" y1="280.3906" y2="280.3906"/></g><!--class Headline--><g id="elem_Headline"><rect codeLine="23" fill="#F1F1F1" height="96.8906" id="Headline" rx="2.5" ry="2.5" style="stroke:#181818;stroke-width:0.5;" width="120" x="981" y="53.5"/><ellipse cx="1007.7" cy="69.5" fill="#ADD1B2" rx="11" ry="11" style="stroke:#181818;stroke-width:1.0;"/><path d="M1010.0438,65.1719 C1009.1063,64.7344 1008.5125,64.5938 1007.6375,64.5938 C1005.0125,64.5938 1003.0125,66.6719 1003.0125,69.3906 L1003.0125,70.5156 C1003.0125,73.0938 1005.1219,74.9844 1008.0125,74.9844 C1009.2313,74.9844 1010.3875,74.6875 1011.1375,74.1406 C1011.7156,73.7344 1012.0438,73.2813 1012.0438,72.8906 C1012.0438,72.4375 1011.6531,72.0469 1011.1844,72.0469 C1010.9656,72.0469 1010.7625,72.125 1010.575,72.3125 C1010.1219,72.7969 1010.1219,72.7969 1009.9344,72.8906 C1009.5125,73.1563 1008.825,73.2813 1008.0594,73.2813 C1006.0125,73.2813 1004.7156,72.1875 1004.7156,70.4844 L1004.7156,69.3906 C1004.7156,67.6094 1005.9656,66.2969 1007.7,66.2969 C1008.2781,66.2969 1008.8875,66.4531 1009.3563,66.7031 C1009.8406,66.9844 1010.0125,67.2031 1010.1063,67.6094 C1010.1688,68.0156 1010.2,68.1406 1010.3406,68.2656 C1010.4813,68.4063 1010.7156,68.5156 1010.9344,68.5156 C1011.2,68.5156 1011.4656,68.375 1011.6375,68.1563 C1011.7469,68 1011.7781,67.8125 1011.7781,67.3906 L1011.7781,65.9688 C1011.7781,65.5313 1011.7625,65.4063 1011.6688,65.25 C1011.5125,64.9844 1011.2313,64.8438 1010.9344,64.8438 C1010.6375,64.8438 1010.4344,64.9375 1010.2156,65.25 L1010.0438,65.1719 Z " fill="#000000"/><text fill="#000000" font-family="sans-serif" font-size="14" lengthAdjust="spacing" textLength="62" x="1024.3" y="74.3467">Headline</text><line style="stroke:#181818;stroke-width:0.5;" x1="982" x2="1100" y1="85.5" y2="85.5"/><rect fill="none" height="6" style="stroke:#C82930;stroke-width:1.0;" width="6" x="989" y="96.1484"/><text fill="#000000" font-family="sans-serif" font-size="14" lengthAdjust="spacing" textLength="94" x="1001" y="102.4951">headline : str</text><rect fill="none" height="6" style="stroke:#C82930;stroke-width:1.0;" width="6" x="989" y="112.4453"/><text fill="#000000" font-family="sans-serif" font-size="14" lengthAdjust="spacing" textLength="81" x="1001" y="118.792">details : str</text><rect fill="none" height="6" style="stroke:#C82930;stroke-width:1.0;" width="6" x="989" y="128.7422"/><text fill="#000000" font-family="sans-serif" font-size="14" lengthAdjust="spacing" textLength="80" x="1001" y="135.0889">source : str</text><line style="stroke:#181818;stroke-width:0.5;" x1="982" x2="1100" y1="142.3906" y2="142.3906"/></g><!--class EmailSubscriber--><g id="elem_EmailSubscriber"><rect codeLine="29" fill="#F1F1F1" height="80.5938" id="EmailSubscriber" rx="2.5" ry="2.5" style="stroke:#181818;stroke-width:0.5;" width="415" x="7" y="220.5"/><ellipse cx="152.25" cy="236.5" fill="#ADD1B2" rx="11" ry="11" style="stroke:#181818;stroke-width:1.0;"/><path d="M154.5938,232.1719 C153.6563,231.7344 153.0625,231.5938 152.1875,231.5938 C149.5625,231.5938 147.5625,233.6719 147.5625,236.3906 L147.5625,237.5156 C147.5625,240.0938 149.6719,241.9844 152.5625,241.9844 C153.7813,241.9844 154.9375,241.6875 155.6875,241.1406 C156.2656,240.7344 156.5938,240.2813 156.5938,239.8906 C156.5938,239.4375 156.2031,239.0469 155.7344,239.0469 C155.5156,239.0469 155.3125,239.125 155.125,239.3125 C154.6719,239.7969 154.6719,239.7969 154.4844,239.8906 C154.0625,240.1563 153.375,240.2813 152.6094,240.2813 C150.5625,240.2813 149.2656,239.1875 149.2656,237.4844 L149.2656,236.3906 C149.2656,234.6094 150.5156,233.2969 152.25,233.2969 C152.8281,233.2969 153.4375,233.4531 153.9063,233.7031 C154.3906,233.9844 154.5625,234.2031 154.6563,234.6094 C154.7188,235.0156 154.75,235.1406 154.8906,235.2656 C155.0313,235.4063 155.2656,235.5156 155.4844,235.5156 C155.75,235.5156 156.0156,235.375 156.1875,235.1563 C156.2969,235 156.3281,234.8125 156.3281,234.3906 L156.3281,232.9688 C156.3281,232.5313 156.3125,232.4063 156.2188,232.25 C156.0625,231.9844 155.7813,231.8438 155.4844,231.8438 C155.1875,231.8438 154.9844,231.9375 154.7656,232.25 L154.5938,232.1719 Z " fill="#000000"/><text fill="#000000" font-family="sans-serif" font-size="14" lengthAdjust="spacing" textLength="116" x="172.75" y="241.3467">EmailSubscriber</text><line style="stroke:#181818;stroke-width:0.5;" x1="8" x2="421" y1="252.5" y2="252.5"/><rect fill="none" height="6" style="stroke:#C82930;stroke-width:1.0;" width="6" x="15" y="263.1484"/><text fill="#000000" font-family="sans-serif" font-size="14" lengthAdjust="spacing" textLength="129" x="27" y="269.4951">emailAddress : str</text><line style="stroke:#181818;stroke-width:0.5;" x1="8" x2="421" y1="276.7969" y2="276.7969"/><ellipse cx="18" cy="290.4453" fill="#84BE84" rx="3" ry="3" style="stroke:#038048;stroke-width:1.0;"/><text fill="#000000" font-family="sans-serif" font-size="14" lengthAdjust="spacing" textLength="389" x="27" y="293.792">update(newHeadline:Headline, newWeather: Weather)</text></g><!--class FileLogger--><g id="elem_FileLogger"><rect codeLine="34" fill="#F1F1F1" height="80.5938" id="FileLogger" rx="2.5" ry="2.5" style="stroke:#181818;stroke-width:0.5;" width="415" x="7" y="336.5"/><ellipse cx="172.75" cy="352.5" fill="#ADD1B2" rx="11" ry="11" style="stroke:#181818;stroke-width:1.0;"/><path d="M175.0938,348.1719 C174.1563,347.7344 173.5625,347.5938 172.6875,347.5938 C170.0625,347.5938 168.0625,349.6719 168.0625,352.3906 L168.0625,353.5156 C168.0625,356.0938 170.1719,357.9844 173.0625,357.9844 C174.2813,357.9844 175.4375,357.6875 176.1875,357.1406 C176.7656,356.7344 177.0938,356.2813 177.0938,355.8906 C177.0938,355.4375 176.7031,355.0469 176.2344,355.0469 C176.0156,355.0469 175.8125,355.125 175.625,355.3125 C175.1719,355.7969 175.1719,355.7969 174.9844,355.8906 C174.5625,356.1563 173.875,356.2813 173.1094,356.2813 C171.0625,356.2813 169.7656,355.1875 169.7656,353.4844 L169.7656,352.3906 C169.7656,350.6094 171.0156,349.2969 172.75,349.2969 C173.3281,349.2969 173.9375,349.4531 174.4063,349.7031 C174.8906,349.9844 175.0625,350.2031 175.1563,350.6094 C175.2188,351.0156 175.25,351.1406 175.3906,351.2656 C175.5313,351.4063 175.7656,351.5156 175.9844,351.5156 C176.25,351.5156 176.5156,351.375 176.6875,351.1563 C176.7969,351 176.8281,350.8125 176.8281,350.3906 L176.8281,348.9688 C176.8281,348.5313 176.8125,348.4063 176.7188,348.25 C176.5625,347.9844 176.2813,347.8438 175.9844,347.8438 C175.6875,347.8438 175.4844,347.9375 175.2656,348.25 L175.0938,348.1719 Z " fill="#000000"/><text fill="#000000" font-family="sans-serif" font-size="14" lengthAdjust="spacing" textLength="75" x="193.25" y="357.3467">FileLogger</text><line style="stroke:#181818;stroke-width:0.5;" x1="8" x2="421" y1="368.5" y2="368.5"/><rect fill="none" height="6" style="stroke:#C82930;stroke-width:1.0;" width="6" x="15" y="379.1484"/><text fill="#000000" font-family="sans-serif" font-size="14" lengthAdjust="spacing" textLength="96" x="27" y="385.4951">filename : str</text><line style="stroke:#181818;stroke-width:0.5;" x1="8" x2="421" y1="392.7969" y2="392.7969"/><ellipse cx="18" cy="406.4453" fill="#84BE84" rx="3" ry="3" style="stroke:#038048;stroke-width:1.0;"/><text fill="#000000" font-family="sans-serif" font-size="14" lengthAdjust="spacing" textLength="389" x="27" y="409.792">update(newHeadline:Headline, newWeather: Weather)</text></g><!--link EmailSubscriber to Subscriber--><g id="link_EmailSubscriber_Subscriber"><path codeLine="39" d="M422.151,257.072 C441.949,256.696 444.0362,256.6557 463.8392,256.2797 " fill="none" id="EmailSubscriber-to-Subscriber" style="stroke:#181818;stroke-width:1.0;stroke-dasharray:7.0,7.0;"/><polygon fill="none" points="481.836,255.938,463.7253,250.2808,463.9531,262.2786,481.836,255.938" style="stroke:#181818;stroke-width:1.0;"/></g><!--link FileLogger to Subscriber--><g id="link_FileLogger_Subscriber"><path codeLine="40" d="M369.232,336.4161 C433.501,319.4497 489.7112,304.6105 550.0952,288.6695 " fill="none" id="FileLogger-to-Subscriber" style="stroke:#181818;stroke-width:1.0;stroke-dasharray:7.0,7.0;"/><polygon fill="none" points="567.499,284.075,548.5637,282.8682,551.6267,294.4707,567.499,284.075" style="stroke:#181818;stroke-width:1.0;"/></g><!--link PushNotifier to Subscriber--><g id="link_PushNotifier_Subscriber"><path codeLine="41" d="M379.3924,157.7506 C416.4864,171.1786 444.88,180.972 482,193 C510.706,202.302 536.1299,209.9539 565.3839,218.3329 " fill="none" id="PushNotifier-Subscriber" style="stroke:#181818;stroke-width:1.0;"/><polygon fill="none" points="368.109,153.666,372.3892,159.4694,379.3924,157.7506,375.1123,151.9472,368.109,153.666" style="stroke:#181818;stroke-width:1.0;"/><polygon fill="#181818" points="571.152,219.985,563.6013,213.6615,566.3453,218.6082,561.3985,221.3522,571.152,219.985" style="stroke:#181818;stroke-width:1.0;"/></g><!--link PushNotifier to Weather--><g id="link_PushNotifier_Weather"><path codeLine="42" d="M380.0476,116.5032 C518.9276,134.8572 717.31,163.907 898,202 C917.478,206.106 932.4681,209.7053 951.9631,214.8563 " fill="none" id="PushNotifier-Weather" style="stroke:#181818;stroke-width:1.0;"/><polygon fill="none" points="368.151,114.931,373.5752,119.6826,380.0476,116.5032,374.6234,111.7516,368.151,114.931" style="stroke:#181818;stroke-width:1.0;"/><polygon fill="#181818" points="957.764,216.389,950.0844,210.2226,952.9299,215.1117,948.0408,217.9572,957.764,216.389" style="stroke:#181818;stroke-width:1.0;"/></g><!--link PushNotifier to Headline--><g id="link_PushNotifier_Headline"><path codeLine="43" d="M380.1677,97.1983 C564.5067,98.5393 847.5902,100.5993 974.5562,101.5233 " fill="none" id="PushNotifier-Headline" style="stroke:#181818;stroke-width:1.0;"/><polygon fill="none" points="368.168,97.111,374.1387,101.1545,380.1677,97.1983,374.1969,93.1548,368.168,97.111" style="stroke:#181818;stroke-width:1.0;"/><polygon fill="#181818" points="980.556,101.567,971.5853,97.5016,975.5561,101.5306,971.5271,105.5014,980.556,101.567" style="stroke:#181818;stroke-width:1.0;"/></g><!--link Subscriber to Weather--><g id="link_Subscriber_Weather"><path codeLine="44" d="M898.048,244.881 C919.038,244.159 933.3795,243.6661 951.7925,243.0331 " fill="none" id="Subscriber-to-Weather" style="stroke:#181818;stroke-width:1.0;stroke-dasharray:7.0,7.0;"/><polygon fill="#181818" points="957.789,242.827,948.6569,239.1386,952.792,242.9988,948.9317,247.1339,957.789,242.827" style="stroke:#181818;stroke-width:1.0;"/></g><!--link Subscriber to Headline--><g id="link_Subscriber_Headline"><path codeLine="45" d="M765.869,219.821 C830.162,192.188 916.0776,155.2612 975.3446,129.7892 " fill="none" id="Subscriber-to-Headline" style="stroke:#181818;stroke-width:1.0;stroke-dasharray:7.0,7.0;"/><polygon fill="#181818" points="980.857,127.42,971.0089,127.2988,976.2633,129.3943,974.1678,134.6487,980.857,127.42" style="stroke:#181818;stroke-width:1.0;"/></g><!--SRC=[hLEnJiCm49tRhxYnLKa_e0CI0uW18IG61iJWs9V4mh4h-ooeIlyTHzYn4oeOO8akxzwzUpwV5JO4PC3AjYCGqY8dQVGIG6f2sp2EyEXhnwsiqHu33h218wiTMSRf17ul6E5AuzijCg6anbqABY2WJyYeGxk36Ao3n6aPFbmnv-31k-xUa6naKg-0UsjHKoo0iNIQJbr2FeMHu4Q_BYIVi_sNQF_BSwewwtqzeKO3g-8ynN46tjXpuEIEknoEYZfpyVr7gXu6SyYuMysc5qsamH7sUxICl1scqYZ3A6OwtqiXwJ23ZITbp6k15k9f54czomCFbnz1WSIaSXFC6MzvfXMIrtqWb-kq27GSm2iXBBfIP_FNrRgH2kzCswO-JVZNhCV_wJ4x2cot7vV5ImcCtFzCijnxC5NrQpg_WU-vSVyN4qEvQ8wdWay0]--></g></svg>