<?xml version="1.0" encoding="UTF-8" standalone="no"?><svg xmlns="http://www.w3.org/2000/svg" xmlns:xlink="http://www.w3.org/1999/xlink" contentScriptType="application/ecmascript" contentStyleType="text/css" height="321px" preserveAspectRatio="none" style="width:427px;height:321px;" version="1.1" viewBox="0 0 427 321"
    width="427px" zoomAndPan="magnify"><defs><filter height="300%" id="fa5f29lbnj90s" width="300%" x="-1" y="-1"><feGaussianBlur result="blurOut" stdDeviation="2.0"/><feColorMatrix in="blurOut" result="blurOut2" type="matrix" values="0 0 0 0 0 0 0 0 0 0 0 0 0 0 0 0 0 0 .4 0"/><feOffset dx="4.0" dy="4.0" in="blurOut2" result="blurOut3"/><feBlend in="SourceGraphic" in2="blurOut3" mode="normal"/></filter></defs><g><!--class Book--><rect fill="#FEFECE" filter="url(#fa5f29lbnj90s)" height="151.6406" id="Book" style="stroke: #A80036; stroke-width: 1.5;" width="138" x="6" y="8"/><ellipse cx="56.75" cy="24" fill="#ADD1B2" rx="11" ry="11" style="stroke: #A80036; stroke-width: 1.0;"/><path d="M59.2231,30.1431 Q58.6421,30.4419 58.0029,30.5913 Q57.3638,30.7407 56.6582,30.7407 Q54.1514,30.7407 52.8315,29.0889 Q51.5117,27.437 51.5117,24.3159 Q51.5117,21.1865 52.8315,19.5347 Q54.1514,17.8828 56.6582,17.8828 Q57.3638,17.8828 58.0112,18.0322 Q58.6587,18.1816 59.2231,18.4805 L59.2231,21.2031 Q58.5923,20.6221 57.9988,20.3523 Q57.4053,20.0825 56.7744,20.0825 Q55.4297,20.0825 54.7449,21.1492 Q54.0601,22.2158 54.0601,24.3159 Q54.0601,26.4077 54.7449,27.4744 Q55.4297,28.541 56.7744,28.541 Q57.4053,28.541 57.9988,28.2712 Q58.5923,28.0015 59.2231,27.4204 Z "/><text fill="#000000" font-family="sans-serif" font-size="12" lengthAdjust="spacingAndGlyphs" textLength="28" x="77.25" y="28.5352">Book</text><line style="stroke: #A80036; stroke-width: 1.5;" x1="7" x2="143" y1="40" y2="40"/><rect fill="none" height="6" style="stroke: #C82930; stroke-width: 1.0;" width="6" x="14" y="48.9775"/><text fill="#000000" font-family="sans-serif" font-size="11" lengthAdjust="spacingAndGlyphs" textLength="60" x="26" y="54.6348">bookId : int</text><rect fill="none" height="6" style="stroke: #C82930; stroke-width: 1.0;" width="6" x="14" y="61.9326"/><text fill="#000000" font-family="sans-serif" font-size="11" lengthAdjust="spacingAndGlyphs" textLength="61" x="26" y="67.5898">title : string</text><rect fill="none" height="6" style="stroke: #C82930; stroke-width: 1.0;" width="6" x="14" y="74.8877"/><text fill="#000000" font-family="sans-serif" font-size="11" lengthAdjust="spacingAndGlyphs" textLength="77" x="26" y="80.5449">author : string</text><rect fill="none" height="6" style="stroke: #C82930; stroke-width: 1.0;" width="6" x="14" y="87.8428"/><text fill="#000000" font-family="sans-serif" font-size="11" lengthAdjust="spacingAndGlyphs" textLength="97" x="26" y="93.5">publishDate : Date</text><rect fill="none" height="6" style="stroke: #C82930; stroke-width: 1.0;" width="6" x="14" y="100.7979"/><text fill="#000000" font-family="sans-serif" font-size="11" lengthAdjust="spacingAndGlyphs" textLength="74" x="26" y="106.4551">pages : [Page]</text><line style="stroke: #A80036; stroke-width: 1.5;" x1="7" x2="143" y1="112.7754" y2="112.7754"/><text fill="#000000" font-family="sans-serif" font-size="11" lengthAdjust="spacingAndGlyphs" textLength="100" x="12" y="127.4102">coverInfo() : string</text><text fill="#000000" font-family="sans-serif" font-size="11" lengthAdjust="spacingAndGlyphs" textLength="101" x="12" y="140.3652">uniqueItemId() : int</text><text fill="#000000" font-family="sans-serif" font-size="11" lengthAdjust="spacingAndGlyphs" textLength="126" x="12" y="153.3203">commonName() : string</text><!--class BorrowableItem--><rect fill="#FEFECE" filter="url(#fa5f29lbnj90s)" height="73.9102" id="BorrowableItem" style="stroke: #A80036; stroke-width: 1.5;" width="138" x="117" y="237"/><ellipse cx="139.2" cy="253" fill="#B4A7E5" rx="11" ry="11" style="stroke: #A80036; stroke-width: 1.0;"/><path d="M135.6277,249.2651 L135.6277,247.1069 L143.0071,247.1069 L143.0071,249.2651 L140.5418,249.2651 L140.5418,257.3418 L143.0071,257.3418 L143.0071,259.5 L135.6277,259.5 L135.6277,257.3418 L138.0931,257.3418 L138.0931,249.2651 Z "/><text fill="#000000" font-family="sans-serif" font-size="12" font-style="italic" lengthAdjust="spacingAndGlyphs" textLength="90" x="154.8" y="257.5352">BorrowableItem</text><line style="stroke: #A80036; stroke-width: 1.5;" x1="118" x2="254" y1="269" y2="269"/><line style="stroke: #A80036; stroke-width: 1.5;" x1="118" x2="254" y1="277" y2="277"/><text fill="#000000" font-family="sans-serif" font-size="11" lengthAdjust="spacingAndGlyphs" textLength="101" x="123" y="291.6348">uniqueItemId() : int</text><text fill="#000000" font-family="sans-serif" font-size="11" lengthAdjust="spacingAndGlyphs" textLength="126" x="123" y="304.5898">commonName() : string</text><!--class LibraryCard--><rect fill="#FEFECE" filter="url(#fa5f29lbnj90s)" height="112.7754" id="LibraryCard" style="stroke: #A80036; stroke-width: 1.5;" width="237" x="179.5" y="27.5"/><ellipse cx="259.75" cy="43.5" fill="#ADD1B2" rx="11" ry="11" style="stroke: #A80036; stroke-width: 1.0;"/><path d="M262.2231,49.6431 Q261.6421,49.9419 261.0029,50.0913 Q260.3638,50.2407 259.6582,50.2407 Q257.1514,50.2407 255.8315,48.5889 Q254.5117,46.937 254.5117,43.8159 Q254.5117,40.6865 255.8315,39.0347 Q257.1514,37.3828 259.6582,37.3828 Q260.3638,37.3828 261.0112,37.5322 Q261.6587,37.6816 262.2231,37.9805 L262.2231,40.7031 Q261.5923,40.1221 260.9988,39.8523 Q260.4053,39.5825 259.7744,39.5825 Q258.4297,39.5825 257.7449,40.6492 Q257.0601,41.7158 257.0601,43.8159 Q257.0601,45.9077 257.7449,46.9744 Q258.4297,48.041 259.7744,48.041 Q260.4053,48.041 260.9988,47.7712 Q261.5923,47.5015 262.2231,46.9204 Z "/><text fill="#000000" font-family="sans-serif" font-size="12" lengthAdjust="spacingAndGlyphs" textLength="68" x="280.25" y="48.0352">LibraryCard</text><line style="stroke: #A80036; stroke-width: 1.5;" x1="180.5" x2="415.5" y1="59.5" y2="59.5"/><rect fill="none" height="6" style="stroke: #C82930; stroke-width: 1.0;" width="6" x="187.5" y="68.4775"/><text fill="#000000" font-family="sans-serif" font-size="11" lengthAdjust="spacingAndGlyphs" textLength="76" x="199.5" y="74.1348">idNumber : int</text><rect fill="none" height="6" style="stroke: #C82930; stroke-width: 1.0;" width="6" x="187.5" y="81.4326"/><text fill="#000000" font-family="sans-serif" font-size="11" lengthAdjust="spacingAndGlyphs" textLength="70" x="199.5" y="87.0898">name : string</text><rect fill="none" height="6" style="stroke: #C82930; stroke-width: 1.0;" width="6" x="187.5" y="94.3877"/><text fill="#000000" font-family="sans-serif" font-size="11" lengthAdjust="spacingAndGlyphs" textLength="211" x="199.5" y="100.0449">borrowedBooks : {BorrowableItem:Date}</text><line style="stroke: #A80036; stroke-width: 1.5;" x1="180.5" x2="415.5" y1="106.3652" y2="106.3652"/><text fill="#000000" font-family="sans-serif" font-size="11" lengthAdjust="spacingAndGlyphs" textLength="111" x="185.5" y="121">borrowBooks() : void</text><text fill="#000000" font-family="sans-serif" font-size="11" lengthAdjust="spacingAndGlyphs" textLength="135" x="185.5" y="133.9551">borrowerReport() : string</text><!--link Book to BorrowableItem--><path d="M119.5084,160.1855 C131.0888,180.0078 143.3342,200.9685 154.1175,219.4264 " fill="none" id="Book-BorrowableItem" style="stroke: #A80036; stroke-width: 1.0; stroke-dasharray: 7.0,7.0;"/><polygon fill="none" points="160.29,216.115,164.3346,236.915,148.2017,223.1771,160.29,216.115" style="stroke: #A80036; stroke-width: 1.0;"/><!--link LibraryCard to BorrowableItem--><path d="M264.548,140.7489 C247.243,170.1056 226.4894,205.3127 210.6617,232.1632 " fill="none" id="LibraryCard-BorrowableItem" style="stroke: #A80036; stroke-width: 1.0; stroke-dasharray: 7.0,7.0;"/><polygon fill="#A80036" points="207.9658,236.7366,215.982,231.0147,210.5049,232.4293,209.0903,226.9521,207.9658,236.7366" style="stroke: #A80036; stroke-width: 1.0;"/><text fill="#000000" font-family="sans-serif" font-size="13" lengthAdjust="spacingAndGlyphs" textLength="51" x="237" y="203.5684">borrows</text><polygon fill="#000000" points="258,212.3105,261,218.3105,264,212.3105,258,212.3105" style="stroke: #000000; stroke-width: 1.0;"/><!--
@startuml
class Book{
  -bookId : int
  -title : string
  -author : string
  -publishDate : Date
  -pages : [Page]
  coverInfo() : string
  uniqueItemId() : int
  commonName() : string
}

interface BorrowableItem{
  uniqueItemId() : int
  commonName() : string
}

class LibraryCard{
  -idNumber : int
  -name : string
  -borrowedBooks : {BorrowableItem:Date}
  borrowBooks() : void
  borrowerReport() : string
}

Book ..|> BorrowableItem
LibraryCard ..> BorrowableItem : borrows >

@enduml

PlantUML version 1.2018.01(Mon Jan 29 02:08:22 PHT 2018)
(GPL source distribution)
Java Runtime: Java(TM) SE Runtime Environment
JVM: Java HotSpot(TM) 64-Bit Server VM
Java Version: 1.8.0_92-b14
Operating System: Mac OS X
OS Version: 10.14.6
Default Encoding: UTF-8
Language: en
Country: US
--></g></svg>