<?xml version="1.0" encoding="UTF-8" standalone="no"?><svg xmlns="http://www.w3.org/2000/svg" xmlns:xlink="http://www.w3.org/1999/xlink" contentScriptType="application/ecmascript" contentStyleType="text/css" height="321px" preserveAspectRatio="none" style="width:601px;height:321px;" version="1.1" viewBox="0 0 601 321"
    width="601px" zoomAndPan="magnify"><defs><filter height="300%" id="f4bjv8kw7sd" width="300%" x="-1" y="-1"><feGaussianBlur result="blurOut" stdDeviation="2.0"/><feColorMatrix in="blurOut" result="blurOut2" type="matrix" values="0 0 0 0 0 0 0 0 0 0 0 0 0 0 0 0 0 0 .4 0"/><feOffset dx="4.0" dy="4.0" in="blurOut2" result="blurOut3"/><feBlend in="SourceGraphic" in2="blurOut3" mode="normal"/></filter></defs><g><!--class Book--><rect fill="#FEFECE" filter="url(#f4bjv8kw7sd)" height="151.6406" id="Book" style="stroke: #A80036; stroke-width: 1.5;" width="138" x="6" y="8"/><ellipse cx="56.75" cy="24" fill="#ADD1B2" rx="11" ry="11" style="stroke: #A80036; stroke-width: 1.0;"/><path d="M59.2231,30.1431 Q58.6421,30.4419 58.0029,30.5913 Q57.3638,30.7407 56.6582,30.7407 Q54.1514,30.7407 52.8315,29.0889 Q51.5117,27.437 51.5117,24.3159 Q51.5117,21.1865 52.8315,19.5347 Q54.1514,17.8828 56.6582,17.8828 Q57.3638,17.8828 58.0112,18.0322 Q58.6587,18.1816 59.2231,18.4805 L59.2231,21.2031 Q58.5923,20.6221 57.9988,20.3523 Q57.4053,20.0825 56.7744,20.0825 Q55.4297,20.0825 54.7449,21.1492 Q54.0601,22.2158 54.0601,24.3159 Q54.0601,26.4077 54.7449,27.4744 Q55.4297,28.541 56.7744,28.541 Q57.4053,28.541 57.9988,28.2712 Q58.5923,28.0015 59.2231,27.4204 Z "/><text fill="#000000" font-family="sans-serif" font-size="12" lengthAdjust="spacingAndGlyphs" textLength="28" x="77.25" y="28.5352">Book</text><line style="stroke: #A80036; stroke-width: 1.5;" x1="7" x2="143" y1="40" y2="40"/><rect fill="none" height="6" style="stroke: #C82930; stroke-width: 1.0;" width="6" x="14" y="48.9775"/><text fill="#000000" font-family="sans-serif" font-size="11" lengthAdjust="spacingAndGlyphs" textLength="60" x="26" y="54.6348">bookId : int</text><rect fill="none" height="6" style="stroke: #C82930; stroke-width: 1.0;" width="6" x="14" y="61.9326"/><text fill="#000000" font-family="sans-serif" font-size="11" lengthAdjust="spacingAndGlyphs" textLength="61" x="26" y="67.5898">title : string</text><rect fill="none" height="6" style="stroke: #C82930; stroke-width: 1.0;" width="6" x="14" y="74.8877"/><text fill="#000000" font-family="sans-serif" font-size="11" lengthAdjust="spacingAndGlyphs" textLength="77" x="26" y="80.5449">author : string</text><rect fill="none" height="6" style="stroke: #C82930; stroke-width: 1.0;" width="6" x="14" y="87.8428"/><text fill="#000000" font-family="sans-serif" font-size="11" lengthAdjust="spacingAndGlyphs" textLength="97" x="26" y="93.5">publishDate : Date</text><rect fill="none" height="6" style="stroke: #C82930; stroke-width: 1.0;" width="6" x="14" y="100.7979"/><text fill="#000000" font-family="sans-serif" font-size="11" lengthAdjust="spacingAndGlyphs" textLength="74" x="26" y="106.4551">pages : [Page]</text><line style="stroke: #A80036; stroke-width: 1.5;" x1="7" x2="143" y1="112.7754" y2="112.7754"/><text fill="#000000" font-family="sans-serif" font-size="11" lengthAdjust="spacingAndGlyphs" textLength="100" x="12" y="127.4102">coverInfo() : string</text><text fill="#000000" font-family="sans-serif" font-size="11" lengthAdjust="spacingAndGlyphs" textLength="101" x="12" y="140.3652">uniqueItemId() : int</text><text fill="#000000" font-family="sans-serif" font-size="11" lengthAdjust="spacingAndGlyphs" textLength="126" x="12" y="153.3203">commonName() : string</text><!--class Periodical--><rect fill="#FEFECE" filter="url(#f4bjv8kw7sd)" height="138.6855" id="Periodical" style="stroke: #A80036; stroke-width: 1.5;" width="146" x="179" y="14.5"/><ellipse cx="220.1" cy="30.5" fill="#ADD1B2" rx="11" ry="11" style="stroke: #A80036; stroke-width: 1.0;"/><path d="M222.5731,36.6431 Q221.9921,36.9419 221.3529,37.0913 Q220.7138,37.2407 220.0082,37.2407 Q217.5014,37.2407 216.1815,35.5889 Q214.8617,33.937 214.8617,30.8159 Q214.8617,27.6865 216.1815,26.0347 Q217.5014,24.3828 220.0082,24.3828 Q220.7138,24.3828 221.3612,24.5322 Q222.0087,24.6816 222.5731,24.9805 L222.5731,27.7031 Q221.9423,27.1221 221.3488,26.8523 Q220.7553,26.5825 220.1244,26.5825 Q218.7797,26.5825 218.0949,27.6492 Q217.4101,28.7158 217.4101,30.8159 Q217.4101,32.9077 218.0949,33.9744 Q218.7797,35.041 220.1244,35.041 Q220.7553,35.041 221.3488,34.7712 Q221.9423,34.5015 222.5731,33.9204 Z "/><text fill="#000000" font-family="sans-serif" font-size="12" lengthAdjust="spacingAndGlyphs" textLength="56" x="239.9" y="35.0352">Periodical</text><line style="stroke: #A80036; stroke-width: 1.5;" x1="180" x2="324" y1="46.5" y2="46.5"/><rect fill="none" height="6" style="stroke: #C82930; stroke-width: 1.0;" width="6" x="187" y="55.4775"/><text fill="#000000" font-family="sans-serif" font-size="11" lengthAdjust="spacingAndGlyphs" textLength="86" x="199" y="61.1348">periodicalId : int</text><rect fill="none" height="6" style="stroke: #C82930; stroke-width: 1.0;" width="6" x="187" y="68.4326"/><text fill="#000000" font-family="sans-serif" font-size="11" lengthAdjust="spacingAndGlyphs" textLength="61" x="199" y="74.0898">title : string</text><rect fill="none" height="6" style="stroke: #C82930; stroke-width: 1.0;" width="6" x="187" y="81.3877"/><text fill="#000000" font-family="sans-serif" font-size="11" lengthAdjust="spacingAndGlyphs" textLength="61" x="199" y="87.0449">issue : Date</text><rect fill="none" height="6" style="stroke: #C82930; stroke-width: 1.0;" width="6" x="187" y="94.3428"/><text fill="#000000" font-family="sans-serif" font-size="11" lengthAdjust="spacingAndGlyphs" textLength="74" x="199" y="100">pages : [Page]</text><line style="stroke: #A80036; stroke-width: 1.5;" x1="180" x2="324" y1="106.3203" y2="106.3203"/><text fill="#000000" font-family="sans-serif" font-size="11" lengthAdjust="spacingAndGlyphs" textLength="100" x="185" y="120.9551">coverInfo() : string</text><text fill="#000000" font-family="sans-serif" font-size="11" lengthAdjust="spacingAndGlyphs" textLength="134" x="185" y="133.9102">uniqueItemId() : interface</text><text fill="#000000" font-family="sans-serif" font-size="11" lengthAdjust="spacingAndGlyphs" textLength="126" x="185" y="146.8652">commonName() : string</text><!--class BorrowableItem--><rect fill="#FEFECE" filter="url(#f4bjv8kw7sd)" height="73.9102" id="BorrowableItem" style="stroke: #A80036; stroke-width: 1.5;" width="138" x="183" y="237"/><ellipse cx="205.2" cy="253" fill="#B4A7E5" rx="11" ry="11" style="stroke: #A80036; stroke-width: 1.0;"/><path d="M201.6277,249.2651 L201.6277,247.1069 L209.0071,247.1069 L209.0071,249.2651 L206.5418,249.2651 L206.5418,257.3418 L209.0071,257.3418 L209.0071,259.5 L201.6277,259.5 L201.6277,257.3418 L204.0931,257.3418 L204.0931,249.2651 Z "/><text fill="#000000" font-family="sans-serif" font-size="12" font-style="italic" lengthAdjust="spacingAndGlyphs" textLength="90" x="220.8" y="257.5352">BorrowableItem</text><line style="stroke: #A80036; stroke-width: 1.5;" x1="184" x2="320" y1="269" y2="269"/><line style="stroke: #A80036; stroke-width: 1.5;" x1="184" x2="320" y1="277" y2="277"/><text fill="#000000" font-family="sans-serif" font-size="11" lengthAdjust="spacingAndGlyphs" textLength="101" x="189" y="291.6348">uniqueItemId() : int</text><text fill="#000000" font-family="sans-serif" font-size="11" lengthAdjust="spacingAndGlyphs" textLength="126" x="189" y="304.5898">commonName() : string</text><!--class LibraryCard--><rect fill="#FEFECE" filter="url(#f4bjv8kw7sd)" height="112.7754" id="LibraryCard" style="stroke: #A80036; stroke-width: 1.5;" width="230" x="360" y="27.5"/><ellipse cx="436.75" cy="43.5" fill="#ADD1B2" rx="11" ry="11" style="stroke: #A80036; stroke-width: 1.0;"/><path d="M439.2231,49.6431 Q438.6421,49.9419 438.0029,50.0913 Q437.3638,50.2407 436.6582,50.2407 Q434.1514,50.2407 432.8315,48.5889 Q431.5117,46.937 431.5117,43.8159 Q431.5117,40.6865 432.8315,39.0347 Q434.1514,37.3828 436.6582,37.3828 Q437.3638,37.3828 438.0112,37.5322 Q438.6587,37.6816 439.2231,37.9805 L439.2231,40.7031 Q438.5923,40.1221 437.9988,39.8523 Q437.4053,39.5825 436.7744,39.5825 Q435.4297,39.5825 434.7449,40.6492 Q434.0601,41.7158 434.0601,43.8159 Q434.0601,45.9077 434.7449,46.9744 Q435.4297,48.041 436.7744,48.041 Q437.4053,48.041 437.9988,47.7712 Q438.5923,47.5015 439.2231,46.9204 Z "/><text fill="#000000" font-family="sans-serif" font-size="12" lengthAdjust="spacingAndGlyphs" textLength="68" x="457.25" y="48.0352">LibraryCard</text><line style="stroke: #A80036; stroke-width: 1.5;" x1="361" x2="589" y1="59.5" y2="59.5"/><rect fill="none" height="6" style="stroke: #C82930; stroke-width: 1.0;" width="6" x="368" y="68.4775"/><text fill="#000000" font-family="sans-serif" font-size="11" lengthAdjust="spacingAndGlyphs" textLength="76" x="380" y="74.1348">idNumber : int</text><rect fill="none" height="6" style="stroke: #C82930; stroke-width: 1.0;" width="6" x="368" y="81.4326"/><text fill="#000000" font-family="sans-serif" font-size="11" lengthAdjust="spacingAndGlyphs" textLength="70" x="380" y="87.0898">name : string</text><rect fill="none" height="6" style="stroke: #C82930; stroke-width: 1.0;" width="6" x="368" y="94.3877"/><text fill="#000000" font-family="sans-serif" font-size="11" lengthAdjust="spacingAndGlyphs" textLength="204" x="380" y="100.0449">borrowedStuff : {BorrowableItem:Date}</text><line style="stroke: #A80036; stroke-width: 1.5;" x1="361" x2="589" y1="106.3652" y2="106.3652"/><text fill="#000000" font-family="sans-serif" font-size="11" lengthAdjust="spacingAndGlyphs" textLength="111" x="366" y="121">borrowBooks() : void</text><text fill="#000000" font-family="sans-serif" font-size="11" lengthAdjust="spacingAndGlyphs" textLength="135" x="366" y="133.9551">borrowerReport() : string</text><!--link Book to BorrowableItem--><path d="M144.1933,158.2753 C164.1068,179.6513 185.3911,202.499 203.7424,222.1981 " fill="none" id="Book-BorrowableItem" style="stroke: #A80036; stroke-width: 1.0; stroke-dasharray: 7.0,7.0;"/><polygon fill="none" points="208.9289,217.496,217.4397,236.9014,198.6851,227.0389,208.9289,217.496" style="stroke: #A80036; stroke-width: 1.0;"/><!--link Periodical to BorrowableItem--><path d="M252,153.6701 C252,174.359 252,196.7769 252,216.5928 " fill="none" id="Periodical-BorrowableItem" style="stroke: #A80036; stroke-width: 1.0; stroke-dasharray: 7.0,7.0;"/><polygon fill="none" points="259.0001,216.8692,252,236.8691,245.0001,216.8691,259.0001,216.8692" style="stroke: #A80036; stroke-width: 1.0;"/><!--link LibraryCard to BorrowableItem--><path d="M408.3947,140.7489 C373.3697,170.5909 331.2494,206.4781 299.5486,233.4877 " fill="none" id="LibraryCard-BorrowableItem" style="stroke: #A80036; stroke-width: 1.0; stroke-dasharray: 7.0,7.0;"/><polygon fill="#A80036" points="295.7355,236.7366,305.1803,233.9444,299.5414,233.4939,299.9919,227.855,295.7355,236.7366" style="stroke: #A80036; stroke-width: 1.0;"/><polygon fill="#000000" points="359,197.1553,353,200.1553,359,203.1553,359,197.1553" style="stroke: #000000; stroke-width: 1.0;"/><text fill="#000000" font-family="sans-serif" font-size="13" lengthAdjust="spacingAndGlyphs" textLength="51" x="365" y="203.5684">borrows</text><!--
@startuml
class Book{
  -bookId : int
  -title : string
  -author : string
  -publishDate : Date
  -pages : [Page]
  coverInfo() : string
  uniqueItemId() : int
  commonName() : string
}

class Periodical{
  -periodicalId : int
  -title : string
  -issue : Date
  -pages : [Page]
  coverInfo() : string
  uniqueItemId() : interface
  commonName() : string
}


interface BorrowableItem{
  uniqueItemId() : int
  commonName() : string
}

class LibraryCard{
  -idNumber : int
  -name : string
  -borrowedStuff : {BorrowableItem:Date}
  borrowBooks() : void
  borrowerReport() : string
}


Book ..|> BorrowableItem
Periodical ..|> BorrowableItem
LibraryCard ..> BorrowableItem : borrows >


@enduml

PlantUML version 1.2018.01(Mon Jan 29 02:08:22 PHT 2018)
(GPL source distribution)
Java Runtime: Java(TM) SE Runtime Environment
JVM: Java HotSpot(TM) 64-Bit Server VM
Java Version: 1.8.0_92-b14
Operating System: Mac OS X
OS Version: 10.14.6
Default Encoding: UTF-8
Language: en
Country: US
--></g></svg>