<?xml version="1.0" encoding="UTF-8" standalone="no"?><svg xmlns="http://www.w3.org/2000/svg" xmlns:xlink="http://www.w3.org/1999/xlink" contentScriptType="application/ecmascript" contentStyleType="text/css" height="200px" preserveAspectRatio="none" style="width:594px;height:200px;" version="1.1" viewBox="0 0 594 200"
    width="594px" zoomAndPan="magnify"><defs><filter height="300%" id="f1isq1rhkjbrf9" width="300%" x="-1" y="-1"><feGaussianBlur result="blurOut" stdDeviation="2.0"/><feColorMatrix in="blurOut" result="blurOut2" type="matrix" values="0 0 0 0 0 0 0 0 0 0 0 0 0 0 0 0 0 0 .4 0"/><feOffset dx="4.0" dy="4.0" in="blurOut2" result="blurOut3"/><feBlend in="SourceGraphic" in2="blurOut3" mode="normal"/></filter></defs><g><!--class Strategy--><rect fill="#FEFECE" filter="url(#f1isq1rhkjbrf9)" height="60.9551" id="Strategy" style="stroke: #A80036; stroke-width: 1.5;" width="116" x="157" y="129"/><ellipse cx="189.1" cy="145" fill="#B4A7E5" rx="11" ry="11" style="stroke: #A80036; stroke-width: 1.0;"/><path d="M185.5277,141.2651 L185.5277,139.1069 L192.9071,139.1069 L192.9071,141.2651 L190.4418,141.2651 L190.4418,149.3418 L192.9071,149.3418 L192.9071,151.5 L185.5277,151.5 L185.5277,149.3418 L187.9931,149.3418 L187.9931,141.2651 Z "/><text fill="#000000" font-family="sans-serif" font-size="12" font-style="italic" lengthAdjust="spacingAndGlyphs" textLength="46" x="206.9" y="149.5352">Strategy</text><line style="stroke: #A80036; stroke-width: 1.5;" x1="158" x2="272" y1="161" y2="161"/><line style="stroke: #A80036; stroke-width: 1.5;" x1="158" x2="272" y1="169" y2="169"/><ellipse cx="168" cy="180.9775" fill="#84BE84" rx="3" ry="3" style="stroke: #038048; stroke-width: 1.0;"/><text fill="#000000" font-family="sans-serif" font-size="11" font-style="italic" lengthAdjust="spacingAndGlyphs" textLength="90" x="177" y="183.6348">execute(params)</text><!--class RealStrategy1--><rect fill="#FEFECE" filter="url(#f1isq1rhkjbrf9)" height="60.9551" id="RealStrategy1" style="stroke: #A80036; stroke-width: 1.5;" width="116" x="6" y="8"/><ellipse cx="23.25" cy="24" fill="#ADD1B2" rx="11" ry="11" style="stroke: #A80036; stroke-width: 1.0;"/><path d="M25.7231,30.1431 Q25.1421,30.4419 24.5029,30.5913 Q23.8638,30.7407 23.1582,30.7407 Q20.6514,30.7407 19.3315,29.0889 Q18.0117,27.437 18.0117,24.3159 Q18.0117,21.1865 19.3315,19.5347 Q20.6514,17.8828 23.1582,17.8828 Q23.8638,17.8828 24.5112,18.0322 Q25.1587,18.1816 25.7231,18.4805 L25.7231,21.2031 Q25.0923,20.6221 24.4988,20.3523 Q23.9053,20.0825 23.2744,20.0825 Q21.9297,20.0825 21.2449,21.1492 Q20.5601,22.2158 20.5601,24.3159 Q20.5601,26.4077 21.2449,27.4744 Q21.9297,28.541 23.2744,28.541 Q23.9053,28.541 24.4988,28.2712 Q25.0923,28.0015 25.7231,27.4204 Z "/><text fill="#000000" font-family="sans-serif" font-size="12" lengthAdjust="spacingAndGlyphs" textLength="79" x="37.75" y="28.5352">RealStrategy1</text><line style="stroke: #A80036; stroke-width: 1.5;" x1="7" x2="121" y1="40" y2="40"/><line style="stroke: #A80036; stroke-width: 1.5;" x1="7" x2="121" y1="48" y2="48"/><ellipse cx="17" cy="59.9775" fill="#84BE84" rx="3" ry="3" style="stroke: #038048; stroke-width: 1.0;"/><text fill="#000000" font-family="sans-serif" font-size="11" lengthAdjust="spacingAndGlyphs" textLength="90" x="26" y="62.6348">execute(params)</text><!--class RealStrategy2--><rect fill="#FEFECE" filter="url(#f1isq1rhkjbrf9)" height="60.9551" id="RealStrategy2" style="stroke: #A80036; stroke-width: 1.5;" width="116" x="157" y="8"/><ellipse cx="174.25" cy="24" fill="#ADD1B2" rx="11" ry="11" style="stroke: #A80036; stroke-width: 1.0;"/><path d="M176.7231,30.1431 Q176.1421,30.4419 175.5029,30.5913 Q174.8638,30.7407 174.1582,30.7407 Q171.6514,30.7407 170.3315,29.0889 Q169.0117,27.437 169.0117,24.3159 Q169.0117,21.1865 170.3315,19.5347 Q171.6514,17.8828 174.1582,17.8828 Q174.8638,17.8828 175.5112,18.0322 Q176.1587,18.1816 176.7231,18.4805 L176.7231,21.2031 Q176.0923,20.6221 175.4988,20.3523 Q174.9053,20.0825 174.2744,20.0825 Q172.9297,20.0825 172.2449,21.1492 Q171.5601,22.2158 171.5601,24.3159 Q171.5601,26.4077 172.2449,27.4744 Q172.9297,28.541 174.2744,28.541 Q174.9053,28.541 175.4988,28.2712 Q176.0923,28.0015 176.7231,27.4204 Z "/><text fill="#000000" font-family="sans-serif" font-size="12" lengthAdjust="spacingAndGlyphs" textLength="79" x="188.75" y="28.5352">RealStrategy2</text><line style="stroke: #A80036; stroke-width: 1.5;" x1="158" x2="272" y1="40" y2="40"/><line style="stroke: #A80036; stroke-width: 1.5;" x1="158" x2="272" y1="48" y2="48"/><ellipse cx="168" cy="59.9775" fill="#84BE84" rx="3" ry="3" style="stroke: #038048; stroke-width: 1.0;"/><text fill="#000000" font-family="sans-serif" font-size="11" lengthAdjust="spacingAndGlyphs" textLength="90" x="177" y="62.6348">execute(params)</text><!--class Client--><rect fill="#FEFECE" filter="url(#f1isq1rhkjbrf9)" height="60.9551" id="Client" style="stroke: #A80036; stroke-width: 1.5;" width="275" x="308.5" y="8"/><ellipse cx="425.75" cy="24" fill="#ADD1B2" rx="11" ry="11" style="stroke: #A80036; stroke-width: 1.0;"/><path d="M428.2231,30.1431 Q427.6421,30.4419 427.0029,30.5913 Q426.3638,30.7407 425.6582,30.7407 Q423.1514,30.7407 421.8315,29.0889 Q420.5117,27.437 420.5117,24.3159 Q420.5117,21.1865 421.8315,19.5347 Q423.1514,17.8828 425.6582,17.8828 Q426.3638,17.8828 427.0112,18.0322 Q427.6587,18.1816 428.2231,18.4805 L428.2231,21.2031 Q427.5923,20.6221 426.9988,20.3523 Q426.4053,20.0825 425.7744,20.0825 Q424.4297,20.0825 423.7449,21.1492 Q423.0601,22.2158 423.0601,24.3159 Q423.0601,26.4077 423.7449,27.4744 Q424.4297,28.541 425.7744,28.541 Q426.4053,28.541 426.9988,28.2712 Q427.5923,28.0015 428.2231,27.4204 Z "/><text fill="#000000" font-family="sans-serif" font-size="12" lengthAdjust="spacingAndGlyphs" textLength="32" x="446.25" y="28.5352">Client</text><line style="stroke: #A80036; stroke-width: 1.5;" x1="309.5" x2="582.5" y1="40" y2="40"/><line style="stroke: #A80036; stroke-width: 1.5;" x1="309.5" x2="582.5" y1="48" y2="48"/><ellipse cx="319.5" cy="59.9775" fill="#84BE84" rx="3" ry="3" style="stroke: #038048; stroke-width: 1.0;"/><text fill="#000000" font-family="sans-serif" font-size="11" lengthAdjust="spacingAndGlyphs" textLength="249" x="328.5" y="62.6348">higherOrderMethod(params,strategy:Strategy)</text><!--link RealStrategy1 to Strategy--><path d="M102.1037,69.0334 C119.9868,83.3636 141.6149,100.6947 161.1354,116.337 " fill="none" id="RealStrategy1-Strategy" style="stroke: #A80036; stroke-width: 1.0; stroke-dasharray: 7.0,7.0;"/><polygon fill="none" points="165.6785,111.0073,176.9085,128.9764,156.9239,121.9324,165.6785,111.0073" style="stroke: #A80036; stroke-width: 1.0;"/><!--link RealStrategy2 to Strategy--><path d="M215,69.0334 C215,81.0708 215,95.2256 215,108.7182 " fill="none" id="RealStrategy2-Strategy" style="stroke: #A80036; stroke-width: 1.0; stroke-dasharray: 7.0,7.0;"/><polygon fill="none" points="222.0001,108.9764,215,128.9764,208.0001,108.9763,222.0001,108.9764" style="stroke: #A80036; stroke-width: 1.0;"/><!--link Client to Strategy--><path d="M387.7089,69.0334 C354.1958,86.5879 312.0856,108.6456 277.8365,126.5856 " fill="none" id="Client-Strategy" style="stroke: #A80036; stroke-width: 1.0; stroke-dasharray: 7.0,7.0;"/><polygon fill="#A80036" points="273.2724,128.9764,283.1009,128.3435,277.7015,126.6563,279.3887,121.2569,273.2724,128.9764" style="stroke: #A80036; stroke-width: 1.0;"/><!--
@startuml

   interface Strategy{
      + {abstract} execute(params)
   }

   class RealStrategy1{
      + execute(params)
   }

   class RealStrategy2{
      + execute(params)
   }

   class Client{
      + higherOrderMethod(params,strategy:Strategy)
   }

   RealStrategy1 ..|> Strategy
   RealStrategy2 ..|> Strategy
   Client ..> Strategy

@enduml

PlantUML version 1.2018.01(Mon Jan 29 02:08:22 PHT 2018)
(GPL source distribution)
Java Runtime: Java(TM) SE Runtime Environment
JVM: Java HotSpot(TM) 64-Bit Server VM
Java Version: 1.8.0_92-b14
Operating System: Mac OS X
OS Version: 10.14.6
Default Encoding: UTF-8
Language: en
Country: US
--></g></svg>