<svg xmlns="http://www.w3.org/2000/svg" xmlns:xlink="http://www.w3.org/1999/xlink" contentStyleType="text/css" height="398px" preserveAspectRatio="none" style="width:1057px;height:398px;background:#FFFFFF;" version="1.1" viewBox="0 0 1057 398" width="1057px" zoomAndPan="magnify"><defs/><g><!--class SearchAlgorithm--><g id="elem_SearchAlgorithm"><rect codeLine="3" fill="#F1F1F1" height="227.2656" id="SearchAlgorithm" rx="3.5" ry="3.5" style="stroke:#181818;stroke-width:0.5;" width="351.9443" x="189.42" y="163.89"/><ellipse cx="302.6573" cy="179.89" fill="#A9DCDF" rx="11" ry="11" style="stroke:#181818;stroke-width:1.0;"/><path d="M302.7667,175.2338 L301.6104,180.3119 L303.9386,180.3119 L302.7667,175.2338 Z M301.2823,172.9994 L304.2667,172.9994 L307.6261,185.39 L305.1729,185.39 L304.4073,182.3275 L301.1261,182.3275 L300.3761,185.39 L297.9386,185.39 L301.2823,172.9994 Z " fill="#000000"/><text fill="#000000" font-family="sans-serif" font-size="14" font-style="italic" lengthAdjust="spacing" textLength="116.9697" x="323.1573" y="184.7367">SearchAlgorithm</text><line style="stroke:#181818;stroke-width:0.5;" x1="190.42" x2="540.3643" y1="195.89" y2="195.89"/><polygon fill="none" points="200.42,204.5384,204.42,208.5384,200.42,212.5384,196.42,208.5384" style="stroke:#B38D22;stroke-width:1.0;"/><text fill="#000000" font-family="sans-serif" font-size="14" lengthAdjust="spacing" textLength="132.2686" x="209.42" y="212.8851">searchSpace : [int]</text><polygon fill="none" points="200.42,220.8353,204.42,224.8353,200.42,228.8353,196.42,224.8353" style="stroke:#B38D22;stroke-width:1.0;"/><text fill="#000000" font-family="sans-serif" font-size="14" lengthAdjust="spacing" textLength="121.7139" x="209.42" y="229.182">currentIndex : int</text><polygon fill="none" points="200.42,237.1322,204.42,241.1322,200.42,245.1322,196.42,241.1322" style="stroke:#B38D22;stroke-width:1.0;"/><text fill="#000000" font-family="sans-serif" font-size="14" lengthAdjust="spacing" textLength="98.2324" x="209.42" y="245.4789">solution : [int]</text><polygon fill="none" points="200.42,253.4291,204.42,257.4291,200.42,261.4291,196.42,257.4291" style="stroke:#B38D22;stroke-width:1.0;"/><text fill="#000000" font-family="sans-serif" font-size="14" lengthAdjust="spacing" textLength="74.6826" x="209.42" y="261.7757">target : int</text><line style="stroke:#181818;stroke-width:0.5;" x1="190.42" x2="540.3643" y1="269.0775" y2="269.0775"/><ellipse cx="200.42" cy="282.7259" fill="#84BE84" rx="3" ry="3" style="stroke:#038048;stroke-width:1.0;"/><text fill="#000000" font-family="sans-serif" font-size="14" lengthAdjust="spacing" textLength="325.9443" x="209.42" y="286.0726">SearchAlgorithm(target:int, searchSpace:[int])</text><ellipse cx="200.42" cy="299.0228" fill="#84BE84" rx="3" ry="3" style="stroke:#038048;stroke-width:1.0;"/><text fill="#000000" font-family="sans-serif" font-size="14" lengthAdjust="spacing" textLength="187.0518" x="209.42" y="302.3695">bruteForceSolution() : [int]</text><ellipse cx="200.42" cy="315.3197" fill="#84BE84" rx="3" ry="3" style="stroke:#038048;stroke-width:1.0;"/><text fill="#000000" font-family="sans-serif" font-size="14" lengthAdjust="spacing" textLength="70.1504" x="209.42" y="318.6664">first() : int</text><ellipse cx="200.42" cy="331.6166" fill="#84BE84" rx="3" ry="3" style="stroke:#038048;stroke-width:1.0;"/><text fill="#000000" font-family="sans-serif" font-size="14" lengthAdjust="spacing" textLength="74.0537" x="209.42" y="334.9632">next() : int</text><ellipse cx="200.42" cy="347.9134" fill="#84BE84" rx="3" ry="3" style="stroke:#038048;stroke-width:1.0;"/><text fill="#000000" font-family="sans-serif" font-size="14" lengthAdjust="spacing" textLength="135.6865" x="209.42" y="351.2601">isSearching() : bool</text><ellipse cx="200.42" cy="364.2103" fill="#84BE84" rx="3" ry="3" style="stroke:#038048;stroke-width:1.0;"/><text fill="#000000" font-family="sans-serif" font-size="14" font-style="italic" lengthAdjust="spacing" textLength="169.9482" x="209.42" y="367.557">isValid(candidate) : bool</text><ellipse cx="200.42" cy="380.5072" fill="#84BE84" rx="3" ry="3" style="stroke:#038048;stroke-width:1.0;"/><text fill="#000000" font-family="sans-serif" font-size="14" font-style="italic" lengthAdjust="spacing" textLength="186.7783" x="209.42" y="383.8539">updateSolution(candidate)</text></g><!--class EqualitySearchAlgorithm--><g id="elem_EqualitySearchAlgorithm"><rect codeLine="17" fill="#F1F1F1" height="80.5938" id="EqualitySearchAlgorithm" rx="3.5" ry="3.5" style="stroke:#181818;stroke-width:0.5;" width="212.7783" x="7" y="15.15"/><ellipse cx="25.1816" cy="31.15" fill="#ADD1B2" rx="11" ry="11" style="stroke:#181818;stroke-width:1.0;"/><path d="M28.1504,36.7906 Q27.5723,37.0875 26.9316,37.2281 Q26.291,37.3844 25.5879,37.3844 Q23.0879,37.3844 21.7598,35.7438 Q20.4473,34.0875 20.4473,30.9625 Q20.4473,27.8375 21.7598,26.1813 Q23.0879,24.525 25.5879,24.525 Q26.291,24.525 26.9316,24.6813 Q27.5879,24.8375 28.1504,25.1344 L28.1504,27.8531 Q27.5254,27.275 26.9316,27.0094 Q26.3379,26.7281 25.7129,26.7281 Q24.3691,26.7281 23.6816,27.8063 Q22.9941,28.8688 22.9941,30.9625 Q22.9941,33.0563 23.6816,34.1344 Q24.3691,35.1969 25.7129,35.1969 Q26.3379,35.1969 26.9316,34.9313 Q27.5254,34.65 28.1504,34.0719 L28.1504,36.7906 Z " fill="#000000"/><text fill="#000000" font-family="sans-serif" font-size="14" lengthAdjust="spacing" textLength="173.708" x="39.8887" y="35.9967">EqualitySearchAlgorithm</text><line style="stroke:#181818;stroke-width:0.5;" x1="8" x2="218.7783" y1="47.15" y2="47.15"/><line style="stroke:#181818;stroke-width:0.5;" x1="8" x2="218.7783" y1="55.15" y2="55.15"/><ellipse cx="18" cy="68.7984" fill="#84BE84" rx="3" ry="3" style="stroke:#038048;stroke-width:1.0;"/><text fill="#000000" font-family="sans-serif" font-size="14" lengthAdjust="spacing" textLength="169.9482" x="27" y="72.1451">isValid(candidate) : bool</text><ellipse cx="18" cy="85.0953" fill="#84BE84" rx="3" ry="3" style="stroke:#038048;stroke-width:1.0;"/><text fill="#000000" font-family="sans-serif" font-size="14" lengthAdjust="spacing" textLength="186.7783" x="27" y="88.442">updateSolution(candidate)</text></g><!--class DivisibilitySearchAlgorithm--><g id="elem_DivisibilitySearchAlgorithm"><rect codeLine="22" fill="#F1F1F1" height="80.5938" id="DivisibilitySearchAlgorithm" rx="3.5" ry="3.5" style="stroke:#181818;stroke-width:0.5;" width="221.3281" x="254.73" y="15.15"/><ellipse cx="269.73" cy="31.15" fill="#ADD1B2" rx="11" ry="11" style="stroke:#181818;stroke-width:1.0;"/><path d="M272.6988,36.7906 Q272.1206,37.0875 271.48,37.2281 Q270.8394,37.3844 270.1363,37.3844 Q267.6363,37.3844 266.3081,35.7438 Q264.9956,34.0875 264.9956,30.9625 Q264.9956,27.8375 266.3081,26.1813 Q267.6363,24.525 270.1363,24.525 Q270.8394,24.525 271.48,24.6813 Q272.1363,24.8375 272.6988,25.1344 L272.6988,27.8531 Q272.0738,27.275 271.48,27.0094 Q270.8863,26.7281 270.2613,26.7281 Q268.9175,26.7281 268.23,27.8063 Q267.5425,28.8688 267.5425,30.9625 Q267.5425,33.0563 268.23,34.1344 Q268.9175,35.1969 270.2613,35.1969 Q270.8863,35.1969 271.48,34.9313 Q272.0738,34.65 272.6988,34.0719 L272.6988,36.7906 Z " fill="#000000"/><text fill="#000000" font-family="sans-serif" font-size="14" lengthAdjust="spacing" textLength="189.3281" x="283.73" y="35.9967">DivisibilitySearchAlgorithm</text><line style="stroke:#181818;stroke-width:0.5;" x1="255.73" x2="475.0581" y1="47.15" y2="47.15"/><line style="stroke:#181818;stroke-width:0.5;" x1="255.73" x2="475.0581" y1="55.15" y2="55.15"/><ellipse cx="265.73" cy="68.7984" fill="#84BE84" rx="3" ry="3" style="stroke:#038048;stroke-width:1.0;"/><text fill="#000000" font-family="sans-serif" font-size="14" lengthAdjust="spacing" textLength="169.9482" x="274.73" y="72.1451">isValid(candidate) : bool</text><ellipse cx="265.73" cy="85.0953" fill="#84BE84" rx="3" ry="3" style="stroke:#038048;stroke-width:1.0;"/><text fill="#000000" font-family="sans-serif" font-size="14" lengthAdjust="spacing" textLength="186.7783" x="274.73" y="88.442">updateSolution(candidate)</text></g><!--class MinimumSearchAlgorithm--><g id="elem_MinimumSearchAlgorithm"><rect codeLine="27" fill="#F1F1F1" height="96.8906" id="MinimumSearchAlgorithm" rx="3.5" ry="3.5" style="stroke:#181818;stroke-width:0.5;" width="539.3584" x="510.71" y="7"/><ellipse cx="685.2144" cy="23" fill="#ADD1B2" rx="11" ry="11" style="stroke:#181818;stroke-width:1.0;"/><path d="M688.1831,28.6406 Q687.605,28.9375 686.9644,29.0781 Q686.3238,29.2344 685.6206,29.2344 Q683.1206,29.2344 681.7925,27.5938 Q680.48,25.9375 680.48,22.8125 Q680.48,19.6875 681.7925,18.0313 Q683.1206,16.375 685.6206,16.375 Q686.3238,16.375 686.9644,16.5313 Q687.6206,16.6875 688.1831,16.9844 L688.1831,19.7031 Q687.5581,19.125 686.9644,18.8594 Q686.3706,18.5781 685.7456,18.5781 Q684.4019,18.5781 683.7144,19.6563 Q683.0269,20.7188 683.0269,22.8125 Q683.0269,24.9063 683.7144,25.9844 Q684.4019,27.0469 685.7456,27.0469 Q686.3706,27.0469 686.9644,26.7813 Q687.5581,26.5 688.1831,25.9219 L688.1831,28.6406 Z " fill="#000000"/><text fill="#000000" font-family="sans-serif" font-size="14" lengthAdjust="spacing" textLength="181.8496" x="705.7144" y="27.8467">MinimumSearchAlgorithm</text><line style="stroke:#181818;stroke-width:0.5;" x1="511.71" x2="1049.0684" y1="39" y2="39"/><line style="stroke:#181818;stroke-width:0.5;" x1="511.71" x2="1049.0684" y1="47" y2="47"/><ellipse cx="521.71" cy="60.6484" fill="#84BE84" rx="3" ry="3" style="stroke:#038048;stroke-width:1.0;"/><text fill="#000000" font-family="sans-serif" font-size="14" lengthAdjust="spacing" textLength="513.3584" x="530.71" y="63.9951">MinimumSearchAlgorithm(searchSpace:[int]) //overriding the constructor</text><ellipse cx="521.71" cy="76.9453" fill="#84BE84" rx="3" ry="3" style="stroke:#038048;stroke-width:1.0;"/><text fill="#000000" font-family="sans-serif" font-size="14" lengthAdjust="spacing" textLength="169.9482" x="530.71" y="80.292">isValid(candidate) : bool</text><ellipse cx="521.71" cy="93.2422" fill="#84BE84" rx="3" ry="3" style="stroke:#038048;stroke-width:1.0;"/><text fill="#000000" font-family="sans-serif" font-size="14" lengthAdjust="spacing" textLength="186.7783" x="530.71" y="96.5889">updateSolution(candidate)</text></g><!--link EqualitySearchAlgorithm to SearchAlgorithm--><g id="link_EqualitySearchAlgorithm_SearchAlgorithm"><path codeLine="34" d="M158.73,96.05 C180.63,115.17 194.563,127.339 222.293,151.559 " fill="none" id="EqualitySearchAlgorithm-to-SearchAlgorithm" style="stroke:#454645;stroke-width:1.0;"/><polygon fill="none" points="235.85,163.4,226.24,147.04,218.346,156.078,235.85,163.4" style="stroke:#454645;stroke-width:1.0;"/></g><!--link DivisibilitySearchAlgorithm to SearchAlgorithm--><g id="link_DivisibilitySearchAlgorithm_SearchAlgorithm"><path codeLine="35" d="M365.39,96.05 C365.39,115.23 365.39,121.34 365.39,145.63 " fill="none" id="DivisibilitySearchAlgorithm-to-SearchAlgorithm" style="stroke:#454645;stroke-width:1.0;"/><polygon fill="none" points="365.39,163.63,371.39,145.63,359.39,145.63,365.39,163.63" style="stroke:#454645;stroke-width:1.0;"/></g><!--link MinimumSearchAlgorithm to SearchAlgorithm--><g id="link_MinimumSearchAlgorithm_SearchAlgorithm"><path codeLine="36" d="M690.08,104.34 C646.57,127.42 608.7217,147.4857 557.5717,174.6157 " fill="none" id="MinimumSearchAlgorithm-to-SearchAlgorithm" style="stroke:#454645;stroke-width:1.0;"/><polygon fill="none" points="541.67,183.05,560.3831,179.9163,554.7603,169.3152,541.67,183.05" style="stroke:#454645;stroke-width:1.0;"/></g><!--SRC=[jLAnJiCm49sThp1YIHMgxXcGa029WIaI2s9md2CvAR7B-HmLbVuxng6bBGb5GgpllNll_7ndt407iiUIbE4a4QfqJ4gprAroJXQWI3TNRMq9kUdMYH3dqaMmM2eDCfUFQFWfujeJWU4xKy4g404VvBRrZDOSQ5bH3RnJPST9wI380tsn7vX7YraSASapt5hIK7n6fBEza4m-8pcEs3R5mEeGG3S4ewaZNbhRHcAzRM8JD0-gnIhLobHOAOOfeLz-iBjbllI9s8HkXqflNdnmuzUHQhCJKR_olyOU7PRudndtQB3ptQZzE9T-_qEvMDWUYB0AvSjmY59R4whqcYtzUTD4J1Gjv_Eto-DpIyGFjKrCZ3zqLFmE]--></g></svg>