<svg xmlns="http://www.w3.org/2000/svg" xmlns:xlink="http://www.w3.org/1999/xlink" contentStyleType="text/css" data-diagram-type="CLASS" height="379px" preserveAspectRatio="none" style="width:1360px;height:379px;background:#FFFFFF;" version="1.1" viewBox="0 0 1360 379" width="1360px" zoomAndPan="magnify"><defs/><g><!--class Command--><g class="entity" data-entity="Command" data-source-line="1" data-uid="ent0002" id="entity_Command"><rect fill="#F1F1F1" height="80.1973" rx="2.5" ry="2.5" style="stroke:#181818;stroke-width:0.5;" width="96.5791" x="515.08" y="259.89"/><ellipse cx="530.08" cy="275.89" fill="#B4A7E5" rx="11" ry="11" style="stroke:#181818;stroke-width:1;"/><path d="M526.1112,282.39 L526.1112,280.4681 L528.6112,280.4681 L528.6112,271.9056 L526.1112,271.9056 L526.1112,269.9838 L533.2519,269.9838 L533.2519,271.9056 L530.7519,271.9056 L530.7519,280.4681 L533.2519,280.4681 L533.2519,282.39 L526.1112,282.39 Z " fill="#000000"/><text fill="#000000" font-family="sans-serif" font-size="14" font-style="italic" lengthAdjust="spacing" textLength="64.5791" x="544.08" y="280.9725">Command</text><line style="stroke:#181818;stroke-width:0.5;" x1="516.08" x2="610.6591" y1="291.89" y2="291.89"/><line style="stroke:#181818;stroke-width:0.5;" x1="516.08" x2="610.6591" y1="299.89" y2="299.89"/><ellipse cx="526.08" cy="313.4393" fill="#84BE84" rx="3" ry="3" style="stroke:#038048;stroke-width:1;"/><text fill="#000000" font-family="sans-serif" font-size="14" lengthAdjust="spacing" textLength="58.3584" x="535.08" y="317.0218">execute()</text><ellipse cx="526.08" cy="329.5379" fill="#84BE84" rx="3" ry="3" style="stroke:#038048;stroke-width:1;"/><text fill="#000000" font-family="sans-serif" font-size="14" lengthAdjust="spacing" textLength="40.4688" x="535.08" y="333.1205">undo()</text></g><!--class Invoker--><g class="entity" data-entity="Invoker" data-source-line="8" data-uid="ent0003" id="entity_Invoker"><rect fill="#F1F1F1" height="128.4932" rx="2.5" ry="2.5" style="stroke:#181818;stroke-width:0.5;" width="468.7363" x="7" y="23.1"/><ellipse cx="214.1631" cy="39.1" fill="#ADD1B2" rx="11" ry="11" style="stroke:#181818;stroke-width:1;"/><path d="M214.3975,45.7719 Q213.1943,45.7719 212.3037,45.3187 Q211.4287,44.8656 210.9443,44.0531 Q210.46,43.225 210.46,42.1 L210.46,36.6937 Q210.46,35.5687 210.9443,34.7562 Q211.4287,33.9281 212.3037,33.475 Q213.1943,33.0219 214.3975,33.0219 Q215.585,33.0219 216.46,33.475 Q217.3506,33.9281 217.8506,34.7562 Q218.3506,35.5687 218.3506,36.6937 L216.1943,36.6937 Q216.1943,35.8187 215.7256,35.3656 Q215.2725,34.8969 214.3975,34.8969 Q213.5381,34.8969 213.0537,35.3656 Q212.585,35.8187 212.585,36.6937 L212.585,42.1 Q212.585,42.9594 213.0537,43.4281 Q213.5381,43.8969 214.3975,43.8969 Q215.2725,43.8969 215.7256,43.4281 Q216.1943,42.9594 216.1943,42.1 L218.3506,42.1 Q218.3506,43.225 217.8506,44.0531 Q217.3506,44.8656 216.46,45.3187 Q215.585,45.7719 214.3975,45.7719 Z " fill="#000000"/><text fill="#000000" font-family="sans-serif" font-size="14" lengthAdjust="spacing" textLength="45.9102" x="234.6631" y="44.1825">Invoker</text><line style="stroke:#181818;stroke-width:0.5;" x1="8" x2="474.7363" y1="55.1" y2="55.1"/><ellipse cx="18" cy="68.6493" fill="none" rx="3" ry="3" style="stroke:#038048;stroke-width:1;"/><text fill="#000000" font-family="sans-serif" font-size="14" lengthAdjust="spacing" textLength="215.5234" x="27" y="72.2318">commandHistory: List&lt;Command&gt;</text><line style="stroke:#181818;stroke-width:0.5;" x1="8" x2="474.7363" y1="79.1986" y2="79.1986"/><text fill="#000000" font-family="sans-serif" font-size="14" lengthAdjust="spacing" textLength="55.2344" x="27" y="96.3305">Invoker()</text><ellipse cx="18" cy="108.8466" fill="#84BE84" rx="3" ry="3" style="stroke:#038048;stroke-width:1;"/><text fill="#000000" font-family="sans-serif" font-size="14" lengthAdjust="spacing" textLength="317.4609" x="27" y="112.4291">invokeBehavior1(param: String, receiver: Receiver)</text><ellipse cx="18" cy="124.9452" fill="#84BE84" rx="3" ry="3" style="stroke:#038048;stroke-width:1;"/><text fill="#000000" font-family="sans-serif" font-size="14" lengthAdjust="spacing" textLength="442.7363" x="27" y="128.5277">invokeBehavior2(param: String, otherParam: String, receiver: Receiver)</text><ellipse cx="18" cy="141.0438" fill="#84BE84" rx="3" ry="3" style="stroke:#038048;stroke-width:1;"/><text fill="#000000" font-family="sans-serif" font-size="14" lengthAdjust="spacing" textLength="159.5166" x="27" y="144.6264">undoPreviousCommand()</text></g><!--class Receiver--><g class="entity" data-entity="Receiver" data-source-line="18" data-uid="ent0004" id="entity_Receiver"><rect fill="#F1F1F1" height="144.5918" rx="2.5" ry="2.5" style="stroke:#181818;stroke-width:0.5;" width="306.123" x="646.31" y="227.69"/><ellipse cx="767.5009" cy="243.69" fill="#ADD1B2" rx="11" ry="11" style="stroke:#181818;stroke-width:1;"/><path d="M767.7353,250.3619 Q766.5322,250.3619 765.6415,249.9087 Q764.7665,249.4556 764.2822,248.6431 Q763.7978,247.815 763.7978,246.69 L763.7978,241.2837 Q763.7978,240.1587 764.2822,239.3462 Q764.7665,238.5181 765.6415,238.065 Q766.5322,237.6119 767.7353,237.6119 Q768.9228,237.6119 769.7978,238.065 Q770.6884,238.5181 771.1884,239.3462 Q771.6884,240.1587 771.6884,241.2837 L769.5322,241.2837 Q769.5322,240.4087 769.0634,239.9556 Q768.6103,239.4869 767.7353,239.4869 Q766.8759,239.4869 766.3915,239.9556 Q765.9228,240.4087 765.9228,241.2837 L765.9228,246.69 Q765.9228,247.5494 766.3915,248.0181 Q766.8759,248.4869 767.7353,248.4869 Q768.6103,248.4869 769.0634,248.0181 Q769.5322,247.5494 769.5322,246.69 L771.6884,246.69 Q771.6884,247.815 771.1884,248.6431 Q770.6884,249.4556 769.7978,249.9087 Q768.9228,250.3619 767.7353,250.3619 Z " fill="#000000"/><text fill="#000000" font-family="sans-serif" font-size="14" lengthAdjust="spacing" textLength="55.2412" x="788.0009" y="248.7725">Receiver</text><line style="stroke:#181818;stroke-width:0.5;" x1="647.31" x2="951.433" y1="259.69" y2="259.69"/><ellipse cx="657.31" cy="273.2393" fill="none" rx="3" ry="3" style="stroke:#038048;stroke-width:1;"/><text fill="#000000" font-family="sans-serif" font-size="14" lengthAdjust="spacing" textLength="97.2754" x="666.31" y="276.8218">contents: String</text><line style="stroke:#181818;stroke-width:0.5;" x1="647.31" x2="951.433" y1="283.7886" y2="283.7886"/><text fill="#000000" font-family="sans-serif" font-size="14" lengthAdjust="spacing" textLength="64.5654" x="666.31" y="300.9205">Receiver()</text><ellipse cx="657.31" cy="313.4366" fill="#84BE84" rx="3" ry="3" style="stroke:#038048;stroke-width:1;"/><text fill="#000000" font-family="sans-serif" font-size="14" lengthAdjust="spacing" textLength="154.8477" x="666.31" y="317.0191">behavior1(param: String)</text><ellipse cx="657.31" cy="329.5352" fill="#84BE84" rx="3" ry="3" style="stroke:#038048;stroke-width:1;"/><text fill="#000000" font-family="sans-serif" font-size="14" lengthAdjust="spacing" textLength="280.123" x="666.31" y="333.1177">behavior2(param: String, otherParam: String)</text><ellipse cx="657.31" cy="345.6338" fill="#84BE84" rx="3" ry="3" style="stroke:#038048;stroke-width:1;"/><text fill="#000000" font-family="sans-serif" font-size="14" lengthAdjust="spacing" textLength="101.917" x="666.31" y="349.2164">copy(): Receiver</text><ellipse cx="657.31" cy="361.7325" fill="#84BE84" rx="3" ry="3" style="stroke:#038048;stroke-width:1;"/><text fill="#000000" font-family="sans-serif" font-size="14" lengthAdjust="spacing" textLength="52.8965" x="666.31" y="365.315">restore()</text></g><!--class RealCommand1--><g class="entity" data-entity="RealCommand1" data-source-line="29" data-uid="ent0005" id="entity_RealCommand1"><rect fill="#F1F1F1" height="144.5918" rx="2.5" ry="2.5" style="stroke:#181818;stroke-width:0.5;" width="341.1094" x="510.81" y="15.05"/><ellipse cx="626.5356" cy="31.05" fill="#ADD1B2" rx="11" ry="11" style="stroke:#181818;stroke-width:1;"/><path d="M626.77,37.7219 Q625.5668,37.7219 624.6762,37.2687 Q623.8012,36.8156 623.3168,36.0031 Q622.8325,35.175 622.8325,34.05 L622.8325,28.6437 Q622.8325,27.5187 623.3168,26.7062 Q623.8012,25.8781 624.6762,25.425 Q625.5668,24.9719 626.77,24.9719 Q627.9575,24.9719 628.8325,25.425 Q629.7231,25.8781 630.2231,26.7062 Q630.7231,27.5187 630.7231,28.6437 L628.5668,28.6437 Q628.5668,27.7687 628.0981,27.3156 Q627.645,26.8469 626.77,26.8469 Q625.9106,26.8469 625.4262,27.3156 Q624.9575,27.7687 624.9575,28.6437 L624.9575,34.05 Q624.9575,34.9094 625.4262,35.3781 Q625.9106,35.8469 626.77,35.8469 Q627.645,35.8469 628.0981,35.3781 Q628.5668,34.9094 628.5668,34.05 L630.7231,34.05 Q630.7231,35.175 630.2231,36.0031 Q629.7231,36.8156 628.8325,37.2687 Q627.9575,37.7219 626.77,37.7219 Z " fill="#000000"/><text fill="#000000" font-family="sans-serif" font-size="14" lengthAdjust="spacing" textLength="101.1582" x="647.0356" y="36.1325">RealCommand1</text><line style="stroke:#181818;stroke-width:0.5;" x1="511.81" x2="850.9194" y1="47.05" y2="47.05"/><ellipse cx="521.81" cy="60.5993" fill="none" rx="3" ry="3" style="stroke:#038048;stroke-width:1;"/><text fill="#000000" font-family="sans-serif" font-size="14" lengthAdjust="spacing" textLength="108.165" x="530.81" y="64.1818">backup: Receiver</text><ellipse cx="521.81" cy="76.6979" fill="none" rx="3" ry="3" style="stroke:#038048;stroke-width:1;"/><text fill="#000000" font-family="sans-serif" font-size="14" lengthAdjust="spacing" textLength="84.0342" x="530.81" y="80.2805">param: String</text><ellipse cx="521.81" cy="92.7966" fill="none" rx="3" ry="3" style="stroke:#038048;stroke-width:1;"/><text fill="#000000" font-family="sans-serif" font-size="14" lengthAdjust="spacing" textLength="112.8135" x="530.81" y="96.3791">receiver: Receiver</text><line style="stroke:#181818;stroke-width:0.5;" x1="511.81" x2="850.9194" y1="103.3459" y2="103.3459"/><text fill="#000000" font-family="sans-serif" font-size="14" lengthAdjust="spacing" textLength="315.1094" x="530.81" y="120.4777">RealCommand1(param: String, receiver: Receiver)</text><ellipse cx="521.81" cy="132.9938" fill="#84BE84" rx="3" ry="3" style="stroke:#038048;stroke-width:1;"/><text fill="#000000" font-family="sans-serif" font-size="14" lengthAdjust="spacing" textLength="58.3584" x="530.81" y="136.5764">execute()</text><ellipse cx="521.81" cy="149.0925" fill="#84BE84" rx="3" ry="3" style="stroke:#038048;stroke-width:1;"/><text fill="#000000" font-family="sans-serif" font-size="14" lengthAdjust="spacing" textLength="40.4688" x="530.81" y="152.675">undo()</text></g><!--class RealCommand2--><g class="entity" data-entity="RealCommand2" data-source-line="40" data-uid="ent0007" id="entity_RealCommand2"><rect fill="#F1F1F1" height="160.6904" rx="2.5" ry="2.5" style="stroke:#181818;stroke-width:0.5;" width="466.3848" x="887.18" y="7"/><ellipse cx="1065.5433" cy="23" fill="#ADD1B2" rx="11" ry="11" style="stroke:#181818;stroke-width:1;"/><path d="M1065.7777,29.6719 Q1064.5745,29.6719 1063.6839,29.2188 Q1062.8089,28.7656 1062.3245,27.9531 Q1061.8402,27.125 1061.8402,26 L1061.8402,20.5938 Q1061.8402,19.4688 1062.3245,18.6563 Q1062.8089,17.8281 1063.6839,17.375 Q1064.5745,16.9219 1065.7777,16.9219 Q1066.9652,16.9219 1067.8402,17.375 Q1068.7308,17.8281 1069.2308,18.6563 Q1069.7308,19.4688 1069.7308,20.5938 L1067.5745,20.5938 Q1067.5745,19.7188 1067.1058,19.2656 Q1066.6527,18.7969 1065.7777,18.7969 Q1064.9183,18.7969 1064.4339,19.2656 Q1063.9652,19.7188 1063.9652,20.5938 L1063.9652,26 Q1063.9652,26.8594 1064.4339,27.3281 Q1064.9183,27.7969 1065.7777,27.7969 Q1066.6527,27.7969 1067.1058,27.3281 Q1067.5745,26.8594 1067.5745,26 L1069.7308,26 Q1069.7308,27.125 1069.2308,27.9531 Q1068.7308,28.7656 1067.8402,29.2188 Q1066.9652,29.6719 1065.7777,29.6719 Z " fill="#000000"/><text fill="#000000" font-family="sans-serif" font-size="14" lengthAdjust="spacing" textLength="101.1582" x="1086.0433" y="28.0825">RealCommand2</text><line style="stroke:#181818;stroke-width:0.5;" x1="888.18" x2="1352.5648" y1="39" y2="39"/><ellipse cx="898.18" cy="52.5493" fill="none" rx="3" ry="3" style="stroke:#038048;stroke-width:1;"/><text fill="#000000" font-family="sans-serif" font-size="14" lengthAdjust="spacing" textLength="108.165" x="907.18" y="56.1318">backup: Receiver</text><ellipse cx="898.18" cy="68.6479" fill="none" rx="3" ry="3" style="stroke:#038048;stroke-width:1;"/><text fill="#000000" font-family="sans-serif" font-size="14" lengthAdjust="spacing" textLength="117.4961" x="907.18" y="72.2305">otherParam: String</text><ellipse cx="898.18" cy="84.7466" fill="none" rx="3" ry="3" style="stroke:#038048;stroke-width:1;"/><text fill="#000000" font-family="sans-serif" font-size="14" lengthAdjust="spacing" textLength="84.0342" x="907.18" y="88.3291">param: String</text><ellipse cx="898.18" cy="100.8452" fill="none" rx="3" ry="3" style="stroke:#038048;stroke-width:1;"/><text fill="#000000" font-family="sans-serif" font-size="14" lengthAdjust="spacing" textLength="112.8135" x="907.18" y="104.4277">receiver: Receiver</text><line style="stroke:#181818;stroke-width:0.5;" x1="888.18" x2="1352.5648" y1="111.3945" y2="111.3945"/><text fill="#000000" font-family="sans-serif" font-size="14" lengthAdjust="spacing" textLength="440.3848" x="907.18" y="128.5264">RealCommand2(param: String, otherParam: String, receiver: Receiver)</text><ellipse cx="898.18" cy="141.0425" fill="#84BE84" rx="3" ry="3" style="stroke:#038048;stroke-width:1;"/><text fill="#000000" font-family="sans-serif" font-size="14" lengthAdjust="spacing" textLength="58.3584" x="907.18" y="144.625">execute()</text><ellipse cx="898.18" cy="157.1411" fill="#84BE84" rx="3" ry="3" style="stroke:#038048;stroke-width:1;"/><text fill="#000000" font-family="sans-serif" font-size="14" lengthAdjust="spacing" textLength="40.4688" x="907.18" y="160.7236">undo()</text></g><!--link RealCommand1 to Command--><g class="link" data-entity-1="RealCommand1" data-entity-2="Command" data-source-line="38" data-uid="lnk6" id="link_RealCommand1_Command"><path codeLine="38" d="M641.25,159.95 C622.61,193.23 609.9559,215.8155 594.2959,243.7755" fill="none" id="RealCommand1-to-Command" style="stroke:#181818;stroke-width:1;stroke-dasharray:7,7;"/><polygon fill="none" points="585.5,259.48,599.5307,246.7074,589.061,240.8435,585.5,259.48" style="stroke:#181818;stroke-width:1;"/></g><!--link RealCommand2 to Command--><g class="link" data-entity-1="RealCommand2" data-entity-2="Command" data-source-line="50" data-uid="lnk8" id="link_RealCommand2_Command"><path codeLine="50" d="M886.7,162.73 C880.87,164.42 875.09,166.07 869.37,167.69 C763.14,197.67 723.17,171.15 628.37,227.69 C614.7,235.84 614.0774,234.2086 603.7874,245.9786" fill="none" id="RealCommand2-to-Command" style="stroke:#181818;stroke-width:1;stroke-dasharray:7,7;"/><polygon fill="none" points="591.94,259.53,608.3045,249.9278,599.2703,242.0295,591.94,259.53" style="stroke:#181818;stroke-width:1;"/></g><!--link Invoker to Receiver--><g class="link" data-entity-1="Invoker" data-entity-2="Receiver" data-source-line="52" data-uid="lnk9" id="link_Invoker_Receiver"><path codeLine="52" d="M424.68,151.96 C489.6,175.07 563,201.87 629.37,227.69 C634.89,229.83 634.9144,229.8236 640.5744,232.0736" fill="none" id="Invoker-to-Receiver" style="stroke:#181818;stroke-width:1;stroke-dasharray:7,7;"/><polygon fill="#181818" points="646.15,234.29,639.2642,227.2483,641.5037,232.443,636.309,234.6824,646.15,234.29" style="stroke:#181818;stroke-width:1;"/></g><!--link Invoker to Command--><g class="link" data-entity-1="Invoker" data-entity-2="Command" data-source-line="53" data-uid="lnk10" id="link_Invoker_Command"><path codeLine="53" d="M338.42,151.83 C396.75,189.99 463.4292,233.605 509.9692,264.055" fill="none" id="Invoker-to-Command" style="stroke:#181818;stroke-width:1;stroke-dasharray:7,7;"/><polygon fill="#181818" points="514.99,267.34,509.6488,259.0653,510.806,264.6025,505.2688,265.7597,514.99,267.34" style="stroke:#181818;stroke-width:1;"/></g><!--link RealCommand1 to Receiver--><g class="link" data-entity-1="RealCommand1" data-entity-2="Receiver" data-source-line="54" data-uid="lnk11" id="link_RealCommand1_Receiver"><path codeLine="54" d="M721.48,159.95 C733.64,181.66 744.069,200.2646 756.229,221.9846" fill="none" id="RealCommand1-to-Receiver" style="stroke:#181818;stroke-width:1;stroke-dasharray:7,7;"/><polygon fill="#181818" points="759.16,227.22,758.2537,217.4129,756.7175,222.8572,751.2732,221.321,759.16,227.22" style="stroke:#181818;stroke-width:1;"/></g><!--link RealCommand2 to Receiver--><g class="link" data-entity-1="RealCommand2" data-entity-2="Receiver" data-source-line="55" data-uid="lnk12" id="link_RealCommand2_Receiver"><path codeLine="55" d="M999.01,167.98 C969.36,187.43 942.8266,204.8486 913.7766,223.9086" fill="none" id="RealCommand2-to-Receiver" style="stroke:#181818;stroke-width:1;stroke-dasharray:7,7;"/><polygon fill="#181818" points="908.76,227.2,918.4792,225.6072,912.9405,224.4571,914.0906,218.9184,908.76,227.2" style="stroke:#181818;stroke-width:1;"/></g><!--SRC=[jPF1JiCm38RlUGeVMu4chSSAzG0Na3XCy0HPPbYqDQcSj682tfqCtAPBXwY4rbFisB__pssryKWlKY7SsRgMPYFU1OJd2l0DLUinopbkpSQ6u5C8eVRIENWmdTqXSGD7GxdwaRlNpbiwbF0O3ZSye-8Q_TrpYrlPQKlBh94awnAUFMdpUWs42dM7LC8Jd_ApZKNQQFqMQJLNx0Ys8WnAhME39vnzFOFsuOWqxD1ury_YzFeyLfvSpp0V1pM7B8y0d2OyhXWJptBFBCl1TqpDt_HQgbtRJ6QUz0y-Kf6_lgIn9LWiFghX8vnY55ECVxxtNz2c8fTYBX9c_eL2jefousHVcUnjL9senvil]--></g></svg>