<svg xmlns="http://www.w3.org/2000/svg" xmlns:xlink="http://www.w3.org/1999/xlink" contentStyleType="text/css" data-diagram-type="CLASS" height="659px" preserveAspectRatio="none" style="width:952px;height:659px;background:#FFFFFF;" version="1.1" viewBox="0 0 952 659" width="952px" zoomAndPan="magnify"><defs/><g><!--class Collection--><g class="entity" data-entity="Collection" data-source-line="1" data-uid="ent0002" id="entity_Collection"><rect fill="#F1F1F1" height="64.0986" rx="2.5" ry="2.5" style="stroke:#181818;stroke-width:0.5;" width="182.3926" x="214.17" y="448.38"/><ellipse cx="270.3785" cy="464.38" fill="#B4A7E5" rx="11" ry="11" style="stroke:#181818;stroke-width:1;"/><path d="M266.4097,470.88 L266.4097,468.9581 L268.9097,468.9581 L268.9097,460.3956 L266.4097,460.3956 L266.4097,458.4737 L273.5504,458.4737 L273.5504,460.3956 L271.0504,460.3956 L271.0504,468.9581 L273.5504,468.9581 L273.5504,470.88 L266.4097,470.88 Z " fill="#000000"/><text fill="#000000" font-family="sans-serif" font-size="14" font-style="italic" lengthAdjust="spacing" textLength="61.4756" x="290.8785" y="469.4625">Collection</text><line style="stroke:#181818;stroke-width:0.5;" x1="215.17" x2="395.5626" y1="480.38" y2="480.38"/><line style="stroke:#181818;stroke-width:0.5;" x1="215.17" x2="395.5626" y1="488.38" y2="488.38"/><ellipse cx="225.17" cy="501.9293" fill="#84BE84" rx="3" ry="3" style="stroke:#038048;stroke-width:1;"/><text fill="#000000" font-family="sans-serif" font-size="14" lengthAdjust="spacing" textLength="156.3926" x="234.17" y="505.5118">newIterator(): Iterator&lt;T&gt;</text></g><!--class Iterator--><g class="entity" data-entity="Iterator" data-source-line="7" data-uid="ent0003" id="entity_Iterator"><rect fill="#F1F1F1" height="80.1973" rx="2.5" ry="2.5" style="stroke:#181818;stroke-width:0.5;" width="145.8408" x="304.45" y="572.48"/><ellipse cx="350.9446" cy="588.48" fill="#B4A7E5" rx="11" ry="11" style="stroke:#181818;stroke-width:1;"/><path d="M346.9759,594.98 L346.9759,593.0581 L349.4759,593.0581 L349.4759,584.4956 L346.9759,584.4956 L346.9759,582.5737 L354.1165,582.5737 L354.1165,584.4956 L351.6165,584.4956 L351.6165,593.0581 L354.1165,593.0581 L354.1165,594.98 L346.9759,594.98 Z " fill="#000000"/><text fill="#000000" font-family="sans-serif" font-size="14" font-style="italic" lengthAdjust="spacing" textLength="44.3516" x="371.4446" y="593.5625">Iterator</text><line style="stroke:#181818;stroke-width:0.5;" x1="305.45" x2="449.2908" y1="604.48" y2="604.48"/><line style="stroke:#181818;stroke-width:0.5;" x1="305.45" x2="449.2908" y1="612.48" y2="612.48"/><ellipse cx="315.45" cy="626.0293" fill="#84BE84" rx="3" ry="3" style="stroke:#038048;stroke-width:1;"/><text fill="#000000" font-family="sans-serif" font-size="14" lengthAdjust="spacing" textLength="119.8408" x="324.45" y="629.6118">hasNext(): Boolean</text><ellipse cx="315.45" cy="642.1279" fill="#84BE84" rx="3" ry="3" style="stroke:#038048;stroke-width:1;"/><text fill="#000000" font-family="sans-serif" font-size="14" lengthAdjust="spacing" textLength="52.1172" x="324.45" y="645.7105">next(): T</text></g><!--class ListIterator--><g class="entity" data-entity="ListIterator" data-source-line="14" data-uid="ent0004" id="entity_ListIterator"><rect fill="#F1F1F1" height="128.4932" rx="2.5" ry="2.5" style="stroke:#181818;stroke-width:0.5;" width="254.7373" x="7" y="15.05"/><ellipse cx="97.0498" cy="31.05" fill="#ADD1B2" rx="11" ry="11" style="stroke:#181818;stroke-width:1;"/><path d="M97.2842,37.7219 Q96.0811,37.7219 95.1904,37.2687 Q94.3154,36.8156 93.8311,36.0031 Q93.3467,35.175 93.3467,34.05 L93.3467,28.6437 Q93.3467,27.5187 93.8311,26.7062 Q94.3154,25.8781 95.1904,25.425 Q96.0811,24.9719 97.2842,24.9719 Q98.4717,24.9719 99.3467,25.425 Q100.2373,25.8781 100.7373,26.7062 Q101.2373,27.5187 101.2373,28.6437 L99.0811,28.6437 Q99.0811,27.7687 98.6123,27.3156 Q98.1592,26.8469 97.2842,26.8469 Q96.4248,26.8469 95.9404,27.3156 Q95.4717,27.7687 95.4717,28.6437 L95.4717,34.05 Q95.4717,34.9094 95.9404,35.3781 Q96.4248,35.8469 97.2842,35.8469 Q98.1592,35.8469 98.6123,35.3781 Q99.0811,34.9094 99.0811,34.05 L101.2373,34.05 Q101.2373,35.175 100.7373,36.0031 Q100.2373,36.8156 99.3467,37.2687 Q98.4717,37.7219 97.2842,37.7219 Z " fill="#000000"/><text fill="#000000" font-family="sans-serif" font-size="14" lengthAdjust="spacing" textLength="66.1377" x="117.5498" y="36.1325">ListIterator</text><line style="stroke:#181818;stroke-width:0.5;" x1="8" x2="260.7373" y1="47.05" y2="47.05"/><rect fill="none" height="6" style="stroke:#C82930;stroke-width:1;" width="6" x="15" y="57.5993"/><text fill="#000000" font-family="sans-serif" font-size="14" lengthAdjust="spacing" textLength="101.165" x="27" y="64.1818">currentIndex: Int</text><rect fill="none" height="6" style="stroke:#C82930;stroke-width:1;" width="6" x="15" y="73.6979"/><text fill="#000000" font-family="sans-serif" font-size="14" lengthAdjust="spacing" textLength="153.2754" x="27" y="80.2805">traversedList: MyList&lt;T&gt;</text><line style="stroke:#181818;stroke-width:0.5;" x1="8" x2="260.7373" y1="87.2473" y2="87.2473"/><text fill="#000000" font-family="sans-serif" font-size="14" lengthAdjust="spacing" textLength="228.7373" x="27" y="104.3791">ListIterator(traversedList: MyList&lt;T&gt;)</text><ellipse cx="18" cy="116.8952" fill="#84BE84" rx="3" ry="3" style="stroke:#038048;stroke-width:1;"/><text fill="#000000" font-family="sans-serif" font-size="14" lengthAdjust="spacing" textLength="119.8408" x="27" y="120.4777">hasNext(): Boolean</text><ellipse cx="18" cy="132.9938" fill="#84BE84" rx="3" ry="3" style="stroke:#038048;stroke-width:1;"/><text fill="#000000" font-family="sans-serif" font-size="14" lengthAdjust="spacing" textLength="52.1172" x="27" y="136.5764">next(): T</text></g><!--class ReverseListIterator--><g class="entity" data-entity="ReverseListIterator" data-source-line="24" data-uid="ent0006" id="entity_ReverseListIterator"><rect fill="#F1F1F1" height="128.4932" rx="2.5" ry="2.5" style="stroke:#181818;stroke-width:0.5;" width="306.8682" x="296.93" y="15.05"/><ellipse cx="386.9798" cy="31.05" fill="#ADD1B2" rx="11" ry="11" style="stroke:#181818;stroke-width:1;"/><path d="M387.2142,37.7219 Q386.0111,37.7219 385.1204,37.2687 Q384.2454,36.8156 383.7611,36.0031 Q383.2767,35.175 383.2767,34.05 L383.2767,28.6437 Q383.2767,27.5187 383.7611,26.7062 Q384.2454,25.8781 385.1204,25.425 Q386.0111,24.9719 387.2142,24.9719 Q388.4017,24.9719 389.2767,25.425 Q390.1673,25.8781 390.6673,26.7062 Q391.1673,27.5187 391.1673,28.6437 L389.0111,28.6437 Q389.0111,27.7687 388.5423,27.3156 Q388.0892,26.8469 387.2142,26.8469 Q386.3548,26.8469 385.8704,27.3156 Q385.4017,27.7687 385.4017,28.6437 L385.4017,34.05 Q385.4017,34.9094 385.8704,35.3781 Q386.3548,35.8469 387.2142,35.8469 Q388.0892,35.8469 388.5423,35.3781 Q389.0111,34.9094 389.0111,34.05 L391.1673,34.05 Q391.1673,35.175 390.6673,36.0031 Q390.1673,36.8156 389.2767,37.2687 Q388.4017,37.7219 387.2142,37.7219 Z " fill="#000000"/><text fill="#000000" font-family="sans-serif" font-size="14" lengthAdjust="spacing" textLength="118.2686" x="407.4798" y="36.1325">ReverseListIterator</text><line style="stroke:#181818;stroke-width:0.5;" x1="297.93" x2="602.7982" y1="47.05" y2="47.05"/><rect fill="none" height="6" style="stroke:#C82930;stroke-width:1;" width="6" x="304.93" y="57.5993"/><text fill="#000000" font-family="sans-serif" font-size="14" lengthAdjust="spacing" textLength="101.165" x="316.93" y="64.1818">currentIndex: Int</text><rect fill="none" height="6" style="stroke:#C82930;stroke-width:1;" width="6" x="304.93" y="73.6979"/><text fill="#000000" font-family="sans-serif" font-size="14" lengthAdjust="spacing" textLength="153.2754" x="316.93" y="80.2805">traversedList: MyList&lt;T&gt;</text><line style="stroke:#181818;stroke-width:0.5;" x1="297.93" x2="602.7982" y1="87.2473" y2="87.2473"/><text fill="#000000" font-family="sans-serif" font-size="14" lengthAdjust="spacing" textLength="280.8682" x="316.93" y="104.3791">ReverseListIterator(traversedList: MyList&lt;T&gt;)</text><ellipse cx="307.93" cy="116.8952" fill="#84BE84" rx="3" ry="3" style="stroke:#038048;stroke-width:1;"/><text fill="#000000" font-family="sans-serif" font-size="14" lengthAdjust="spacing" textLength="119.8408" x="316.93" y="120.4777">hasNext(): Boolean</text><ellipse cx="307.93" cy="132.9938" fill="#84BE84" rx="3" ry="3" style="stroke:#038048;stroke-width:1;"/><text fill="#000000" font-family="sans-serif" font-size="14" lengthAdjust="spacing" textLength="52.1172" x="316.93" y="136.5764">next(): T</text></g><!--class MyList--><g class="entity" data-entity="MyList" data-source-line="34" data-uid="ent0008" id="entity_MyList"><rect fill="#F1F1F1" height="128.4932" rx="2.5" ry="2.5" style="stroke:#181818;stroke-width:0.5;" width="205.751" x="190.49" y="235.74"/><ellipse cx="268.8914" cy="251.74" fill="#ADD1B2" rx="11" ry="11" style="stroke:#181818;stroke-width:1;"/><path d="M269.1257,258.4119 Q267.9226,258.4119 267.032,257.9587 Q266.157,257.5056 265.6726,256.6931 Q265.1882,255.865 265.1882,254.74 L265.1882,249.3337 Q265.1882,248.2087 265.6726,247.3962 Q266.157,246.5681 267.032,246.115 Q267.9226,245.6619 269.1257,245.6619 Q270.3132,245.6619 271.1882,246.115 Q272.0789,246.5681 272.5789,247.3962 Q273.0789,248.2087 273.0789,249.3337 L270.9226,249.3337 Q270.9226,248.4587 270.4539,248.0056 Q270.0007,247.5369 269.1257,247.5369 Q268.2664,247.5369 267.782,248.0056 Q267.3132,248.4587 267.3132,249.3337 L267.3132,254.74 Q267.3132,255.5994 267.782,256.0681 Q268.2664,256.5369 269.1257,256.5369 Q270.0007,256.5369 270.4539,256.0681 Q270.9226,255.5994 270.9226,254.74 L273.0789,254.74 Q273.0789,255.865 272.5789,256.6931 Q272.0789,257.5056 271.1882,257.9587 Q270.3132,258.4119 269.1257,258.4119 Z " fill="#000000"/><text fill="#000000" font-family="sans-serif" font-size="14" lengthAdjust="spacing" textLength="40.4482" x="289.3914" y="256.8225">MyList</text><line style="stroke:#181818;stroke-width:0.5;" x1="191.49" x2="395.241" y1="267.74" y2="267.74"/><rect fill="none" height="6" style="stroke:#C82930;stroke-width:1;" width="6" x="198.49" y="278.2893"/><text fill="#000000" font-family="sans-serif" font-size="14" lengthAdjust="spacing" textLength="111.2754" x="210.49" y="284.8718">elements: List&lt;T&gt;</text><line style="stroke:#181818;stroke-width:0.5;" x1="191.49" x2="395.241" y1="291.8386" y2="291.8386"/><text fill="#000000" font-family="sans-serif" font-size="14" lengthAdjust="spacing" textLength="161.0479" x="210.49" y="308.9705">MyList(elements: List&lt;T&gt;)</text><ellipse cx="201.49" cy="321.4866" fill="#84BE84" rx="3" ry="3" style="stroke:#038048;stroke-width:1;"/><text fill="#000000" font-family="sans-serif" font-size="14" lengthAdjust="spacing" textLength="179.751" x="210.49" y="325.0691">elementAtIndex(index: Int): T</text><ellipse cx="201.49" cy="337.5852" fill="#84BE84" rx="3" ry="3" style="stroke:#038048;stroke-width:1;"/><text fill="#000000" font-family="sans-serif" font-size="14" lengthAdjust="spacing" textLength="178.1787" x="210.49" y="341.1677">newIterator(): ListIterator&lt;T&gt;</text><ellipse cx="201.49" cy="353.6838" fill="#84BE84" rx="3" ry="3" style="stroke:#038048;stroke-width:1;"/><text fill="#000000" font-family="sans-serif" font-size="14" lengthAdjust="spacing" textLength="57.5654" x="210.49" y="357.2664">size(): Int</text></g><!--class MyBTree--><g class="entity" data-entity="MyBTree" data-source-line="44" data-uid="ent0010" id="entity_MyBTree"><rect fill="#F1F1F1" height="176.7891" rx="2.5" ry="2.5" style="stroke:#181818;stroke-width:0.5;" width="382.3164" x="502.21" y="211.59"/><ellipse cx="660.7251" cy="227.59" fill="#ADD1B2" rx="11" ry="11" style="stroke:#181818;stroke-width:1;"/><path d="M660.9595,234.2619 Q659.7564,234.2619 658.8658,233.8087 Q657.9908,233.3556 657.5064,232.5431 Q657.022,231.715 657.022,230.59 L657.022,225.1837 Q657.022,224.0587 657.5064,223.2462 Q657.9908,222.4181 658.8658,221.965 Q659.7564,221.5119 660.9595,221.5119 Q662.147,221.5119 663.022,221.965 Q663.9126,222.4181 664.4126,223.2462 Q664.9126,224.0587 664.9126,225.1837 L662.7564,225.1837 Q662.7564,224.3087 662.2876,223.8556 Q661.8345,223.3869 660.9595,223.3869 Q660.1001,223.3869 659.6158,223.8556 Q659.147,224.3087 659.147,225.1837 L659.147,230.59 Q659.147,231.4494 659.6158,231.9181 Q660.1001,232.3869 660.9595,232.3869 Q661.8345,232.3869 662.2876,231.9181 Q662.7564,231.4494 662.7564,230.59 L664.9126,230.59 Q664.9126,231.715 664.4126,232.5431 Q663.9126,233.3556 663.022,233.8087 Q662.147,234.2619 660.9595,234.2619 Z " fill="#000000"/><text fill="#000000" font-family="sans-serif" font-size="14" lengthAdjust="spacing" textLength="56.7861" x="681.2251" y="232.6725">MyBTree</text><line style="stroke:#181818;stroke-width:0.5;" x1="503.21" x2="883.5264" y1="243.59" y2="243.59"/><rect fill="none" height="6" style="stroke:#C82930;stroke-width:1;" width="6" x="510.21" y="254.1393"/><text fill="#000000" font-family="sans-serif" font-size="14" lengthAdjust="spacing" textLength="108.1445" x="522.21" y="260.7218">left: MyBTree&lt;T&gt;</text><rect fill="none" height="6" style="stroke:#C82930;stroke-width:1;" width="6" x="510.21" y="270.2379"/><text fill="#000000" font-family="sans-serif" font-size="14" lengthAdjust="spacing" textLength="116.7031" x="522.21" y="276.8205">right: MyBTree&lt;T&gt;</text><rect fill="none" height="6" style="stroke:#C82930;stroke-width:1;" width="6" x="510.21" y="286.3366"/><text fill="#000000" font-family="sans-serif" font-size="14" lengthAdjust="spacing" textLength="49.7998" x="522.21" y="292.9191">value: T</text><line style="stroke:#181818;stroke-width:0.5;" x1="503.21" x2="883.5264" y1="299.8859" y2="299.8859"/><text fill="#000000" font-family="sans-serif" font-size="14" lengthAdjust="spacing" textLength="356.3164" x="522.21" y="317.0177">MyBTree(value: T, left: MyBTree&lt;T&gt;, right: MyBTree&lt;T&gt;)</text><ellipse cx="513.21" cy="329.5338" fill="#84BE84" rx="3" ry="3" style="stroke:#038048;stroke-width:1;"/><text fill="#000000" font-family="sans-serif" font-size="14" lengthAdjust="spacing" textLength="117.4688" x="522.21" y="333.1164">left(): MyBTree&lt;T&gt;</text><ellipse cx="513.21" cy="345.6325" fill="#84BE84" rx="3" ry="3" style="stroke:#038048;stroke-width:1;"/><text fill="#000000" font-family="sans-serif" font-size="14" lengthAdjust="spacing" textLength="203.8545" x="522.21" y="349.215">newIterator(): InOrderIterator&lt;T&gt;</text><ellipse cx="513.21" cy="361.7311" fill="#84BE84" rx="3" ry="3" style="stroke:#038048;stroke-width:1;"/><text fill="#000000" font-family="sans-serif" font-size="14" lengthAdjust="spacing" textLength="126.0273" x="522.21" y="365.3136">right(): MyBTree&lt;T&gt;</text><ellipse cx="513.21" cy="377.8297" fill="#84BE84" rx="3" ry="3" style="stroke:#038048;stroke-width:1;"/><text fill="#000000" font-family="sans-serif" font-size="14" lengthAdjust="spacing" textLength="59.124" x="522.21" y="381.4123">value(): T</text></g><!--class InOrderIterator--><g class="entity" data-entity="InOrderIterator" data-source-line="57" data-uid="ent0012" id="entity_InOrderIterator"><rect fill="#F1F1F1" height="144.5918" rx="2.5" ry="2.5" style="stroke:#181818;stroke-width:0.5;" width="303.751" x="638.49" y="7"/><ellipse cx="740.2088" cy="23" fill="#ADD1B2" rx="11" ry="11" style="stroke:#181818;stroke-width:1;"/><path d="M740.4431,29.6719 Q739.24,29.6719 738.3494,29.2188 Q737.4744,28.7656 736.99,27.9531 Q736.5056,27.125 736.5056,26 L736.5056,20.5938 Q736.5056,19.4688 736.99,18.6563 Q737.4744,17.8281 738.3494,17.375 Q739.24,16.9219 740.4431,16.9219 Q741.6306,16.9219 742.5056,17.375 Q743.3963,17.8281 743.8963,18.6563 Q744.3963,19.4688 744.3963,20.5938 L742.24,20.5938 Q742.24,19.7188 741.7713,19.2656 Q741.3181,18.7969 740.4431,18.7969 Q739.5838,18.7969 739.0994,19.2656 Q738.6306,19.7188 738.6306,20.5938 L738.6306,26 Q738.6306,26.8594 739.0994,27.3281 Q739.5838,27.7969 740.4431,27.7969 Q741.3181,27.7969 741.7713,27.3281 Q742.24,26.8594 742.24,26 L744.3963,26 Q744.3963,27.125 743.8963,27.9531 Q743.3963,28.7656 742.5056,29.2188 Q741.6306,29.6719 740.4431,29.6719 Z " fill="#000000"/><text fill="#000000" font-family="sans-serif" font-size="14" lengthAdjust="spacing" textLength="91.8135" x="760.7088" y="28.0825">InOrderIterator</text><line style="stroke:#181818;stroke-width:0.5;" x1="639.49" x2="941.241" y1="39" y2="39"/><rect fill="none" height="6" style="stroke:#C82930;stroke-width:1;" width="6" x="646.49" y="49.5493"/><text fill="#000000" font-family="sans-serif" font-size="14" lengthAdjust="spacing" textLength="160.2822" x="658.49" y="56.1318">stack: List&lt;MyBTree&lt;T&gt;&gt;</text><rect fill="none" height="6" style="stroke:#C82930;stroke-width:1;" width="6" x="646.49" y="65.6479"/><text fill="#000000" font-family="sans-serif" font-size="14" lengthAdjust="spacing" textLength="176.6133" x="658.49" y="72.2305">traversedTree: MyBTree&lt;T&gt;</text><rect fill="none" height="6" style="stroke:#C82930;stroke-width:1;" width="6" x="646.49" y="81.7466"/><text fill="#000000" font-family="sans-serif" font-size="14" lengthAdjust="spacing" textLength="167.2891" x="658.49" y="88.3291">visited: List&lt;MyBTree&lt;T&gt;&gt;</text><line style="stroke:#181818;stroke-width:0.5;" x1="639.49" x2="941.241" y1="95.2959" y2="95.2959"/><text fill="#000000" font-family="sans-serif" font-size="14" lengthAdjust="spacing" textLength="277.751" x="658.49" y="112.4277">InOrderIterator(traversedTree: MyBTree&lt;T&gt;)</text><ellipse cx="649.49" cy="124.9438" fill="#84BE84" rx="3" ry="3" style="stroke:#038048;stroke-width:1;"/><text fill="#000000" font-family="sans-serif" font-size="14" lengthAdjust="spacing" textLength="119.8408" x="658.49" y="128.5264">hasNext(): Boolean</text><ellipse cx="649.49" cy="141.0425" fill="#84BE84" rx="3" ry="3" style="stroke:#038048;stroke-width:1;"/><text fill="#000000" font-family="sans-serif" font-size="14" lengthAdjust="spacing" textLength="52.1172" x="658.49" y="144.625">next(): T</text></g><!--link ListIterator to Iterator--><g class="link" data-entity-1="ListIterator" data-entity-2="Iterator" data-source-line="22" data-uid="lnk5" id="link_ListIterator_Iterator"><path codeLine="22" d="M126.26,143.87 C118.2,234.6 116.7,402.42 196.37,512.48 C222.63,548.76 249.7474,566.3968 287.6674,581.9568" fill="none" id="ListIterator-to-Iterator" style="stroke:#181818;stroke-width:1;stroke-dasharray:7,7;"/><polygon fill="none" points="304.32,588.79,289.9452,576.406,285.3897,587.5077,304.32,588.79" style="stroke:#181818;stroke-width:1;"/></g><!--link ReverseListIterator to Iterator--><g class="link" data-entity-1="ReverseListIterator" data-entity-2="Iterator" data-source-line="32" data-uid="lnk7" id="link_ReverseListIterator_Iterator"><path codeLine="32" d="M450.49,143.74 C449.42,228.71 443.19,383.72 414.37,512.48 C409.84,532.73 408.8493,537.7333 401.6093,555.6333" fill="none" id="ReverseListIterator-to-Iterator" style="stroke:#181818;stroke-width:1;stroke-dasharray:7,7;"/><polygon fill="none" points="394.86,572.32,407.1715,557.883,396.047,553.3835,394.86,572.32" style="stroke:#181818;stroke-width:1;"/></g><!--link MyList to Collection--><g class="link" data-entity-1="MyList" data-entity-2="Collection" data-source-line="42" data-uid="lnk9" id="link_MyList_Collection"><path codeLine="42" d="M297.65,364.66 C299.56,393.08 300.5218,407.3306 302.0718,430.3706" fill="none" id="MyList-to-Collection" style="stroke:#181818;stroke-width:1;stroke-dasharray:7,7;"/><polygon fill="none" points="303.28,448.33,308.0583,429.9679,296.0853,430.7733,303.28,448.33" style="stroke:#181818;stroke-width:1;"/></g><!--link MyBTree to Collection--><g class="link" data-entity-1="MyBTree" data-entity-2="Collection" data-source-line="55" data-uid="lnk11" id="link_MyBTree_Collection"><path codeLine="55" d="M502.49,388.77 C456.35,410 426.3242,423.8108 390.1542,440.4408" fill="none" id="MyBTree-to-Collection" style="stroke:#181818;stroke-width:1;stroke-dasharray:7,7;"/><polygon fill="none" points="373.8,447.96,392.6606,445.8922,387.6478,434.9893,373.8,447.96" style="stroke:#181818;stroke-width:1;"/></g><!--link InOrderIterator to Iterator--><g class="link" data-entity-1="InOrderIterator" data-entity-2="Iterator" data-source-line="66" data-uid="lnk13" id="link_InOrderIterator_Iterator"><path codeLine="66" d="M866.94,152.06 C881.42,169.98 894.49,190.23 902.37,211.59 C929.54,285.32 945.72,322.85 902.37,388.38 C800.6,542.23 586.8813,588.1302 468.2513,602.9402" fill="none" id="InOrderIterator-to-Iterator" style="stroke:#181818;stroke-width:1;stroke-dasharray:7,7;"/><polygon fill="none" points="450.39,605.17,468.9946,608.8939,467.5081,596.9864,450.39,605.17" style="stroke:#181818;stroke-width:1;"/></g><!--link Collection to Iterator--><g class="link" data-entity-1="Collection" data-entity-2="Iterator" data-source-line="68" data-uid="lnk14" id="link_Collection_Iterator"><path codeLine="68" d="M322.8,512.94 C332.7,530.84 342.285,548.1701 352.815,567.2001" fill="none" id="Collection-to-Iterator" style="stroke:#181818;stroke-width:1;stroke-dasharray:7,7;"/><polygon fill="#181818" points="355.72,572.45,354.8625,562.6385,353.2992,568.0751,347.8627,566.5118,355.72,572.45" style="stroke:#181818;stroke-width:1;"/></g><!--link ListIterator to MyList--><g class="link" data-entity-1="ListIterator" data-entity-2="MyList" data-source-line="69" data-uid="lnk15" id="link_ListIterator_MyList"><path codeLine="69" d="M168.53,143.85 C187.99,172.6 208.9691,201.7718 231.3191,230.5418" fill="none" id="ListIterator-to-MyList" style="stroke:#181818;stroke-width:1;stroke-dasharray:7,7;"/><polygon fill="#181818" points="235,235.28,232.6375,225.7187,231.9326,231.3315,226.3198,230.6266,235,235.28" style="stroke:#181818;stroke-width:1;"/></g><!--link MyList to ListIterator--><g class="link" data-entity-1="MyList" data-entity-2="ListIterator" data-source-line="71" data-uid="lnk17" id="link_MyList_ListIterator"><path codeLine="71" d="M259.1,235.28 C239.62,206.51 218.6425,177.337 196.2925,148.587" fill="none" id="MyList-to-ListIterator" style="stroke:#181818;stroke-width:1;stroke-dasharray:7,7;"/><polygon fill="#181818" points="192.61,143.85,194.9758,153.4105,195.6788,147.7975,201.2918,148.5005,192.61,143.85" style="stroke:#181818;stroke-width:1;"/></g><!--link ReverseListIterator to MyList--><g class="link" data-entity-1="ReverseListIterator" data-entity-2="MyList" data-source-line="70" data-uid="lnk16" id="link_ReverseListIterator_MyList"><path codeLine="70" d="M404.75,143.85 C384.1,172.6 363.2598,201.6364 342.5998,230.4064" fill="none" id="ReverseListIterator-to-MyList" style="stroke:#181818;stroke-width:1;stroke-dasharray:7,7;"/><polygon fill="#181818" points="339.1,235.28,347.5987,230.3028,342.0165,231.2187,341.1006,225.6365,339.1,235.28" style="stroke:#181818;stroke-width:1;"/></g><!--link MyBTree to InOrderIterator--><g class="link" data-entity-1="MyBTree" data-entity-2="InOrderIterator" data-source-line="72" data-uid="lnk18" id="link_MyBTree_InOrderIterator"><path codeLine="72" d="M745.21,211.18 C754.37,191.5 761.1119,176.4029 768.7619,157.4729" fill="none" id="MyBTree-to-InOrderIterator" style="stroke:#181818;stroke-width:1;stroke-dasharray:7,7;"/><polygon fill="#181818" points="771.01,151.91,763.9293,158.7557,769.1366,156.5458,771.3465,161.7531,771.01,151.91" style="stroke:#181818;stroke-width:1;"/></g><!--link InOrderIterator to MyBTree--><g class="link" data-entity-1="InOrderIterator" data-entity-2="MyBTree" data-source-line="73" data-uid="lnk19" id="link_InOrderIterator_MyBTree"><path codeLine="73" d="M746.2,151.91 C737.05,170.84 730.064,185.9726 721.754,205.6526" fill="none" id="InOrderIterator-to-MyBTree" style="stroke:#181818;stroke-width:1;stroke-dasharray:7,7;"/><polygon fill="#181818" points="719.42,211.18,726.6059,204.4448,721.365,206.5738,719.236,201.3329,719.42,211.18" style="stroke:#181818;stroke-width:1;"/></g><!--SRC=[nLJBJiCm4BpxAtnCHUa7HCWIvLI9XuJo0rQofHR6aMotb4V_7R-TEgu49t9fCkFTdTbCoeG6kQKzuBkHS-Wr6mNwGjXSLrZ0-yRGL8-oMRGutjzq19qGGYpLHYPLxgXwXAEsLUjnv415QkdHpdNeELKAtpEbYmvJgD6I7a0g62pQueSF-sj4BDpHQzplfGIXDsA0er4fTC0lrVr5urG8Ngs-IVOQr3-36r8nKM7-rKj5JzsIxnvS-8S6EBmPOQh5XU8P4IO7_DPxQLXovDHK0pPLbXifzWakVcOP9-JbUDsJo2Rbwqu29EdkgJbGlWSpTOavRDts76v6BB5aBxipAFegZmPuTZxWSKOGRQkjwEBS_9iIJt80ENVjvbGxk4dndGRsqZwAzc4l1Pf3QLlLTg4qxL_32yuiARDPbiVLCCKq31VgVndUGdCPt6pTC1EY23k9sQv_2ubEAIFd_qvvtMIssxb24dVn0m00]--></g></svg>