<svg xmlns="http://www.w3.org/2000/svg" xmlns:xlink="http://www.w3.org/1999/xlink" contentStyleType="text/css" data-diagram-type="CLASS" height="298px" preserveAspectRatio="none" style="width:818px;height:298px;background:#FFFFFF;" version="1.1" viewBox="0 0 818 298" width="818px" zoomAndPan="magnify"><defs/><g><!--class Observer--><g class="entity" data-entity="Observer" data-source-line="1" data-uid="ent0002" id="entity_Observer"><rect fill="#F1F1F1" height="64.0986" rx="2.5" ry="2.5" style="stroke:#181818;stroke-width:0.5;" width="241.5713" x="292.65" y="227.69"/><ellipse cx="380.3995" cy="243.69" fill="#B4A7E5" rx="11" ry="11" style="stroke:#181818;stroke-width:1;"/><path d="M376.4308,250.19 L376.4308,248.2681 L378.9308,248.2681 L378.9308,239.7056 L376.4308,239.7056 L376.4308,237.7838 L383.5714,237.7838 L383.5714,239.7056 L381.0714,239.7056 L381.0714,248.2681 L383.5714,248.2681 L383.5714,250.19 L376.4308,250.19 Z " fill="#000000"/><text fill="#000000" font-family="sans-serif" font-size="14" font-style="italic" lengthAdjust="spacing" textLength="57.5723" x="400.8995" y="248.7725">Observer</text><line style="stroke:#181818;stroke-width:0.5;" x1="293.65" x2="533.2213" y1="259.69" y2="259.69"/><line style="stroke:#181818;stroke-width:0.5;" x1="293.65" x2="533.2213" y1="267.69" y2="267.69"/><ellipse cx="303.65" cy="281.2393" fill="#84BE84" rx="3" ry="3" style="stroke:#038048;stroke-width:1;"/><text fill="#000000" font-family="sans-serif" font-size="14" lengthAdjust="spacing" textLength="215.5713" x="312.65" y="284.8218">updateSubject(newSubject: String)</text></g><!--class Publisher--><g class="entity" data-entity="Publisher" data-source-line="7" data-uid="ent0003" id="entity_Publisher"><rect fill="#F1F1F1" height="160.6904" rx="2.5" ry="2.5" style="stroke:#181818;stroke-width:0.5;" width="250.875" x="7" y="7"/><ellipse cx="99.0049" cy="23" fill="#ADD1B2" rx="11" ry="11" style="stroke:#181818;stroke-width:1;"/><path d="M99.2393,29.6719 Q98.0361,29.6719 97.1455,29.2188 Q96.2705,28.7656 95.7861,27.9531 Q95.3018,27.125 95.3018,26 L95.3018,20.5938 Q95.3018,19.4688 95.7861,18.6563 Q96.2705,17.8281 97.1455,17.375 Q98.0361,16.9219 99.2393,16.9219 Q100.4268,16.9219 101.3018,17.375 Q102.1924,17.8281 102.6924,18.6563 Q103.1924,19.4688 103.1924,20.5938 L101.0361,20.5938 Q101.0361,19.7188 100.5674,19.2656 Q100.1143,18.7969 99.2393,18.7969 Q98.3799,18.7969 97.8955,19.2656 Q97.4268,19.7188 97.4268,20.5938 L97.4268,26 Q97.4268,26.8594 97.8955,27.3281 Q98.3799,27.7969 99.2393,27.7969 Q100.1143,27.7969 100.5674,27.3281 Q101.0361,26.8594 101.0361,26 L103.1924,26 Q103.1924,27.125 102.6924,27.9531 Q102.1924,28.7656 101.3018,29.2188 Q100.4268,29.6719 99.2393,29.6719 Z " fill="#000000"/><text fill="#000000" font-family="sans-serif" font-size="14" lengthAdjust="spacing" textLength="58.3652" x="119.5049" y="28.0825">Publisher</text><line style="stroke:#181818;stroke-width:0.5;" x1="8" x2="256.875" y1="39" y2="39"/><rect fill="none" height="6" style="stroke:#C82930;stroke-width:1;" width="6" x="15" y="49.5493"/><text fill="#000000" font-family="sans-serif" font-size="14" lengthAdjust="spacing" textLength="88.71" x="27" y="56.1318">subject: String</text><rect fill="none" height="6" style="stroke:#C82930;stroke-width:1;" width="6" x="15" y="65.6479"/><text fill="#000000" font-family="sans-serif" font-size="14" lengthAdjust="spacing" textLength="224.875" x="27" y="72.2305">subscribers: MutableList&lt;Observer&gt;</text><line style="stroke:#181818;stroke-width:0.5;" x1="8" x2="256.875" y1="79.1973" y2="79.1973"/><text fill="#000000" font-family="sans-serif" font-size="14" lengthAdjust="spacing" textLength="67.6895" x="27" y="96.3291">Publisher()</text><ellipse cx="18" cy="108.8452" fill="#84BE84" rx="3" ry="3" style="stroke:#038048;stroke-width:1;"/><text fill="#000000" font-family="sans-serif" font-size="14" lengthAdjust="spacing" textLength="107.3584" x="27" y="112.4277">notifyObservers()</text><ellipse cx="18" cy="124.9438" fill="#84BE84" rx="3" ry="3" style="stroke:#038048;stroke-width:1;"/><text fill="#000000" font-family="sans-serif" font-size="14" lengthAdjust="spacing" textLength="217.8477" x="27" y="128.5264">subscribe(newObserver: Observer)</text><ellipse cx="18" cy="141.0425" fill="#84BE84" rx="3" ry="3" style="stroke:#038048;stroke-width:1;"/><text fill="#000000" font-family="sans-serif" font-size="14" lengthAdjust="spacing" textLength="222.5234" x="27" y="144.625">unsubscribe(exObserver: Observer)</text><ellipse cx="18" cy="157.1411" fill="#84BE84" rx="3" ry="3" style="stroke:#038048;stroke-width:1;"/><text fill="#000000" font-family="sans-serif" font-size="14" lengthAdjust="spacing" textLength="215.5713" x="27" y="160.7236">updateSubject(newSubject: String)</text></g><!--class RealObserver1--><g class="entity" data-entity="RealObserver1" data-source-line="19" data-uid="ent0004" id="entity_RealObserver1"><rect fill="#F1F1F1" height="96.2959" rx="2.5" ry="2.5" style="stroke:#181818;stroke-width:0.5;" width="241.5713" x="292.65" y="39.2"/><ellipse cx="362.11" cy="55.2" fill="#ADD1B2" rx="11" ry="11" style="stroke:#181818;stroke-width:1;"/><path d="M362.3443,61.8719 Q361.1412,61.8719 360.2506,61.4188 Q359.3756,60.9656 358.8912,60.1531 Q358.4068,59.325 358.4068,58.2 L358.4068,52.7938 Q358.4068,51.6688 358.8912,50.8563 Q359.3756,50.0281 360.2506,49.575 Q361.1412,49.1219 362.3443,49.1219 Q363.5318,49.1219 364.4068,49.575 Q365.2975,50.0281 365.7975,50.8563 Q366.2975,51.6688 366.2975,52.7938 L364.1412,52.7938 Q364.1412,51.9188 363.6725,51.4656 Q363.2193,50.9969 362.3443,50.9969 Q361.485,50.9969 361.0006,51.4656 Q360.5318,51.9188 360.5318,52.7938 L360.5318,58.2 Q360.5318,59.0594 361.0006,59.5281 Q361.485,59.9969 362.3443,59.9969 Q363.2193,59.9969 363.6725,59.5281 Q364.1412,59.0594 364.1412,58.2 L366.2975,58.2 Q366.2975,59.325 365.7975,60.1531 Q365.2975,60.9656 364.4068,61.4188 Q363.5318,61.8719 362.3443,61.8719 Z " fill="#000000"/><text fill="#000000" font-family="sans-serif" font-size="14" lengthAdjust="spacing" textLength="94.1514" x="382.61" y="60.2825">RealObserver1</text><line style="stroke:#181818;stroke-width:0.5;" x1="293.65" x2="533.2213" y1="71.2" y2="71.2"/><ellipse cx="303.65" cy="84.7493" fill="none" rx="3" ry="3" style="stroke:#038048;stroke-width:1;"/><text fill="#000000" font-family="sans-serif" font-size="14" lengthAdjust="spacing" textLength="121.3926" x="312.65" y="88.3318">subjectCopy: String</text><line style="stroke:#181818;stroke-width:0.5;" x1="293.65" x2="533.2213" y1="95.2986" y2="95.2986"/><text fill="#000000" font-family="sans-serif" font-size="14" lengthAdjust="spacing" textLength="103.4756" x="312.65" y="112.4305">RealObserver1()</text><ellipse cx="303.65" cy="124.9466" fill="#84BE84" rx="3" ry="3" style="stroke:#038048;stroke-width:1;"/><text fill="#000000" font-family="sans-serif" font-size="14" lengthAdjust="spacing" textLength="215.5713" x="312.65" y="128.5291">updateSubject(newSubject: String)</text></g><!--class RealObserver2--><g class="entity" data-entity="RealObserver2" data-source-line="27" data-uid="ent0006" id="entity_RealObserver2"><rect fill="#F1F1F1" height="80.1973" rx="2.5" ry="2.5" style="stroke:#181818;stroke-width:0.5;" width="241.5713" x="569.65" y="47.25"/><ellipse cx="639.11" cy="63.25" fill="#ADD1B2" rx="11" ry="11" style="stroke:#181818;stroke-width:1;"/><path d="M639.3443,69.9219 Q638.1412,69.9219 637.2506,69.4688 Q636.3756,69.0156 635.8912,68.2031 Q635.4068,67.375 635.4068,66.25 L635.4068,60.8438 Q635.4068,59.7188 635.8912,58.9063 Q636.3756,58.0781 637.2506,57.625 Q638.1412,57.1719 639.3443,57.1719 Q640.5318,57.1719 641.4068,57.625 Q642.2975,58.0781 642.7975,58.9063 Q643.2975,59.7188 643.2975,60.8438 L641.1412,60.8438 Q641.1412,59.9688 640.6725,59.5156 Q640.2193,59.0469 639.3443,59.0469 Q638.485,59.0469 638.0006,59.5156 Q637.5318,59.9688 637.5318,60.8438 L637.5318,66.25 Q637.5318,67.1094 638.0006,67.5781 Q638.485,68.0469 639.3443,68.0469 Q640.2193,68.0469 640.6725,67.5781 Q641.1412,67.1094 641.1412,66.25 L643.2975,66.25 Q643.2975,67.375 642.7975,68.2031 Q642.2975,69.0156 641.4068,69.4688 Q640.5318,69.9219 639.3443,69.9219 Z " fill="#000000"/><text fill="#000000" font-family="sans-serif" font-size="14" lengthAdjust="spacing" textLength="94.1514" x="659.61" y="68.3325">RealObserver2</text><line style="stroke:#181818;stroke-width:0.5;" x1="570.65" x2="810.2213" y1="79.25" y2="79.25"/><line style="stroke:#181818;stroke-width:0.5;" x1="570.65" x2="810.2213" y1="87.25" y2="87.25"/><text fill="#000000" font-family="sans-serif" font-size="14" lengthAdjust="spacing" textLength="103.4756" x="589.65" y="104.3818">RealObserver2()</text><ellipse cx="580.65" cy="116.8979" fill="#84BE84" rx="3" ry="3" style="stroke:#038048;stroke-width:1;"/><text fill="#000000" font-family="sans-serif" font-size="14" lengthAdjust="spacing" textLength="215.5713" x="589.65" y="120.4805">updateSubject(newSubject: String)</text></g><!--link RealObserver1 to Observer--><g class="link" data-entity-1="RealObserver1" data-entity-2="Observer" data-source-line="25" data-uid="lnk5" id="link_RealObserver1_Observer"><path codeLine="25" d="M413.44,135.81 C413.44,165.06 413.44,183.74 413.44,209.39" fill="none" id="RealObserver1-to-Observer" style="stroke:#181818;stroke-width:1;stroke-dasharray:7,7;"/><polygon fill="none" points="413.44,227.39,419.44,209.39,407.44,209.39,413.44,227.39" style="stroke:#181818;stroke-width:1;"/></g><!--link RealObserver2 to Observer--><g class="link" data-entity-1="RealObserver2" data-entity-2="Observer" data-source-line="32" data-uid="lnk7" id="link_RealObserver2_Observer"><path codeLine="32" d="M626.19,127.87 C576.97,158.15 525.3018,189.9294 479.7318,217.9594" fill="none" id="RealObserver2-to-Observer" style="stroke:#181818;stroke-width:1;stroke-dasharray:7,7;"/><polygon fill="none" points="464.4,227.39,482.8753,223.07,476.5883,212.8488,464.4,227.39" style="stroke:#181818;stroke-width:1;"/></g><!--link Publisher to Observer--><g class="link" data-entity-1="Publisher" data-entity-2="Observer" data-source-line="34" data-uid="lnk8" id="link_Publisher_Observer"><path codeLine="34" d="M258.14,164.57 C294.68,186.73 327.429,206.5898 356.629,224.2898" fill="none" id="Publisher-to-Observer" style="stroke:#181818;stroke-width:1;stroke-dasharray:7,7;"/><polygon fill="#181818" points="361.76,227.4,356.137,219.3141,357.4842,224.8082,351.9901,226.1553,361.76,227.4" style="stroke:#181818;stroke-width:1;"/></g><!--SRC=[dL7D3e8m3BxlANQ444taI0mNhngDFC66HMV88Ekc4lNT1RCnCSIeEwrVs-yd5LA3AbWETCqHr0aKkHBQleYQUiSqP8OV8TU1XBFz9ZJJIiXzIEw4aBnaY7HZU2dmq6_tTH0-wmd5uR97CLU2WyA4hencl8IbG3rtRb9hHbPQ58r3qT96dg0pwDf97yQD6Ua7uV9XxeVCMs2bsv_Pt0FirMH7igZgPf3_Exq19vrERwc_rOYLUCHA78H_2iRlWlrbsuR77m00]--></g></svg>