<svg xmlns="http://www.w3.org/2000/svg" xmlns:xlink="http://www.w3.org/1999/xlink" contentStyleType="text/css" data-diagram-type="CLASS" height="659px" preserveAspectRatio="none" style="width:697px;height:659px;background:#FFFFFF;" version="1.1" viewBox="0 0 697 659" width="697px" zoomAndPan="magnify"><defs/><g><!--class State--><g class="entity" data-entity="State" data-source-line="1" data-uid="ent0002" id="entity_State"><rect fill="#F1F1F1" height="124.2717" rx="2.5" ry="2.5" style="stroke:#181818;stroke-width:0.5;" width="98.3797" x="355" y="528"/><ellipse cx="385.7841" cy="544" fill="#B4A7E5" rx="11" ry="11" style="stroke:#181818;stroke-width:1;"/><path d="M381.706,539.7656 L381.706,537.6094 L389.0966,537.6094 L389.0966,539.7656 L386.6279,539.7656 L386.6279,547.8438 L389.0966,547.8438 L389.0966,550 L381.706,550 L381.706,547.8438 L384.1748,547.8438 L384.1748,539.7656 L381.706,539.7656 Z " fill="#000000"/><text fill="#000000" font-family="sans-serif" font-size="14" font-style="italic" lengthAdjust="spacing" textLength="31.3039" x="403.2917" y="549.432">State</text><line style="stroke:#181818;stroke-width:0.5;" x1="356" x2="452.3797" y1="560" y2="560"/><line style="stroke:#181818;stroke-width:0.5;" x1="356" x2="452.3797" y1="568" y2="568"/><ellipse cx="366" cy="583.034" fill="#84BE84" rx="3" ry="3" style="stroke:#038048;stroke-width:1;"/><text fill="#000000" font-family="sans-serif" font-size="14" lengthAdjust="spacing" textLength="72.3797" x="375" y="586.9659">compress()</text><ellipse cx="366" cy="602.1019" fill="#84BE84" rx="3" ry="3" style="stroke:#038048;stroke-width:1;"/><text fill="#000000" font-family="sans-serif" font-size="14" lengthAdjust="spacing" textLength="35.6719" x="375" y="606.0339">cool()</text><ellipse cx="366" cy="621.1698" fill="#84BE84" rx="3" ry="3" style="stroke:#038048;stroke-width:1;"/><text fill="#000000" font-family="sans-serif" font-size="14" lengthAdjust="spacing" textLength="37.8559" x="375" y="625.1018">heat()</text><ellipse cx="366" cy="640.2377" fill="#84BE84" rx="3" ry="3" style="stroke:#038048;stroke-width:1;"/><text fill="#000000" font-family="sans-serif" font-size="14" lengthAdjust="spacing" textLength="56.0418" x="375" y="644.1697">release()</text></g><!--class Matter--><g class="entity" data-entity="Matter" data-source-line="10" data-uid="ent0003" id="entity_Matter"><rect fill="#F1F1F1" height="219.6113" rx="2.5" ry="2.5" style="stroke:#181818;stroke-width:0.5;" width="218.3593" x="214" y="248"/><ellipse cx="296.7607" cy="264" fill="#ADD1B2" rx="11" ry="11" style="stroke:#181818;stroke-width:1;"/><path d="M299.7295,269.6406 Q299.1513,269.9375 298.5107,270.0781 Q297.8701,270.2344 297.167,270.2344 Q294.667,270.2344 293.3388,268.5938 Q292.0263,266.9375 292.0263,263.8125 Q292.0263,260.6875 293.3388,259.0313 Q294.667,257.375 297.167,257.375 Q297.8701,257.375 298.5107,257.5313 Q299.167,257.6875 299.7295,257.9844 L299.7295,260.7031 Q299.1045,260.125 298.5107,259.8594 Q297.917,259.5781 297.292,259.5781 Q295.9482,259.5781 295.2607,260.6563 Q294.5732,261.7188 294.5732,263.8125 Q294.5732,265.9063 295.2607,266.9844 Q295.9482,268.0469 297.292,268.0469 Q297.917,268.0469 298.5107,267.7813 Q299.1045,267.5 299.7295,266.9219 L299.7295,269.6406 Z " fill="#000000"/><text fill="#000000" font-family="sans-serif" font-size="14" lengthAdjust="spacing" textLength="44.3378" x="317.2607" y="269.432">Matter</text><line style="stroke:#181818;stroke-width:0.5;" x1="215" x2="431.3593" y1="280" y2="280"/><rect fill="none" height="6" style="stroke:#C82930;stroke-width:1;" width="6" x="222" y="292.034"/><text fill="#000000" font-family="sans-serif" font-size="14" lengthAdjust="spacing" textLength="84.2797" x="234" y="298.9659">name: String</text><rect fill="none" height="6" style="stroke:#C82930;stroke-width:1;" width="6" x="222" y="311.1019"/><text fill="#000000" font-family="sans-serif" font-size="14" lengthAdjust="spacing" textLength="73.4997" x="234" y="318.0339">state: State</text><line style="stroke:#181818;stroke-width:0.5;" x1="215" x2="431.3593" y1="326.1358" y2="326.1358"/><text fill="#000000" font-family="sans-serif" font-size="14" lengthAdjust="spacing" textLength="137.0175" x="234" y="345.1018">Matter(name: String)</text><ellipse cx="225" cy="360.2377" fill="#84BE84" rx="3" ry="3" style="stroke:#038048;stroke-width:1;"/><text fill="#000000" font-family="sans-serif" font-size="14" lengthAdjust="spacing" textLength="192.3593" x="234" y="364.1697">changeState(newState: State)</text><ellipse cx="225" cy="379.3056" fill="#84BE84" rx="3" ry="3" style="stroke:#038048;stroke-width:1;"/><text fill="#000000" font-family="sans-serif" font-size="14" lengthAdjust="spacing" textLength="72.3797" x="234" y="383.2376">compress()</text><ellipse cx="225" cy="398.3735" fill="#84BE84" rx="3" ry="3" style="stroke:#038048;stroke-width:1;"/><text fill="#000000" font-family="sans-serif" font-size="14" lengthAdjust="spacing" textLength="35.6719" x="234" y="402.3055">cool()</text><ellipse cx="225" cy="417.4415" fill="#84BE84" rx="3" ry="3" style="stroke:#038048;stroke-width:1;"/><text fill="#000000" font-family="sans-serif" font-size="14" lengthAdjust="spacing" textLength="37.8559" x="234" y="421.3734">heat()</text><ellipse cx="225" cy="436.5094" fill="#84BE84" rx="3" ry="3" style="stroke:#038048;stroke-width:1;"/><text fill="#000000" font-family="sans-serif" font-size="14" lengthAdjust="spacing" textLength="56.0418" x="234" y="440.4414">release()</text><ellipse cx="225" cy="455.5773" fill="#84BE84" rx="3" ry="3" style="stroke:#038048;stroke-width:1;"/><text fill="#000000" font-family="sans-serif" font-size="14" lengthAdjust="spacing" textLength="108.1076" x="234" y="459.5093">toString(): String</text></g><!--class LiquidState--><g class="entity" data-entity="LiquidState" data-source-line="24" data-uid="ent0004" id="entity_LiquidState"><rect fill="#F1F1F1" height="181.4754" rx="2.5" ry="2.5" style="stroke:#181818;stroke-width:0.5;" width="201.9093" x="7" y="7"/><ellipse cx="66.7168" cy="23" fill="#ADD1B2" rx="11" ry="11" style="stroke:#181818;stroke-width:1;"/><path d="M69.6856,28.6406 Q69.1074,28.9375 68.4668,29.0781 Q67.8262,29.2344 67.1231,29.2344 Q64.6231,29.2344 63.2949,27.5938 Q61.9824,25.9375 61.9824,22.8125 Q61.9824,19.6875 63.2949,18.0313 Q64.6231,16.375 67.1231,16.375 Q67.8262,16.375 68.4668,16.5313 Q69.1231,16.6875 69.6856,16.9844 L69.6856,19.7031 Q69.0606,19.125 68.4668,18.8594 Q67.8731,18.5781 67.2481,18.5781 Q65.9043,18.5781 65.2168,19.6563 Q64.5293,20.7188 64.5293,22.8125 Q64.5293,24.9063 65.2168,25.9844 Q65.9043,27.0469 67.2481,27.0469 Q67.8731,27.0469 68.4668,26.7813 Q69.0606,26.5 69.6856,25.9219 L69.6856,28.6406 Z " fill="#000000"/><text fill="#000000" font-family="sans-serif" font-size="14" lengthAdjust="spacing" textLength="73.9757" x="87.2168" y="28.432">LiquidState</text><line style="stroke:#181818;stroke-width:0.5;" x1="8" x2="207.9093" y1="39" y2="39"/><rect fill="none" height="6" style="stroke:#C82930;stroke-width:1;" width="6" x="15" y="51.034"/><text fill="#000000" font-family="sans-serif" font-size="14" lengthAdjust="spacing" textLength="93.5336" x="27" y="57.9659">owner: Matter</text><line style="stroke:#181818;stroke-width:0.5;" x1="8" x2="207.9093" y1="66.0679" y2="66.0679"/><text fill="#000000" font-family="sans-serif" font-size="14" lengthAdjust="spacing" textLength="175.9093" x="27" y="85.0339">LiquidState(owner: Matter)</text><ellipse cx="18" cy="100.1698" fill="#84BE84" rx="3" ry="3" style="stroke:#038048;stroke-width:1;"/><text fill="#000000" font-family="sans-serif" font-size="14" lengthAdjust="spacing" textLength="72.3797" x="27" y="104.1018">compress()</text><ellipse cx="18" cy="119.2377" fill="#84BE84" rx="3" ry="3" style="stroke:#038048;stroke-width:1;"/><text fill="#000000" font-family="sans-serif" font-size="14" lengthAdjust="spacing" textLength="35.6719" x="27" y="123.1697">cool()</text><ellipse cx="18" cy="138.3056" fill="#84BE84" rx="3" ry="3" style="stroke:#038048;stroke-width:1;"/><text fill="#000000" font-family="sans-serif" font-size="14" lengthAdjust="spacing" textLength="37.8559" x="27" y="142.2376">heat()</text><ellipse cx="18" cy="157.3735" fill="#84BE84" rx="3" ry="3" style="stroke:#038048;stroke-width:1;"/><text fill="#000000" font-family="sans-serif" font-size="14" lengthAdjust="spacing" textLength="56.0418" x="27" y="161.3055">release()</text><ellipse cx="18" cy="176.4415" fill="#84BE84" rx="3" ry="3" style="stroke:#038048;stroke-width:1;"/><text fill="#000000" font-family="sans-serif" font-size="14" lengthAdjust="spacing" textLength="108.1076" x="27" y="180.3734">toString(): String</text></g><!--class SolidState--><g class="entity" data-entity="SolidState" data-source-line="36" data-uid="ent0006" id="entity_SolidState"><rect fill="#F1F1F1" height="181.4754" rx="2.5" ry="2.5" style="stroke:#181818;stroke-width:0.5;" width="193.4674" x="244.5" y="7"/><ellipse cx="304.2168" cy="23" fill="#ADD1B2" rx="11" ry="11" style="stroke:#181818;stroke-width:1;"/><path d="M307.1856,28.6406 Q306.6074,28.9375 305.9668,29.0781 Q305.3262,29.2344 304.6231,29.2344 Q302.1231,29.2344 300.7949,27.5938 Q299.4824,25.9375 299.4824,22.8125 Q299.4824,19.6875 300.7949,18.0313 Q302.1231,16.375 304.6231,16.375 Q305.3262,16.375 305.9668,16.5313 Q306.6231,16.6875 307.1856,16.9844 L307.1856,19.7031 Q306.5606,19.125 305.9668,18.8594 Q305.3731,18.5781 304.7481,18.5781 Q303.4043,18.5781 302.7168,19.6563 Q302.0293,20.7188 302.0293,22.8125 Q302.0293,24.9063 302.7168,25.9844 Q303.4043,27.0469 304.7481,27.0469 Q305.3731,27.0469 305.9668,26.7813 Q306.5606,26.5 307.1856,25.9219 L307.1856,28.6406 Z " fill="#000000"/><text fill="#000000" font-family="sans-serif" font-size="14" lengthAdjust="spacing" textLength="65.5338" x="324.7168" y="28.432">SolidState</text><line style="stroke:#181818;stroke-width:0.5;" x1="245.5" x2="436.9674" y1="39" y2="39"/><rect fill="none" height="6" style="stroke:#C82930;stroke-width:1;" width="6" x="252.5" y="51.034"/><text fill="#000000" font-family="sans-serif" font-size="14" lengthAdjust="spacing" textLength="93.5336" x="264.5" y="57.9659">owner: Matter</text><line style="stroke:#181818;stroke-width:0.5;" x1="245.5" x2="436.9674" y1="66.0679" y2="66.0679"/><text fill="#000000" font-family="sans-serif" font-size="14" lengthAdjust="spacing" textLength="167.4674" x="264.5" y="85.0339">SolidState(owner: Matter)</text><ellipse cx="255.5" cy="100.1698" fill="#84BE84" rx="3" ry="3" style="stroke:#038048;stroke-width:1;"/><text fill="#000000" font-family="sans-serif" font-size="14" lengthAdjust="spacing" textLength="72.3797" x="264.5" y="104.1018">compress()</text><ellipse cx="255.5" cy="119.2377" fill="#84BE84" rx="3" ry="3" style="stroke:#038048;stroke-width:1;"/><text fill="#000000" font-family="sans-serif" font-size="14" lengthAdjust="spacing" textLength="35.6719" x="264.5" y="123.1697">cool()</text><ellipse cx="255.5" cy="138.3056" fill="#84BE84" rx="3" ry="3" style="stroke:#038048;stroke-width:1;"/><text fill="#000000" font-family="sans-serif" font-size="14" lengthAdjust="spacing" textLength="37.8559" x="264.5" y="142.2376">heat()</text><ellipse cx="255.5" cy="157.3735" fill="#84BE84" rx="3" ry="3" style="stroke:#038048;stroke-width:1;"/><text fill="#000000" font-family="sans-serif" font-size="14" lengthAdjust="spacing" textLength="56.0418" x="264.5" y="161.3055">release()</text><ellipse cx="255.5" cy="176.4415" fill="#84BE84" rx="3" ry="3" style="stroke:#038048;stroke-width:1;"/><text fill="#000000" font-family="sans-serif" font-size="14" lengthAdjust="spacing" textLength="108.1076" x="264.5" y="180.3734">toString(): String</text></g><!--class GaseousState--><g class="entity" data-entity="GaseousState" data-source-line="48" data-uid="ent0008" id="entity_GaseousState"><rect fill="#F1F1F1" height="181.4754" rx="2.5" ry="2.5" style="stroke:#181818;stroke-width:0.5;" width="217.9533" x="473" y="7"/><ellipse cx="532.7168" cy="23" fill="#ADD1B2" rx="11" ry="11" style="stroke:#181818;stroke-width:1;"/><path d="M535.6856,28.6406 Q535.1074,28.9375 534.4668,29.0781 Q533.8262,29.2344 533.1231,29.2344 Q530.6231,29.2344 529.2949,27.5938 Q527.9824,25.9375 527.9824,22.8125 Q527.9824,19.6875 529.2949,18.0313 Q530.6231,16.375 533.1231,16.375 Q533.8262,16.375 534.4668,16.5313 Q535.1231,16.6875 535.6856,16.9844 L535.6856,19.7031 Q535.0606,19.125 534.4668,18.8594 Q533.8731,18.5781 533.2481,18.5781 Q531.9043,18.5781 531.2168,19.6563 Q530.5293,20.7188 530.5293,22.8125 Q530.5293,24.9063 531.2168,25.9844 Q531.9043,27.0469 533.2481,27.0469 Q533.8731,27.0469 534.4668,26.7813 Q535.0606,26.5 535.6856,25.9219 L535.6856,28.6406 Z " fill="#000000"/><text fill="#000000" font-family="sans-serif" font-size="14" lengthAdjust="spacing" textLength="90.0197" x="553.2168" y="28.432">GaseousState</text><line style="stroke:#181818;stroke-width:0.5;" x1="474" x2="689.9533" y1="39" y2="39"/><rect fill="none" height="6" style="stroke:#C82930;stroke-width:1;" width="6" x="481" y="51.034"/><text fill="#000000" font-family="sans-serif" font-size="14" lengthAdjust="spacing" textLength="93.5336" x="493" y="57.9659">owner: Matter</text><line style="stroke:#181818;stroke-width:0.5;" x1="474" x2="689.9533" y1="66.0679" y2="66.0679"/><text fill="#000000" font-family="sans-serif" font-size="14" lengthAdjust="spacing" textLength="191.9533" x="493" y="85.0339">GaseousState(owner: Matter)</text><ellipse cx="484" cy="100.1698" fill="#84BE84" rx="3" ry="3" style="stroke:#038048;stroke-width:1;"/><text fill="#000000" font-family="sans-serif" font-size="14" lengthAdjust="spacing" textLength="72.3797" x="493" y="104.1018">compress()</text><ellipse cx="484" cy="119.2377" fill="#84BE84" rx="3" ry="3" style="stroke:#038048;stroke-width:1;"/><text fill="#000000" font-family="sans-serif" font-size="14" lengthAdjust="spacing" textLength="35.6719" x="493" y="123.1697">cool()</text><ellipse cx="484" cy="138.3056" fill="#84BE84" rx="3" ry="3" style="stroke:#038048;stroke-width:1;"/><text fill="#000000" font-family="sans-serif" font-size="14" lengthAdjust="spacing" textLength="37.8559" x="493" y="142.2376">heat()</text><ellipse cx="484" cy="157.3735" fill="#84BE84" rx="3" ry="3" style="stroke:#038048;stroke-width:1;"/><text fill="#000000" font-family="sans-serif" font-size="14" lengthAdjust="spacing" textLength="56.0418" x="493" y="161.3055">release()</text><ellipse cx="484" cy="176.4415" fill="#84BE84" rx="3" ry="3" style="stroke:#038048;stroke-width:1;"/><text fill="#000000" font-family="sans-serif" font-size="14" lengthAdjust="spacing" textLength="108.1076" x="493" y="180.3734">toString(): String</text></g><!--link LiquidState to State--><g class="link" data-entity-1="LiquidState" data-entity-2="State" data-source-line="34" data-uid="lnk5" id="link_LiquidState_State"><path codeLine="34" d="M109.88,188.12 C115.77,268.56 135.25,386.21 196,468 C235.73,521.49 289.8387,548.9995 337.6887,566.8795" fill="none" id="LiquidState-to-State" style="stroke:#181818;stroke-width:1;stroke-dasharray:7,7;"/><polygon fill="none" points="354.55,573.18,339.7889,561.259,335.5885,572.4999,354.55,573.18" style="stroke:#181818;stroke-width:1;"/></g><!--link SolidState to State--><g class="link" data-entity-1="SolidState" data-entity-2="State" data-source-line="46" data-uid="lnk7" id="link_SolidState_State"><path codeLine="46" d="M419.08,188.03 C431.38,206.73 442.25,227.13 449,248 C479.09,341.03 466.32,371.77 449,468 C445.41,487.96 445.1219,492.1031 437.9919,510.8731" fill="none" id="SolidState-to-State" style="stroke:#181818;stroke-width:1;stroke-dasharray:7,7;"/><polygon fill="none" points="431.6,527.7,443.6008,513.0037,432.3829,508.7425,431.6,527.7" style="stroke:#181818;stroke-width:1;"/></g><!--link GaseousState to State--><g class="link" data-entity-1="GaseousState" data-entity-2="State" data-source-line="58" data-uid="lnk9" id="link_GaseousState_State"><path codeLine="58" d="M567.12,188.29 C552.41,264.92 526.07,376.84 485,468 C475.76,488.51 473.233,494.4791 460.723,512.9791" fill="none" id="GaseousState-to-State" style="stroke:#181818;stroke-width:1;stroke-dasharray:7,7;"/><polygon fill="none" points="450.64,527.89,465.6933,516.3401,455.7527,509.6181,450.64,527.89" style="stroke:#181818;stroke-width:1;"/></g><!--link Matter to State--><g class="link" data-entity-1="Matter" data-entity-2="State" data-source-line="60" data-uid="lnk10" id="link_Matter_State"><path codeLine="60" d="M361.48,468.27 C368.71,488.79 374.0278,503.8904 380.4978,522.2704" fill="none" id="Matter-to-State" style="stroke:#181818;stroke-width:1;stroke-dasharray:7,7;"/><polygon fill="#181818" points="382.49,527.93,383.2747,518.1125,380.8298,523.2137,375.7286,520.7688,382.49,527.93" style="stroke:#181818;stroke-width:1;"/></g><!--link LiquidState to Matter--><g class="link" data-entity-1="LiquidState" data-entity-2="Matter" data-source-line="61" data-uid="lnk11" id="link_LiquidState_Matter"><path codeLine="61" d="M182.59,188.19 C198.6,207.43 211.8537,223.3667 228.3937,243.2567" fill="none" id="LiquidState-to-Matter" style="stroke:#181818;stroke-width:1;stroke-dasharray:7,7;"/><polygon fill="#181818" points="232.23,247.87,229.5511,238.3925,229.0331,244.0256,223.4,243.5076,232.23,247.87" style="stroke:#181818;stroke-width:1;"/></g><!--link SolidState to Matter--><g class="link" data-entity-1="SolidState" data-entity-2="Matter" data-source-line="62" data-uid="lnk12" id="link_SolidState_Matter"><path codeLine="62" d="M334.75,188.19 C333.41,207.43 332.3953,221.9944 331.0153,241.8844" fill="none" id="SolidState-to-Matter" style="stroke:#181818;stroke-width:1;stroke-dasharray:7,7;"/><polygon fill="#181818" points="330.6,247.87,335.2133,239.1684,330.9461,242.882,327.2325,238.6147,330.6,247.87" style="stroke:#181818;stroke-width:1;"/></g><!--link GaseousState to Matter--><g class="link" data-entity-1="GaseousState" data-entity-2="Matter" data-source-line="63" data-uid="lnk13" id="link_GaseousState_Matter"><path codeLine="63" d="M492.14,188.19 C472.86,207.43 456.5169,223.7416 436.5869,243.6316" fill="none" id="GaseousState-to-Matter" style="stroke:#181818;stroke-width:1;stroke-dasharray:7,7;"/><polygon fill="#181818" points="432.34,247.87,441.5359,244.3437,435.8791,244.338,435.8848,238.6812,432.34,247.87" style="stroke:#181818;stroke-width:1;"/></g><!--SRC=[nP6_3i8W48TtdeAHnkW3TEZgebEVWDIp9Q6WGDD1VNTH_lGmRiQKxVS5xhuxX79Wphm3sZhkWDm8zMT3EprU35ZBgWoqp640xd8m885RyFb12EaajvOUkVDrOxKGcE8ZrBwD4QeFRxSKiuZiowEEEh7tm5KFRy8Kp2swKVtY6xBJeJ-hiiaoo45S9t72kq64wLc1gUE0QQO2_aaFIT3Txjx4TKNfLilIUG7hAIyENupt_hcUB7R6Q3rhR55uXwuU9L9-IPEqYh4p_IYR-1C0]--></g></svg>