<svg xmlns="http://www.w3.org/2000/svg" xmlns:xlink="http://www.w3.org/1999/xlink" contentStyleType="text/css" data-diagram-type="CLASS" height="519px" preserveAspectRatio="none" style="width:1260px;height:519px;background:#FFFFFF;" version="1.1" viewBox="0 0 1260 519" width="1260px" zoomAndPan="magnify"><defs/><g><!--class PushNotifier--><g class="entity" data-entity="PushNotifier" data-source-line="1" data-uid="ent0002" id="entity_PushNotifier"><rect fill="#F1F1F1" height="192.8877" rx="2.5" ry="2.5" style="stroke:#181818;stroke-width:0.5;" width="438.4053" x="7" y="7"/><ellipse cx="183.8252" cy="23" fill="#ADD1B2" rx="11" ry="11" style="stroke:#181818;stroke-width:1;"/><path d="M184.0596,29.6719 Q182.8564,29.6719 181.9658,29.2188 Q181.0908,28.7656 180.6064,27.9531 Q180.1221,27.125 180.1221,26 L180.1221,20.5938 Q180.1221,19.4688 180.6064,18.6563 Q181.0908,17.8281 181.9658,17.375 Q182.8564,16.9219 184.0596,16.9219 Q185.2471,16.9219 186.1221,17.375 Q187.0127,17.8281 187.5127,18.6563 Q188.0127,19.4688 188.0127,20.5938 L185.8564,20.5938 Q185.8564,19.7188 185.3877,19.2656 Q184.9346,18.7969 184.0596,18.7969 Q183.2002,18.7969 182.7158,19.2656 Q182.2471,19.7188 182.2471,20.5938 L182.2471,26 Q182.2471,26.8594 182.7158,27.3281 Q183.2002,27.7969 184.0596,27.7969 Q184.9346,27.7969 185.3877,27.3281 Q185.8564,26.8594 185.8564,26 L188.0127,26 Q188.0127,27.125 187.5127,27.9531 Q187.0127,28.7656 186.1221,29.2188 Q185.2471,29.6719 184.0596,29.6719 Z " fill="#000000"/><text fill="#000000" font-family="sans-serif" font-size="14" lengthAdjust="spacing" textLength="76.2549" x="204.3252" y="28.0825">PushNotifier</text><line style="stroke:#181818;stroke-width:0.5;" x1="8" x2="444.4053" y1="39" y2="39"/><rect fill="none" height="6" style="stroke:#C82930;stroke-width:1;" width="6" x="15" y="49.5493"/><text fill="#000000" font-family="sans-serif" font-size="14" lengthAdjust="spacing" textLength="161.875" x="27" y="56.1318">currentHeadline: Headline</text><rect fill="none" height="6" style="stroke:#C82930;stroke-width:1;" width="6" x="15" y="65.6479"/><text fill="#000000" font-family="sans-serif" font-size="14" lengthAdjust="spacing" textLength="157.1719" x="27" y="72.2305">currentWeather: Weather</text><rect fill="none" height="6" style="stroke:#C82930;stroke-width:1;" width="6" x="15" y="81.7466"/><text fill="#000000" font-family="sans-serif" font-size="14" lengthAdjust="spacing" textLength="234.2197" x="27" y="88.3291">subscribers: MutableList&lt;Subscriber&gt;</text><line style="stroke:#181818;stroke-width:0.5;" x1="8" x2="444.4053" y1="95.2959" y2="95.2959"/><text fill="#000000" font-family="sans-serif" font-size="14" lengthAdjust="spacing" textLength="412.4053" x="27" y="112.4277">PushNotifier(currentHeadline: Headline, currentWeather: Weather)</text><rect fill="#F24D5C" height="6" style="stroke:#C82930;stroke-width:1;" width="6" x="15" y="121.9438"/><text fill="#000000" font-family="sans-serif" font-size="14" lengthAdjust="spacing" textLength="116.7031" x="27" y="128.5264">notifySubscribers()</text><ellipse cx="18" cy="141.0425" fill="#84BE84" rx="3" ry="3" style="stroke:#038048;stroke-width:1;"/><text fill="#000000" font-family="sans-serif" font-size="14" lengthAdjust="spacing" textLength="236.5371" x="27" y="144.625">subscribe(newSubscriber: Subscriber)</text><ellipse cx="18" cy="157.1411" fill="#84BE84" rx="3" ry="3" style="stroke:#038048;stroke-width:1;"/><text fill="#000000" font-family="sans-serif" font-size="14" lengthAdjust="spacing" textLength="241.2129" x="27" y="160.7236">unsubscribe(exSubscriber: Subscriber)</text><ellipse cx="18" cy="173.2397" fill="#84BE84" rx="3" ry="3" style="stroke:#038048;stroke-width:1;"/><text fill="#000000" font-family="sans-serif" font-size="14" lengthAdjust="spacing" textLength="256.833" x="27" y="176.8223">updateHeadline(freshHeadline: Headline)</text><ellipse cx="18" cy="189.3384" fill="#84BE84" rx="3" ry="3" style="stroke:#038048;stroke-width:1;"/><text fill="#000000" font-family="sans-serif" font-size="14" lengthAdjust="spacing" textLength="249.7783" x="27" y="192.9209">updateWeather(freshWeather: Weather)</text></g><!--class Subscriber--><g class="entity" data-entity="Subscriber" data-source-line="15" data-uid="ent0003" id="entity_Subscriber"><rect fill="#F1F1F1" height="64.0986" rx="2.5" ry="2.5" style="stroke:#181818;stroke-width:0.5;" width="369.1914" x="480.61" y="259.89"/><ellipse cx="627.4972" cy="275.89" fill="#B4A7E5" rx="11" ry="11" style="stroke:#181818;stroke-width:1;"/><path d="M623.5285,282.39 L623.5285,280.4681 L626.0285,280.4681 L626.0285,271.9056 L623.5285,271.9056 L623.5285,269.9838 L630.6691,269.9838 L630.6691,271.9056 L628.1691,271.9056 L628.1691,280.4681 L630.6691,280.4681 L630.6691,282.39 L623.5285,282.39 Z " fill="#000000"/><text fill="#000000" font-family="sans-serif" font-size="14" font-style="italic" lengthAdjust="spacing" textLength="66.917" x="647.9972" y="280.9725">Subscriber</text><line style="stroke:#181818;stroke-width:0.5;" x1="481.61" x2="848.8014" y1="291.89" y2="291.89"/><line style="stroke:#181818;stroke-width:0.5;" x1="481.61" x2="848.8014" y1="299.89" y2="299.89"/><ellipse cx="491.61" cy="313.4393" fill="#84BE84" rx="3" ry="3" style="stroke:#038048;stroke-width:1;"/><text fill="#000000" font-family="sans-serif" font-size="14" lengthAdjust="spacing" textLength="343.1914" x="500.61" y="317.0218">update(newHeadline: Headline, newWeather: Weather)</text></g><!--class EmailSubscriber--><g class="entity" data-entity="EmailSubscriber" data-source-line="21" data-uid="ent0004" id="entity_EmailSubscriber"><rect fill="#F1F1F1" height="96.2959" rx="2.5" ry="2.5" style="stroke:#181818;stroke-width:0.5;" width="369.1914" x="480.61" y="55.3"/><ellipse cx="609.9938" cy="71.3" fill="#ADD1B2" rx="11" ry="11" style="stroke:#181818;stroke-width:1;"/><path d="M610.2282,77.9719 Q609.025,77.9719 608.1344,77.5188 Q607.2594,77.0656 606.775,76.2531 Q606.2907,75.425 606.2907,74.3 L606.2907,68.8938 Q606.2907,67.7688 606.775,66.9563 Q607.2594,66.1281 608.1344,65.675 Q609.025,65.2219 610.2282,65.2219 Q611.4157,65.2219 612.2907,65.675 Q613.1813,66.1281 613.6813,66.9563 Q614.1813,67.7688 614.1813,68.8938 L612.025,68.8938 Q612.025,68.0188 611.5563,67.5656 Q611.1032,67.0969 610.2282,67.0969 Q609.3688,67.0969 608.8844,67.5656 Q608.4157,68.0188 608.4157,68.8938 L608.4157,74.3 Q608.4157,75.1594 608.8844,75.6281 Q609.3688,76.0969 610.2282,76.0969 Q611.1032,76.0969 611.5563,75.6281 Q612.025,75.1594 612.025,74.3 L614.1813,74.3 Q614.1813,75.425 613.6813,76.2531 Q613.1813,77.0656 612.2907,77.5188 Q611.4157,77.9719 610.2282,77.9719 Z " fill="#000000"/><text fill="#000000" font-family="sans-serif" font-size="14" lengthAdjust="spacing" textLength="101.9238" x="630.4938" y="76.3825">EmailSubscriber</text><line style="stroke:#181818;stroke-width:0.5;" x1="481.61" x2="848.8014" y1="87.3" y2="87.3"/><rect fill="none" height="6" style="stroke:#C82930;stroke-width:1;" width="6" x="488.61" y="97.8493"/><text fill="#000000" font-family="sans-serif" font-size="14" lengthAdjust="spacing" textLength="77.8066" x="500.61" y="104.4318">email: String</text><line style="stroke:#181818;stroke-width:0.5;" x1="481.61" x2="848.8014" y1="111.3986" y2="111.3986"/><text fill="#000000" font-family="sans-serif" font-size="14" lengthAdjust="spacing" textLength="189.0547" x="500.61" y="128.5305">EmailSubscriber(email: String)</text><ellipse cx="491.61" cy="141.0466" fill="#84BE84" rx="3" ry="3" style="stroke:#038048;stroke-width:1;"/><text fill="#000000" font-family="sans-serif" font-size="14" lengthAdjust="spacing" textLength="343.1914" x="500.61" y="144.6291">update(newHeadline: Headline, newWeather: Weather)</text></g><!--class FileLogger--><g class="entity" data-entity="FileLogger" data-source-line="29" data-uid="ent0006" id="entity_FileLogger"><rect fill="#F1F1F1" height="96.2959" rx="2.5" ry="2.5" style="stroke:#181818;stroke-width:0.5;" width="369.1914" x="884.61" y="55.3"/><ellipse cx="1031.88" cy="71.3" fill="#ADD1B2" rx="11" ry="11" style="stroke:#181818;stroke-width:1;"/><path d="M1032.1144,77.9719 Q1030.9113,77.9719 1030.0206,77.5188 Q1029.1456,77.0656 1028.6613,76.2531 Q1028.1769,75.425 1028.1769,74.3 L1028.1769,68.8938 Q1028.1769,67.7688 1028.6613,66.9563 Q1029.1456,66.1281 1030.0206,65.675 Q1030.9113,65.2219 1032.1144,65.2219 Q1033.3019,65.2219 1034.1769,65.675 Q1035.0675,66.1281 1035.5675,66.9563 Q1036.0675,67.7688 1036.0675,68.8938 L1033.9113,68.8938 Q1033.9113,68.0188 1033.4425,67.5656 Q1032.9894,67.0969 1032.1144,67.0969 Q1031.255,67.0969 1030.7706,67.5656 Q1030.3019,68.0188 1030.3019,68.8938 L1030.3019,74.3 Q1030.3019,75.1594 1030.7706,75.6281 Q1031.255,76.0969 1032.1144,76.0969 Q1032.9894,76.0969 1033.4425,75.6281 Q1033.9113,75.1594 1033.9113,74.3 L1036.0675,74.3 Q1036.0675,75.425 1035.5675,76.2531 Q1035.0675,77.0656 1034.1769,77.5188 Q1033.3019,77.9719 1032.1144,77.9719 Z " fill="#000000"/><text fill="#000000" font-family="sans-serif" font-size="14" lengthAdjust="spacing" textLength="66.1514" x="1052.38" y="76.3825">FileLogger</text><line style="stroke:#181818;stroke-width:0.5;" x1="885.61" x2="1252.8014" y1="87.3" y2="87.3"/><rect fill="none" height="6" style="stroke:#C82930;stroke-width:1;" width="6" x="892.61" y="97.8493"/><text fill="#000000" font-family="sans-serif" font-size="14" lengthAdjust="spacing" textLength="48.2344" x="904.61" y="104.4318">file: File</text><line style="stroke:#181818;stroke-width:0.5;" x1="885.61" x2="1252.8014" y1="111.3986" y2="111.3986"/><text fill="#000000" font-family="sans-serif" font-size="14" lengthAdjust="spacing" textLength="172.7441" x="904.61" y="128.5305">FileLogger(filename: String)</text><ellipse cx="895.61" cy="141.0466" fill="#84BE84" rx="3" ry="3" style="stroke:#038048;stroke-width:1;"/><text fill="#000000" font-family="sans-serif" font-size="14" lengthAdjust="spacing" textLength="343.1914" x="904.61" y="144.6291">update(newHeadline: Headline, newWeather: Weather)</text></g><!--class Headline--><g class="entity" data-entity="Headline" data-source-line="37" data-uid="ent0008" id="entity_Headline"><rect fill="#F1F1F1" height="128.4932" rx="2.5" ry="2.5" style="stroke:#181818;stroke-width:0.5;" width="374.626" x="277.89" y="383.99"/><ellipse cx="433.3221" cy="399.99" fill="#ADD1B2" rx="11" ry="11" style="stroke:#181818;stroke-width:1;"/><path d="M433.5565,406.6619 Q432.3534,406.6619 431.4628,406.2088 Q430.5878,405.7556 430.1034,404.9431 Q429.619,404.115 429.619,402.99 L429.619,397.5838 Q429.619,396.4588 430.1034,395.6463 Q430.5878,394.8181 431.4628,394.365 Q432.3534,393.9119 433.5565,393.9119 Q434.744,393.9119 435.619,394.365 Q436.5096,394.8181 437.0096,395.6463 Q437.5096,396.4588 437.5096,397.5838 L435.3534,397.5838 Q435.3534,396.7088 434.8846,396.2556 Q434.4315,395.7869 433.5565,395.7869 Q432.6971,395.7869 432.2128,396.2556 Q431.744,396.7088 431.744,397.5838 L431.744,402.99 Q431.744,403.8494 432.2128,404.3181 Q432.6971,404.7869 433.5565,404.7869 Q434.4315,404.7869 434.8846,404.3181 Q435.3534,403.8494 435.3534,402.99 L437.5096,402.99 Q437.5096,404.115 437.0096,404.9431 Q436.5096,405.7556 435.619,406.2088 Q434.744,406.6619 433.5565,406.6619 Z " fill="#000000"/><text fill="#000000" font-family="sans-serif" font-size="14" lengthAdjust="spacing" textLength="55.2617" x="453.8221" y="405.0725">Headline</text><line style="stroke:#181818;stroke-width:0.5;" x1="278.89" x2="651.516" y1="415.99" y2="415.99"/><rect fill="none" height="6" style="stroke:#C82930;stroke-width:1;" width="6" x="285.89" y="426.5393"/><text fill="#000000" font-family="sans-serif" font-size="14" lengthAdjust="spacing" textLength="84.8203" x="297.89" y="433.1218">details: String</text><rect fill="none" height="6" style="stroke:#C82930;stroke-width:1;" width="6" x="285.89" y="442.6379"/><text fill="#000000" font-family="sans-serif" font-size="14" lengthAdjust="spacing" textLength="97.2891" x="297.89" y="449.2205">headline: String</text><rect fill="none" height="6" style="stroke:#C82930;stroke-width:1;" width="6" x="285.89" y="458.7366"/><text fill="#000000" font-family="sans-serif" font-size="14" lengthAdjust="spacing" textLength="86.3721" x="297.89" y="465.3191">source: String</text><line style="stroke:#181818;stroke-width:0.5;" x1="278.89" x2="651.516" y1="472.2859" y2="472.2859"/><text fill="#000000" font-family="sans-serif" font-size="14" lengthAdjust="spacing" textLength="348.626" x="297.89" y="489.4177">Headline(headline: String, details: String, source: String)</text><ellipse cx="288.89" cy="501.9338" fill="#84BE84" rx="3" ry="3" style="stroke:#038048;stroke-width:1;"/><text fill="#000000" font-family="sans-serif" font-size="14" lengthAdjust="spacing" textLength="101.9238" x="297.89" y="505.5164">toString(): String</text></g><!--class Weather--><g class="entity" data-entity="Weather" data-source-line="47" data-uid="ent0009" id="entity_Weather"><rect fill="#F1F1F1" height="128.4932" rx="2.5" ry="2.5" style="stroke:#181818;stroke-width:0.5;" width="354.3506" x="706.03" y="383.99"/><ellipse cx="852.5002" cy="399.99" fill="#ADD1B2" rx="11" ry="11" style="stroke:#181818;stroke-width:1;"/><path d="M852.7346,406.6619 Q851.5315,406.6619 850.6408,406.2088 Q849.7658,405.7556 849.2815,404.9431 Q848.7971,404.115 848.7971,402.99 L848.7971,397.5838 Q848.7971,396.4588 849.2815,395.6463 Q849.7658,394.8181 850.6408,394.365 Q851.5315,393.9119 852.7346,393.9119 Q853.9221,393.9119 854.7971,394.365 Q855.6877,394.8181 856.1877,395.6463 Q856.6877,396.4588 856.6877,397.5838 L854.5315,397.5838 Q854.5315,396.7088 854.0627,396.2556 Q853.6096,395.7869 852.7346,395.7869 Q851.8752,395.7869 851.3908,396.2556 Q850.9221,396.7088 850.9221,397.5838 L850.9221,402.99 Q850.9221,403.8494 851.3908,404.3181 Q851.8752,404.7869 852.7346,404.7869 Q853.6096,404.7869 854.0627,404.3181 Q854.5315,403.8494 854.5315,402.99 L856.6877,402.99 Q856.6877,404.115 856.1877,404.9431 Q855.6877,405.7556 854.7971,406.2088 Q853.9221,406.6619 852.7346,406.6619 Z " fill="#000000"/><text fill="#000000" font-family="sans-serif" font-size="14" lengthAdjust="spacing" textLength="52.9102" x="873.0002" y="405.0725">Weather</text><line style="stroke:#181818;stroke-width:0.5;" x1="707.03" x2="1059.3806" y1="415.99" y2="415.99"/><rect fill="none" height="6" style="stroke:#C82930;stroke-width:1;" width="6" x="714.03" y="426.5393"/><text fill="#000000" font-family="sans-serif" font-size="14" lengthAdjust="spacing" textLength="91.0342" x="726.03" y="433.1218">humidity: Float</text><rect fill="none" height="6" style="stroke:#C82930;stroke-width:1;" width="6" x="714.03" y="442.6379"/><text fill="#000000" font-family="sans-serif" font-size="14" lengthAdjust="spacing" textLength="89.4961" x="726.03" y="449.2205">outlook: String</text><rect fill="none" height="6" style="stroke:#C82930;stroke-width:1;" width="6" x="714.03" y="458.7366"/><text fill="#000000" font-family="sans-serif" font-size="14" lengthAdjust="spacing" textLength="70.0273" x="726.03" y="465.3191">temp: Float</text><line style="stroke:#181818;stroke-width:0.5;" x1="707.03" x2="1059.3806" y1="472.2859" y2="472.2859"/><text fill="#000000" font-family="sans-serif" font-size="14" lengthAdjust="spacing" textLength="328.3506" x="726.03" y="489.4177">Weather(temp: Float, humidity: Float, outlook: String)</text><ellipse cx="717.03" cy="501.9338" fill="#84BE84" rx="3" ry="3" style="stroke:#038048;stroke-width:1;"/><text fill="#000000" font-family="sans-serif" font-size="14" lengthAdjust="spacing" textLength="101.9238" x="726.03" y="505.5164">toString(): String</text></g><!--link EmailSubscriber to Subscriber--><g class="link" data-entity-1="EmailSubscriber" data-entity-2="Subscriber" data-source-line="27" data-uid="lnk5" id="link_EmailSubscriber_Subscriber"><path codeLine="27" d="M665.2,151.99 C665.2,185.76 665.2,212.17 665.2,241.59" fill="none" id="EmailSubscriber-to-Subscriber" style="stroke:#181818;stroke-width:1;stroke-dasharray:7,7;"/><polygon fill="none" points="665.2,259.59,671.2,241.59,659.2,241.59,665.2,259.59" style="stroke:#181818;stroke-width:1;"/></g><!--link FileLogger to Subscriber--><g class="link" data-entity-1="FileLogger" data-entity-2="Subscriber" data-source-line="35" data-uid="lnk7" id="link_FileLogger_Subscriber"><path codeLine="35" d="M969.45,152.01 C936.91,167.41 900.57,184.49 867.2,199.89 C823.72,219.96 791.1778,234.6828 752.3478,252.0728" fill="none" id="FileLogger-to-Subscriber" style="stroke:#181818;stroke-width:1;stroke-dasharray:7,7;"/><polygon fill="none" points="735.92,259.43,754.8002,257.5488,749.8954,246.5969,735.92,259.43" style="stroke:#181818;stroke-width:1;"/></g><!--link PushNotifier to Subscriber--><g class="link" data-entity-1="PushNotifier" data-entity-2="Subscriber" data-source-line="57" data-uid="lnk10" id="link_PushNotifier_Subscriber"><path codeLine="57" d="M445.7,197.69 C498.22,220 545.2176,239.9641 585.7076,257.1641" fill="none" id="PushNotifier-to-Subscriber" style="stroke:#181818;stroke-width:1;stroke-dasharray:7,7;"/><polygon fill="#181818" points="591.23,259.51,584.5103,252.3096,586.628,257.5551,581.3825,259.6728,591.23,259.51" style="stroke:#181818;stroke-width:1;"/></g><!--link PushNotifier to Headline--><g class="link" data-entity-1="PushNotifier" data-entity-2="Headline" data-source-line="58" data-uid="lnk11" id="link_PushNotifier_Headline"><path codeLine="58" d="M253.39,200.28 C267.74,240.84 288.1,287.13 315.2,323.99 C331.28,345.85 347.4708,362.2868 368.4308,379.8468" fill="none" id="PushNotifier-to-Headline" style="stroke:#181818;stroke-width:1;stroke-dasharray:7,7;"/><polygon fill="#181818" points="373.03,383.7,368.6999,374.8541,369.1973,380.489,363.5624,380.9864,373.03,383.7" style="stroke:#181818;stroke-width:1;"/></g><!--link PushNotifier to Weather--><g class="link" data-entity-1="PushNotifier" data-entity-2="Weather" data-source-line="59" data-uid="lnk12" id="link_PushNotifier_Weather"><path codeLine="59" d="M309.96,200.32 C352.13,243.47 406.33,291.82 463.2,323.99 C546.58,371.14 578.29,357.02 670.2,383.99 C681.77,387.38 687.9348,389.1936 699.9448,392.7336" fill="none" id="PushNotifier-to-Weather" style="stroke:#181818;stroke-width:1;stroke-dasharray:7,7;"/><polygon fill="#181818" points="705.7,394.43,698.1981,388.0486,700.904,393.0164,695.9363,395.7222,705.7,394.43" style="stroke:#181818;stroke-width:1;"/></g><!--link Subscriber to Headline--><g class="link" data-entity-1="Subscriber" data-entity-2="Headline" data-source-line="60" data-uid="lnk13" id="link_Subscriber_Headline"><path codeLine="60" d="M624.73,324.16 C602.59,341.24 579.0704,359.3848 552.5004,379.8848" fill="none" id="Subscriber-to-Headline" style="stroke:#181818;stroke-width:1;stroke-dasharray:7,7;"/><polygon fill="#181818" points="547.75,383.55,557.3191,381.2192,551.7087,380.4957,552.4322,374.8853,547.75,383.55" style="stroke:#181818;stroke-width:1;"/></g><!--link Subscriber to Weather--><g class="link" data-entity-1="Subscriber" data-entity-2="Weather" data-source-line="61" data-uid="lnk14" id="link_Subscriber_Weather"><path codeLine="61" d="M709.58,324.35 C733.73,341.44 759.6132,359.7528 788.5232,380.2228" fill="none" id="Subscriber-to-Weather" style="stroke:#181818;stroke-width:1;stroke-dasharray:7,7;"/><polygon fill="#181818" points="793.42,383.69,788.3863,375.2247,789.3394,380.8007,783.7634,381.7537,793.42,383.69" style="stroke:#181818;stroke-width:1;"/></g><!--link EmailSubscriber to Headline--><g class="link" data-entity-1="EmailSubscriber" data-entity-2="Headline" data-source-line="62" data-uid="lnk15" id="link_EmailSubscriber_Headline"><path codeLine="62" d="M569.85,152.08 C529.1,177.91 485.78,214.03 463.2,259.89 C444.45,297.97 444.4972,339.9695 449.8672,377.8195" fill="none" id="EmailSubscriber-to-Headline" style="stroke:#181818;stroke-width:1;stroke-dasharray:7,7;"/><polygon fill="#181818" points="450.71,383.76,453.4061,374.2874,450.0077,378.8096,445.4854,375.4111,450.71,383.76" style="stroke:#181818;stroke-width:1;"/></g><!--link EmailSubscriber to Weather--><g class="link" data-entity-1="EmailSubscriber" data-entity-2="Weather" data-source-line="63" data-uid="lnk16" id="link_EmailSubscriber_Weather"><path codeLine="63" d="M757.23,151.98 C798.05,178.08 842.38,214.45 867.2,259.89 C887.71,297.42 891.6199,339.5933 890.3499,377.6933" fill="none" id="EmailSubscriber-to-Weather" style="stroke:#181818;stroke-width:1;stroke-dasharray:7,7;"/><polygon fill="#181818" points="890.15,383.69,894.4476,374.8283,890.3166,378.6928,886.4521,374.5617,890.15,383.69" style="stroke:#181818;stroke-width:1;"/></g><!--link FileLogger to Headline--><g class="link" data-entity-1="FileLogger" data-entity-2="Headline" data-source-line="64" data-uid="lnk17" id="link_FileLogger_Headline"><path codeLine="64" d="M1037.21,152.04 C1001.38,201.81 938.85,278.84 867.2,323.99 C857.12,330.34 758.41,360.5859 658.51,390.3659" fill="none" id="FileLogger-to-Headline" style="stroke:#181818;stroke-width:1;stroke-dasharray:7,7;"/><polygon fill="#181818" points="652.76,392.08,662.5276,393.3422,657.5516,390.6516,660.2422,385.6756,652.76,392.08" style="stroke:#181818;stroke-width:1;"/></g><!--link FileLogger to Weather--><g class="link" data-entity-1="FileLogger" data-entity-2="Weather" data-source-line="65" data-uid="lnk18" id="link_FileLogger_Weather"><path codeLine="65" d="M1064.51,151.86 C1058.22,198.38 1043.92,270 1012.2,323.99 C999.5,345.62 986.2081,361.7136 968.1181,379.3336" fill="none" id="FileLogger-to-Weather" style="stroke:#181818;stroke-width:1;stroke-dasharray:7,7;"/><polygon fill="#181818" points="963.82,383.52,973.0581,380.1057,967.4018,380.0313,967.4762,374.3749,963.82,383.52" style="stroke:#181818;stroke-width:1;"/></g><!--SRC=[fLJBJiCm4BpdAtnCHUa7HAWt40T0I1mukycciKZiobuBAk3VSHg_tSA1dEpPsTtPXzEEL2dohDNm993r36JrMH7pnL3TQYc1uptGRcGS6k9EQs9Dhq1n0DaGUrYTWboJYvwfFNUtLgLtgfLi1r8rv54ZtOtmm1JUl7Z3rbBvhFKOS5Kl4gv2a9h3Uo0q99mTLVD0Xey_k8UE8hXowbw26ieoKxQjRY6NBVkkgefn1DdJ5gAKTYGkobp7kL4O-7pCzZJasucoiGYQeJNCTrClIiRtRee9-1yjMJQosNnjuqAjr3jcvYpsUwyo07LlZfnEa6kSyUP4_8_0aEYIDh_0YpA_08DFikXQamxGLAi2e8IMRI4yeraq3-TUH1B2LefYkTOhRmXZTozgaUis464wc6wDWkAQ37fY7SEZ1uJ6KOYtN6d6isX6jcYKu7ULyO_6z3nfUM7ppIyihinakIA737VqSY4ZdtD6vvWiIkIJuPR-0m00]--></g></svg>