<svg xmlns="http://www.w3.org/2000/svg" xmlns:xlink="http://www.w3.org/1999/xlink" contentStyleType="text/css" data-diagram-type="CLASS" height="556px" preserveAspectRatio="none" style="width:1359px;height:556px;background:#FFFFFF;" version="1.1" viewBox="0 0 1359 556" width="1359px" zoomAndPan="magnify"><defs/><g><!--class Board--><g class="entity" data-entity="Board" data-source-line="1" data-uid="ent0002" id="entity_Board"><rect fill="#F1F1F1" height="305.5781" rx="2.5" ry="2.5" style="stroke:#181818;stroke-width:0.5;" width="306.1504" x="402.64" y="243.79"/><ellipse cx="532.786" cy="259.79" fill="#ADD1B2" rx="11" ry="11" style="stroke:#181818;stroke-width:1;"/><path d="M532.8329,266.4306 Q532.3172,266.4306 531.8016,266.3369 Q531.3016,266.2588 530.8485,266.0244 Q530.411,265.79 530.036,265.4306 Q529.6766,265.0713 529.4266,264.6181 Q529.1922,264.1494 529.0985,263.6494 Q529.0204,263.1494 529.0204,262.6338 L529.0204,257.4463 Q529.0204,256.9463 529.0985,256.4463 Q529.1922,255.9306 529.4266,255.4775 Q529.6766,255.0244 530.036,254.665 Q530.411,254.29 530.8485,254.0556 Q531.3016,253.8213 531.8016,253.7431 Q532.3172,253.665 532.8329,253.665 Q533.3172,253.665 533.7704,253.7275 Q534.2391,253.79 534.6766,253.9775 Q535.1297,254.1494 535.5047,254.4463 Q535.8797,254.7431 536.1297,255.1494 Q536.3954,255.54 536.5204,256.0088 Q536.6454,256.4619 536.6454,256.9463 L536.6454,257.0088 L534.6141,257.0088 L534.6141,256.9775 Q534.6141,256.6338 534.4891,256.3213 Q534.3641,255.9931 534.0985,255.7744 Q533.8329,255.54 533.5047,255.4619 Q533.1766,255.3838 532.8329,255.3838 Q532.4422,255.3838 532.0672,255.54 Q531.6922,255.6806 531.4579,255.9931 Q531.2235,256.29 531.1297,256.6806 Q531.0516,257.0556 531.0516,257.4463 L531.0516,262.6338 Q531.0516,263.0244 531.1297,263.415 Q531.2235,263.79 531.4579,264.1025 Q531.6922,264.3994 532.0672,264.5556 Q532.4422,264.7119 532.8329,264.7119 Q533.1766,264.7119 533.5047,264.6338 Q533.8329,264.54 534.0985,264.3213 Q534.3641,264.1025 534.4891,263.7744 Q534.6141,263.4463 534.6141,263.1181 L534.6141,263.0713 L536.6454,263.0713 L536.6454,263.1494 Q536.6454,263.6181 536.5204,264.0869 Q536.3954,264.54 536.1297,264.9463 Q535.8797,265.3369 535.5047,265.6338 Q535.1297,265.9306 534.6766,266.1181 Q534.2391,266.29 533.7704,266.3525 Q533.3172,266.4306 532.8329,266.4306 Z " fill="#000000"/><text fill="#000000" font-family="sans-serif" font-size="14" lengthAdjust="spacing" textLength="37.3584" x="553.286" y="264.8725">Board</text><line style="stroke:#181818;stroke-width:0.5;" x1="403.64" x2="707.7904" y1="275.79" y2="275.79"/><rect fill="none" height="6" style="stroke:#C82930;stroke-width:1;" width="6" x="410.64" y="286.3393"/><text fill="#000000" font-family="sans-serif" font-size="14" lengthAdjust="spacing" textLength="113.6201" x="422.64" y="292.9218">cLoc: Pair&lt;Int,Int&gt;</text><rect fill="none" height="6" style="stroke:#C82930;stroke-width:1;" width="6" x="410.64" y="302.4379"/><text fill="#000000" font-family="sans-serif" font-size="14" lengthAdjust="spacing" textLength="107.4063" x="422.64" y="309.0205">end: Pair&lt;Int,Int&gt;</text><rect fill="none" height="6" style="stroke:#C82930;stroke-width:1;" width="6" x="410.64" y="318.5366"/><text fill="#000000" font-family="sans-serif" font-size="14" lengthAdjust="spacing" textLength="176.6748" x="422.64" y="325.1191">isSolid: List&lt;List&lt;Boolean&gt;&gt;</text><rect fill="none" height="6" style="stroke:#C82930;stroke-width:1;" width="6" x="410.64" y="334.6352"/><text fill="#000000" font-family="sans-serif" font-size="14" lengthAdjust="spacing" textLength="111.2754" x="422.64" y="341.2177">start: Pair&lt;Int,Int&gt;</text><line style="stroke:#181818;stroke-width:0.5;" x1="403.64" x2="707.7904" y1="348.1845" y2="348.1845"/><text fill="#000000" font-family="sans-serif" font-size="14" lengthAdjust="spacing" textLength="143.9512" x="422.64" y="365.3164">Board(filename: String)</text><ellipse cx="413.64" cy="377.8325" fill="#84BE84" rx="3" ry="3" style="stroke:#038048;stroke-width:1;"/><text fill="#000000" font-family="sans-serif" font-size="14" lengthAdjust="spacing" textLength="161.082" x="422.64" y="381.415">canMoveDown(): Boolean</text><ellipse cx="413.64" cy="393.9311" fill="#84BE84" rx="3" ry="3" style="stroke:#038048;stroke-width:1;"/><text fill="#000000" font-family="sans-serif" font-size="14" lengthAdjust="spacing" textLength="148.6406" x="422.64" y="397.5136">canMoveLeft(): Boolean</text><ellipse cx="413.64" cy="410.0297" fill="#84BE84" rx="3" ry="3" style="stroke:#038048;stroke-width:1;"/><text fill="#000000" font-family="sans-serif" font-size="14" lengthAdjust="spacing" textLength="157.9717" x="422.64" y="413.6123">canMoveRight(): Boolean</text><ellipse cx="413.64" cy="426.1284" fill="#84BE84" rx="3" ry="3" style="stroke:#038048;stroke-width:1;"/><text fill="#000000" font-family="sans-serif" font-size="14" lengthAdjust="spacing" textLength="143.1855" x="422.64" y="429.7109">canMoveUp(): Boolean</text><ellipse cx="413.64" cy="442.227" fill="#84BE84" rx="3" ry="3" style="stroke:#038048;stroke-width:1;"/><text fill="#000000" font-family="sans-serif" font-size="14" lengthAdjust="spacing" textLength="204.6611" x="422.64" y="445.8095">characterLocation(): Pair&lt;Int,Int&gt;</text><ellipse cx="413.64" cy="458.3256" fill="#84BE84" rx="3" ry="3" style="stroke:#038048;stroke-width:1;"/><text fill="#000000" font-family="sans-serif" font-size="14" lengthAdjust="spacing" textLength="79.3516" x="422.64" y="461.9082">moveDown()</text><ellipse cx="413.64" cy="474.4243" fill="#84BE84" rx="3" ry="3" style="stroke:#038048;stroke-width:1;"/><text fill="#000000" font-family="sans-serif" font-size="14" lengthAdjust="spacing" textLength="66.9102" x="422.64" y="478.0068">moveLeft()</text><ellipse cx="413.64" cy="490.5229" fill="#84BE84" rx="3" ry="3" style="stroke:#038048;stroke-width:1;"/><text fill="#000000" font-family="sans-serif" font-size="14" lengthAdjust="spacing" textLength="76.2412" x="422.64" y="494.1054">moveRight()</text><ellipse cx="413.64" cy="506.6215" fill="#84BE84" rx="3" ry="3" style="stroke:#038048;stroke-width:1;"/><text fill="#000000" font-family="sans-serif" font-size="14" lengthAdjust="spacing" textLength="61.4551" x="422.64" y="510.2041">moveUp()</text><ellipse cx="413.64" cy="522.7202" fill="#84BE84" rx="3" ry="3" style="stroke:#038048;stroke-width:1;"/><text fill="#000000" font-family="sans-serif" font-size="14" lengthAdjust="spacing" textLength="280.1504" x="422.64" y="526.3027">teleportCharacter(newLocation: Pair&lt;Int,Int&gt;)</text><ellipse cx="413.64" cy="538.8188" fill="#84BE84" rx="3" ry="3" style="stroke:#038048;stroke-width:1;"/><text fill="#000000" font-family="sans-serif" font-size="14" lengthAdjust="spacing" textLength="101.9238" x="422.64" y="542.4013">toString(): String</text></g><!--class Controller--><g class="entity" data-entity="Controller" data-source-line="22" data-uid="ent0003" id="entity_Controller"><rect fill="#F1F1F1" height="176.7891" rx="2.5" ry="2.5" style="stroke:#181818;stroke-width:0.5;" width="241.5234" x="1110.95" y="7"/><ellipse cx="1197.117" cy="23" fill="#ADD1B2" rx="11" ry="11" style="stroke:#181818;stroke-width:1;"/><path d="M1197.1639,29.6406 Q1196.6482,29.6406 1196.1326,29.5469 Q1195.6326,29.4688 1195.1795,29.2344 Q1194.742,29 1194.367,28.6406 Q1194.0076,28.2813 1193.7576,27.8281 Q1193.5232,27.3594 1193.4295,26.8594 Q1193.3514,26.3594 1193.3514,25.8438 L1193.3514,20.6563 Q1193.3514,20.1563 1193.4295,19.6563 Q1193.5232,19.1406 1193.7576,18.6875 Q1194.0076,18.2344 1194.367,17.875 Q1194.742,17.5 1195.1795,17.2656 Q1195.6326,17.0313 1196.1326,16.9531 Q1196.6482,16.875 1197.1639,16.875 Q1197.6482,16.875 1198.1014,16.9375 Q1198.5701,17 1199.0076,17.1875 Q1199.4607,17.3594 1199.8357,17.6563 Q1200.2107,17.9531 1200.4607,18.3594 Q1200.7264,18.75 1200.8514,19.2188 Q1200.9764,19.6719 1200.9764,20.1563 L1200.9764,20.2188 L1198.9451,20.2188 L1198.9451,20.1875 Q1198.9451,19.8438 1198.8201,19.5313 Q1198.6951,19.2031 1198.4295,18.9844 Q1198.1639,18.75 1197.8357,18.6719 Q1197.5076,18.5938 1197.1639,18.5938 Q1196.7732,18.5938 1196.3982,18.75 Q1196.0232,18.8906 1195.7889,19.2031 Q1195.5545,19.5 1195.4607,19.8906 Q1195.3826,20.2656 1195.3826,20.6563 L1195.3826,25.8438 Q1195.3826,26.2344 1195.4607,26.625 Q1195.5545,27 1195.7889,27.3125 Q1196.0232,27.6094 1196.3982,27.7656 Q1196.7732,27.9219 1197.1639,27.9219 Q1197.5076,27.9219 1197.8357,27.8438 Q1198.1639,27.75 1198.4295,27.5313 Q1198.6951,27.3125 1198.8201,26.9844 Q1198.9451,26.6563 1198.9451,26.3281 L1198.9451,26.2813 L1200.9764,26.2813 L1200.9764,26.3594 Q1200.9764,26.8281 1200.8514,27.2969 Q1200.7264,27.75 1200.4607,28.1563 Q1200.2107,28.5469 1199.8357,28.8438 Q1199.4607,29.1406 1199.0076,29.3281 Q1198.5701,29.5 1198.1014,29.5625 Q1197.6482,29.6406 1197.1639,29.6406 Z " fill="#000000"/><text fill="#000000" font-family="sans-serif" font-size="14" lengthAdjust="spacing" textLength="60.6895" x="1217.617" y="28.0825">Controller</text><line style="stroke:#181818;stroke-width:0.5;" x1="1111.95" x2="1351.4734" y1="39" y2="39"/><rect fill="none" height="6" style="stroke:#C82930;stroke-width:1;" width="6" x="1118.95" y="49.5493"/><text fill="#000000" font-family="sans-serif" font-size="14" lengthAdjust="spacing" textLength="80.9443" x="1130.95" y="56.1318">board: Board</text><rect fill="none" height="6" style="stroke:#C82930;stroke-width:1;" width="6" x="1118.95" y="65.6479"/><text fill="#000000" font-family="sans-serif" font-size="14" lengthAdjust="spacing" textLength="215.5234" x="1130.95" y="72.2305">commandHistory: List&lt;Command&gt;</text><line style="stroke:#181818;stroke-width:0.5;" x1="1111.95" x2="1351.4734" y1="79.1973" y2="79.1973"/><text fill="#000000" font-family="sans-serif" font-size="14" lengthAdjust="spacing" textLength="150.958" x="1130.95" y="96.3291">Controller(board: Board)</text><ellipse cx="1121.95" cy="108.8452" fill="#84BE84" rx="3" ry="3" style="stroke:#038048;stroke-width:1;"/><text fill="#000000" font-family="sans-serif" font-size="14" lengthAdjust="spacing" textLength="79.3516" x="1130.95" y="112.4277">pressDown()</text><ellipse cx="1121.95" cy="124.9438" fill="#84BE84" rx="3" ry="3" style="stroke:#038048;stroke-width:1;"/><text fill="#000000" font-family="sans-serif" font-size="14" lengthAdjust="spacing" textLength="66.9102" x="1130.95" y="128.5264">pressLeft()</text><ellipse cx="1121.95" cy="141.0425" fill="#84BE84" rx="3" ry="3" style="stroke:#038048;stroke-width:1;"/><text fill="#000000" font-family="sans-serif" font-size="14" lengthAdjust="spacing" textLength="76.2412" x="1130.95" y="144.625">pressRight()</text><ellipse cx="1121.95" cy="157.1411" fill="#84BE84" rx="3" ry="3" style="stroke:#038048;stroke-width:1;"/><text fill="#000000" font-family="sans-serif" font-size="14" lengthAdjust="spacing" textLength="61.4551" x="1130.95" y="160.7236">pressUp()</text><ellipse cx="1121.95" cy="173.2397" fill="#84BE84" rx="3" ry="3" style="stroke:#038048;stroke-width:1;"/><text fill="#000000" font-family="sans-serif" font-size="14" lengthAdjust="spacing" textLength="40.4688" x="1130.95" y="176.8223">undo()</text></g><!--class Command--><g class="entity" data-entity="Command" data-source-line="35" data-uid="ent0004" id="entity_Command"><rect fill="#F1F1F1" height="80.1973" rx="2.5" ry="2.5" style="stroke:#181818;stroke-width:0.5;" width="96.5791" x="743.42" y="356.48"/><ellipse cx="758.42" cy="372.48" fill="#B4A7E5" rx="11" ry="11" style="stroke:#181818;stroke-width:1;"/><path d="M755.5763,378.98 L755.5763,377.2613 L757.0138,377.2613 L757.0138,368.1988 L755.5763,368.1988 L755.5763,366.48 L760.4669,366.48 L760.4669,368.1988 L759.0294,368.1988 L759.0294,377.2613 L760.4669,377.2613 L760.4669,378.98 L755.5763,378.98 Z " fill="#000000"/><text fill="#000000" font-family="sans-serif" font-size="14" font-style="italic" lengthAdjust="spacing" textLength="64.5791" x="772.42" y="377.5625">Command</text><line style="stroke:#181818;stroke-width:0.5;" x1="744.42" x2="838.9991" y1="388.48" y2="388.48"/><line style="stroke:#181818;stroke-width:0.5;" x1="744.42" x2="838.9991" y1="396.48" y2="396.48"/><ellipse cx="754.42" cy="410.0293" fill="#84BE84" rx="3" ry="3" style="stroke:#038048;stroke-width:1;"/><text fill="#000000" font-family="sans-serif" font-size="14" lengthAdjust="spacing" textLength="58.3584" x="763.42" y="413.6118">execute()</text><ellipse cx="754.42" cy="426.1279" fill="#84BE84" rx="3" ry="3" style="stroke:#038048;stroke-width:1;"/><text fill="#000000" font-family="sans-serif" font-size="14" lengthAdjust="spacing" textLength="40.4688" x="763.42" y="429.7105">undo()</text></g><!--class DashUpCommand--><g class="entity" data-entity="DashUpCommand" data-source-line="42" data-uid="ent0005" id="entity_DashUpCommand"><rect fill="#F1F1F1" height="128.4932" rx="2.5" ry="2.5" style="stroke:#181818;stroke-width:0.5;" width="231.4268" x="7" y="31.15"/><ellipse cx="60.8843" cy="47.15" fill="#ADD1B2" rx="11" ry="11" style="stroke:#181818;stroke-width:1;"/><path d="M60.9312,53.7906 Q60.4155,53.7906 59.8999,53.6969 Q59.3999,53.6187 58.9468,53.3844 Q58.5093,53.15 58.1343,52.7906 Q57.7749,52.4312 57.5249,51.9781 Q57.2905,51.5094 57.1968,51.0094 Q57.1187,50.5094 57.1187,49.9937 L57.1187,44.8062 Q57.1187,44.3062 57.1968,43.8062 Q57.2905,43.2906 57.5249,42.8375 Q57.7749,42.3844 58.1343,42.025 Q58.5093,41.65 58.9468,41.4156 Q59.3999,41.1812 59.8999,41.1031 Q60.4155,41.025 60.9312,41.025 Q61.4155,41.025 61.8687,41.0875 Q62.3374,41.15 62.7749,41.3375 Q63.228,41.5094 63.603,41.8062 Q63.978,42.1031 64.228,42.5094 Q64.4937,42.9 64.6187,43.3687 Q64.7437,43.8219 64.7437,44.3062 L64.7437,44.3687 L62.7124,44.3687 L62.7124,44.3375 Q62.7124,43.9937 62.5874,43.6812 Q62.4624,43.3531 62.1968,43.1344 Q61.9312,42.9 61.603,42.8219 Q61.2749,42.7437 60.9312,42.7437 Q60.5405,42.7437 60.1655,42.9 Q59.7905,43.0406 59.5562,43.3531 Q59.3218,43.65 59.228,44.0406 Q59.1499,44.4156 59.1499,44.8062 L59.1499,49.9937 Q59.1499,50.3844 59.228,50.775 Q59.3218,51.15 59.5562,51.4625 Q59.7905,51.7594 60.1655,51.9156 Q60.5405,52.0719 60.9312,52.0719 Q61.2749,52.0719 61.603,51.9937 Q61.9312,51.9 62.1968,51.6812 Q62.4624,51.4625 62.5874,51.1344 Q62.7124,50.8062 62.7124,50.4781 L62.7124,50.4312 L64.7437,50.4312 L64.7437,50.5094 Q64.7437,50.9781 64.6187,51.4469 Q64.4937,51.9 64.228,52.3062 Q63.978,52.6969 63.603,52.9937 Q63.228,53.2906 62.7749,53.4781 Q62.3374,53.65 61.8687,53.7125 Q61.4155,53.7906 60.9312,53.7906 Z " fill="#000000"/><text fill="#000000" font-family="sans-serif" font-size="14" lengthAdjust="spacing" textLength="115.1582" x="81.3843" y="52.2325">DashUpCommand</text><line style="stroke:#181818;stroke-width:0.5;" x1="8" x2="237.4268" y1="63.15" y2="63.15"/><rect fill="none" height="6" style="stroke:#C82930;stroke-width:1;" width="6" x="15" y="73.6993"/><text fill="#000000" font-family="sans-serif" font-size="14" lengthAdjust="spacing" textLength="184.4473" x="27" y="80.2818">backUpLocation: Pair&lt;Int,Int&gt;</text><rect fill="none" height="6" style="stroke:#C82930;stroke-width:1;" width="6" x="15" y="89.7979"/><text fill="#000000" font-family="sans-serif" font-size="14" lengthAdjust="spacing" textLength="80.9443" x="27" y="96.3805">board: Board</text><line style="stroke:#181818;stroke-width:0.5;" x1="8" x2="237.4268" y1="103.3473" y2="103.3473"/><text fill="#000000" font-family="sans-serif" font-size="14" lengthAdjust="spacing" textLength="205.4268" x="27" y="120.4791">DashUpCommand(board: Board)</text><ellipse cx="18" cy="132.9952" fill="#84BE84" rx="3" ry="3" style="stroke:#038048;stroke-width:1;"/><text fill="#000000" font-family="sans-serif" font-size="14" lengthAdjust="spacing" textLength="58.3584" x="27" y="136.5777">execute()</text><ellipse cx="18" cy="149.0938" fill="#84BE84" rx="3" ry="3" style="stroke:#038048;stroke-width:1;"/><text fill="#000000" font-family="sans-serif" font-size="14" lengthAdjust="spacing" textLength="40.4688" x="27" y="152.6764">undo()</text></g><!--class DashRightCommand--><g class="entity" data-entity="DashRightCommand" data-source-line="52" data-uid="ent0007" id="entity_DashRightCommand"><rect fill="#F1F1F1" height="128.4932" rx="2.5" ry="2.5" style="stroke:#181818;stroke-width:0.5;" width="246.2129" x="273.61" y="31.15"/><ellipse cx="327.4943" cy="47.15" fill="#ADD1B2" rx="11" ry="11" style="stroke:#181818;stroke-width:1;"/><path d="M327.5412,53.7906 Q327.0255,53.7906 326.5099,53.6969 Q326.0099,53.6187 325.5568,53.3844 Q325.1193,53.15 324.7443,52.7906 Q324.3849,52.4312 324.1349,51.9781 Q323.9005,51.5094 323.8068,51.0094 Q323.7287,50.5094 323.7287,49.9937 L323.7287,44.8062 Q323.7287,44.3062 323.8068,43.8062 Q323.9005,43.2906 324.1349,42.8375 Q324.3849,42.3844 324.7443,42.025 Q325.1193,41.65 325.5568,41.4156 Q326.0099,41.1812 326.5099,41.1031 Q327.0255,41.025 327.5412,41.025 Q328.0255,41.025 328.4787,41.0875 Q328.9474,41.15 329.3849,41.3375 Q329.838,41.5094 330.213,41.8062 Q330.588,42.1031 330.838,42.5094 Q331.1037,42.9 331.2287,43.3687 Q331.3537,43.8219 331.3537,44.3062 L331.3537,44.3687 L329.3224,44.3687 L329.3224,44.3375 Q329.3224,43.9937 329.1974,43.6812 Q329.0724,43.3531 328.8068,43.1344 Q328.5412,42.9 328.213,42.8219 Q327.8849,42.7437 327.5412,42.7437 Q327.1505,42.7437 326.7755,42.9 Q326.4005,43.0406 326.1662,43.3531 Q325.9318,43.65 325.838,44.0406 Q325.7599,44.4156 325.7599,44.8062 L325.7599,49.9937 Q325.7599,50.3844 325.838,50.775 Q325.9318,51.15 326.1662,51.4625 Q326.4005,51.7594 326.7755,51.9156 Q327.1505,52.0719 327.5412,52.0719 Q327.8849,52.0719 328.213,51.9937 Q328.5412,51.9 328.8068,51.6812 Q329.0724,51.4625 329.1974,51.1344 Q329.3224,50.8062 329.3224,50.4781 L329.3224,50.4312 L331.3537,50.4312 L331.3537,50.5094 Q331.3537,50.9781 331.2287,51.4469 Q331.1037,51.9 330.838,52.3062 Q330.588,52.6969 330.213,52.9937 Q329.838,53.2906 329.3849,53.4781 Q328.9474,53.65 328.4787,53.7125 Q328.0255,53.7906 327.5412,53.7906 Z " fill="#000000"/><text fill="#000000" font-family="sans-serif" font-size="14" lengthAdjust="spacing" textLength="129.9443" x="347.9943" y="52.2325">DashRightCommand</text><line style="stroke:#181818;stroke-width:0.5;" x1="274.61" x2="518.8229" y1="63.15" y2="63.15"/><rect fill="none" height="6" style="stroke:#C82930;stroke-width:1;" width="6" x="281.61" y="73.6993"/><text fill="#000000" font-family="sans-serif" font-size="14" lengthAdjust="spacing" textLength="184.4473" x="293.61" y="80.2818">backUpLocation: Pair&lt;Int,Int&gt;</text><rect fill="none" height="6" style="stroke:#C82930;stroke-width:1;" width="6" x="281.61" y="89.7979"/><text fill="#000000" font-family="sans-serif" font-size="14" lengthAdjust="spacing" textLength="80.9443" x="293.61" y="96.3805">board: Board</text><line style="stroke:#181818;stroke-width:0.5;" x1="274.61" x2="518.8229" y1="103.3473" y2="103.3473"/><text fill="#000000" font-family="sans-serif" font-size="14" lengthAdjust="spacing" textLength="220.2129" x="293.61" y="120.4791">DashRightCommand(board: Board)</text><ellipse cx="284.61" cy="132.9952" fill="#84BE84" rx="3" ry="3" style="stroke:#038048;stroke-width:1;"/><text fill="#000000" font-family="sans-serif" font-size="14" lengthAdjust="spacing" textLength="58.3584" x="293.61" y="136.5777">execute()</text><ellipse cx="284.61" cy="149.0938" fill="#84BE84" rx="3" ry="3" style="stroke:#038048;stroke-width:1;"/><text fill="#000000" font-family="sans-serif" font-size="14" lengthAdjust="spacing" textLength="40.4688" x="293.61" y="152.6764">undo()</text></g><!--class DashLeftCommand--><g class="entity" data-entity="DashLeftCommand" data-source-line="62" data-uid="ent0009" id="entity_DashLeftCommand"><rect fill="#F1F1F1" height="128.4932" rx="2.5" ry="2.5" style="stroke:#181818;stroke-width:0.5;" width="236.8818" x="555.27" y="31.15"/><ellipse cx="609.1543" cy="47.15" fill="#ADD1B2" rx="11" ry="11" style="stroke:#181818;stroke-width:1;"/><path d="M609.2012,53.7906 Q608.6855,53.7906 608.1699,53.6969 Q607.6699,53.6187 607.2168,53.3844 Q606.7793,53.15 606.4043,52.7906 Q606.0449,52.4312 605.7949,51.9781 Q605.5605,51.5094 605.4668,51.0094 Q605.3887,50.5094 605.3887,49.9937 L605.3887,44.8062 Q605.3887,44.3062 605.4668,43.8062 Q605.5605,43.2906 605.7949,42.8375 Q606.0449,42.3844 606.4043,42.025 Q606.7793,41.65 607.2168,41.4156 Q607.6699,41.1812 608.1699,41.1031 Q608.6855,41.025 609.2012,41.025 Q609.6855,41.025 610.1387,41.0875 Q610.6074,41.15 611.0449,41.3375 Q611.498,41.5094 611.873,41.8062 Q612.248,42.1031 612.498,42.5094 Q612.7637,42.9 612.8887,43.3687 Q613.0137,43.8219 613.0137,44.3062 L613.0137,44.3687 L610.9824,44.3687 L610.9824,44.3375 Q610.9824,43.9937 610.8574,43.6812 Q610.7324,43.3531 610.4668,43.1344 Q610.2012,42.9 609.873,42.8219 Q609.5449,42.7437 609.2012,42.7437 Q608.8105,42.7437 608.4355,42.9 Q608.0605,43.0406 607.8262,43.3531 Q607.5918,43.65 607.498,44.0406 Q607.4199,44.4156 607.4199,44.8062 L607.4199,49.9937 Q607.4199,50.3844 607.498,50.775 Q607.5918,51.15 607.8262,51.4625 Q608.0605,51.7594 608.4355,51.9156 Q608.8105,52.0719 609.2012,52.0719 Q609.5449,52.0719 609.873,51.9937 Q610.2012,51.9 610.4668,51.6812 Q610.7324,51.4625 610.8574,51.1344 Q610.9824,50.8062 610.9824,50.4781 L610.9824,50.4312 L613.0137,50.4312 L613.0137,50.5094 Q613.0137,50.9781 612.8887,51.4469 Q612.7637,51.9 612.498,52.3062 Q612.248,52.6969 611.873,52.9937 Q611.498,53.2906 611.0449,53.4781 Q610.6074,53.65 610.1387,53.7125 Q609.6855,53.7906 609.2012,53.7906 Z " fill="#000000"/><text fill="#000000" font-family="sans-serif" font-size="14" lengthAdjust="spacing" textLength="120.6133" x="629.6543" y="52.2325">DashLeftCommand</text><line style="stroke:#181818;stroke-width:0.5;" x1="556.27" x2="791.1518" y1="63.15" y2="63.15"/><rect fill="none" height="6" style="stroke:#C82930;stroke-width:1;" width="6" x="563.27" y="73.6993"/><text fill="#000000" font-family="sans-serif" font-size="14" lengthAdjust="spacing" textLength="184.4473" x="575.27" y="80.2818">backUpLocation: Pair&lt;Int,Int&gt;</text><rect fill="none" height="6" style="stroke:#C82930;stroke-width:1;" width="6" x="563.27" y="89.7979"/><text fill="#000000" font-family="sans-serif" font-size="14" lengthAdjust="spacing" textLength="80.9443" x="575.27" y="96.3805">board: Board</text><line style="stroke:#181818;stroke-width:0.5;" x1="556.27" x2="791.1518" y1="103.3473" y2="103.3473"/><text fill="#000000" font-family="sans-serif" font-size="14" lengthAdjust="spacing" textLength="210.8818" x="575.27" y="120.4791">DashLeftCommand(board: Board)</text><ellipse cx="566.27" cy="132.9952" fill="#84BE84" rx="3" ry="3" style="stroke:#038048;stroke-width:1;"/><text fill="#000000" font-family="sans-serif" font-size="14" lengthAdjust="spacing" textLength="58.3584" x="575.27" y="136.5777">execute()</text><ellipse cx="566.27" cy="149.0938" fill="#84BE84" rx="3" ry="3" style="stroke:#038048;stroke-width:1;"/><text fill="#000000" font-family="sans-serif" font-size="14" lengthAdjust="spacing" textLength="40.4688" x="575.27" y="152.6764">undo()</text></g><!--class DashDownCommand--><g class="entity" data-entity="DashDownCommand" data-source-line="72" data-uid="ent0011" id="entity_DashDownCommand"><rect fill="#F1F1F1" height="128.4932" rx="2.5" ry="2.5" style="stroke:#181818;stroke-width:0.5;" width="249.3232" x="827.05" y="31.15"/><ellipse cx="880.9343" cy="47.15" fill="#ADD1B2" rx="11" ry="11" style="stroke:#181818;stroke-width:1;"/><path d="M880.9812,53.7906 Q880.4655,53.7906 879.9499,53.6969 Q879.4499,53.6187 878.9968,53.3844 Q878.5593,53.15 878.1843,52.7906 Q877.8249,52.4312 877.5749,51.9781 Q877.3405,51.5094 877.2468,51.0094 Q877.1687,50.5094 877.1687,49.9937 L877.1687,44.8062 Q877.1687,44.3062 877.2468,43.8062 Q877.3405,43.2906 877.5749,42.8375 Q877.8249,42.3844 878.1843,42.025 Q878.5593,41.65 878.9968,41.4156 Q879.4499,41.1812 879.9499,41.1031 Q880.4655,41.025 880.9812,41.025 Q881.4655,41.025 881.9187,41.0875 Q882.3874,41.15 882.8249,41.3375 Q883.278,41.5094 883.653,41.8062 Q884.028,42.1031 884.278,42.5094 Q884.5437,42.9 884.6687,43.3687 Q884.7937,43.8219 884.7937,44.3062 L884.7937,44.3687 L882.7624,44.3687 L882.7624,44.3375 Q882.7624,43.9937 882.6374,43.6812 Q882.5124,43.3531 882.2468,43.1344 Q881.9812,42.9 881.653,42.8219 Q881.3249,42.7437 880.9812,42.7437 Q880.5905,42.7437 880.2155,42.9 Q879.8405,43.0406 879.6062,43.3531 Q879.3718,43.65 879.278,44.0406 Q879.1999,44.4156 879.1999,44.8062 L879.1999,49.9937 Q879.1999,50.3844 879.278,50.775 Q879.3718,51.15 879.6062,51.4625 Q879.8405,51.7594 880.2155,51.9156 Q880.5905,52.0719 880.9812,52.0719 Q881.3249,52.0719 881.653,51.9937 Q881.9812,51.9 882.2468,51.6812 Q882.5124,51.4625 882.6374,51.1344 Q882.7624,50.8062 882.7624,50.4781 L882.7624,50.4312 L884.7937,50.4312 L884.7937,50.5094 Q884.7937,50.9781 884.6687,51.4469 Q884.5437,51.9 884.278,52.3062 Q884.028,52.6969 883.653,52.9937 Q883.278,53.2906 882.8249,53.4781 Q882.3874,53.65 881.9187,53.7125 Q881.4655,53.7906 880.9812,53.7906 Z " fill="#000000"/><text fill="#000000" font-family="sans-serif" font-size="14" lengthAdjust="spacing" textLength="133.0547" x="901.4343" y="52.2325">DashDownCommand</text><line style="stroke:#181818;stroke-width:0.5;" x1="828.05" x2="1075.3732" y1="63.15" y2="63.15"/><rect fill="none" height="6" style="stroke:#C82930;stroke-width:1;" width="6" x="835.05" y="73.6993"/><text fill="#000000" font-family="sans-serif" font-size="14" lengthAdjust="spacing" textLength="184.4473" x="847.05" y="80.2818">backUpLocation: Pair&lt;Int,Int&gt;</text><rect fill="none" height="6" style="stroke:#C82930;stroke-width:1;" width="6" x="835.05" y="89.7979"/><text fill="#000000" font-family="sans-serif" font-size="14" lengthAdjust="spacing" textLength="80.9443" x="847.05" y="96.3805">board: Board</text><line style="stroke:#181818;stroke-width:0.5;" x1="828.05" x2="1075.3732" y1="103.3473" y2="103.3473"/><text fill="#000000" font-family="sans-serif" font-size="14" lengthAdjust="spacing" textLength="223.3232" x="847.05" y="120.4791">DashDownCommand(board: Board)</text><ellipse cx="838.05" cy="132.9952" fill="#84BE84" rx="3" ry="3" style="stroke:#038048;stroke-width:1;"/><text fill="#000000" font-family="sans-serif" font-size="14" lengthAdjust="spacing" textLength="58.3584" x="847.05" y="136.5777">execute()</text><ellipse cx="838.05" cy="149.0938" fill="#84BE84" rx="3" ry="3" style="stroke:#038048;stroke-width:1;"/><text fill="#000000" font-family="sans-serif" font-size="14" lengthAdjust="spacing" textLength="40.4688" x="847.05" y="152.6764">undo()</text></g><!--link DashUpCommand to Command--><g class="link" data-entity-1="DashUpCommand" data-entity-2="Command" data-source-line="50" data-uid="lnk6" id="link_DashUpCommand_Command"><path codeLine="50" d="M207.31,160.01 C222.78,169.27 239.26,177.71 255.71,183.79 C453.65,256.95 558.27,116.68 726.71,243.79 C762.3,270.64 774.9608,303.2579 782.3108,338.5579" fill="none" id="DashUpCommand-to-Command" style="stroke:#181818;stroke-width:1;stroke-dasharray:7,7;"/><polygon fill="none" points="785.98,356.18,788.1848,337.3349,776.4368,339.781,785.98,356.18" style="stroke:#181818;stroke-width:1;"/></g><!--link DashRightCommand to Command--><g class="link" data-entity-1="DashRightCommand" data-entity-2="Command" data-source-line="60" data-uid="lnk8" id="link_DashRightCommand_Command"><path codeLine="60" d="M492.43,160.06 C507.27,168.65 522.67,176.87 537.71,183.79 C617.78,220.62 661.44,184.57 726.71,243.79 C759.3,273.36 771.9455,304.5452 780.2355,338.7952" fill="none" id="DashRightCommand-to-Command" style="stroke:#181818;stroke-width:1;stroke-dasharray:7,7;"/><polygon fill="none" points="784.47,356.29,786.0671,337.3837,774.4039,340.2067,784.47,356.29" style="stroke:#181818;stroke-width:1;"/></g><!--link DashLeftCommand to Command--><g class="link" data-entity-1="DashLeftCommand" data-entity-2="Command" data-source-line="70" data-uid="lnk10" id="link_DashLeftCommand_Command"><path codeLine="70" d="M698.74,159.85 C722.15,219.2 749.7776,289.2446 769.5076,339.2846" fill="none" id="DashLeftCommand-to-Command" style="stroke:#181818;stroke-width:1;stroke-dasharray:7,7;"/><polygon fill="none" points="776.11,356.03,775.0893,337.0838,763.9258,341.4854,776.11,356.03" style="stroke:#181818;stroke-width:1;"/></g><!--link DashDownCommand to Command--><g class="link" data-entity-1="DashDownCommand" data-entity-2="Command" data-source-line="80" data-uid="lnk12" id="link_DashDownCommand_Command"><path codeLine="80" d="M917.78,159.85 C886.04,219.2 848.1184,290.1171 821.3584,340.1571" fill="none" id="DashDownCommand-to-Command" style="stroke:#181818;stroke-width:1;stroke-dasharray:7,7;"/><polygon fill="none" points="812.87,356.03,826.6493,342.9866,816.0674,337.3277,812.87,356.03" style="stroke:#181818;stroke-width:1;"/></g><!--link Controller to Board--><g class="link" data-entity-1="Controller" data-entity-2="Board" data-source-line="82" data-uid="lnk13" id="link_Controller_Board"><path codeLine="82" d="M1110.82,176.6 C1105.13,179.21 1099.41,181.63 1093.71,183.79 C938.8,242.65 875.27,172.42 725.71,243.79 C720.18,246.43 719.9089,246.3497 714.4789,249.4297" fill="none" id="Controller-to-Board" style="stroke:#181818;stroke-width:1;stroke-dasharray:7,7;"/><polygon fill="#181818" points="709.26,252.39,719.0618,251.4289,713.6091,249.9231,715.1148,244.4703,709.26,252.39" style="stroke:#181818;stroke-width:1;"/></g><!--link Controller to Command--><g class="link" data-entity-1="Controller" data-entity-2="Command" data-source-line="83" data-uid="lnk14" id="link_Controller_Command"><path codeLine="83" d="M1110.61,178.74 C1021.44,239.37 909.8717,315.2364 845.2317,359.1864" fill="none" id="Controller-to-Command" style="stroke:#181818;stroke-width:1;stroke-dasharray:7,7;"/><polygon fill="#181818" points="840.27,362.56,849.9617,360.8074,844.4048,359.7487,845.4636,354.1918,840.27,362.56" style="stroke:#181818;stroke-width:1;"/></g><!--link DashUpCommand to Board--><g class="link" data-entity-1="DashUpCommand" data-entity-2="Board" data-source-line="84" data-uid="lnk15" id="link_DashUpCommand_Board"><path codeLine="84" d="M214.81,160.03 C269.31,197.69 334.8038,242.9392 397.4838,286.2492" fill="none" id="DashUpCommand-to-Board" style="stroke:#181818;stroke-width:1;stroke-dasharray:7,7;"/><polygon fill="#181818" points="402.42,289.66,397.2895,281.253,398.3065,286.8177,392.7418,287.8346,402.42,289.66" style="stroke:#181818;stroke-width:1;"/></g><!--link DashRightCommand to Board--><g class="link" data-entity-1="DashRightCommand" data-entity-2="Board" data-source-line="85" data-uid="lnk16" id="link_DashRightCommand_Board"><path codeLine="85" d="M430.43,159.85 C443.56,184.55 456.3943,208.7017 472.1143,238.2817" fill="none" id="DashRightCommand-to-Board" style="stroke:#181818;stroke-width:1;stroke-dasharray:7,7;"/><polygon fill="#181818" points="474.93,243.58,474.2386,233.7554,472.5836,239.1648,467.1742,237.5097,474.93,243.58" style="stroke:#181818;stroke-width:1;"/></g><!--link DashLeftCommand to Board--><g class="link" data-entity-1="DashLeftCommand" data-entity-2="Board" data-source-line="86" data-uid="lnk17" id="link_DashLeftCommand_Board"><path codeLine="86" d="M648.69,159.85 C638.95,184.55 629.532,208.4187 617.862,237.9987" fill="none" id="DashLeftCommand-to-Board" style="stroke:#181818;stroke-width:1;stroke-dasharray:7,7;"/><polygon fill="#181818" points="615.66,243.58,622.6838,236.676,617.495,238.9289,615.2421,233.74,615.66,243.58" style="stroke:#181818;stroke-width:1;"/></g><!--link DashDownCommand to Board--><g class="link" data-entity-1="DashDownCommand" data-entity-2="Board" data-source-line="87" data-uid="lnk18" id="link_DashDownCommand_Board"><path codeLine="87" d="M847.08,159.98 C808.09,184.87 764.02,214.46 725.71,243.79 C720.22,248 719.3552,248.5918 713.8052,253.0318" fill="none" id="DashDownCommand-to-Board" style="stroke:#181818;stroke-width:1;stroke-dasharray:7,7;"/><polygon fill="#181818" points="709.12,256.78,718.6466,254.2812,713.0243,253.6565,713.649,248.0343,709.12,256.78" style="stroke:#181818;stroke-width:1;"/></g><!--SRC=[lLFHRe8m57tdA_g8SVC3YE51VTWIbompVa1Nhjgiz9AspYtR_dsbjDeY-2W91CxfvPpJ0qnGhSa2gQgodupOmztdEov0qXeAiZ6Ao_t4SO-4hP4Lv9LoDN-Mvi6UfMT0LiC4rniKt99hhitSNHQ80gWimn9jg393qrF2g7p1JrZXIUQJWlZ9b5p3peoIRtn_66UtpG1re8eo0yfcfOQZ4nxoLf-DHK1d9WAyWGXfHVsZ0G4DAhCCchc4Kz3jgPvdiEkajTNTPNzPbZ5NvHAbKIW4AD_d1SZVssgBhk5GQ8o5Zh6kgQoUR5EeldrlomuCqHi5MYVP7PA4TqYQta5H_AEiq3wqzhcqwNUK0V5Itl-Km1Umeu6XeIxpYkh3jad74cmuEMKVssPahyTsvuQRH97CPh_bEKdaq-t7jTKOlflRM7JKS5lfjTy8lPlTI7FKRVj9NhkDqBkvZJHxRYz_f2LA_yOU61RtFwgmVA2-c4gtAcPIMvxv1m00]--></g></svg>