<?xml version="1.0" encoding="UTF-8" standalone="no"?><svg xmlns="http://www.w3.org/2000/svg" xmlns:xlink="http://www.w3.org/1999/xlink" contentScriptType="application/ecmascript" contentStyleType="text/css" height="265px" preserveAspectRatio="none" style="width:342px;height:265px;" version="1.1" viewBox="0 0 342 265"
    width="342px" zoomAndPan="magnify"><defs><filter height="300%" id="f1vw91sps5t72m" width="300%" x="-1" y="-1"><feGaussianBlur result="blurOut" stdDeviation="2.0"/><feColorMatrix in="blurOut" result="blurOut2" type="matrix" values="0 0 0 0 0 0 0 0 0 0 0 0 0 0 0 0 0 0 .4 0"/><feOffset dx="4.0" dy="4.0" in="blurOut2" result="blurOut3"/><feBlend in="SourceGraphic" in2="blurOut3" mode="normal"/></filter></defs><g><!--class Shipment--><rect fill="#FEFECE" filter="url(#f1vw91sps5t72m)" height="112.7754" id="Shipment" style="stroke: #A80036; stroke-width: 1.5;" width="193" x="6" y="142"/><ellipse cx="71.75" cy="158" fill="#ADD1B2" rx="11" ry="11" style="stroke: #A80036; stroke-width: 1.0;"/><path d="M74.2231,164.1431 Q73.6421,164.4419 73.0029,164.5913 Q72.3638,164.7407 71.6582,164.7407 Q69.1514,164.7407 67.8315,163.0889 Q66.5117,161.437 66.5117,158.3159 Q66.5117,155.1865 67.8315,153.5347 Q69.1514,151.8828 71.6582,151.8828 Q72.3638,151.8828 73.0112,152.0322 Q73.6587,152.1816 74.2231,152.4805 L74.2231,155.2031 Q73.5923,154.6221 72.9988,154.3523 Q72.4053,154.0825 71.7744,154.0825 Q70.4297,154.0825 69.7449,155.1492 Q69.0601,156.2158 69.0601,158.3159 Q69.0601,160.4077 69.7449,161.4744 Q70.4297,162.541 71.7744,162.541 Q72.4053,162.541 72.9988,162.2712 Q73.5923,162.0015 74.2231,161.4204 Z "/><text fill="#000000" font-family="sans-serif" font-size="12" lengthAdjust="spacingAndGlyphs" textLength="53" x="92.25" y="162.5352">Shipment</text><line style="stroke: #A80036; stroke-width: 1.5;" x1="7" x2="198" y1="174" y2="174"/><rect fill="none" height="6" style="stroke: #C82930; stroke-width: 1.0;" width="6" x="14" y="182.9775"/><text fill="#000000" font-family="sans-serif" font-size="11" lengthAdjust="spacingAndGlyphs" textLength="100" x="26" y="188.6348">processDate : Date</text><rect fill="none" height="6" style="stroke: #C82930; stroke-width: 1.0;" width="6" x="14" y="195.9326"/><text fill="#000000" font-family="sans-serif" font-size="11" lengthAdjust="spacingAndGlyphs" textLength="98" x="26" y="201.5898">orderList : [Order]</text><rect fill="none" height="6" style="stroke: #C82930; stroke-width: 1.0;" width="6" x="14" y="208.8877"/><text fill="#000000" font-family="sans-serif" font-size="11" lengthAdjust="spacingAndGlyphs" textLength="94" x="26" y="214.5449">delivery : Delivery</text><line style="stroke: #A80036; stroke-width: 1.5;" x1="7" x2="198" y1="220.8652" y2="220.8652"/><ellipse cx="17" cy="232.8428" fill="#84BE84" rx="3" ry="3" style="stroke: #038048; stroke-width: 1.0;"/><text fill="#000000" font-family="sans-serif" font-size="11" lengthAdjust="spacingAndGlyphs" textLength="118" x="26" y="235.5">shipmentDetails() : str</text><ellipse cx="17" cy="245.7979" fill="#84BE84" rx="3" ry="3" style="stroke: #038048; stroke-width: 1.0;"/><text fill="#000000" font-family="sans-serif" font-size="11" lengthAdjust="spacingAndGlyphs" textLength="167" x="26" y="248.4551">newDelivery(location) : Delivery</text><!--class Printable--><rect fill="#FEFECE" filter="url(#f1vw91sps5t72m)" height="60.9551" id="Printable" style="stroke: #A80036; stroke-width: 1.5;" width="97" x="234" y="168"/><ellipse cx="255.3" cy="184" fill="#B4A7E5" rx="11" ry="11" style="stroke: #A80036; stroke-width: 1.0;"/><path d="M251.7277,180.2651 L251.7277,178.1069 L259.1071,178.1069 L259.1071,180.2651 L256.6418,180.2651 L256.6418,188.3418 L259.1071,188.3418 L259.1071,190.5 L251.7277,190.5 L251.7277,188.3418 L254.1931,188.3418 L254.1931,180.2651 Z "/><text fill="#000000" font-family="sans-serif" font-size="12" font-style="italic" lengthAdjust="spacingAndGlyphs" textLength="51" x="270.7" y="188.5352">Printable</text><line style="stroke: #A80036; stroke-width: 1.5;" x1="235" x2="330" y1="200" y2="200"/><line style="stroke: #A80036; stroke-width: 1.5;" x1="235" x2="330" y1="208" y2="208"/><ellipse cx="245" cy="219.9775" fill="#84BE84" rx="3" ry="3" style="stroke: #038048; stroke-width: 1.0;"/><text fill="#000000" font-family="sans-serif" font-size="11" font-style="italic" lengthAdjust="spacingAndGlyphs" textLength="71" x="254" y="222.6348">__str__() : str</text><!--class PrintableShipment--><rect fill="#FEFECE" filter="url(#f1vw91sps5t72m)" height="73.9102" id="PrintableShipment" style="stroke: #A80036; stroke-width: 1.5;" width="136" x="124.5" y="8"/><ellipse cx="139.5" cy="24" fill="#ADD1B2" rx="11" ry="11" style="stroke: #A80036; stroke-width: 1.0;"/><path d="M141.9731,30.1431 Q141.3921,30.4419 140.7529,30.5913 Q140.1138,30.7407 139.4082,30.7407 Q136.9014,30.7407 135.5815,29.0889 Q134.2617,27.437 134.2617,24.3159 Q134.2617,21.1865 135.5815,19.5347 Q136.9014,17.8828 139.4082,17.8828 Q140.1138,17.8828 140.7612,18.0322 Q141.4087,18.1816 141.9731,18.4805 L141.9731,21.2031 Q141.3423,20.6221 140.7488,20.3523 Q140.1553,20.0825 139.5244,20.0825 Q138.1797,20.0825 137.4949,21.1492 Q136.8101,22.2158 136.8101,24.3159 Q136.8101,26.4077 137.4949,27.4744 Q138.1797,28.541 139.5244,28.541 Q140.1553,28.541 140.7488,28.2712 Q141.3423,28.0015 141.9731,27.4204 Z "/><text fill="#000000" font-family="sans-serif" font-size="12" lengthAdjust="spacingAndGlyphs" textLength="104" x="153.5" y="28.5352">PrintableShipment</text><line style="stroke: #A80036; stroke-width: 1.5;" x1="125.5" x2="259.5" y1="40" y2="40"/><rect fill="none" height="6" style="stroke: #C82930; stroke-width: 1.0;" width="6" x="132.5" y="48.9775"/><text fill="#000000" font-family="sans-serif" font-size="11" lengthAdjust="spacingAndGlyphs" textLength="109" x="144.5" y="54.6348">shipment : Shipment</text><line style="stroke: #A80036; stroke-width: 1.5;" x1="125.5" x2="259.5" y1="60.9551" y2="60.9551"/><ellipse cx="135.5" cy="72.9326" fill="#84BE84" rx="3" ry="3" style="stroke: #038048; stroke-width: 1.0;"/><text fill="#000000" font-family="sans-serif" font-size="11" lengthAdjust="spacingAndGlyphs" textLength="71" x="144.5" y="75.5898">__str__() : str</text><!--link PrintableShipment to Printable--><path d="M214.2865,82.1581 C226.3168,102.6764 241.3952,128.3935 254.3142,150.4276 " fill="none" id="PrintableShipment-Printable" style="stroke: #A80036; stroke-width: 1.0; stroke-dasharray: 7.0,7.0;"/><polygon fill="none" points="260.4666,147.0812,264.5439,167.8749,248.3894,154.1623,260.4666,147.0812" style="stroke: #A80036; stroke-width: 1.0;"/><!--link PrintableShipment to Shipment--><path d="M170.7135,82.1581 C161.0259,98.6809 149.3616,118.5749 138.4401,137.2021 " fill="none" id="PrintableShipment-Shipment" style="stroke: #A80036; stroke-width: 1.0;"/><polygon fill="#A80036" points="135.6811,141.9077,143.6839,136.167,138.2101,137.5944,136.7827,132.1206,135.6811,141.9077" style="stroke: #A80036; stroke-width: 1.0;"/><!--
@startuml

  class Shipment{
    - processDate : Date
    - orderList : [Order]
    - delivery : Delivery
    + shipmentDetails() : str
    + newDelivery(location) : Delivery
  }

  interface Printable{
    + {abstract} __str__() : str
  }

  class PrintableShipment{
    - shipment : Shipment
    + __str__() : str
  }

  PrintableShipment ..|> Printable
  PrintableShipment - -> Shipment

@enduml

PlantUML version 1.2018.01(Mon Jan 29 02:08:22 PHT 2018)
(GPL source distribution)
Java Runtime: Java(TM) SE Runtime Environment
JVM: Java HotSpot(TM) 64-Bit Server VM
Java Version: 1.8.0_92-b14
Operating System: Mac OS X
OS Version: 10.14.6
Default Encoding: UTF-8
Language: en
Country: US
--></g></svg>