<?xml version="1.0" encoding="UTF-8" standalone="no"?><svg xmlns="http://www.w3.org/2000/svg" xmlns:xlink="http://www.w3.org/1999/xlink" contentScriptType="application/ecmascript" contentStyleType="text/css" height="399px" preserveAspectRatio="none" style="width:453px;height:399px;" version="1.1" viewBox="0 0 453 399" width="453px" zoomAndPan="magnify"><defs><filter height="300%" id="f1oruph9fxlpuh" width="300%" x="-1" y="-1"><feGaussianBlur result="blurOut" stdDeviation="2.0"/><feColorMatrix in="blurOut" result="blurOut2" type="matrix" values="0 0 0 0 0 0 0 0 0 0 0 0 0 0 0 0 0 0 .4 0"/><feOffset dx="4.0" dy="4.0" in="blurOut2" result="blurOut3"/><feBlend in="SourceGraphic" in2="blurOut3" mode="normal"/></filter></defs><g><!--class SubClass--><rect fill="#FEFECE" filter="url(#f1oruph9fxlpuh)" height="48" id="SubClass" style="stroke: #A80036; stroke-width: 1.5;" width="83" x="12" y="340"/><ellipse cx="27" cy="356" fill="#ADD1B2" rx="11" ry="11" style="stroke: #A80036; stroke-width: 1.0;"/><path d="M29.4731,362.1431 Q28.8921,362.4419 28.2529,362.5913 Q27.6138,362.7407 26.9082,362.7407 Q24.4014,362.7407 23.0815,361.0889 Q21.7617,359.437 21.7617,356.3159 Q21.7617,353.1865 23.0815,351.5347 Q24.4014,349.8828 26.9082,349.8828 Q27.6138,349.8828 28.2612,350.0322 Q28.9087,350.1816 29.4731,350.4805 L29.4731,353.2031 Q28.8423,352.6221 28.2488,352.3523 Q27.6553,352.0825 27.0244,352.0825 Q25.6797,352.0825 24.9949,353.1492 Q24.3101,354.2158 24.3101,356.3159 Q24.3101,358.4077 24.9949,359.4744 Q25.6797,360.541 27.0244,360.541 Q27.6553,360.541 28.2488,360.2712 Q28.8423,360.0015 29.4731,359.4204 Z "/><text fill="#000000" font-family="sans-serif" font-size="12" lengthAdjust="spacingAndGlyphs" textLength="51" x="41" y="360.5352">SubClass</text><line style="stroke: #A80036; stroke-width: 1.5;" x1="13" x2="94" y1="372" y2="372"/><line style="stroke: #A80036; stroke-width: 1.5;" x1="13" x2="94" y1="380" y2="380"/><!--class SuperClass--><rect fill="#FEFECE" filter="url(#f1oruph9fxlpuh)" height="48" id="SuperClass" style="stroke: #A80036; stroke-width: 1.5;" width="95" x="342.5" y="340"/><ellipse cx="357.5" cy="356" fill="#ADD1B2" rx="11" ry="11" style="stroke: #A80036; stroke-width: 1.0;"/><path d="M359.9731,362.1431 Q359.3921,362.4419 358.7529,362.5913 Q358.1138,362.7407 357.4082,362.7407 Q354.9014,362.7407 353.5815,361.0889 Q352.2617,359.437 352.2617,356.3159 Q352.2617,353.1865 353.5815,351.5347 Q354.9014,349.8828 357.4082,349.8828 Q358.1138,349.8828 358.7612,350.0322 Q359.4087,350.1816 359.9731,350.4805 L359.9731,353.2031 Q359.3423,352.6221 358.7488,352.3523 Q358.1553,352.0825 357.5244,352.0825 Q356.1797,352.0825 355.4949,353.1492 Q354.8101,354.2158 354.8101,356.3159 Q354.8101,358.4077 355.4949,359.4744 Q356.1797,360.541 357.5244,360.541 Q358.1553,360.541 358.7488,360.2712 Q359.3423,360.0015 359.9731,359.4204 Z "/><text fill="#000000" font-family="sans-serif" font-size="12" lengthAdjust="spacingAndGlyphs" textLength="63" x="371.5" y="360.5352">SuperClass</text><line style="stroke: #A80036; stroke-width: 1.5;" x1="343.5" x2="436.5" y1="372" y2="372"/><line style="stroke: #A80036; stroke-width: 1.5;" x1="343.5" x2="436.5" y1="380" y2="380"/><!--class Realization--><rect fill="#FEFECE" filter="url(#f1oruph9fxlpuh)" height="48" id="Realization" style="stroke: #A80036; stroke-width: 1.5;" width="95" x="6" y="257"/><ellipse cx="21" cy="273" fill="#ADD1B2" rx="11" ry="11" style="stroke: #A80036; stroke-width: 1.0;"/><path d="M23.4731,279.1431 Q22.8921,279.4419 22.2529,279.5913 Q21.6138,279.7407 20.9082,279.7407 Q18.4014,279.7407 17.0815,278.0889 Q15.7617,276.437 15.7617,273.3159 Q15.7617,270.1865 17.0815,268.5347 Q18.4014,266.8828 20.9082,266.8828 Q21.6138,266.8828 22.2612,267.0322 Q22.9087,267.1816 23.4731,267.4805 L23.4731,270.2031 Q22.8423,269.6221 22.2488,269.3523 Q21.6553,269.0825 21.0244,269.0825 Q19.6797,269.0825 18.9949,270.1492 Q18.3101,271.2158 18.3101,273.3159 Q18.3101,275.4077 18.9949,276.4744 Q19.6797,277.541 21.0244,277.541 Q21.6553,277.541 22.2488,277.2712 Q22.8423,277.0015 23.4731,276.4204 Z "/><text fill="#000000" font-family="sans-serif" font-size="12" lengthAdjust="spacingAndGlyphs" textLength="63" x="35" y="277.5352">Realization</text><line style="stroke: #A80036; stroke-width: 1.5;" x1="7" x2="100" y1="289" y2="289"/><line style="stroke: #A80036; stroke-width: 1.5;" x1="7" x2="100" y1="297" y2="297"/><!--class Abstraction--><rect fill="#FEFECE" filter="url(#f1oruph9fxlpuh)" height="48" id="Abstraction" style="stroke: #A80036; stroke-width: 1.5;" width="97" x="341.5" y="257"/><ellipse cx="356.5" cy="273" fill="#B4A7E5" rx="11" ry="11" style="stroke: #A80036; stroke-width: 1.0;"/><path d="M352.9277,269.2651 L352.9277,267.1069 L360.3071,267.1069 L360.3071,269.2651 L357.8418,269.2651 L357.8418,277.3418 L360.3071,277.3418 L360.3071,279.5 L352.9277,279.5 L352.9277,277.3418 L355.3931,277.3418 L355.3931,269.2651 Z "/><text fill="#000000" font-family="sans-serif" font-size="12" font-style="italic" lengthAdjust="spacingAndGlyphs" textLength="65" x="370.5" y="277.5352">Abstraction</text><line style="stroke: #A80036; stroke-width: 1.5;" x1="342.5" x2="437.5" y1="289" y2="289"/><line style="stroke: #A80036; stroke-width: 1.5;" x1="342.5" x2="437.5" y1="297" y2="297"/><!--class Ownee--><rect fill="#FEFECE" filter="url(#f1oruph9fxlpuh)" height="48" id="Ownee" style="stroke: #A80036; stroke-width: 1.5;" width="71" x="354.5" y="174"/><ellipse cx="369.5" cy="190" fill="#ADD1B2" rx="11" ry="11" style="stroke: #A80036; stroke-width: 1.0;"/><path d="M371.9731,196.1431 Q371.3921,196.4419 370.7529,196.5913 Q370.1138,196.7407 369.4082,196.7407 Q366.9014,196.7407 365.5815,195.0889 Q364.2617,193.437 364.2617,190.3159 Q364.2617,187.1865 365.5815,185.5347 Q366.9014,183.8828 369.4082,183.8828 Q370.1138,183.8828 370.7612,184.0322 Q371.4087,184.1816 371.9731,184.4805 L371.9731,187.2031 Q371.3423,186.6221 370.7488,186.3523 Q370.1553,186.0825 369.5244,186.0825 Q368.1797,186.0825 367.4949,187.1492 Q366.8101,188.2158 366.8101,190.3159 Q366.8101,192.4077 367.4949,193.4744 Q368.1797,194.541 369.5244,194.541 Q370.1553,194.541 370.7488,194.2712 Q371.3423,194.0015 371.9731,193.4204 Z "/><text fill="#000000" font-family="sans-serif" font-size="12" lengthAdjust="spacingAndGlyphs" textLength="39" x="383.5" y="194.5352">Ownee</text><line style="stroke: #A80036; stroke-width: 1.5;" x1="355.5" x2="424.5" y1="206" y2="206"/><line style="stroke: #A80036; stroke-width: 1.5;" x1="355.5" x2="424.5" y1="214" y2="214"/><!--class Owner--><rect fill="#FEFECE" filter="url(#f1oruph9fxlpuh)" height="48" id="Owner" style="stroke: #A80036; stroke-width: 1.5;" width="69" x="19" y="174"/><ellipse cx="34" cy="190" fill="#ADD1B2" rx="11" ry="11" style="stroke: #A80036; stroke-width: 1.0;"/><path d="M36.4731,196.1431 Q35.8921,196.4419 35.2529,196.5913 Q34.6138,196.7407 33.9082,196.7407 Q31.4014,196.7407 30.0815,195.0889 Q28.7617,193.437 28.7617,190.3159 Q28.7617,187.1865 30.0815,185.5347 Q31.4014,183.8828 33.9082,183.8828 Q34.6138,183.8828 35.2612,184.0322 Q35.9087,184.1816 36.4731,184.4805 L36.4731,187.2031 Q35.8423,186.6221 35.2488,186.3523 Q34.6553,186.0825 34.0244,186.0825 Q32.6797,186.0825 31.9949,187.1492 Q31.3101,188.2158 31.3101,190.3159 Q31.3101,192.4077 31.9949,193.4744 Q32.6797,194.541 34.0244,194.541 Q34.6553,194.541 35.2488,194.2712 Q35.8423,194.0015 36.4731,193.4204 Z "/><text fill="#000000" font-family="sans-serif" font-size="12" lengthAdjust="spacingAndGlyphs" textLength="37" x="48" y="194.5352">Owner</text><line style="stroke: #A80036; stroke-width: 1.5;" x1="20" x2="87" y1="206" y2="206"/><line style="stroke: #A80036; stroke-width: 1.5;" x1="20" x2="87" y1="214" y2="214"/><!--class User--><rect fill="#FEFECE" filter="url(#f1oruph9fxlpuh)" height="48" id="User" style="stroke: #A80036; stroke-width: 1.5;" width="58" x="24.5" y="91"/><ellipse cx="39.5" cy="107" fill="#ADD1B2" rx="11" ry="11" style="stroke: #A80036; stroke-width: 1.0;"/><path d="M41.9731,113.1431 Q41.3921,113.4419 40.7529,113.5913 Q40.1138,113.7407 39.4082,113.7407 Q36.9014,113.7407 35.5815,112.0889 Q34.2617,110.437 34.2617,107.3159 Q34.2617,104.1865 35.5815,102.5347 Q36.9014,100.8828 39.4082,100.8828 Q40.1138,100.8828 40.7612,101.0322 Q41.4087,101.1816 41.9731,101.4805 L41.9731,104.2031 Q41.3423,103.6221 40.7488,103.3523 Q40.1553,103.0825 39.5244,103.0825 Q38.1797,103.0825 37.4949,104.1492 Q36.8101,105.2158 36.8101,107.3159 Q36.8101,109.4077 37.4949,110.4744 Q38.1797,111.541 39.5244,111.541 Q40.1553,111.541 40.7488,111.2712 Q41.3423,111.0015 41.9731,110.4204 Z "/><text fill="#000000" font-family="sans-serif" font-size="12" lengthAdjust="spacingAndGlyphs" textLength="26" x="53.5" y="111.5352">User</text><line style="stroke: #A80036; stroke-width: 1.5;" x1="25.5" x2="81.5" y1="123" y2="123"/><line style="stroke: #A80036; stroke-width: 1.5;" x1="25.5" x2="81.5" y1="131" y2="131"/><!--class Usee--><rect fill="#FEFECE" filter="url(#f1oruph9fxlpuh)" height="48" id="Usee" style="stroke: #A80036; stroke-width: 1.5;" width="60" x="360" y="91"/><ellipse cx="375" cy="107" fill="#ADD1B2" rx="11" ry="11" style="stroke: #A80036; stroke-width: 1.0;"/><path d="M377.4731,113.1431 Q376.8921,113.4419 376.2529,113.5913 Q375.6138,113.7407 374.9082,113.7407 Q372.4014,113.7407 371.0815,112.0889 Q369.7617,110.437 369.7617,107.3159 Q369.7617,104.1865 371.0815,102.5347 Q372.4014,100.8828 374.9082,100.8828 Q375.6138,100.8828 376.2612,101.0322 Q376.9087,101.1816 377.4731,101.4805 L377.4731,104.2031 Q376.8423,103.6221 376.2488,103.3523 Q375.6553,103.0825 375.0244,103.0825 Q373.6797,103.0825 372.9949,104.1492 Q372.3101,105.2158 372.3101,107.3159 Q372.3101,109.4077 372.9949,110.4744 Q373.6797,111.541 375.0244,111.541 Q375.6553,111.541 376.2488,111.2712 Q376.8423,111.0015 377.4731,110.4204 Z "/><text fill="#000000" font-family="sans-serif" font-size="12" lengthAdjust="spacingAndGlyphs" textLength="28" x="389" y="111.5352">Usee</text><line style="stroke: #A80036; stroke-width: 1.5;" x1="361" x2="419" y1="123" y2="123"/><line style="stroke: #A80036; stroke-width: 1.5;" x1="361" x2="419" y1="131" y2="131"/><!--class Client--><rect fill="#FEFECE" filter="url(#f1oruph9fxlpuh)" height="48" id="Client" style="stroke: #A80036; stroke-width: 1.5;" width="64" x="21.5" y="8"/><ellipse cx="36.5" cy="24" fill="#ADD1B2" rx="11" ry="11" style="stroke: #A80036; stroke-width: 1.0;"/><path d="M38.9731,30.1431 Q38.3921,30.4419 37.7529,30.5913 Q37.1138,30.7407 36.4082,30.7407 Q33.9014,30.7407 32.5815,29.0889 Q31.2617,27.437 31.2617,24.3159 Q31.2617,21.1865 32.5815,19.5347 Q33.9014,17.8828 36.4082,17.8828 Q37.1138,17.8828 37.7612,18.0322 Q38.4087,18.1816 38.9731,18.4805 L38.9731,21.2031 Q38.3423,20.6221 37.7488,20.3523 Q37.1553,20.0825 36.5244,20.0825 Q35.1797,20.0825 34.4949,21.1492 Q33.8101,22.2158 33.8101,24.3159 Q33.8101,26.4077 34.4949,27.4744 Q35.1797,28.541 36.5244,28.541 Q37.1553,28.541 37.7488,28.2712 Q38.3423,28.0015 38.9731,27.4204 Z "/><text fill="#000000" font-family="sans-serif" font-size="12" lengthAdjust="spacingAndGlyphs" textLength="32" x="50.5" y="28.5352">Client</text><line style="stroke: #A80036; stroke-width: 1.5;" x1="22.5" x2="84.5" y1="40" y2="40"/><line style="stroke: #A80036; stroke-width: 1.5;" x1="22.5" x2="84.5" y1="48" y2="48"/><!--class Dependency--><rect fill="#FEFECE" filter="url(#f1oruph9fxlpuh)" height="48" id="Dependency" style="stroke: #A80036; stroke-width: 1.5;" width="104" x="338" y="8"/><ellipse cx="353" cy="24" fill="#ADD1B2" rx="11" ry="11" style="stroke: #A80036; stroke-width: 1.0;"/><path d="M355.4731,30.1431 Q354.8921,30.4419 354.2529,30.5913 Q353.6138,30.7407 352.9082,30.7407 Q350.4014,30.7407 349.0815,29.0889 Q347.7617,27.437 347.7617,24.3159 Q347.7617,21.1865 349.0815,19.5347 Q350.4014,17.8828 352.9082,17.8828 Q353.6138,17.8828 354.2612,18.0322 Q354.9087,18.1816 355.4731,18.4805 L355.4731,21.2031 Q354.8423,20.6221 354.2488,20.3523 Q353.6553,20.0825 353.0244,20.0825 Q351.6797,20.0825 350.9949,21.1492 Q350.3101,22.2158 350.3101,24.3159 Q350.3101,26.4077 350.9949,27.4744 Q351.6797,28.541 353.0244,28.541 Q353.6553,28.541 354.2488,28.2712 Q354.8423,28.0015 355.4731,27.4204 Z "/><text fill="#000000" font-family="sans-serif" font-size="12" lengthAdjust="spacingAndGlyphs" textLength="72" x="367" y="28.5352">Dependency</text><line style="stroke: #A80036; stroke-width: 1.5;" x1="339" x2="441" y1="40" y2="40"/><line style="stroke: #A80036; stroke-width: 1.5;" x1="339" x2="441" y1="48" y2="48"/><!--link SubClass to SuperClass--><path d="M95.099,364 C151.7871,364 254.0046,364 321.9415,364 " fill="none" id="SubClass-SuperClass" style="stroke: #A80036; stroke-width: 1.0;"/><polygon fill="none" points="322.2646,356.9999,342.2646,364,322.2646,370.9999,322.2646,356.9999" style="stroke: #A80036; stroke-width: 1.0;"/><text fill="#000000" font-family="sans-serif" font-size="13" lengthAdjust="spacingAndGlyphs" textLength="164" x="137.5" y="360.5684">Specialization/Inheritance</text><!--link Realization to Abstraction--><path d="M101.3549,281 C158.9056,281 255.9225,281 321.4231,281 " fill="none" id="Realization-Abstraction" style="stroke: #A80036; stroke-width: 1.0; stroke-dasharray: 7.0,7.0;"/><polygon fill="none" points="321.4921,273.9999,341.4921,281,321.4921,287.9999,321.4921,273.9999" style="stroke: #A80036; stroke-width: 1.0;"/><text fill="#000000" font-family="sans-serif" font-size="13" lengthAdjust="spacingAndGlyphs" textLength="175" x="132" y="277.5684">Realization/Implementation</text><!--link Client to Dependency--><path d="M85.765,32 C142.713,32 261.7415,32 332.8627,32 " fill="none" id="Client-Dependency" style="stroke: #A80036; stroke-width: 1.0;"/><polygon fill="#A80036" points="337.8991,32,328.8991,28,332.8991,32,328.8991,36,337.8991,32" style="stroke: #A80036; stroke-width: 1.0;"/><text fill="#000000" font-family="sans-serif" font-size="13" lengthAdjust="spacingAndGlyphs" textLength="77" x="181" y="28.5684">Dependency</text><!--link Owner to Ownee--><path d="M101.5461,198 C165.2384,198 277.0275,198 341.131,198 " fill="none" id="Owner-Ownee" style="stroke: #A80036; stroke-width: 1.0;"/><polygon fill="#A80036" points="354.4338,198,345.4338,194,349.4338,198,345.4338,202,354.4338,198" style="stroke: #A80036; stroke-width: 1.0;"/><line style="stroke: #A80036; stroke-width: 1.0;" x1="349.4338" x2="341.4338" y1="198" y2="197.9999"/><polygon fill="#A80036" points="88.244,198,94.244,202,100.244,198,94.244,194,88.244,198" style="stroke: #A80036; stroke-width: 1.0;"/><text fill="#000000" font-family="sans-serif" font-size="13" lengthAdjust="spacingAndGlyphs" textLength="81" x="179" y="194.5684">Composition</text><!--link User to Usee--><path d="M96.0411,115 C160.2566,115 281.3239,115 346.2466,115 " fill="none" id="User-Usee" style="stroke: #A80036; stroke-width: 1.0;"/><polygon fill="#A80036" points="359.5863,115,350.5863,111,354.5863,115,350.5863,119,359.5863,115" style="stroke: #A80036; stroke-width: 1.0;"/><line style="stroke: #A80036; stroke-width: 1.0;" x1="354.5863" x2="346.5863" y1="115" y2="114.9999"/><polygon fill="#FFFFFF" points="82.7735,115,88.7735,119,94.7735,115,88.7735,111,82.7735,115" style="stroke: #A80036; stroke-width: 1.0;"/><text fill="#000000" font-family="sans-serif" font-size="13" lengthAdjust="spacingAndGlyphs" textLength="77" x="181" y="111.5684">Aggregation</text><!--
@startuml
  left to right direction
  class SubClass
  class SuperClass
  class Realization
  interface Abstraction

  class Ownee
  class Owner

  class User
  class Usee

  class Client
  class Dependency

  SubClass - -|> SuperClass : Specialization/Inheritance
  Realization ..|> Abstraction : Realization/Implementation
  Client - -> Dependency : Dependency
  Owner *- -> Ownee : Composition
  User o- -> Usee : Aggregation


@enduml

PlantUML version 1.2018.01(Mon Jan 29 02:08:22 PHT 2018)
(GPL source distribution)
Java Runtime: Java(TM) SE Runtime Environment
JVM: Java HotSpot(TM) 64-Bit Server VM
Java Version: 1.8.0_92-b14
Operating System: Mac OS X
OS Version: 10.14.6
Default Encoding: UTF-8
Language: en
Country: US
--></g></svg>