<?xml version="1.0" encoding="UTF-8" standalone="no"?><svg xmlns="http://www.w3.org/2000/svg" xmlns:xlink="http://www.w3.org/1999/xlink" contentScriptType="application/ecmascript" contentStyleType="text/css" height="283px" preserveAspectRatio="none" style="width:448px;height:283px;" version="1.1" viewBox="0 0 448 283" width="448px" zoomAndPan="magnify"><defs><filter height="300%" id="fi4e8vl" width="300%" x="-1" y="-1"><feGaussianBlur result="blurOut" stdDeviation="2.0"/><feColorMatrix in="blurOut" result="blurOut2" type="matrix" values="0 0 0 0 0 0 0 0 0 0 0 0 0 0 0 0 0 0 .4 0"/><feOffset dx="4.0" dy="4.0" in="blurOut2" result="blurOut3"/><feBlend in="SourceGraphic" in2="blurOut3" mode="normal"/></filter></defs><g><!--class ExampleClass--><rect fill="#FEFECE" filter="url(#fi4e8vl)" height="117.1797" style="stroke: #A80036; stroke-width: 1.5;" width="230" x="31" y="8"/><ellipse cx="101.25" cy="24" fill="#ADD1B2" rx="11" ry="11" style="stroke: #A80036; stroke-width: 1.0;"/><path d="M104.0156,19.875 Q104.1719,19.6563 104.3594,19.5469 Q104.5469,19.4375 104.7656,19.4375 Q105.1406,19.4375 105.375,19.6953 Q105.6094,19.9531 105.6094,20.5625 L105.6094,22.0156 Q105.6094,22.625 105.375,22.8906 Q105.1406,23.1563 104.7656,23.1563 Q104.4219,23.1563 104.2188,22.9531 Q104.0156,22.7656 103.9063,22.25 Q103.8594,21.8906 103.6719,21.7031 Q103.3438,21.3281 102.7344,21.1094 Q102.125,20.8906 101.5,20.8906 Q100.7344,20.8906 100.1016,21.2188 Q99.4688,21.5469 98.9766,22.2969 Q98.4844,23.0469 98.4844,24.0781 L98.4844,25.1719 Q98.4844,26.4063 99.375,27.2266 Q100.2656,28.0469 101.8594,28.0469 Q102.7969,28.0469 103.4531,27.7969 Q103.8438,27.6406 104.2656,27.2031 Q104.5313,26.9375 104.6797,26.8594 Q104.8281,26.7813 105.0313,26.7813 Q105.3594,26.7813 105.6172,27.0391 Q105.875,27.2969 105.875,27.6406 Q105.875,27.9844 105.5313,28.3906 Q105.0313,28.9688 104.2344,29.2969 Q103.1563,29.75 101.8594,29.75 Q100.3438,29.75 99.1406,29.125 Q98.1563,28.625 97.4688,27.5547 Q96.7813,26.4844 96.7813,25.2031 L96.7813,24.0469 Q96.7813,22.7188 97.3984,21.5703 Q98.0156,20.4219 99.1094,19.8047 Q100.2031,19.1875 101.4375,19.1875 Q102.1719,19.1875 102.8203,19.3516 Q103.4688,19.5156 104.0156,19.875 Z "/><text fill="#000000" font-family="sans-serif" font-size="12" lengthAdjust="spacingAndGlyphs" textLength="81" x="121.75" y="28.9102">ExampleClass</text><line style="stroke: #A80036; stroke-width: 1.5;" x1="32" x2="260" y1="40" y2="40"/><rect fill="none" height="6" style="stroke: #C82930; stroke-width: 1.0;" width="6" x="39" y="49.418"/><text fill="#000000" font-family="sans-serif" font-size="11" lengthAdjust="spacingAndGlyphs" textLength="113" x="51" y="55.4189">privateAttribute : Type1</text><ellipse cx="42" cy="66.2539" fill="none" rx="3" ry="3" style="stroke: #038048; stroke-width: 1.0;"/><text fill="#000000" font-family="sans-serif" font-size="11" lengthAdjust="spacingAndGlyphs" textLength="108" x="51" y="69.2549">publicAttribute : Type2</text><polygon fill="none" points="42,75.0898,46,79.0898,42,83.0898,38,79.0898" style="stroke: #B38D22; stroke-width: 1.0;"/><text fill="#000000" font-family="sans-serif" font-size="11" lengthAdjust="spacingAndGlyphs" textLength="87" x="51" y="83.0908">protectedAttribute</text><line style="stroke: #A80036; stroke-width: 1.5;" x1="32" x2="260" y1="89.5078" y2="89.5078"/><rect fill="#F24D5C" height="6" style="stroke: #C82930; stroke-width: 1.0;" width="6" x="39" y="98.9258"/><text fill="#000000" font-family="sans-serif" font-size="11" lengthAdjust="spacingAndGlyphs" textLength="204" x="51" y="104.9268">privateMethod(param : Type) : ReturnType</text><ellipse cx="42" cy="115.7617" fill="#84BE84" rx="3" ry="3" style="stroke: #038048; stroke-width: 1.0;"/><text fill="#000000" font-family="sans-serif" font-size="11" lengthAdjust="spacingAndGlyphs" textLength="136" x="51" y="118.7627">publicMethod() : ReturnType</text><!--class ExampleAbstraction--><rect fill="#FEFECE" filter="url(#fi4e8vl)" height="75.6719" style="stroke: #A80036; stroke-width: 1.5;" width="143" x="296.5" y="28.5"/><ellipse cx="311.5" cy="44.5" fill="#B4A7E5" rx="11" ry="11" style="stroke: #A80036; stroke-width: 1.0;"/><path d="M312.4531,41.1406 L312.4531,47.7969 L314.1719,47.7969 Q314.7813,47.7969 315.0469,48.0313 Q315.3125,48.2656 315.3125,48.6563 Q315.3125,49.0313 315.0469,49.2656 Q314.7813,49.5 314.1719,49.5 L309.0313,49.5 Q308.4219,49.5 308.1563,49.2656 Q307.8906,49.0313 307.8906,48.6406 Q307.8906,48.2656 308.1563,48.0313 Q308.4219,47.7969 309.0313,47.7969 L310.75,47.7969 L310.75,41.1406 L309.0313,41.1406 Q308.4219,41.1406 308.1563,40.9063 Q307.8906,40.6719 307.8906,40.2813 Q307.8906,39.9063 308.1563,39.6719 Q308.4219,39.4375 309.0313,39.4375 L314.1719,39.4375 Q314.7813,39.4375 315.0469,39.6719 Q315.3125,39.9063 315.3125,40.2813 Q315.3125,40.6719 315.0469,40.9063 Q314.7813,41.1406 314.1719,41.1406 L312.4531,41.1406 Z "/><text fill="#000000" font-family="sans-serif" font-size="12" font-style="italic" lengthAdjust="spacingAndGlyphs" textLength="111" x="325.5" y="49.4102">ExampleAbstraction</text><line style="stroke: #A80036; stroke-width: 1.5;" x1="297.5" x2="438.5" y1="60.5" y2="60.5"/><line style="stroke: #A80036; stroke-width: 1.5;" x1="297.5" x2="438.5" y1="68.5" y2="68.5"/><rect fill="#F24D5C" height="6" style="stroke: #C82930; stroke-width: 1.0;" width="6" x="304.5" y="77.918"/><text fill="#000000" font-family="sans-serif" font-size="11" font-style="italic" lengthAdjust="spacingAndGlyphs" textLength="83" x="316.5" y="83.9189">privateMethod1()</text><ellipse cx="307.5" cy="94.7539" fill="#84BE84" rx="3" ry="3" style="stroke: #038048; stroke-width: 1.0;"/><text fill="#000000" font-family="sans-serif" font-size="11" font-style="italic" lengthAdjust="spacingAndGlyphs" textLength="81" x="316.5" y="97.7549">publicMethod2()</text><!--class ExampleAbstractClass--><rect fill="#FEFECE" filter="url(#fi4e8vl)" height="89.5078" style="stroke: #A80036; stroke-width: 1.5;" width="280" x="6" y="185"/><ellipse cx="79.25" cy="201" fill="#A9DCDF" rx="11" ry="11" style="stroke: #A80036; stroke-width: 1.0;"/><path d="M81.4375,202.7656 L77.2969,202.7656 L76.875,203.7969 L77.2969,203.7969 Q77.9063,203.7969 78.1719,204.0313 Q78.4375,204.2656 78.4375,204.6563 Q78.4375,205.0313 78.1719,205.2656 Q77.9063,205.5 77.2969,205.5 L75,205.5 Q74.3906,205.5 74.1328,205.2656 Q73.875,205.0313 73.875,204.6406 Q73.875,204.2656 74.1484,204.0234 Q74.4219,203.7813 75.0469,203.7969 L77.7188,197.1406 L76.6094,197.1406 Q76,197.1406 75.7344,196.9063 Q75.4688,196.6719 75.4688,196.2813 Q75.4688,195.9063 75.7344,195.6719 Q76,195.4375 76.6094,195.4375 L80.2813,195.4375 L83.6719,203.7969 Q84.2656,203.7969 84.4531,203.9375 Q84.8438,204.2031 84.8438,204.6563 Q84.8438,205.0313 84.5859,205.2656 Q84.3281,205.5 83.7188,205.5 L81.4219,205.5 Q80.8125,205.5 80.5469,205.2656 Q80.2813,205.0313 80.2813,204.6406 Q80.2813,204.2656 80.5469,204.0313 Q80.8125,203.7969 81.4219,203.7969 L81.8438,203.7969 L81.4375,202.7656 Z M80.7188,201.0625 L79.3594,197.6875 L77.9844,201.0625 L80.7188,201.0625 Z "/><text fill="#000000" font-family="sans-serif" font-size="12" font-style="italic" lengthAdjust="spacingAndGlyphs" textLength="125" x="99.75" y="205.9102">ExampleAbstractClass</text><line style="stroke: #A80036; stroke-width: 1.5;" x1="7" x2="285" y1="217" y2="217"/><rect fill="none" height="6" style="stroke: #C82930; stroke-width: 1.0;" width="6" x="14" y="226.418"/><text fill="#000000" font-family="sans-serif" font-size="11" lengthAdjust="spacingAndGlyphs" textLength="113" x="26" y="232.4189">privateAttribute : Type1</text><line style="stroke: #A80036; stroke-width: 1.5;" x1="7" x2="285" y1="238.8359" y2="238.8359"/><ellipse cx="17" cy="251.2539" fill="#84BE84" rx="3" ry="3" style="stroke: #038048; stroke-width: 1.0;"/><text fill="#000000" font-family="sans-serif" font-size="11" lengthAdjust="spacingAndGlyphs" textLength="254" x="26" y="254.2549">publicMethod(param : Type1, param : Type2) : Type2</text><rect fill="#F24D5C" height="6" style="stroke: #C82930; stroke-width: 1.0;" width="6" x="14" y="262.0898"/><text fill="#000000" font-family="sans-serif" font-size="11" font-style="italic" lengthAdjust="spacingAndGlyphs" textLength="183" x="26" y="268.0908">privateAbstractMethod(param : Type)</text></g></svg>