<?xml version="1.0" encoding="UTF-8" standalone="no"?><svg xmlns="http://www.w3.org/2000/svg" xmlns:xlink="http://www.w3.org/1999/xlink" contentScriptType="application/ecmascript" contentStyleType="text/css" height="291px" preserveAspectRatio="none" style="width:668px;height:291px;" version="1.1" viewBox="0 0 668 291"
    width="668px" zoomAndPan="magnify"><defs><filter height="300%" id="fas7y2zdvfpct" width="300%" x="-1" y="-1"><feGaussianBlur result="blurOut" stdDeviation="2.0"/><feColorMatrix in="blurOut" result="blurOut2" type="matrix" values="0 0 0 0 0 0 0 0 0 0 0 0 0 0 0 0 0 0 .4 0"/><feOffset dx="4.0" dy="4.0" in="blurOut2" result="blurOut3"/><feBlend in="SourceGraphic" in2="blurOut3" mode="normal"/></filter></defs><g><!--class Command--><rect fill="#FEFECE" filter="url(#fas7y2zdvfpct)" height="73.9102" id="Command" style="stroke: #A80036; stroke-width: 1.5;" width="91" x="292.5" y="200.5"/><ellipse cx="307.5" cy="216.5" fill="#B4A7E5" rx="11" ry="11" style="stroke: #A80036; stroke-width: 1.0;"/><path d="M303.9277,212.7651 L303.9277,210.6069 L311.3071,210.6069 L311.3071,212.7651 L308.8418,212.7651 L308.8418,220.8418 L311.3071,220.8418 L311.3071,223 L303.9277,223 L303.9277,220.8418 L306.3931,220.8418 L306.3931,212.7651 Z "/><text fill="#000000" font-family="sans-serif" font-size="12" font-style="italic" lengthAdjust="spacingAndGlyphs" textLength="59" x="321.5" y="221.0352">Command</text><line style="stroke: #A80036; stroke-width: 1.5;" x1="293.5" x2="382.5" y1="232.5" y2="232.5"/><line style="stroke: #A80036; stroke-width: 1.5;" x1="293.5" x2="382.5" y1="240.5" y2="240.5"/><ellipse cx="303.5" cy="252.4775" fill="#84BE84" rx="3" ry="3" style="stroke: #038048; stroke-width: 1.0;"/><text fill="#000000" font-family="sans-serif" font-size="11" font-style="italic" lengthAdjust="spacingAndGlyphs" textLength="50" x="312.5" y="255.1348">execute()</text><ellipse cx="303.5" cy="265.4326" fill="#84BE84" rx="3" ry="3" style="stroke: #038048; stroke-width: 1.0;"/><text fill="#000000" font-family="sans-serif" font-size="11" font-style="italic" lengthAdjust="spacingAndGlyphs" textLength="36" x="312.5" y="268.0898">undo()</text><!--class RealCommand1--><rect fill="#FEFECE" filter="url(#fas7y2zdvfpct)" height="112.7754" id="RealCommand1" style="stroke: #A80036; stroke-width: 1.5;" width="124" x="476" y="14.5"/><ellipse cx="491" cy="30.5" fill="#ADD1B2" rx="11" ry="11" style="stroke: #A80036; stroke-width: 1.0;"/><path d="M493.4731,36.6431 Q492.8921,36.9419 492.2529,37.0913 Q491.6138,37.2407 490.9082,37.2407 Q488.4014,37.2407 487.0815,35.5889 Q485.7617,33.937 485.7617,30.8159 Q485.7617,27.6865 487.0815,26.0347 Q488.4014,24.3828 490.9082,24.3828 Q491.6138,24.3828 492.2612,24.5322 Q492.9087,24.6816 493.4731,24.9805 L493.4731,27.7031 Q492.8423,27.1221 492.2488,26.8523 Q491.6553,26.5825 491.0244,26.5825 Q489.6797,26.5825 488.9949,27.6492 Q488.3101,28.7158 488.3101,30.8159 Q488.3101,32.9077 488.9949,33.9744 Q489.6797,35.041 491.0244,35.041 Q491.6553,35.041 492.2488,34.7712 Q492.8423,34.5015 493.4731,33.9204 Z "/><text fill="#000000" font-family="sans-serif" font-size="12" lengthAdjust="spacingAndGlyphs" textLength="92" x="505" y="35.0352">RealCommand1</text><line style="stroke: #A80036; stroke-width: 1.5;" x1="477" x2="599" y1="46.5" y2="46.5"/><rect fill="none" height="6" style="stroke: #C82930; stroke-width: 1.0;" width="6" x="484" y="55.4775"/><text fill="#000000" font-family="sans-serif" font-size="11" lengthAdjust="spacingAndGlyphs" textLength="34" x="496" y="61.1348">param</text><rect fill="none" height="6" style="stroke: #C82930; stroke-width: 1.0;" width="6" x="484" y="68.4326"/><text fill="#000000" font-family="sans-serif" font-size="11" lengthAdjust="spacingAndGlyphs" textLength="97" x="496" y="74.0898">receiver : Receiver</text><rect fill="none" height="6" style="stroke: #C82930; stroke-width: 1.0;" width="6" x="484" y="81.3877"/><text fill="#000000" font-family="sans-serif" font-size="11" lengthAdjust="spacingAndGlyphs" textLength="93" x="496" y="87.0449">backup : Receiver</text><line style="stroke: #A80036; stroke-width: 1.5;" x1="477" x2="599" y1="93.3652" y2="93.3652"/><ellipse cx="487" cy="105.3428" fill="#84BE84" rx="3" ry="3" style="stroke: #038048; stroke-width: 1.0;"/><text fill="#000000" font-family="sans-serif" font-size="11" lengthAdjust="spacingAndGlyphs" textLength="50" x="496" y="108">execute()</text><ellipse cx="487" cy="118.2979" fill="#84BE84" rx="3" ry="3" style="stroke: #038048; stroke-width: 1.0;"/><text fill="#000000" font-family="sans-serif" font-size="11" lengthAdjust="spacingAndGlyphs" textLength="36" x="496" y="120.9551">undo()</text><!--class RealCommand2--><rect fill="#FEFECE" filter="url(#fas7y2zdvfpct)" height="125.7305" id="RealCommand2" style="stroke: #A80036; stroke-width: 1.5;" width="124" x="317" y="8"/><ellipse cx="332" cy="24" fill="#ADD1B2" rx="11" ry="11" style="stroke: #A80036; stroke-width: 1.0;"/><path d="M334.4731,30.1431 Q333.8921,30.4419 333.2529,30.5913 Q332.6138,30.7407 331.9082,30.7407 Q329.4014,30.7407 328.0815,29.0889 Q326.7617,27.437 326.7617,24.3159 Q326.7617,21.1865 328.0815,19.5347 Q329.4014,17.8828 331.9082,17.8828 Q332.6138,17.8828 333.2612,18.0322 Q333.9087,18.1816 334.4731,18.4805 L334.4731,21.2031 Q333.8423,20.6221 333.2488,20.3523 Q332.6553,20.0825 332.0244,20.0825 Q330.6797,20.0825 329.9949,21.1492 Q329.3101,22.2158 329.3101,24.3159 Q329.3101,26.4077 329.9949,27.4744 Q330.6797,28.541 332.0244,28.541 Q332.6553,28.541 333.2488,28.2712 Q333.8423,28.0015 334.4731,27.4204 Z "/><text fill="#000000" font-family="sans-serif" font-size="12" lengthAdjust="spacingAndGlyphs" textLength="92" x="346" y="28.5352">RealCommand2</text><line style="stroke: #A80036; stroke-width: 1.5;" x1="318" x2="440" y1="40" y2="40"/><rect fill="none" height="6" style="stroke: #C82930; stroke-width: 1.0;" width="6" x="325" y="48.9775"/><text fill="#000000" font-family="sans-serif" font-size="11" lengthAdjust="spacingAndGlyphs" textLength="34" x="337" y="54.6348">param</text><rect fill="none" height="6" style="stroke: #C82930; stroke-width: 1.0;" width="6" x="325" y="61.9326"/><text fill="#000000" font-family="sans-serif" font-size="11" lengthAdjust="spacingAndGlyphs" textLength="62" x="337" y="67.5898">otherParam</text><rect fill="none" height="6" style="stroke: #C82930; stroke-width: 1.0;" width="6" x="325" y="74.8877"/><text fill="#000000" font-family="sans-serif" font-size="11" lengthAdjust="spacingAndGlyphs" textLength="97" x="337" y="80.5449">receiver : Receiver</text><rect fill="none" height="6" style="stroke: #C82930; stroke-width: 1.0;" width="6" x="325" y="87.8428"/><text fill="#000000" font-family="sans-serif" font-size="11" lengthAdjust="spacingAndGlyphs" textLength="93" x="337" y="93.5">backup : Receiver</text><line style="stroke: #A80036; stroke-width: 1.5;" x1="318" x2="440" y1="99.8203" y2="99.8203"/><ellipse cx="328" cy="111.7979" fill="#84BE84" rx="3" ry="3" style="stroke: #038048; stroke-width: 1.0;"/><text fill="#000000" font-family="sans-serif" font-size="11" lengthAdjust="spacingAndGlyphs" textLength="50" x="337" y="114.4551">execute()</text><ellipse cx="328" cy="124.7529" fill="#84BE84" rx="3" ry="3" style="stroke: #038048; stroke-width: 1.0;"/><text fill="#000000" font-family="sans-serif" font-size="11" lengthAdjust="spacingAndGlyphs" textLength="36" x="337" y="127.4102">undo()</text><!--class Receiver--><rect fill="#FEFECE" filter="url(#fas7y2zdvfpct)" height="86.8652" id="Receiver" style="stroke: #A80036; stroke-width: 1.5;" width="238" x="419" y="194"/><ellipse cx="509.25" cy="210" fill="#ADD1B2" rx="11" ry="11" style="stroke: #A80036; stroke-width: 1.0;"/><path d="M511.7231,216.1431 Q511.1421,216.4419 510.5029,216.5913 Q509.8638,216.7407 509.1582,216.7407 Q506.6514,216.7407 505.3315,215.0889 Q504.0117,213.437 504.0117,210.3159 Q504.0117,207.1865 505.3315,205.5347 Q506.6514,203.8828 509.1582,203.8828 Q509.8638,203.8828 510.5112,204.0322 Q511.1587,204.1816 511.7231,204.4805 L511.7231,207.2031 Q511.0923,206.6221 510.4988,206.3523 Q509.9053,206.0825 509.2744,206.0825 Q507.9297,206.0825 507.2449,207.1492 Q506.5601,208.2158 506.5601,210.3159 Q506.5601,212.4077 507.2449,213.4744 Q507.9297,214.541 509.2744,214.541 Q509.9053,214.541 510.4988,214.2712 Q511.0923,214.0015 511.7231,213.4204 Z "/><text fill="#000000" font-family="sans-serif" font-size="12" lengthAdjust="spacingAndGlyphs" textLength="49" x="529.75" y="214.5352">Receiver</text><line style="stroke: #A80036; stroke-width: 1.5;" x1="420" x2="656" y1="226" y2="226"/><line style="stroke: #A80036; stroke-width: 1.5;" x1="420" x2="656" y1="234" y2="234"/><ellipse cx="430" cy="245.9775" fill="#84BE84" rx="3" ry="3" style="stroke: #038048; stroke-width: 1.0;"/><text fill="#000000" font-family="sans-serif" font-size="11" lengthAdjust="spacingAndGlyphs" textLength="147" x="439" y="248.6348">performOperation1(param)</text><ellipse cx="430" cy="258.9326" fill="#84BE84" rx="3" ry="3" style="stroke: #038048; stroke-width: 1.0;"/><text fill="#000000" font-family="sans-serif" font-size="11" lengthAdjust="spacingAndGlyphs" textLength="212" x="439" y="261.5898">performOperation2(param,otherParam)</text><ellipse cx="430" cy="271.8877" fill="#84BE84" rx="3" ry="3" style="stroke: #038048; stroke-width: 1.0;"/><text fill="#000000" font-family="sans-serif" font-size="11" lengthAdjust="spacingAndGlyphs" textLength="47" x="439" y="274.5449">restore()</text><!--class Invoker--><rect fill="#FEFECE" filter="url(#fas7y2zdvfpct)" height="99.8203" id="Invoker" style="stroke: #A80036; stroke-width: 1.5;" width="276" x="6" y="21"/><ellipse cx="118.75" cy="37" fill="#ADD1B2" rx="11" ry="11" style="stroke: #A80036; stroke-width: 1.0;"/><path d="M121.2231,43.1431 Q120.6421,43.4419 120.0029,43.5913 Q119.3638,43.7407 118.6582,43.7407 Q116.1514,43.7407 114.8315,42.0889 Q113.5117,40.437 113.5117,37.3159 Q113.5117,34.1865 114.8315,32.5347 Q116.1514,30.8828 118.6582,30.8828 Q119.3638,30.8828 120.0112,31.0322 Q120.6587,31.1816 121.2231,31.4805 L121.2231,34.2031 Q120.5923,33.6221 119.9988,33.3523 Q119.4053,33.0825 118.7744,33.0825 Q117.4297,33.0825 116.7449,34.1492 Q116.0601,35.2158 116.0601,37.3159 Q116.0601,39.4077 116.7449,40.4744 Q117.4297,41.541 118.7744,41.541 Q119.4053,41.541 119.9988,41.2712 Q120.5923,41.0015 121.2231,40.4204 Z "/><text fill="#000000" font-family="sans-serif" font-size="12" lengthAdjust="spacingAndGlyphs" textLength="42" x="139.25" y="41.5352">Invoker</text><line style="stroke: #A80036; stroke-width: 1.5;" x1="7" x2="281" y1="53" y2="53"/><rect fill="none" height="6" style="stroke: #C82930; stroke-width: 1.0;" width="6" x="14" y="61.9775"/><text fill="#000000" font-family="sans-serif" font-size="11" lengthAdjust="spacingAndGlyphs" textLength="164" x="26" y="67.6348">commandHistory : [Command]</text><line style="stroke: #A80036; stroke-width: 1.5;" x1="7" x2="281" y1="73.9551" y2="73.9551"/><ellipse cx="17" cy="85.9326" fill="#84BE84" rx="3" ry="3" style="stroke: #038048; stroke-width: 1.0;"/><text fill="#000000" font-family="sans-serif" font-size="11" lengthAdjust="spacingAndGlyphs" textLength="185" x="26" y="88.5898">invokeCommand1(param,receiver)</text><ellipse cx="17" cy="98.8877" fill="#84BE84" rx="3" ry="3" style="stroke: #038048; stroke-width: 1.0;"/><text fill="#000000" font-family="sans-serif" font-size="11" lengthAdjust="spacingAndGlyphs" textLength="250" x="26" y="101.5449">invokeCommand2(param,otherParam,receiver)</text><ellipse cx="17" cy="111.8428" fill="#84BE84" rx="3" ry="3" style="stroke: #038048; stroke-width: 1.0;"/><text fill="#000000" font-family="sans-serif" font-size="11" lengthAdjust="spacingAndGlyphs" textLength="137" x="26" y="114.5">undoPreviousCommand()</text><!--link RealCommand1 to Command--><path d="M475.8151,122.769 C451.0762,143.3641 422.7162,166.9738 398.1793,187.4008 " fill="none" id="RealCommand1-Command" style="stroke: #A80036; stroke-width: 1.0; stroke-dasharray: 7.0,7.0;"/><polygon fill="none" points="402.533,192.8845,382.6836,200.3009,393.5756,182.125,402.533,192.8845" style="stroke: #A80036; stroke-width: 1.0;"/><!--link RealCommand2 to Command--><path d="M363.3827,134.4215 C359.639,149.6245 355.6647,165.7642 351.9995,180.6482 " fill="none" id="RealCommand2-Command" style="stroke: #A80036; stroke-width: 1.0; stroke-dasharray: 7.0,7.0;"/><polygon fill="none" points="358.7416,182.5451,347.1625,200.2912,345.1477,179.1976,358.7416,182.5451" style="stroke: #A80036; stroke-width: 1.0;"/><!--link Invoker to Command--><path d="M212.395,129.6999 C236.157,150.0935 262.4341,172.6457 284.7856,191.8289 " fill="none" id="Invoker-Command" style="stroke: #A80036; stroke-width: 1.0;"/><polygon fill="#A80036" points="294.7559,200.3859,290.5314,191.4891,290.9617,197.1295,285.3212,197.5598,294.7559,200.3859" style="stroke: #A80036; stroke-width: 1.0;"/><line style="stroke: #A80036; stroke-width: 1.0;" x1="290.9617" x2="284.8909" y1="197.1295" y2="191.9193"/><polygon fill="#FFFFFF" points="202.4695,121.1813,204.4174,128.1243,211.5756,128.9966,209.6276,122.0536,202.4695,121.1813" style="stroke: #A80036; stroke-width: 1.0;"/><!--link RealCommand1 to Receiver--><path d="M538,140.9892 C538,154.1386 538,167.7412 538,180.4387 " fill="none" id="RealCommand1-Receiver" style="stroke: #A80036; stroke-width: 1.0;"/><polygon fill="#A80036" points="538,193.7974,542,184.7974,538,188.7974,534,184.7974,538,193.7974" style="stroke: #A80036; stroke-width: 1.0;"/><line style="stroke: #A80036; stroke-width: 1.0;" x1="538" x2="538.0001" y1="188.7974" y2="180.7975"/><polygon fill="#FFFFFF" points="538,127.8342,534,133.8342,538,139.8342,542,133.8342,538,127.8342" style="stroke: #A80036; stroke-width: 1.0;"/><!--link RealCommand2 to Receiver--><path d="M448.5443,143.8247 C461.5337,157.4268 474.8834,171.4062 487.1766,184.2793 " fill="none" id="RealCommand2-Receiver" style="stroke: #A80036; stroke-width: 1.0;"/><polygon fill="#A80036" points="496.348,193.8833,493.0251,184.6119,492.8948,190.2673,487.2395,190.137,496.348,193.8833" style="stroke: #A80036; stroke-width: 1.0;"/><line style="stroke: #A80036; stroke-width: 1.0;" x1="492.8948" x2="487.3697" y1="190.2673" y2="184.4815"/><polygon fill="#FFFFFF" points="439.5647,134.4215,440.8157,141.5233,447.8523,143.1,446.6013,135.9982,439.5647,134.4215" style="stroke: #A80036; stroke-width: 1.0;"/><!--
@startuml
  interface Command{
    + {abstract} execute()
    + {abstract} undo()
  }

  class RealCommand1{
    - param
    - receiver : Receiver
    - backup : Receiver
    + execute()
    + undo()
  }

  class RealCommand2{
    - param
    - otherParam
    - receiver : Receiver
    - backup : Receiver
    + execute()
    + undo()
  }

  class Receiver{
    + performOperation1(param)
    + performOperation2(param,otherParam)
    + restore()
  }

  class Invoker{
    - commandHistory : [Command]
    + invokeCommand1(param,receiver)
    + invokeCommand2(param,otherParam,receiver)
    + undoPreviousCommand()
  }
  RealCommand1 ..|> Command
  RealCommand2 ..|> Command
  Invoker o- -> Command
  RealCommand1 o- -> Receiver
  RealCommand2 o- -> Receiver
@enduml

PlantUML version 1.2018.01(Mon Jan 29 02:08:22 PHT 2018)
(GPL source distribution)
Java Runtime: Java(TM) SE Runtime Environment
JVM: Java HotSpot(TM) 64-Bit Server VM
Java Version: 1.8.0_92-b14
Operating System: Mac OS X
OS Version: 10.14.6
Default Encoding: UTF-8
Language: en
Country: US
--></g></svg>