<?xml version="1.0" encoding="UTF-8" standalone="no"?><svg xmlns="http://www.w3.org/2000/svg" xmlns:xlink="http://www.w3.org/1999/xlink" contentScriptType="application/ecmascript" contentStyleType="text/css" height="447px" preserveAspectRatio="none" style="width:983px;height:447px;" version="1.1" viewBox="0 0 983 447"
    width="983px" zoomAndPan="magnify"><defs><filter height="300%" id="f3fhgbei76l86" width="300%" x="-1" y="-1"><feGaussianBlur result="blurOut" stdDeviation="2.0"/><feColorMatrix in="blurOut" result="blurOut2" type="matrix" values="0 0 0 0 0 0 0 0 0 0 0 0 0 0 0 0 0 0 .4 0"/><feOffset dx="4.0" dy="4.0" in="blurOut2" result="blurOut3"/><feBlend in="SourceGraphic" in2="blurOut3" mode="normal"/></filter></defs><g><!--class Command--><rect fill="#FEFECE" filter="url(#f3fhgbei76l86)" height="73.9102" id="Command" style="stroke: #A80036; stroke-width: 1.5;" width="91" x="437" y="284.5"/><ellipse cx="452" cy="300.5" fill="#B4A7E5" rx="11" ry="11" style="stroke: #A80036; stroke-width: 1.0;"/><path d="M448.4277,296.7651 L448.4277,294.6069 L455.8071,294.6069 L455.8071,296.7651 L453.3418,296.7651 L453.3418,304.8418 L455.8071,304.8418 L455.8071,307 L448.4277,307 L448.4277,304.8418 L450.8931,304.8418 L450.8931,296.7651 Z "/><text fill="#000000" font-family="sans-serif" font-size="12" font-style="italic" lengthAdjust="spacingAndGlyphs" textLength="59" x="466" y="305.0352">Command</text><line style="stroke: #A80036; stroke-width: 1.5;" x1="438" x2="527" y1="316.5" y2="316.5"/><line style="stroke: #A80036; stroke-width: 1.5;" x1="438" x2="527" y1="324.5" y2="324.5"/><ellipse cx="448" cy="336.4775" fill="#84BE84" rx="3" ry="3" style="stroke: #038048; stroke-width: 1.0;"/><text fill="#000000" font-family="sans-serif" font-size="11" font-style="italic" lengthAdjust="spacingAndGlyphs" textLength="50" x="457" y="339.1348">execute()</text><ellipse cx="448" cy="349.4326" fill="#84BE84" rx="3" ry="3" style="stroke: #038048; stroke-width: 1.0;"/><text fill="#000000" font-family="sans-serif" font-size="11" font-style="italic" lengthAdjust="spacingAndGlyphs" textLength="36" x="457" y="352.0898">undo()</text><!--class DashUpCommand--><rect fill="#FEFECE" filter="url(#f3fhgbei76l86)" height="99.8203" id="DashUpCommand" style="stroke: #A80036; stroke-width: 1.5;" width="159" x="588" y="27.5"/><ellipse cx="613.35" cy="43.5" fill="#ADD1B2" rx="11" ry="11" style="stroke: #A80036; stroke-width: 1.0;"/><path d="M615.8231,49.6431 Q615.2421,49.9419 614.6029,50.0913 Q613.9638,50.2407 613.2582,50.2407 Q610.7514,50.2407 609.4315,48.5889 Q608.1117,46.937 608.1117,43.8159 Q608.1117,40.6865 609.4315,39.0347 Q610.7514,37.3828 613.2582,37.3828 Q613.9638,37.3828 614.6112,37.5322 Q615.2587,37.6816 615.8231,37.9805 L615.8231,40.7031 Q615.1923,40.1221 614.5988,39.8523 Q614.0053,39.5825 613.3744,39.5825 Q612.0297,39.5825 611.3449,40.6492 Q610.6601,41.7158 610.6601,43.8159 Q610.6601,45.9077 611.3449,46.9744 Q612.0297,48.041 613.3744,48.041 Q614.0053,48.041 614.5988,47.7712 Q615.1923,47.5015 615.8231,46.9204 Z "/><text fill="#000000" font-family="sans-serif" font-size="12" lengthAdjust="spacingAndGlyphs" textLength="104" x="629.65" y="48.0352">DashUpCommand</text><line style="stroke: #A80036; stroke-width: 1.5;" x1="589" x2="746" y1="59.5" y2="59.5"/><rect fill="none" height="6" style="stroke: #C82930; stroke-width: 1.0;" width="6" x="596" y="68.4775"/><text fill="#000000" font-family="sans-serif" font-size="11" lengthAdjust="spacingAndGlyphs" textLength="72" x="608" y="74.1348">board : Board</text><line style="stroke: #A80036; stroke-width: 1.5;" x1="589" x2="746" y1="80.4551" y2="80.4551"/><rect fill="#F24D5C" height="6" style="stroke: #C82930; stroke-width: 1.0;" width="6" x="596" y="89.4326"/><text fill="#000000" font-family="sans-serif" font-size="11" lengthAdjust="spacingAndGlyphs" textLength="133" x="608" y="95.0898">backupLocation : (Int,Int)</text><ellipse cx="599" cy="105.3877" fill="#84BE84" rx="3" ry="3" style="stroke: #038048; stroke-width: 1.0;"/><text fill="#000000" font-family="sans-serif" font-size="11" lengthAdjust="spacingAndGlyphs" textLength="50" x="608" y="108.0449">execute()</text><ellipse cx="599" cy="118.3428" fill="#84BE84" rx="3" ry="3" style="stroke: #038048; stroke-width: 1.0;"/><text fill="#000000" font-family="sans-serif" font-size="11" lengthAdjust="spacingAndGlyphs" textLength="36" x="608" y="121">undo()</text><!--class DashDownCommand--><rect fill="#FEFECE" filter="url(#f3fhgbei76l86)" height="99.8203" id="DashDownCommand" style="stroke: #A80036; stroke-width: 1.5;" width="159" x="6" y="27.5"/><ellipse cx="24.15" cy="43.5" fill="#ADD1B2" rx="11" ry="11" style="stroke: #A80036; stroke-width: 1.0;"/><path d="M26.6231,49.6431 Q26.0421,49.9419 25.4029,50.0913 Q24.7638,50.2407 24.0582,50.2407 Q21.5514,50.2407 20.2315,48.5889 Q18.9117,46.937 18.9117,43.8159 Q18.9117,40.6865 20.2315,39.0347 Q21.5514,37.3828 24.0582,37.3828 Q24.7638,37.3828 25.4112,37.5322 Q26.0587,37.6816 26.6231,37.9805 L26.6231,40.7031 Q25.9923,40.1221 25.3988,39.8523 Q24.8053,39.5825 24.1744,39.5825 Q22.8297,39.5825 22.1449,40.6492 Q21.4601,41.7158 21.4601,43.8159 Q21.4601,45.9077 22.1449,46.9744 Q22.8297,48.041 24.1744,48.041 Q24.8053,48.041 25.3988,47.7712 Q25.9923,47.5015 26.6231,46.9204 Z "/><text fill="#000000" font-family="sans-serif" font-size="12" lengthAdjust="spacingAndGlyphs" textLength="120" x="38.85" y="48.0352">DashDownCommand</text><line style="stroke: #A80036; stroke-width: 1.5;" x1="7" x2="164" y1="59.5" y2="59.5"/><rect fill="none" height="6" style="stroke: #C82930; stroke-width: 1.0;" width="6" x="14" y="68.4775"/><text fill="#000000" font-family="sans-serif" font-size="11" lengthAdjust="spacingAndGlyphs" textLength="72" x="26" y="74.1348">board : Board</text><line style="stroke: #A80036; stroke-width: 1.5;" x1="7" x2="164" y1="80.4551" y2="80.4551"/><rect fill="#F24D5C" height="6" style="stroke: #C82930; stroke-width: 1.0;" width="6" x="14" y="89.4326"/><text fill="#000000" font-family="sans-serif" font-size="11" lengthAdjust="spacingAndGlyphs" textLength="133" x="26" y="95.0898">backupLocation : (Int,Int)</text><ellipse cx="17" cy="105.3877" fill="#84BE84" rx="3" ry="3" style="stroke: #038048; stroke-width: 1.0;"/><text fill="#000000" font-family="sans-serif" font-size="11" lengthAdjust="spacingAndGlyphs" textLength="50" x="26" y="108.0449">execute()</text><ellipse cx="17" cy="118.3428" fill="#84BE84" rx="3" ry="3" style="stroke: #038048; stroke-width: 1.0;"/><text fill="#000000" font-family="sans-serif" font-size="11" lengthAdjust="spacingAndGlyphs" textLength="36" x="26" y="121">undo()</text><!--class DashLeftCommand--><rect fill="#FEFECE" filter="url(#f3fhgbei76l86)" height="99.8203" id="DashLeftCommand" style="stroke: #A80036; stroke-width: 1.5;" width="159" x="200" y="27.5"/><ellipse cx="223.1" cy="43.5" fill="#ADD1B2" rx="11" ry="11" style="stroke: #A80036; stroke-width: 1.0;"/><path d="M225.5731,49.6431 Q224.9921,49.9419 224.3529,50.0913 Q223.7138,50.2407 223.0082,50.2407 Q220.5014,50.2407 219.1815,48.5889 Q217.8617,46.937 217.8617,43.8159 Q217.8617,40.6865 219.1815,39.0347 Q220.5014,37.3828 223.0082,37.3828 Q223.7138,37.3828 224.3612,37.5322 Q225.0087,37.6816 225.5731,37.9805 L225.5731,40.7031 Q224.9423,40.1221 224.3488,39.8523 Q223.7553,39.5825 223.1244,39.5825 Q221.7797,39.5825 221.0949,40.6492 Q220.4101,41.7158 220.4101,43.8159 Q220.4101,45.9077 221.0949,46.9744 Q221.7797,48.041 223.1244,48.041 Q223.7553,48.041 224.3488,47.7712 Q224.9423,47.5015 225.5731,46.9204 Z "/><text fill="#000000" font-family="sans-serif" font-size="12" lengthAdjust="spacingAndGlyphs" textLength="109" x="238.9" y="48.0352">DashLeftCommand</text><line style="stroke: #A80036; stroke-width: 1.5;" x1="201" x2="358" y1="59.5" y2="59.5"/><rect fill="none" height="6" style="stroke: #C82930; stroke-width: 1.0;" width="6" x="208" y="68.4775"/><text fill="#000000" font-family="sans-serif" font-size="11" lengthAdjust="spacingAndGlyphs" textLength="72" x="220" y="74.1348">board : Board</text><line style="stroke: #A80036; stroke-width: 1.5;" x1="201" x2="358" y1="80.4551" y2="80.4551"/><rect fill="#F24D5C" height="6" style="stroke: #C82930; stroke-width: 1.0;" width="6" x="208" y="89.4326"/><text fill="#000000" font-family="sans-serif" font-size="11" lengthAdjust="spacingAndGlyphs" textLength="133" x="220" y="95.0898">backupLocation : (Int,Int)</text><ellipse cx="211" cy="105.3877" fill="#84BE84" rx="3" ry="3" style="stroke: #038048; stroke-width: 1.0;"/><text fill="#000000" font-family="sans-serif" font-size="11" lengthAdjust="spacingAndGlyphs" textLength="50" x="220" y="108.0449">execute()</text><ellipse cx="211" cy="118.3428" fill="#84BE84" rx="3" ry="3" style="stroke: #038048; stroke-width: 1.0;"/><text fill="#000000" font-family="sans-serif" font-size="11" lengthAdjust="spacingAndGlyphs" textLength="36" x="220" y="121">undo()</text><!--class DashRightCommand--><rect fill="#FEFECE" filter="url(#f3fhgbei76l86)" height="99.8203" id="DashRightCommand" style="stroke: #A80036; stroke-width: 1.5;" width="159" x="394" y="27.5"/><ellipse cx="413.5" cy="43.5" fill="#ADD1B2" rx="11" ry="11" style="stroke: #A80036; stroke-width: 1.0;"/><path d="M415.9731,49.6431 Q415.3921,49.9419 414.7529,50.0913 Q414.1138,50.2407 413.4082,50.2407 Q410.9014,50.2407 409.5815,48.5889 Q408.2617,46.937 408.2617,43.8159 Q408.2617,40.6865 409.5815,39.0347 Q410.9014,37.3828 413.4082,37.3828 Q414.1138,37.3828 414.7612,37.5322 Q415.4087,37.6816 415.9731,37.9805 L415.9731,40.7031 Q415.3423,40.1221 414.7488,39.8523 Q414.1553,39.5825 413.5244,39.5825 Q412.1797,39.5825 411.4949,40.6492 Q410.8101,41.7158 410.8101,43.8159 Q410.8101,45.9077 411.4949,46.9744 Q412.1797,48.041 413.5244,48.041 Q414.1553,48.041 414.7488,47.7712 Q415.3423,47.5015 415.9731,46.9204 Z "/><text fill="#000000" font-family="sans-serif" font-size="12" lengthAdjust="spacingAndGlyphs" textLength="117" x="428.5" y="48.0352">DashRightCommand</text><line style="stroke: #A80036; stroke-width: 1.5;" x1="395" x2="552" y1="59.5" y2="59.5"/><rect fill="none" height="6" style="stroke: #C82930; stroke-width: 1.0;" width="6" x="402" y="68.4775"/><text fill="#000000" font-family="sans-serif" font-size="11" lengthAdjust="spacingAndGlyphs" textLength="72" x="414" y="74.1348">board : Board</text><line style="stroke: #A80036; stroke-width: 1.5;" x1="395" x2="552" y1="80.4551" y2="80.4551"/><rect fill="#F24D5C" height="6" style="stroke: #C82930; stroke-width: 1.0;" width="6" x="402" y="89.4326"/><text fill="#000000" font-family="sans-serif" font-size="11" lengthAdjust="spacingAndGlyphs" textLength="133" x="414" y="95.0898">backupLocation : (Int,Int)</text><ellipse cx="405" cy="105.3877" fill="#84BE84" rx="3" ry="3" style="stroke: #038048; stroke-width: 1.0;"/><text fill="#000000" font-family="sans-serif" font-size="11" lengthAdjust="spacingAndGlyphs" textLength="50" x="414" y="108.0449">execute()</text><ellipse cx="405" cy="118.3428" fill="#84BE84" rx="3" ry="3" style="stroke: #038048; stroke-width: 1.0;"/><text fill="#000000" font-family="sans-serif" font-size="11" lengthAdjust="spacingAndGlyphs" textLength="36" x="414" y="121">undo()</text><!--class Board--><rect fill="#FEFECE" filter="url(#f3fhgbei76l86)" height="229.3711" id="Board" style="stroke: #A80036; stroke-width: 1.5;" width="244" x="157.5" y="207"/><ellipse cx="258.25" cy="223" fill="#ADD1B2" rx="11" ry="11" style="stroke: #A80036; stroke-width: 1.0;"/><path d="M260.7231,229.1431 Q260.1421,229.4419 259.5029,229.5913 Q258.8638,229.7407 258.1582,229.7407 Q255.6514,229.7407 254.3315,228.0889 Q253.0117,226.437 253.0117,223.3159 Q253.0117,220.1865 254.3315,218.5347 Q255.6514,216.8828 258.1582,216.8828 Q258.8638,216.8828 259.5112,217.0322 Q260.1587,217.1816 260.7231,217.4805 L260.7231,220.2031 Q260.0923,219.6221 259.4988,219.3523 Q258.9053,219.0825 258.2744,219.0825 Q256.9297,219.0825 256.2449,220.1492 Q255.5601,221.2158 255.5601,223.3159 Q255.5601,225.4077 256.2449,226.4744 Q256.9297,227.541 258.2744,227.541 Q258.9053,227.541 259.4988,227.2712 Q260.0923,227.0015 260.7231,226.4204 Z "/><text fill="#000000" font-family="sans-serif" font-size="12" lengthAdjust="spacingAndGlyphs" textLength="34" x="278.75" y="227.5352">Board</text><line style="stroke: #A80036; stroke-width: 1.5;" x1="158.5" x2="400.5" y1="239" y2="239"/><rect fill="none" height="6" style="stroke: #C82930; stroke-width: 1.0;" width="6" x="165.5" y="247.9775"/><text fill="#000000" font-family="sans-serif" font-size="11" lengthAdjust="spacingAndGlyphs" textLength="90" x="177.5" y="253.6348">isSolid : [ [bool] ]</text><line style="stroke: #A80036; stroke-width: 1.5;" x1="158.5" x2="400.5" y1="259.9551" y2="259.9551"/><rect fill="#F24D5C" height="6" style="stroke: #C82930; stroke-width: 1.0;" width="6" x="165.5" y="268.9326"/><text fill="#000000" font-family="sans-serif" font-size="11" lengthAdjust="spacingAndGlyphs" textLength="76" x="177.5" y="274.5898">start : (Int, Int)</text><rect fill="#F24D5C" height="6" style="stroke: #C82930; stroke-width: 1.0;" width="6" x="165.5" y="281.8877"/><text fill="#000000" font-family="sans-serif" font-size="11" lengthAdjust="spacingAndGlyphs" textLength="71" x="177.5" y="287.5449">end : (Int, Int)</text><rect fill="#F24D5C" height="6" style="stroke: #C82930; stroke-width: 1.0;" width="6" x="165.5" y="294.8428"/><text fill="#000000" font-family="sans-serif" font-size="11" lengthAdjust="spacingAndGlyphs" textLength="76" x="177.5" y="300.5">cLoc : (Int, Int)</text><ellipse cx="168.5" cy="310.7979" fill="#84BE84" rx="3" ry="3" style="stroke: #038048; stroke-width: 1.0;"/><text fill="#000000" font-family="sans-serif" font-size="11" lengthAdjust="spacingAndGlyphs" textLength="105" x="177.5" y="313.4551">characterLocation()</text><ellipse cx="168.5" cy="323.7529" fill="#84BE84" rx="3" ry="3" style="stroke: #038048; stroke-width: 1.0;"/><text fill="#000000" font-family="sans-serif" font-size="11" lengthAdjust="spacingAndGlyphs" textLength="52" x="177.5" y="326.4102">moveUp()</text><ellipse cx="168.5" cy="336.708" fill="#84BE84" rx="3" ry="3" style="stroke: #038048; stroke-width: 1.0;"/><text fill="#000000" font-family="sans-serif" font-size="11" lengthAdjust="spacingAndGlyphs" textLength="65" x="177.5" y="339.3652">moveRight()</text><ellipse cx="168.5" cy="349.6631" fill="#84BE84" rx="3" ry="3" style="stroke: #038048; stroke-width: 1.0;"/><text fill="#000000" font-family="sans-serif" font-size="11" lengthAdjust="spacingAndGlyphs" textLength="67" x="177.5" y="352.3203">moveDown()</text><ellipse cx="168.5" cy="362.6182" fill="#84BE84" rx="3" ry="3" style="stroke: #038048; stroke-width: 1.0;"/><text fill="#000000" font-family="sans-serif" font-size="11" lengthAdjust="spacingAndGlyphs" textLength="57" x="177.5" y="365.2754">moveLeft()</text><ellipse cx="168.5" cy="375.5732" fill="#84BE84" rx="3" ry="3" style="stroke: #038048; stroke-width: 1.0;"/><text fill="#000000" font-family="sans-serif" font-size="11" lengthAdjust="spacingAndGlyphs" textLength="103" x="177.5" y="378.2305">canMoveUp() : bool</text><ellipse cx="168.5" cy="388.5283" fill="#84BE84" rx="3" ry="3" style="stroke: #038048; stroke-width: 1.0;"/><text fill="#000000" font-family="sans-serif" font-size="11" lengthAdjust="spacingAndGlyphs" textLength="116" x="177.5" y="391.1855">canMoveRight() : bool</text><ellipse cx="168.5" cy="401.4834" fill="#84BE84" rx="3" ry="3" style="stroke: #038048; stroke-width: 1.0;"/><text fill="#000000" font-family="sans-serif" font-size="11" lengthAdjust="spacingAndGlyphs" textLength="118" x="177.5" y="404.1406">canMoveDown() : bool</text><ellipse cx="168.5" cy="414.4385" fill="#84BE84" rx="3" ry="3" style="stroke: #038048; stroke-width: 1.0;"/><text fill="#000000" font-family="sans-serif" font-size="11" lengthAdjust="spacingAndGlyphs" textLength="108" x="177.5" y="417.0957">canMoveLeft() : bool</text><ellipse cx="168.5" cy="427.3936" fill="#84BE84" rx="3" ry="3" style="stroke: #038048; stroke-width: 1.0;"/><text fill="#000000" font-family="sans-serif" font-size="11" lengthAdjust="spacingAndGlyphs" textLength="218" x="177.5" y="430.0508">teleportCharacter(newLocation : (Int,Int))</text><!--class Controller--><rect fill="#FEFECE" filter="url(#f3fhgbei76l86)" height="138.6855" id="Controller" style="stroke: #A80036; stroke-width: 1.5;" width="190" x="782.5" y="8"/><ellipse cx="845.25" cy="24" fill="#ADD1B2" rx="11" ry="11" style="stroke: #A80036; stroke-width: 1.0;"/><path d="M847.7231,30.1431 Q847.1421,30.4419 846.5029,30.5913 Q845.8638,30.7407 845.1582,30.7407 Q842.6514,30.7407 841.3315,29.0889 Q840.0117,27.437 840.0117,24.3159 Q840.0117,21.1865 841.3315,19.5347 Q842.6514,17.8828 845.1582,17.8828 Q845.8638,17.8828 846.5112,18.0322 Q847.1587,18.1816 847.7231,18.4805 L847.7231,21.2031 Q847.0923,20.6221 846.4988,20.3523 Q845.9053,20.0825 845.2744,20.0825 Q843.9297,20.0825 843.2449,21.1492 Q842.5601,22.2158 842.5601,24.3159 Q842.5601,26.4077 843.2449,27.4744 Q843.9297,28.541 845.2744,28.541 Q845.9053,28.541 846.4988,28.2712 Q847.0923,28.0015 847.7231,27.4204 Z "/><text fill="#000000" font-family="sans-serif" font-size="12" lengthAdjust="spacingAndGlyphs" textLength="56" x="865.75" y="28.5352">Controller</text><line style="stroke: #A80036; stroke-width: 1.5;" x1="783.5" x2="971.5" y1="40" y2="40"/><rect fill="none" height="6" style="stroke: #C82930; stroke-width: 1.0;" width="6" x="790.5" y="48.9775"/><text fill="#000000" font-family="sans-serif" font-size="11" lengthAdjust="spacingAndGlyphs" textLength="164" x="802.5" y="54.6348">commandHistory : [Command]</text><rect fill="none" height="6" style="stroke: #C82930; stroke-width: 1.0;" width="6" x="790.5" y="61.9326"/><text fill="#000000" font-family="sans-serif" font-size="11" lengthAdjust="spacingAndGlyphs" textLength="72" x="802.5" y="67.5898">board : Board</text><line style="stroke: #A80036; stroke-width: 1.5;" x1="783.5" x2="971.5" y1="73.9102" y2="73.9102"/><ellipse cx="793.5" cy="85.8877" fill="#84BE84" rx="3" ry="3" style="stroke: #038048; stroke-width: 1.0;"/><text fill="#000000" font-family="sans-serif" font-size="11" lengthAdjust="spacingAndGlyphs" textLength="53" x="802.5" y="88.5449">pressUp()</text><ellipse cx="793.5" cy="98.8428" fill="#84BE84" rx="3" ry="3" style="stroke: #038048; stroke-width: 1.0;"/><text fill="#000000" font-family="sans-serif" font-size="11" lengthAdjust="spacingAndGlyphs" textLength="68" x="802.5" y="101.5">pressDown()</text><ellipse cx="793.5" cy="111.7979" fill="#84BE84" rx="3" ry="3" style="stroke: #038048; stroke-width: 1.0;"/><text fill="#000000" font-family="sans-serif" font-size="11" lengthAdjust="spacingAndGlyphs" textLength="58" x="802.5" y="114.4551">pressLeft()</text><ellipse cx="793.5" cy="124.7529" fill="#84BE84" rx="3" ry="3" style="stroke: #038048; stroke-width: 1.0;"/><text fill="#000000" font-family="sans-serif" font-size="11" lengthAdjust="spacingAndGlyphs" textLength="66" x="802.5" y="127.4102">pressRight()</text><ellipse cx="793.5" cy="137.708" fill="#84BE84" rx="3" ry="3" style="stroke: #038048; stroke-width: 1.0;"/><text fill="#000000" font-family="sans-serif" font-size="11" lengthAdjust="spacingAndGlyphs" textLength="36" x="802.5" y="140.3652">undo()</text><!--link DashUpCommand to Command--><path d="M629.3922,127.7611 C598.2727,168.8052 554.4146,226.6505 522.7331,268.4358 " fill="none" id="DashUpCommand-Command" style="stroke: #A80036; stroke-width: 1.0; stroke-dasharray: 7.0,7.0;"/><polygon fill="none" points="528.2692,272.7203,510.6077,284.4282,517.1132,264.2619,528.2692,272.7203" style="stroke: #A80036; stroke-width: 1.0;"/><!--link DashDownCommand to Command--><path d="M148.385,127.5996 C159.3435,134.8334 170.9449,141.6328 182.5,147 C281.0449,192.7725 333.5206,140.5639 419.5,207 C438.8422,221.9457 453.0621,244.5904 463.0454,265.8071 " fill="none" id="DashDownCommand-Command" style="stroke: #A80036; stroke-width: 1.0; stroke-dasharray: 7.0,7.0;"/><polygon fill="none" points="469.4996,263.097,470.899,284.2404,456.6199,268.5845,469.4996,263.097" style="stroke: #A80036; stroke-width: 1.0;"/><!--link DashRightCommand to Command--><path d="M475.3539,127.7611 C476.8175,167.4401 478.8602,222.8212 480.387,264.2145 " fill="none" id="DashRightCommand-Command" style="stroke: #A80036; stroke-width: 1.0; stroke-dasharray: 7.0,7.0;"/><polygon fill="none" points="487.3905,264.1837,481.1326,284.4282,473.4001,264.6998,487.3905,264.1837" style="stroke: #A80036; stroke-width: 1.0;"/><!--link DashLeftCommand to Command--><path d="M341.925,127.5168 C367.7973,150.1123 396.9625,178.1801 419.5,207 C433.6399,225.0815 446.4429,246.7536 456.7574,266.3547 " fill="none" id="DashLeftCommand-Command" style="stroke: #A80036; stroke-width: 1.0; stroke-dasharray: 7.0,7.0;"/><polygon fill="none" points="463.0675,263.3213,465.8464,284.3279,450.5741,269.6392,463.0675,263.3213" style="stroke: #A80036; stroke-width: 1.0;"/><!--link Controller to Command--><path d="M770.8708,143.3672 C696.3462,189.4026 599.7471,249.0739 539.4406,286.3266 " fill="none" id="Controller-Command" style="stroke: #A80036; stroke-width: 1.0;"/><polygon fill="#A80036" points="528.2484,293.2402,538.0075,291.9134,532.5022,290.6125,533.8032,285.1073,528.2484,293.2402" style="stroke: #A80036; stroke-width: 1.0;"/><line style="stroke: #A80036; stroke-width: 1.0;" x1="532.5022" x2="539.3084" y1="290.6125" y2="286.4082"/><polygon fill="#FFFFFF" points="782.385,136.2546,775.1782,136.0048,772.1758,142.5611,779.3825,142.8109,782.385,136.2546" style="stroke: #A80036; stroke-width: 1.0;"/><!--link DashUpCommand to Board--><path d="M590.8472,134.9426 C584.0932,139.2268 577.2554,143.3098 570.5,147 C507.1242,181.6196 481.739,170.3759 419.5,207 C417.2674,208.3137 415.0333,209.6617 412.8002,211.0404 " fill="none" id="DashUpCommand-Board" style="stroke: #A80036; stroke-width: 1.0;"/><polygon fill="#A80036" points="401.6531,218.1727,411.3899,216.6914,405.8648,215.4779,407.0783,209.9527,401.6531,218.1727" style="stroke: #A80036; stroke-width: 1.0;"/><line style="stroke: #A80036; stroke-width: 1.0;" x1="405.8648" x2="412.6035" y1="215.4779" y2="211.1662"/><polygon fill="#FFFFFF" points="602.1052,127.5766,594.8944,127.5145,592.0636,134.1468,599.2745,134.2089,602.1052,127.5766" style="stroke: #A80036; stroke-width: 1.0;"/><!--link DashDownCommand to Board--><path d="M133.6466,138.0555 C147.8587,155.9305 163.9643,176.1871 180.157,196.5532 " fill="none" id="DashDownCommand-Board" style="stroke: #A80036; stroke-width: 1.0;"/><polygon fill="#A80036" points="188.363,206.8741,185.8928,197.34,185.2513,202.9604,179.6309,202.3188,188.363,206.8741" style="stroke: #A80036; stroke-width: 1.0;"/><line style="stroke: #A80036; stroke-width: 1.0;" x1="185.2513" x2="180.2725" y1="202.9604" y2="196.6984"/><polygon fill="#FFFFFF" points="125.4617,127.7611,126.0648,134.9469,132.9299,137.154,132.3267,129.9682,125.4617,127.7611" style="stroke: #A80036; stroke-width: 1.0;"/><!--link DashRightCommand to Board--><path d="M425.3534,138.0555 C411.1413,155.9305 395.0357,176.1871 378.843,196.5532 " fill="none" id="DashRightCommand-Board" style="stroke: #A80036; stroke-width: 1.0;"/><polygon fill="#A80036" points="370.637,206.8741,379.3691,202.3188,373.7487,202.9604,373.1072,197.34,370.637,206.8741" style="stroke: #A80036; stroke-width: 1.0;"/><line style="stroke: #A80036; stroke-width: 1.0;" x1="373.7487" x2="378.7275" y1="202.9604" y2="196.6984"/><polygon fill="#FFFFFF" points="433.5383,127.7611,426.6733,129.9682,426.0701,137.154,432.9352,134.9469,433.5383,127.7611" style="stroke: #A80036; stroke-width: 1.0;"/><!--link DashLeftCommand to Board--><path d="M279.5,140.9379 C279.5,157.2854 279.5,175.4721 279.5,193.8304 " fill="none" id="DashLeftCommand-Board" style="stroke: #A80036; stroke-width: 1.0;"/><polygon fill="#A80036" points="279.5,206.8741,283.5,197.8741,279.5,201.8741,275.5,197.8741,279.5,206.8741" style="stroke: #A80036; stroke-width: 1.0;"/><line style="stroke: #A80036; stroke-width: 1.0;" x1="279.5" x2="279.5001" y1="201.8741" y2="193.8741"/><polygon fill="#FFFFFF" points="279.5,127.7611,275.5,133.7611,279.5,139.7611,283.5,133.7611,279.5,127.7611" style="stroke: #A80036; stroke-width: 1.0;"/><!--
@startuml
  interface Command{
    + {abstract} execute()
    + {abstract} undo()
  }

  class DashUpCommand{
    - board : Board
    - backupLocation : (Int,Int)
    + execute()
    + undo()
  }

  class DashDownCommand{
    - board : Board
    - backupLocation : (Int,Int)
    + execute()
    + undo()
  }

  class DashLeftCommand{
    - board : Board
    - backupLocation : (Int,Int)
    + execute()
    + undo()
  }

  class DashRightCommand{
    - board : Board
    - backupLocation : (Int,Int)
    + execute()
    + undo()
  }

  class Board{
    - isSolid : [ [bool] ]
    - start : (Int, Int)
    - end : (Int, Int)
    - cLoc : (Int, Int)
    + characterLocation()
    + moveUp()
    + moveRight()
    + moveDown()
    + moveLeft()
    + canMoveUp() : bool
    + canMoveRight() : bool
    + canMoveDown() : bool
    + canMoveLeft() : bool
    + teleportCharacter(newLocation : (Int,Int))
  }

  class Controller{
    - commandHistory : [Command]
    - board : Board
    + pressUp()
    + pressDown()
    + pressLeft()
    + pressRight()
    + undo()
  }

  DashUpCommand ..|> Command
  DashDownCommand ..|> Command
  DashRightCommand ..|> Command
  DashLeftCommand ..|> Command
  Controller o- -> Command
  DashUpCommand o- -> Board
  DashDownCommand o- -> Board
  DashRightCommand o- -> Board
  DashLeftCommand o- -> Board
@enduml

PlantUML version 1.2018.01(Mon Jan 29 02:08:22 PHT 2018)
(GPL source distribution)
Java Runtime: Java(TM) SE Runtime Environment
JVM: Java HotSpot(TM) 64-Bit Server VM
Java Version: 1.8.0_92-b14
Operating System: Mac OS X
OS Version: 10.14.6
Default Encoding: UTF-8
Language: en
Country: US
--></g></svg>