<?xml version="1.0" encoding="UTF-8" standalone="no"?><svg xmlns="http://www.w3.org/2000/svg" xmlns:xlink="http://www.w3.org/1999/xlink" contentScriptType="application/ecmascript" contentStyleType="text/css" height="285px" preserveAspectRatio="none" style="width:534px;height:285px;" version="1.1" viewBox="0 0 534 285" width="534px" zoomAndPan="magnify"><defs><filter height="300%" id="f22ztx2fajupr" width="300%" x="-1" y="-1"><feGaussianBlur result="blurOut" stdDeviation="2.0"/><feColorMatrix in="blurOut" result="blurOut2" type="matrix" values="0 0 0 0 0 0 0 0 0 0 0 0 0 0 0 0 0 0 .4 0"/><feOffset dx="4.0" dy="4.0" in="blurOut2" result="blurOut3"/><feBlend in="SourceGraphic" in2="blurOut3" mode="normal"/></filter></defs><g><!--class FileSystemEntity--><rect fill="#FEFECE" filter="url(#f22ztx2fajupr)" height="75.6719" id="FileSystemEntity" style="stroke: #A80036; stroke-width: 1.5;" width="178" x="37.5" y="199"/><ellipse cx="77.25" cy="215" fill="#B4A7E5" rx="11" ry="11" style="stroke: #A80036; stroke-width: 1.0;"/><path d="M78.2031,211.6406 L78.2031,218.2969 L79.9219,218.2969 Q80.5313,218.2969 80.7969,218.5313 Q81.0625,218.7656 81.0625,219.1563 Q81.0625,219.5313 80.7969,219.7656 Q80.5313,220 79.9219,220 L74.7813,220 Q74.1719,220 73.9063,219.7656 Q73.6406,219.5313 73.6406,219.1406 Q73.6406,218.7656 73.9063,218.5313 Q74.1719,218.2969 74.7813,218.2969 L76.5,218.2969 L76.5,211.6406 L74.7813,211.6406 Q74.1719,211.6406 73.9063,211.4063 Q73.6406,211.1719 73.6406,210.7813 Q73.6406,210.4063 73.9063,210.1719 Q74.1719,209.9375 74.7813,209.9375 L79.9219,209.9375 Q80.5313,209.9375 80.7969,210.1719 Q81.0625,210.4063 81.0625,210.7813 Q81.0625,211.1719 80.7969,211.4063 Q80.5313,211.6406 79.9219,211.6406 L78.2031,211.6406 Z "/><text fill="#000000" font-family="sans-serif" font-size="12" font-style="italic" lengthAdjust="spacingAndGlyphs" textLength="91" x="96.75" y="219.9102">FileSystemEntity</text><line style="stroke: #A80036; stroke-width: 1.5;" x1="38.5" x2="214.5" y1="231" y2="231"/><line style="stroke: #A80036; stroke-width: 1.5;" x1="38.5" x2="214.5" y1="239" y2="239"/><ellipse cx="48.5" cy="251.418" fill="#84BE84" rx="3" ry="3" style="stroke: #038048; stroke-width: 1.0;"/><text fill="#000000" font-family="sans-serif" font-size="11" font-style="italic" lengthAdjust="spacingAndGlyphs" textLength="59" x="57.5" y="254.4189">size() : float</text><ellipse cx="48.5" cy="265.2539" fill="#84BE84" rx="3" ry="3" style="stroke: #038048; stroke-width: 1.0;"/><text fill="#000000" font-family="sans-serif" font-size="11" font-style="italic" lengthAdjust="spacingAndGlyphs" textLength="152" x="57.5" y="268.2549">searchResults(target:str) : [str]</text><!--class Directory--><rect fill="#FEFECE" filter="url(#f22ztx2fajupr)" height="131.0156" id="Directory" style="stroke: #A80036; stroke-width: 1.5;" width="241" x="6" y="8"/><ellipse cx="98.25" cy="24" fill="#ADD1B2" rx="11" ry="11" style="stroke: #A80036; stroke-width: 1.0;"/><path d="M101.0156,19.875 Q101.1719,19.6563 101.3594,19.5469 Q101.5469,19.4375 101.7656,19.4375 Q102.1406,19.4375 102.375,19.6953 Q102.6094,19.9531 102.6094,20.5625 L102.6094,22.0156 Q102.6094,22.625 102.375,22.8906 Q102.1406,23.1563 101.7656,23.1563 Q101.4219,23.1563 101.2188,22.9531 Q101.0156,22.7656 100.9063,22.25 Q100.8594,21.8906 100.6719,21.7031 Q100.3438,21.3281 99.7344,21.1094 Q99.125,20.8906 98.5,20.8906 Q97.7344,20.8906 97.1016,21.2188 Q96.4688,21.5469 95.9766,22.2969 Q95.4844,23.0469 95.4844,24.0781 L95.4844,25.1719 Q95.4844,26.4063 96.375,27.2266 Q97.2656,28.0469 98.8594,28.0469 Q99.7969,28.0469 100.4531,27.7969 Q100.8438,27.6406 101.2656,27.2031 Q101.5313,26.9375 101.6797,26.8594 Q101.8281,26.7813 102.0313,26.7813 Q102.3594,26.7813 102.6172,27.0391 Q102.875,27.2969 102.875,27.6406 Q102.875,27.9844 102.5313,28.3906 Q102.0313,28.9688 101.2344,29.2969 Q100.1563,29.75 98.8594,29.75 Q97.3438,29.75 96.1406,29.125 Q95.1563,28.625 94.4688,27.5547 Q93.7813,26.4844 93.7813,25.2031 L93.7813,24.0469 Q93.7813,22.7188 94.3984,21.5703 Q95.0156,20.4219 96.1094,19.8047 Q97.2031,19.1875 98.4375,19.1875 Q99.1719,19.1875 99.8203,19.3516 Q100.4688,19.5156 101.0156,19.875 Z "/><text fill="#000000" font-family="sans-serif" font-size="12" lengthAdjust="spacingAndGlyphs" textLength="48" x="118.75" y="28.9102">Directory</text><line style="stroke: #A80036; stroke-width: 1.5;" x1="7" x2="246" y1="40" y2="40"/><rect fill="none" height="6" style="stroke: #C82930; stroke-width: 1.0;" width="6" x="14" y="49.418"/><text fill="#000000" font-family="sans-serif" font-size="11" lengthAdjust="spacingAndGlyphs" textLength="48" x="26" y="55.4189">name : str</text><rect fill="none" height="6" style="stroke: #C82930; stroke-width: 1.0;" width="6" x="14" y="63.2539"/><text fill="#000000" font-family="sans-serif" font-size="11" lengthAdjust="spacingAndGlyphs" textLength="131" x="26" y="69.2549">children : [FileSystemEntity]</text><line style="stroke: #A80036; stroke-width: 1.5;" x1="7" x2="246" y1="75.6719" y2="75.6719"/><ellipse cx="17" cy="88.0898" fill="#84BE84" rx="3" ry="3" style="stroke: #038048; stroke-width: 1.0;"/><text fill="#000000" font-family="sans-serif" font-size="11" lengthAdjust="spacingAndGlyphs" textLength="58" x="26" y="91.0908">size() : float</text><ellipse cx="17" cy="101.9258" fill="#84BE84" rx="3" ry="3" style="stroke: #038048; stroke-width: 1.0;"/><text fill="#000000" font-family="sans-serif" font-size="11" lengthAdjust="spacingAndGlyphs" textLength="215" x="26" y="104.9268">searchResults(target:str) : [FileSystemEntity]</text><ellipse cx="17" cy="115.7617" fill="#84BE84" rx="3" ry="3" style="stroke: #038048; stroke-width: 1.0;"/><text fill="#000000" font-family="sans-serif" font-size="11" lengthAdjust="spacingAndGlyphs" textLength="175" x="26" y="118.7627">addChild(newChild:FileSystemEntity)</text><ellipse cx="17" cy="129.5977" fill="#84BE84" rx="3" ry="3" style="stroke: #038048; stroke-width: 1.0;"/><text fill="#000000" font-family="sans-serif" font-size="11" lengthAdjust="spacingAndGlyphs" textLength="183" x="26" y="132.5986">removeChild(exChild:FileSystemEntity)</text><!--class File--><rect fill="#FEFECE" filter="url(#f22ztx2fajupr)" height="103.3438" id="File" style="stroke: #A80036; stroke-width: 1.5;" width="241" x="282" y="22"/><ellipse cx="388.25" cy="38" fill="#ADD1B2" rx="11" ry="11" style="stroke: #A80036; stroke-width: 1.0;"/><path d="M391.0156,33.875 Q391.1719,33.6563 391.3594,33.5469 Q391.5469,33.4375 391.7656,33.4375 Q392.1406,33.4375 392.375,33.6953 Q392.6094,33.9531 392.6094,34.5625 L392.6094,36.0156 Q392.6094,36.625 392.375,36.8906 Q392.1406,37.1563 391.7656,37.1563 Q391.4219,37.1563 391.2188,36.9531 Q391.0156,36.7656 390.9063,36.25 Q390.8594,35.8906 390.6719,35.7031 Q390.3438,35.3281 389.7344,35.1094 Q389.125,34.8906 388.5,34.8906 Q387.7344,34.8906 387.1016,35.2188 Q386.4688,35.5469 385.9766,36.2969 Q385.4844,37.0469 385.4844,38.0781 L385.4844,39.1719 Q385.4844,40.4063 386.375,41.2266 Q387.2656,42.0469 388.8594,42.0469 Q389.7969,42.0469 390.4531,41.7969 Q390.8438,41.6406 391.2656,41.2031 Q391.5313,40.9375 391.6797,40.8594 Q391.8281,40.7813 392.0313,40.7813 Q392.3594,40.7813 392.6172,41.0391 Q392.875,41.2969 392.875,41.6406 Q392.875,41.9844 392.5313,42.3906 Q392.0313,42.9688 391.2344,43.2969 Q390.1563,43.75 388.8594,43.75 Q387.3438,43.75 386.1406,43.125 Q385.1563,42.625 384.4688,41.5547 Q383.7813,40.4844 383.7813,39.2031 L383.7813,38.0469 Q383.7813,36.7188 384.3984,35.5703 Q385.0156,34.4219 386.1094,33.8047 Q387.2031,33.1875 388.4375,33.1875 Q389.1719,33.1875 389.8203,33.3516 Q390.4688,33.5156 391.0156,33.875 Z "/><text fill="#000000" font-family="sans-serif" font-size="12" lengthAdjust="spacingAndGlyphs" textLength="20" x="408.75" y="42.9102">File</text><line style="stroke: #A80036; stroke-width: 1.5;" x1="283" x2="522" y1="54" y2="54"/><rect fill="none" height="6" style="stroke: #C82930; stroke-width: 1.0;" width="6" x="290" y="63.418"/><text fill="#000000" font-family="sans-serif" font-size="11" lengthAdjust="spacingAndGlyphs" textLength="48" x="302" y="69.4189">name : str</text><rect fill="none" height="6" style="stroke: #C82930; stroke-width: 1.0;" width="6" x="290" y="77.2539"/><text fill="#000000" font-family="sans-serif" font-size="11" lengthAdjust="spacingAndGlyphs" textLength="50" x="302" y="83.2549">size : float</text><line style="stroke: #A80036; stroke-width: 1.5;" x1="283" x2="522" y1="89.6719" y2="89.6719"/><ellipse cx="293" cy="102.0898" fill="#84BE84" rx="3" ry="3" style="stroke: #038048; stroke-width: 1.0;"/><text fill="#000000" font-family="sans-serif" font-size="11" lengthAdjust="spacingAndGlyphs" textLength="58" x="302" y="105.0908">size() : float</text><ellipse cx="293" cy="115.9258" fill="#84BE84" rx="3" ry="3" style="stroke: #038048; stroke-width: 1.0;"/><text fill="#000000" font-family="sans-serif" font-size="11" lengthAdjust="spacingAndGlyphs" textLength="215" x="302" y="118.9268">searchResults(target:str) : [FileSystemEntity]</text><!--link Directory to FileSystemEntity--><path d="M113.975,139.258 C113.607,152.188 113.691,165.688 114.226,178.3589 " fill="none" id="Directory-FileSystemEntity" style="stroke: #A80036; stroke-width: 1.0; stroke-dasharray: 7.0,7.0;"/><polygon fill="none" points="121.233,178.2396,115.553,198.6539,107.263,179.1534,121.233,178.2396" style="stroke: #A80036; stroke-width: 1.0;"/><!--link Directory to FileSystemEntity--><path d="M139.994,152.647 C140.047,163.803 139.757,175.0246 139.123,185.4601 " fill="none" id="Directory-FileSystemEntity" style="stroke: #A80036; stroke-width: 1.0;"/><polygon fill="#A80036" points="138.091,198.6539,142.7806,189.9932,138.4809,193.6691,134.8049,189.3694,138.091,198.6539" style="stroke: #A80036; stroke-width: 1.0;"/><line style="stroke: #A80036; stroke-width: 1.0;" x1="138.4809" x2="139.1045" y1="193.6691" y2="185.6934"/><polygon fill="#FFFFFF" points="139.762,139.258,135.8668,145.3266,139.9704,151.2562,143.8656,145.1876,139.762,139.258" style="stroke: #A80036; stroke-width: 1.0;"/><!--link File to FileSystemEntity--><path d="M315.929,125.157 C281.196,145.48 241.392,168.772 207.263,188.7419 " fill="none" id="File-FileSystemEntity" style="stroke: #A80036; stroke-width: 1.0; stroke-dasharray: 7.0,7.0;"/><polygon fill="none" points="210.788,194.7898,189.99,198.8489,203.717,182.7064,210.788,194.7898" style="stroke: #A80036; stroke-width: 1.0;"/><!--
@startuml

  interface FileSystemEntity{
    + {abstract} size() : float
    + {abstract} searchResults(target:str) : [str]
  }

  class Directory{
    - name : str
    - children : [FileSystemEntity]
    + size() : float
    + searchResults(target:str) : [FileSystemEntity]
    + addChild(newChild:FileSystemEntity)
    + removeChild(exChild:FileSystemEntity)
  }

  class File{
    - name : str
    - size : float
    + size() : float
    + searchResults(target:str) : [FileSystemEntity]
  }

  Directory ..|> FileSystemEntity
  File ..|> FileSystemEntity
  Directory o- -> FileSystemEntity

@enduml

PlantUML version 1.2018.01(Mon Jan 29 02:08:22 CST 2018)
(GPL source distribution)
Java Runtime: Java(TM) SE Runtime Environment
JVM: Java HotSpot(TM) 64-Bit Server VM
Java Version: 1.8.0_05-b13
Operating System: Windows 8.1
OS Version: 6.3
Default Encoding: Cp1252
Language: en
Country: PH
--></g></svg>