<?xml version="1.0" encoding="UTF-8" standalone="no"?><svg xmlns="http://www.w3.org/2000/svg" xmlns:xlink="http://www.w3.org/1999/xlink" contentScriptType="application/ecmascript" contentStyleType="text/css" height="355px" preserveAspectRatio="none" style="width:556px;height:355px;" version="1.1" viewBox="0 0 556 355" width="556px" zoomAndPan="magnify"><defs><filter height="300%" id="fd17k4w" width="300%" x="-1" y="-1"><feGaussianBlur result="blurOut" stdDeviation="2.0"/><feColorMatrix in="blurOut" result="blurOut2" type="matrix" values="0 0 0 0 0 0 0 0 0 0 0 0 0 0 0 0 0 0 .4 0"/><feOffset dx="4.0" dy="4.0" in="blurOut2" result="blurOut3"/><feBlend in="SourceGraphic" in2="blurOut3" mode="normal"/></filter></defs><g><!--class Factory--><rect fill="#FEFECE" filter="url(#fd17k4w)" height="75.6719" style="stroke: #A80036; stroke-width: 1.5;" width="139" x="321.5" y="131"/><ellipse cx="367.25" cy="147" fill="#ADD1B2" rx="11" ry="11" style="stroke: #A80036; stroke-width: 1.0;"/><path d="M370.0156,142.875 Q370.1719,142.6563 370.3594,142.5469 Q370.5469,142.4375 370.7656,142.4375 Q371.1406,142.4375 371.375,142.6953 Q371.6094,142.9531 371.6094,143.5625 L371.6094,145.0156 Q371.6094,145.625 371.375,145.8906 Q371.1406,146.1563 370.7656,146.1563 Q370.4219,146.1563 370.2188,145.9531 Q370.0156,145.7656 369.9063,145.25 Q369.8594,144.8906 369.6719,144.7031 Q369.3438,144.3281 368.7344,144.1094 Q368.125,143.8906 367.5,143.8906 Q366.7344,143.8906 366.1016,144.2188 Q365.4688,144.5469 364.9766,145.2969 Q364.4844,146.0469 364.4844,147.0781 L364.4844,148.1719 Q364.4844,149.4063 365.375,150.2266 Q366.2656,151.0469 367.8594,151.0469 Q368.7969,151.0469 369.4531,150.7969 Q369.8438,150.6406 370.2656,150.2031 Q370.5313,149.9375 370.6797,149.8594 Q370.8281,149.7813 371.0313,149.7813 Q371.3594,149.7813 371.6172,150.0391 Q371.875,150.2969 371.875,150.6406 Q371.875,150.9844 371.5313,151.3906 Q371.0313,151.9688 370.2344,152.2969 Q369.1563,152.75 367.8594,152.75 Q366.3438,152.75 365.1406,152.125 Q364.1563,151.625 363.4688,150.5547 Q362.7813,149.4844 362.7813,148.2031 L362.7813,147.0469 Q362.7813,145.7188 363.3984,144.5703 Q364.0156,143.4219 365.1094,142.8047 Q366.2031,142.1875 367.4375,142.1875 Q368.1719,142.1875 368.8203,142.3516 Q369.4688,142.5156 370.0156,142.875 Z "/><text fill="#000000" font-family="sans-serif" font-size="12" lengthAdjust="spacingAndGlyphs" textLength="39" x="387.75" y="151.9102">Factory</text><line style="stroke: #A80036; stroke-width: 1.5;" x1="322.5" x2="459.5" y1="163" y2="163"/><line style="stroke: #A80036; stroke-width: 1.5;" x1="322.5" x2="459.5" y1="171" y2="171"/><ellipse cx="332.5" cy="183.418" fill="#84BE84" rx="3" ry="3" style="stroke: #038048; stroke-width: 1.0;"/><text fill="#000000" font-family="sans-serif" font-size="11" lengthAdjust="spacingAndGlyphs" textLength="97" x="341.5" y="186.4189">printANewProduct()</text><ellipse cx="332.5" cy="197.2539" fill="#84BE84" rx="3" ry="3" style="stroke: #038048; stroke-width: 1.0;"/><text fill="#000000" font-family="sans-serif" font-size="11" lengthAdjust="spacingAndGlyphs" textLength="113" x="341.5" y="200.2549">newProduct() : Product</text><!--class Product--><rect fill="#FEFECE" filter="url(#fd17k4w)" height="61.8359" style="stroke: #A80036; stroke-width: 1.5;" width="74" x="188" y="285"/><ellipse cx="203" cy="301" fill="#B4A7E5" rx="11" ry="11" style="stroke: #A80036; stroke-width: 1.0;"/><path d="M203.9531,297.6406 L203.9531,304.2969 L205.6719,304.2969 Q206.2813,304.2969 206.5469,304.5313 Q206.8125,304.7656 206.8125,305.1563 Q206.8125,305.5313 206.5469,305.7656 Q206.2813,306 205.6719,306 L200.5313,306 Q199.9219,306 199.6563,305.7656 Q199.3906,305.5313 199.3906,305.1406 Q199.3906,304.7656 199.6563,304.5313 Q199.9219,304.2969 200.5313,304.2969 L202.25,304.2969 L202.25,297.6406 L200.5313,297.6406 Q199.9219,297.6406 199.6563,297.4063 Q199.3906,297.1719 199.3906,296.7813 Q199.3906,296.4063 199.6563,296.1719 Q199.9219,295.9375 200.5313,295.9375 L205.6719,295.9375 Q206.2813,295.9375 206.5469,296.1719 Q206.8125,296.4063 206.8125,296.7813 Q206.8125,297.1719 206.5469,297.4063 Q206.2813,297.6406 205.6719,297.6406 L203.9531,297.6406 Z "/><text fill="#000000" font-family="sans-serif" font-size="12" font-style="italic" lengthAdjust="spacingAndGlyphs" textLength="42" x="217" y="305.9102">Product</text><line style="stroke: #A80036; stroke-width: 1.5;" x1="189" x2="261" y1="317" y2="317"/><line style="stroke: #A80036; stroke-width: 1.5;" x1="189" x2="261" y1="325" y2="325"/><ellipse cx="199" cy="337.418" fill="#84BE84" rx="3" ry="3" style="stroke: #038048; stroke-width: 1.0;"/><text fill="#000000" font-family="sans-serif" font-size="11" font-style="italic" lengthAdjust="spacingAndGlyphs" textLength="33" x="208" y="340.4189">show()</text><!--class SpecialProductA--><rect fill="#FEFECE" filter="url(#fd17k4w)" height="61.8359" style="stroke: #A80036; stroke-width: 1.5;" width="122" x="6" y="138"/><ellipse cx="21" cy="154" fill="#ADD1B2" rx="11" ry="11" style="stroke: #A80036; stroke-width: 1.0;"/><path d="M23.7656,149.875 Q23.9219,149.6563 24.1094,149.5469 Q24.2969,149.4375 24.5156,149.4375 Q24.8906,149.4375 25.125,149.6953 Q25.3594,149.9531 25.3594,150.5625 L25.3594,152.0156 Q25.3594,152.625 25.125,152.8906 Q24.8906,153.1563 24.5156,153.1563 Q24.1719,153.1563 23.9688,152.9531 Q23.7656,152.7656 23.6563,152.25 Q23.6094,151.8906 23.4219,151.7031 Q23.0938,151.3281 22.4844,151.1094 Q21.875,150.8906 21.25,150.8906 Q20.4844,150.8906 19.8516,151.2188 Q19.2188,151.5469 18.7266,152.2969 Q18.2344,153.0469 18.2344,154.0781 L18.2344,155.1719 Q18.2344,156.4063 19.125,157.2266 Q20.0156,158.0469 21.6094,158.0469 Q22.5469,158.0469 23.2031,157.7969 Q23.5938,157.6406 24.0156,157.2031 Q24.2813,156.9375 24.4297,156.8594 Q24.5781,156.7813 24.7813,156.7813 Q25.1094,156.7813 25.3672,157.0391 Q25.625,157.2969 25.625,157.6406 Q25.625,157.9844 25.2813,158.3906 Q24.7813,158.9688 23.9844,159.2969 Q22.9063,159.75 21.6094,159.75 Q20.0938,159.75 18.8906,159.125 Q17.9063,158.625 17.2188,157.5547 Q16.5313,156.4844 16.5313,155.2031 L16.5313,154.0469 Q16.5313,152.7188 17.1484,151.5703 Q17.7656,150.4219 18.8594,149.8047 Q19.9531,149.1875 21.1875,149.1875 Q21.9219,149.1875 22.5703,149.3516 Q23.2188,149.5156 23.7656,149.875 Z "/><text fill="#000000" font-family="sans-serif" font-size="12" lengthAdjust="spacingAndGlyphs" textLength="90" x="35" y="158.9102">SpecialProductA</text><line style="stroke: #A80036; stroke-width: 1.5;" x1="7" x2="127" y1="170" y2="170"/><line style="stroke: #A80036; stroke-width: 1.5;" x1="7" x2="127" y1="178" y2="178"/><ellipse cx="17" cy="190.418" fill="#84BE84" rx="3" ry="3" style="stroke: #038048; stroke-width: 1.0;"/><text fill="#000000" font-family="sans-serif" font-size="11" lengthAdjust="spacingAndGlyphs" textLength="36" x="26" y="193.4189">show()</text><!--class SpecialProductB--><rect fill="#FEFECE" filter="url(#fd17k4w)" height="61.8359" style="stroke: #A80036; stroke-width: 1.5;" width="123" x="163.5" y="138"/><ellipse cx="178.5" cy="154" fill="#ADD1B2" rx="11" ry="11" style="stroke: #A80036; stroke-width: 1.0;"/><path d="M181.2656,149.875 Q181.4219,149.6563 181.6094,149.5469 Q181.7969,149.4375 182.0156,149.4375 Q182.3906,149.4375 182.625,149.6953 Q182.8594,149.9531 182.8594,150.5625 L182.8594,152.0156 Q182.8594,152.625 182.625,152.8906 Q182.3906,153.1563 182.0156,153.1563 Q181.6719,153.1563 181.4688,152.9531 Q181.2656,152.7656 181.1563,152.25 Q181.1094,151.8906 180.9219,151.7031 Q180.5938,151.3281 179.9844,151.1094 Q179.375,150.8906 178.75,150.8906 Q177.9844,150.8906 177.3516,151.2188 Q176.7188,151.5469 176.2266,152.2969 Q175.7344,153.0469 175.7344,154.0781 L175.7344,155.1719 Q175.7344,156.4063 176.625,157.2266 Q177.5156,158.0469 179.1094,158.0469 Q180.0469,158.0469 180.7031,157.7969 Q181.0938,157.6406 181.5156,157.2031 Q181.7813,156.9375 181.9297,156.8594 Q182.0781,156.7813 182.2813,156.7813 Q182.6094,156.7813 182.8672,157.0391 Q183.125,157.2969 183.125,157.6406 Q183.125,157.9844 182.7813,158.3906 Q182.2813,158.9688 181.4844,159.2969 Q180.4063,159.75 179.1094,159.75 Q177.5938,159.75 176.3906,159.125 Q175.4063,158.625 174.7188,157.5547 Q174.0313,156.4844 174.0313,155.2031 L174.0313,154.0469 Q174.0313,152.7188 174.6484,151.5703 Q175.2656,150.4219 176.3594,149.8047 Q177.4531,149.1875 178.6875,149.1875 Q179.4219,149.1875 180.0703,149.3516 Q180.7188,149.5156 181.2656,149.875 Z "/><text fill="#000000" font-family="sans-serif" font-size="12" lengthAdjust="spacingAndGlyphs" textLength="91" x="192.5" y="158.9102">SpecialProductB</text><line style="stroke: #A80036; stroke-width: 1.5;" x1="164.5" x2="285.5" y1="170" y2="170"/><line style="stroke: #A80036; stroke-width: 1.5;" x1="164.5" x2="285.5" y1="178" y2="178"/><ellipse cx="174.5" cy="190.418" fill="#84BE84" rx="3" ry="3" style="stroke: #038048; stroke-width: 1.0;"/><text fill="#000000" font-family="sans-serif" font-size="11" lengthAdjust="spacingAndGlyphs" textLength="36" x="183.5" y="193.4189">show()</text><!--class SpecialFactoryA--><rect fill="#FEFECE" filter="url(#fd17k4w)" height="61.8359" style="stroke: #A80036; stroke-width: 1.5;" width="139" x="234.5" y="8"/><ellipse cx="258.5" cy="24" fill="#ADD1B2" rx="11" ry="11" style="stroke: #A80036; stroke-width: 1.0;"/><path d="M261.2656,19.875 Q261.4219,19.6563 261.6094,19.5469 Q261.7969,19.4375 262.0156,19.4375 Q262.3906,19.4375 262.625,19.6953 Q262.8594,19.9531 262.8594,20.5625 L262.8594,22.0156 Q262.8594,22.625 262.625,22.8906 Q262.3906,23.1563 262.0156,23.1563 Q261.6719,23.1563 261.4688,22.9531 Q261.2656,22.7656 261.1563,22.25 Q261.1094,21.8906 260.9219,21.7031 Q260.5938,21.3281 259.9844,21.1094 Q259.375,20.8906 258.75,20.8906 Q257.9844,20.8906 257.3516,21.2188 Q256.7188,21.5469 256.2266,22.2969 Q255.7344,23.0469 255.7344,24.0781 L255.7344,25.1719 Q255.7344,26.4063 256.625,27.2266 Q257.5156,28.0469 259.1094,28.0469 Q260.0469,28.0469 260.7031,27.7969 Q261.0938,27.6406 261.5156,27.2031 Q261.7813,26.9375 261.9297,26.8594 Q262.0781,26.7813 262.2813,26.7813 Q262.6094,26.7813 262.8672,27.0391 Q263.125,27.2969 263.125,27.6406 Q263.125,27.9844 262.7813,28.3906 Q262.2813,28.9688 261.4844,29.2969 Q260.4063,29.75 259.1094,29.75 Q257.5938,29.75 256.3906,29.125 Q255.4063,28.625 254.7188,27.5547 Q254.0313,26.4844 254.0313,25.2031 L254.0313,24.0469 Q254.0313,22.7188 254.6484,21.5703 Q255.2656,20.4219 256.3594,19.8047 Q257.4531,19.1875 258.6875,19.1875 Q259.4219,19.1875 260.0703,19.3516 Q260.7188,19.5156 261.2656,19.875 Z "/><text fill="#000000" font-family="sans-serif" font-size="12" lengthAdjust="spacingAndGlyphs" textLength="87" x="274.5" y="28.9102">SpecialFactoryA</text><line style="stroke: #A80036; stroke-width: 1.5;" x1="235.5" x2="372.5" y1="40" y2="40"/><line style="stroke: #A80036; stroke-width: 1.5;" x1="235.5" x2="372.5" y1="48" y2="48"/><ellipse cx="245.5" cy="60.418" fill="#84BE84" rx="3" ry="3" style="stroke: #038048; stroke-width: 1.0;"/><text fill="#000000" font-family="sans-serif" font-size="11" lengthAdjust="spacingAndGlyphs" textLength="113" x="254.5" y="63.4189">newProduct() : Product</text><!--class SpecialFactoryB--><rect fill="#FEFECE" filter="url(#fd17k4w)" height="61.8359" style="stroke: #A80036; stroke-width: 1.5;" width="139" x="408.5" y="8"/><ellipse cx="432.05" cy="24" fill="#ADD1B2" rx="11" ry="11" style="stroke: #A80036; stroke-width: 1.0;"/><path d="M434.8156,19.875 Q434.9719,19.6563 435.1594,19.5469 Q435.3469,19.4375 435.5656,19.4375 Q435.9406,19.4375 436.175,19.6953 Q436.4094,19.9531 436.4094,20.5625 L436.4094,22.0156 Q436.4094,22.625 436.175,22.8906 Q435.9406,23.1563 435.5656,23.1563 Q435.2219,23.1563 435.0188,22.9531 Q434.8156,22.7656 434.7063,22.25 Q434.6594,21.8906 434.4719,21.7031 Q434.1438,21.3281 433.5344,21.1094 Q432.925,20.8906 432.3,20.8906 Q431.5344,20.8906 430.9016,21.2188 Q430.2688,21.5469 429.7766,22.2969 Q429.2844,23.0469 429.2844,24.0781 L429.2844,25.1719 Q429.2844,26.4063 430.175,27.2266 Q431.0656,28.0469 432.6594,28.0469 Q433.5969,28.0469 434.2531,27.7969 Q434.6438,27.6406 435.0656,27.2031 Q435.3313,26.9375 435.4797,26.8594 Q435.6281,26.7813 435.8313,26.7813 Q436.1594,26.7813 436.4172,27.0391 Q436.675,27.2969 436.675,27.6406 Q436.675,27.9844 436.3313,28.3906 Q435.8313,28.9688 435.0344,29.2969 Q433.9563,29.75 432.6594,29.75 Q431.1438,29.75 429.9406,29.125 Q428.9563,28.625 428.2688,27.5547 Q427.5813,26.4844 427.5813,25.2031 L427.5813,24.0469 Q427.5813,22.7188 428.1984,21.5703 Q428.8156,20.4219 429.9094,19.8047 Q431.0031,19.1875 432.2375,19.1875 Q432.9719,19.1875 433.6203,19.3516 Q434.2688,19.5156 434.8156,19.875 Z "/><text fill="#000000" font-family="sans-serif" font-size="12" lengthAdjust="spacingAndGlyphs" textLength="88" x="447.95" y="28.9102">SpecialFactoryB</text><line style="stroke: #A80036; stroke-width: 1.5;" x1="409.5" x2="546.5" y1="40" y2="40"/><line style="stroke: #A80036; stroke-width: 1.5;" x1="409.5" x2="546.5" y1="48" y2="48"/><ellipse cx="419.5" cy="60.418" fill="#84BE84" rx="3" ry="3" style="stroke: #038048; stroke-width: 1.0;"/><text fill="#000000" font-family="sans-serif" font-size="11" lengthAdjust="spacingAndGlyphs" textLength="113" x="428.5" y="63.4189">newProduct() : Product</text><path d="M99.7377,200.044 C122.194,220.652 152.35,248.3274 177.446,271.3588 " fill="none" style="stroke: #A80036; stroke-width: 1.0; stroke-dasharray: 7.0,7.0;"/><polygon fill="none" points="182.302,266.314,192.304,284.9944,172.836,276.6288,182.302,266.314" style="stroke: #A80036; stroke-width: 1.0;"/><path d="M225,200.044 C225,218.708 225,243.169 225,264.7263 " fill="none" style="stroke: #A80036; stroke-width: 1.0; stroke-dasharray: 7.0,7.0;"/><polygon fill="none" points="232,264.9944,225,284.9944,218,264.9944,232,264.9944" style="stroke: #A80036; stroke-width: 1.0;"/><path d="M324.398,70.01 C333.374,83.217 344.2,99.145 354.49,114.284 " fill="none" style="stroke: #A80036; stroke-width: 1.0;"/><polygon fill="none" points="360.3,110.379,365.753,130.855,348.721,118.249,360.3,110.379" style="stroke: #A80036; stroke-width: 1.0;"/><path d="M457.602,70.01 C448.626,83.217 437.8,99.145 427.51,114.284 " fill="none" style="stroke: #A80036; stroke-width: 1.0;"/><polygon fill="none" points="433.279,118.249,416.247,130.855,421.7,110.379,433.279,118.249" style="stroke: #A80036; stroke-width: 1.0;"/><path d="M348.251,207.341 C322.081,230.201 288.866,259.2133 263.513,281.3594 " fill="none" style="stroke: #A80036; stroke-width: 1.0;"/><polygon fill="#A80036" points="259.513,284.8527,268.923,281.9456,263.2791,281.5638,263.6608,275.9199,259.513,284.8527" style="stroke: #A80036; stroke-width: 1.0;"/><polygon fill="#000000" points="320,244.6758,314,247.6758,320,250.6758,320,244.6758" style="stroke: #000000; stroke-width: 1.0;"/><text fill="#000000" font-family="sans-serif" font-size="13" lengthAdjust="spacingAndGlyphs" textLength="85" x="326" y="251.4951">produces,uses</text></g></svg>