<?xml version="1.0" encoding="UTF-8" standalone="no"?><svg xmlns="http://www.w3.org/2000/svg" xmlns:xlink="http://www.w3.org/1999/xlink" contentScriptType="application/ecmascript" contentStyleType="text/css" height="150px" preserveAspectRatio="none" style="width:259px;height:150px;" version="1.1" viewBox="0 0 259 150"
    width="259px" zoomAndPan="magnify"><defs><filter height="300%" id="fn0tqrkcwtayj" width="300%" x="-1" y="-1"><feGaussianBlur result="blurOut" stdDeviation="2.0"/><feColorMatrix in="blurOut" result="blurOut2" type="matrix" values="0 0 0 0 0 0 0 0 0 0 0 0 0 0 0 0 0 0 .4 0"/><feOffset dx="4.0" dy="4.0" in="blurOut2" result="blurOut3"/><feBlend in="SourceGraphic" in2="blurOut3" mode="normal"/></filter></defs><g><!--class Book--><rect fill="#FEFECE" filter="url(#fn0tqrkcwtayj)" height="131.0156" id="Book" style="stroke: #A80036; stroke-width: 1.5;" width="99" x="6" y="8"/><ellipse cx="38.55" cy="24" fill="#ADD1B2" rx="11" ry="11" style="stroke: #A80036; stroke-width: 1.0;"/><path d="M41.3156,19.875 Q41.4719,19.6563 41.6594,19.5469 Q41.8469,19.4375 42.0656,19.4375 Q42.4406,19.4375 42.675,19.6953 Q42.9094,19.9531 42.9094,20.5625 L42.9094,22.0156 Q42.9094,22.625 42.675,22.8906 Q42.4406,23.1563 42.0656,23.1563 Q41.7219,23.1563 41.5188,22.9531 Q41.3156,22.7656 41.2063,22.25 Q41.1594,21.8906 40.9719,21.7031 Q40.6438,21.3281 40.0344,21.1094 Q39.425,20.8906 38.8,20.8906 Q38.0344,20.8906 37.4016,21.2188 Q36.7688,21.5469 36.2766,22.2969 Q35.7844,23.0469 35.7844,24.0781 L35.7844,25.1719 Q35.7844,26.4063 36.675,27.2266 Q37.5656,28.0469 39.1594,28.0469 Q40.0969,28.0469 40.7531,27.7969 Q41.1438,27.6406 41.5656,27.2031 Q41.8313,26.9375 41.9797,26.8594 Q42.1281,26.7813 42.3313,26.7813 Q42.6594,26.7813 42.9172,27.0391 Q43.175,27.2969 43.175,27.6406 Q43.175,27.9844 42.8313,28.3906 Q42.3313,28.9688 41.5344,29.2969 Q40.4563,29.75 39.1594,29.75 Q37.6438,29.75 36.4406,29.125 Q35.4563,28.625 34.7688,27.5547 Q34.0813,26.4844 34.0813,25.2031 L34.0813,24.0469 Q34.0813,22.7188 34.6984,21.5703 Q35.3156,20.4219 36.4094,19.8047 Q37.5031,19.1875 38.7375,19.1875 Q39.4719,19.1875 40.1203,19.3516 Q40.7688,19.5156 41.3156,19.875 Z "/><text fill="#000000" font-family="sans-serif" font-size="12" lengthAdjust="spacingAndGlyphs" textLength="28" x="56.45" y="28.9102">Book</text><line style="stroke: #A80036; stroke-width: 1.5;" x1="7" x2="104" y1="40" y2="40"/><text fill="#000000" font-family="sans-serif" font-size="11" lengthAdjust="spacingAndGlyphs" textLength="52" x="12" y="55.4189">title : string</text><text fill="#000000" font-family="sans-serif" font-size="11" lengthAdjust="spacingAndGlyphs" textLength="67" x="12" y="69.2549">author : string</text><text fill="#000000" font-family="sans-serif" font-size="11" lengthAdjust="spacingAndGlyphs" textLength="87" x="12" y="83.0908">publishDate : Date</text><text fill="#000000" font-family="sans-serif" font-size="11" lengthAdjust="spacingAndGlyphs" textLength="69" x="12" y="96.9268">pages : [Page]</text><line style="stroke: #A80036; stroke-width: 1.5;" x1="7" x2="104" y1="103.3438" y2="103.3438"/><text fill="#000000" font-family="sans-serif" font-size="11" lengthAdjust="spacingAndGlyphs" textLength="67" x="12" y="118.7627">ISBN() : string</text><text fill="#000000" font-family="sans-serif" font-size="11" lengthAdjust="spacingAndGlyphs" textLength="78" x="12" y="132.5986">numPages() : int</text><!--class Employee--><rect fill="#FEFECE" filter="url(#fn0tqrkcwtayj)" height="103.3438" id="Employee" style="stroke: #A80036; stroke-width: 1.5;" width="108" x="140.5" y="22"/><ellipse cx="164.95" cy="38" fill="#ADD1B2" rx="11" ry="11" style="stroke: #A80036; stroke-width: 1.0;"/><path d="M167.7156,33.875 Q167.8719,33.6563 168.0594,33.5469 Q168.2469,33.4375 168.4656,33.4375 Q168.8406,33.4375 169.075,33.6953 Q169.3094,33.9531 169.3094,34.5625 L169.3094,36.0156 Q169.3094,36.625 169.075,36.8906 Q168.8406,37.1563 168.4656,37.1563 Q168.1219,37.1563 167.9188,36.9531 Q167.7156,36.7656 167.6063,36.25 Q167.5594,35.8906 167.3719,35.7031 Q167.0438,35.3281 166.4344,35.1094 Q165.825,34.8906 165.2,34.8906 Q164.4344,34.8906 163.8016,35.2188 Q163.1688,35.5469 162.6766,36.2969 Q162.1844,37.0469 162.1844,38.0781 L162.1844,39.1719 Q162.1844,40.4063 163.075,41.2266 Q163.9656,42.0469 165.5594,42.0469 Q166.4969,42.0469 167.1531,41.7969 Q167.5438,41.6406 167.9656,41.2031 Q168.2313,40.9375 168.3797,40.8594 Q168.5281,40.7813 168.7313,40.7813 Q169.0594,40.7813 169.3172,41.0391 Q169.575,41.2969 169.575,41.6406 Q169.575,41.9844 169.2313,42.3906 Q168.7313,42.9688 167.9344,43.2969 Q166.8563,43.75 165.5594,43.75 Q164.0438,43.75 162.8406,43.125 Q161.8563,42.625 161.1688,41.5547 Q160.4813,40.4844 160.4813,39.2031 L160.4813,38.0469 Q160.4813,36.7188 161.0984,35.5703 Q161.7156,34.4219 162.8094,33.8047 Q163.9031,33.1875 165.1375,33.1875 Q165.8719,33.1875 166.5203,33.3516 Q167.1688,33.5156 167.7156,33.875 Z "/><text fill="#000000" font-family="sans-serif" font-size="12" lengthAdjust="spacingAndGlyphs" textLength="55" x="181.05" y="42.9102">Employee</text><line style="stroke: #A80036; stroke-width: 1.5;" x1="141.5" x2="247.5" y1="54" y2="54"/><text fill="#000000" font-family="sans-serif" font-size="11" lengthAdjust="spacingAndGlyphs" textLength="62" x="146.5" y="69.4189">name : string</text><text fill="#000000" font-family="sans-serif" font-size="11" lengthAdjust="spacingAndGlyphs" textLength="69" x="146.5" y="83.2549">jobTitle : string</text><text fill="#000000" font-family="sans-serif" font-size="11" lengthAdjust="spacingAndGlyphs" textLength="60" x="146.5" y="97.0908">salary : float</text><line style="stroke: #A80036; stroke-width: 1.5;" x1="141.5" x2="247.5" y1="103.5078" y2="103.5078"/><text fill="#000000" font-family="sans-serif" font-size="11" lengthAdjust="spacingAndGlyphs" textLength="96" x="146.5" y="118.9268">reassignJob() : void</text><!--
@startuml
class Book{
  title : string
  author : string
  publishDate : Date
  pages : [Page]
  ISBN() : string
  numPages() : int
}

class Employee{
  name : string
  jobTitle : string
  salary : float
  reassignJob() : void
}
@enduml

PlantUML version 1.2018.01(Mon Jan 29 02:08:22 CST 2018)
(GPL source distribution)
Java Runtime: Java(TM) SE Runtime Environment
JVM: Java HotSpot(TM) 64-Bit Server VM
Java Version: 1.8.0_221-b11
Operating System: Windows 10
OS Version: 10.0
Default Encoding: Cp1252
Language: en
Country: PH
--></g></svg>