<?xml version="1.0" encoding="UTF-8" standalone="no"?><svg xmlns="http://www.w3.org/2000/svg" xmlns:xlink="http://www.w3.org/1999/xlink" contentScriptType="application/ecmascript" contentStyleType="text/css" height="277px" preserveAspectRatio="none" style="width:691px;height:277px;" version="1.1" viewBox="0 0 691 277"
    width="691px" zoomAndPan="magnify"><defs><filter height="300%" id="f528ot1yekk4r" width="300%" x="-1" y="-1"><feGaussianBlur result="blurOut" stdDeviation="2.0"/><feColorMatrix in="blurOut" result="blurOut2" type="matrix" values="0 0 0 0 0 0 0 0 0 0 0 0 0 0 0 0 0 0 .4 0"/><feOffset dx="4.0" dy="4.0" in="blurOut2" result="blurOut3"/><feBlend in="SourceGraphic" in2="blurOut3" mode="normal"/></filter></defs><g><!--class Observer--><rect fill="#FEFECE" filter="url(#f528ot1yekk4r)" height="60.9551" id="Observer" style="stroke: #A80036; stroke-width: 1.5;" width="172" x="252.5" y="199"/><ellipse cx="307.75" cy="215" fill="#B4A7E5" rx="11" ry="11" style="stroke: #A80036; stroke-width: 1.0;"/><path d="M304.1777,211.2651 L304.1777,209.1069 L311.5571,209.1069 L311.5571,211.2651 L309.0918,211.2651 L309.0918,219.3418 L311.5571,219.3418 L311.5571,221.5 L304.1777,221.5 L304.1777,219.3418 L306.6431,219.3418 L306.6431,211.2651 Z "/><text fill="#000000" font-family="sans-serif" font-size="12" font-style="italic" lengthAdjust="spacingAndGlyphs" textLength="53" x="328.25" y="219.5352">Observer</text><line style="stroke: #A80036; stroke-width: 1.5;" x1="253.5" x2="423.5" y1="231" y2="231"/><line style="stroke: #A80036; stroke-width: 1.5;" x1="253.5" x2="423.5" y1="239" y2="239"/><ellipse cx="263.5" cy="250.9775" fill="#84BE84" rx="3" ry="3" style="stroke: #038048; stroke-width: 1.0;"/><text fill="#000000" font-family="sans-serif" font-size="11" font-style="italic" lengthAdjust="spacingAndGlyphs" textLength="146" x="272.5" y="253.6348">update(updatedSubject:str)</text><!--class Publisher--><rect fill="#FEFECE" filter="url(#f528ot1yekk4r)" height="125.7305" id="Publisher" style="stroke: #A80036; stroke-width: 1.5;" width="217" x="6" y="8"/><ellipse cx="83.75" cy="24" fill="#ADD1B2" rx="11" ry="11" style="stroke: #A80036; stroke-width: 1.0;"/><path d="M86.2231,30.1431 Q85.6421,30.4419 85.0029,30.5913 Q84.3638,30.7407 83.6582,30.7407 Q81.1514,30.7407 79.8315,29.0889 Q78.5117,27.437 78.5117,24.3159 Q78.5117,21.1865 79.8315,19.5347 Q81.1514,17.8828 83.6582,17.8828 Q84.3638,17.8828 85.0112,18.0322 Q85.6587,18.1816 86.2231,18.4805 L86.2231,21.2031 Q85.5923,20.6221 84.9988,20.3523 Q84.4053,20.0825 83.7744,20.0825 Q82.4297,20.0825 81.7449,21.1492 Q81.0601,22.2158 81.0601,24.3159 Q81.0601,26.4077 81.7449,27.4744 Q82.4297,28.541 83.7744,28.541 Q84.4053,28.541 84.9988,28.2712 Q85.5923,28.0015 86.2231,27.4204 Z "/><text fill="#000000" font-family="sans-serif" font-size="12" lengthAdjust="spacingAndGlyphs" textLength="53" x="104.25" y="28.5352">Publisher</text><line style="stroke: #A80036; stroke-width: 1.5;" x1="7" x2="222" y1="40" y2="40"/><rect fill="none" height="6" style="stroke: #C82930; stroke-width: 1.0;" width="6" x="14" y="48.9775"/><text fill="#000000" font-family="sans-serif" font-size="11" lengthAdjust="spacingAndGlyphs" textLength="63" x="26" y="54.6348">subject : str</text><rect fill="none" height="6" style="stroke: #C82930; stroke-width: 1.0;" width="6" x="14" y="61.9326"/><text fill="#000000" font-family="sans-serif" font-size="11" lengthAdjust="spacingAndGlyphs" textLength="131" x="26" y="67.5898">subscribers : [Observer]</text><line style="stroke: #A80036; stroke-width: 1.5;" x1="7" x2="222" y1="73.9102" y2="73.9102"/><ellipse cx="17" cy="85.8877" fill="#84BE84" rx="3" ry="3" style="stroke: #038048; stroke-width: 1.0;"/><text fill="#000000" font-family="sans-serif" font-size="11" lengthAdjust="spacingAndGlyphs" textLength="185" x="26" y="88.5449">manipulateSubject(someString:str)</text><ellipse cx="17" cy="98.8428" fill="#84BE84" rx="3" ry="3" style="stroke: #038048; stroke-width: 1.0;"/><text fill="#000000" font-family="sans-serif" font-size="11" lengthAdjust="spacingAndGlyphs" textLength="185" x="26" y="101.5">subscribe(newObserver:Observer)</text><ellipse cx="17" cy="111.7979" fill="#84BE84" rx="3" ry="3" style="stroke: #038048; stroke-width: 1.0;"/><text fill="#000000" font-family="sans-serif" font-size="11" lengthAdjust="spacingAndGlyphs" textLength="191" x="26" y="114.4551">unsubscribe(exObserver:Observer)</text><ellipse cx="17" cy="124.7529" fill="#84BE84" rx="3" ry="3" style="stroke: #038048; stroke-width: 1.0;"/><text fill="#000000" font-family="sans-serif" font-size="11" lengthAdjust="spacingAndGlyphs" textLength="95" x="26" y="127.4102">notifyObservers()</text><!--class RealObserver1--><rect fill="#FEFECE" filter="url(#f528ot1yekk4r)" height="73.9102" id="RealObserver1" style="stroke: #A80036; stroke-width: 1.5;" width="172" x="477.5" y="34"/><ellipse cx="516.8" cy="50" fill="#ADD1B2" rx="11" ry="11" style="stroke: #A80036; stroke-width: 1.0;"/><path d="M519.2731,56.1431 Q518.6921,56.4419 518.0529,56.5913 Q517.4138,56.7407 516.7082,56.7407 Q514.2014,56.7407 512.8815,55.0889 Q511.5617,53.437 511.5617,50.3159 Q511.5617,47.1865 512.8815,45.5347 Q514.2014,43.8828 516.7082,43.8828 Q517.4138,43.8828 518.0612,44.0322 Q518.7087,44.1816 519.2731,44.4805 L519.2731,47.2031 Q518.6423,46.6221 518.0488,46.3523 Q517.4553,46.0825 516.8244,46.0825 Q515.4797,46.0825 514.7949,47.1492 Q514.1101,48.2158 514.1101,50.3159 Q514.1101,52.4077 514.7949,53.4744 Q515.4797,54.541 516.8244,54.541 Q517.4553,54.541 518.0488,54.2712 Q518.6423,54.0015 519.2731,53.4204 Z "/><text fill="#000000" font-family="sans-serif" font-size="12" lengthAdjust="spacingAndGlyphs" textLength="86" x="536.2" y="54.5352">RealObserver1</text><line style="stroke: #A80036; stroke-width: 1.5;" x1="478.5" x2="648.5" y1="66" y2="66"/><rect fill="none" height="6" style="stroke: #C82930; stroke-width: 1.0;" width="6" x="485.5" y="74.9775"/><text fill="#000000" font-family="sans-serif" font-size="11" lengthAdjust="spacingAndGlyphs" textLength="63" x="497.5" y="80.6348">subject : str</text><line style="stroke: #A80036; stroke-width: 1.5;" x1="478.5" x2="648.5" y1="86.9551" y2="86.9551"/><ellipse cx="488.5" cy="98.9326" fill="#84BE84" rx="3" ry="3" style="stroke: #038048; stroke-width: 1.0;"/><text fill="#000000" font-family="sans-serif" font-size="11" lengthAdjust="spacingAndGlyphs" textLength="146" x="497.5" y="101.5898">update(updatedSubject:str)</text><path d="M459.5,194 L459.5,265.2422 A0,0 0 0 0 459.5,265.2422 L679.5,265.2422 A0,0 0 0 0 679.5,265.2422 L679.5,204 L669.5,194 L572.1536,194 L564.9067,108.1612 L564.1536,194 L459.5,194 A0,0 0 0 0 459.5,194 " fill="#FBFB77" filter="url(#f528ot1yekk4r)" style="stroke: #A80036; stroke-width: 1.0;"/><path d="M669.5,194 L669.5,204 L679.5,204 L669.5,194 " fill="#FBFB77" style="stroke: #A80036; stroke-width: 1.0;"/><text fill="#000000" font-family="sans-serif" font-size="13" lengthAdjust="spacingAndGlyphs" textLength="199" x="465.5" y="211.5684">an observer may keep a copy of</text><text fill="#000000" font-family="sans-serif" font-size="13" lengthAdjust="spacingAndGlyphs" textLength="185" x="465.5" y="226.8789">the subjsct that gets updated</text><text fill="#000000" font-family="sans-serif" font-size="13" lengthAdjust="spacingAndGlyphs" textLength="161" x="465.5" y="242.1895">everytime it is notified by</text><text fill="#000000" font-family="sans-serif" font-size="13" lengthAdjust="spacingAndGlyphs" textLength="83" x="465.5" y="257.5">the publisher</text><!--class RealObserver2--><rect fill="#FEFECE" filter="url(#f528ot1yekk4r)" height="73.9102" id="RealObserver2" style="stroke: #A80036; stroke-width: 1.5;" width="172" x="258.5" y="34"/><ellipse cx="297.8" cy="50" fill="#ADD1B2" rx="11" ry="11" style="stroke: #A80036; stroke-width: 1.0;"/><path d="M300.2731,56.1431 Q299.6921,56.4419 299.0529,56.5913 Q298.4138,56.7407 297.7082,56.7407 Q295.2014,56.7407 293.8815,55.0889 Q292.5617,53.437 292.5617,50.3159 Q292.5617,47.1865 293.8815,45.5347 Q295.2014,43.8828 297.7082,43.8828 Q298.4138,43.8828 299.0612,44.0322 Q299.7087,44.1816 300.2731,44.4805 L300.2731,47.2031 Q299.6423,46.6221 299.0488,46.3523 Q298.4553,46.0825 297.8244,46.0825 Q296.4797,46.0825 295.7949,47.1492 Q295.1101,48.2158 295.1101,50.3159 Q295.1101,52.4077 295.7949,53.4744 Q296.4797,54.541 297.8244,54.541 Q298.4553,54.541 299.0488,54.2712 Q299.6423,54.0015 300.2731,53.4204 Z "/><text fill="#000000" font-family="sans-serif" font-size="12" lengthAdjust="spacingAndGlyphs" textLength="86" x="317.2" y="54.5352">RealObserver2</text><line style="stroke: #A80036; stroke-width: 1.5;" x1="259.5" x2="429.5" y1="66" y2="66"/><rect fill="none" height="6" style="stroke: #C82930; stroke-width: 1.0;" width="6" x="266.5" y="74.9775"/><text fill="#000000" font-family="sans-serif" font-size="11" lengthAdjust="spacingAndGlyphs" textLength="63" x="278.5" y="80.6348">subject : str</text><line style="stroke: #A80036; stroke-width: 1.5;" x1="259.5" x2="429.5" y1="86.9551" y2="86.9551"/><ellipse cx="269.5" cy="98.9326" fill="#84BE84" rx="3" ry="3" style="stroke: #038048; stroke-width: 1.0;"/><text fill="#000000" font-family="sans-serif" font-size="11" lengthAdjust="spacingAndGlyphs" textLength="146" x="278.5" y="101.5898">update(updatedSubject:str)</text><!--link RealObserver1 to Observer--><path d="M510.7475,108.1612 C477.0372,131.9082 433.2442,162.758 398.2519,187.4081 " fill="none" id="RealObserver1-Observer" style="stroke: #A80036; stroke-width: 1.0; stroke-dasharray: 7.0,7.0;"/><polygon fill="none" points="402.2453,193.1575,381.8635,198.9528,394.1827,181.7121,402.2453,193.1575" style="stroke: #A80036; stroke-width: 1.0;"/><!--link RealObserver2 to Observer--><path d="M343.0933,108.1612 C342.2965,129.2097 341.2885,155.8384 340.4198,178.784 " fill="none" id="RealObserver2-Observer" style="stroke: #A80036; stroke-width: 1.0; stroke-dasharray: 7.0,7.0;"/><polygon fill="none" points="347.408,179.2319,339.6564,198.9528,333.418,178.7023,347.408,179.2319" style="stroke: #A80036; stroke-width: 1.0;"/><!--link Publisher to Observer--><path d="M214.4531,141.7257 C238.5492,158.7759 263.3978,176.3585 284.4678,191.2674 " fill="none" id="Publisher-Observer" style="stroke: #A80036; stroke-width: 1.0;"/><polygon fill="#A80036" points="295.1176,198.8031,290.0813,190.3393,291.0361,195.915,285.4604,196.8698,295.1176,198.8031" style="stroke: #A80036; stroke-width: 1.0;"/><line style="stroke: #A80036; stroke-width: 1.0;" x1="291.0361" x2="284.5055" y1="195.915" y2="191.2941"/><polygon fill="#FFFFFF" points="203.6744,134.0988,206.2618,140.8297,213.4701,141.0301,210.8827,134.2992,203.6744,134.0988" style="stroke: #A80036; stroke-width: 1.0;"/><!--
@startuml

  interface Observer{
    + {abstract} update(updatedSubject:str)
  }

  class Publisher{
    - subject : str
    - subscribers : [Observer]
    + manipulateSubject(someString:str)
    + subscribe(newObserver:Observer)
    + unsubscribe(exObserver:Observer)
    + notifyObservers()
  }

  class RealObserver1{
    - subject : str
    + update(updatedSubject:str)
  }

  note bottom of RealObserver1
    an observer may keep a copy of
    the subjsct that gets updated
    everytime it is notified by
    the publisher
  endnote

  class RealObserver2{
    - subject : str
    + update(updatedSubject:str)
  }

  RealObserver1 ..|> Observer
  RealObserver2 ..|> Observer
  Publisher o- -> Observer

@enduml

PlantUML version 1.2018.01(Mon Jan 29 02:08:22 PHT 2018)
(GPL source distribution)
Java Runtime: Java(TM) SE Runtime Environment
JVM: Java HotSpot(TM) 64-Bit Server VM
Java Version: 1.8.0_92-b14
Operating System: Mac OS X
OS Version: 10.14.6
Default Encoding: UTF-8
Language: en
Country: US
--></g></svg>