<?xml version="1.0" encoding="UTF-8" standalone="no"?><svg xmlns="http://www.w3.org/2000/svg" xmlns:xlink="http://www.w3.org/1999/xlink" contentScriptType="application/ecmascript" contentStyleType="text/css" height="388px" preserveAspectRatio="none" style="width:874px;height:388px;" version="1.1" viewBox="0 0 874 388"
    width="874px" zoomAndPan="magnify"><defs><filter height="300%" id="fcxdreb7ox3b5" width="300%" x="-1" y="-1"><feGaussianBlur result="blurOut" stdDeviation="2.0"/><feColorMatrix in="blurOut" result="blurOut2" type="matrix" values="0 0 0 0 0 0 0 0 0 0 0 0 0 0 0 0 0 0 .4 0"/><feOffset dx="4.0" dy="4.0" in="blurOut2" result="blurOut3"/><feBlend in="SourceGraphic" in2="blurOut3" mode="normal"/></filter></defs><g><!--class Subscriber--><rect fill="#FEFECE" filter="url(#fcxdreb7ox3b5)" height="60.9551" id="Subscriber" style="stroke: #A80036; stroke-width: 1.5;" width="306" x="372" y="201.5"/><ellipse cx="490.25" cy="217.5" fill="#B4A7E5" rx="11" ry="11" style="stroke: #A80036; stroke-width: 1.0;"/><path d="M486.6777,213.7651 L486.6777,211.6069 L494.0571,211.6069 L494.0571,213.7651 L491.5918,213.7651 L491.5918,221.8418 L494.0571,221.8418 L494.0571,224 L486.6777,224 L486.6777,221.8418 L489.1431,221.8418 L489.1431,213.7651 Z "/><text fill="#000000" font-family="sans-serif" font-size="12" font-style="italic" lengthAdjust="spacingAndGlyphs" textLength="61" x="510.75" y="222.0352">Subscriber</text><line style="stroke: #A80036; stroke-width: 1.5;" x1="373" x2="677" y1="233.5" y2="233.5"/><line style="stroke: #A80036; stroke-width: 1.5;" x1="373" x2="677" y1="241.5" y2="241.5"/><ellipse cx="383" cy="253.4775" fill="#84BE84" rx="3" ry="3" style="stroke: #038048; stroke-width: 1.0;"/><text fill="#000000" font-family="sans-serif" font-size="11" font-style="italic" lengthAdjust="spacingAndGlyphs" textLength="280" x="392" y="256.1348">update(newHeadline:Headline, newWeather: Weather)</text><!--class PushNotifier--><rect fill="#FEFECE" filter="url(#fcxdreb7ox3b5)" height="151.6406" id="PushNotifier" style="stroke: #A80036; stroke-width: 1.5;" width="233" x="42.5" y="8"/><ellipse cx="120.25" cy="24" fill="#ADD1B2" rx="11" ry="11" style="stroke: #A80036; stroke-width: 1.0;"/><path d="M122.7231,30.1431 Q122.1421,30.4419 121.5029,30.5913 Q120.8638,30.7407 120.1582,30.7407 Q117.6514,30.7407 116.3315,29.0889 Q115.0117,27.437 115.0117,24.3159 Q115.0117,21.1865 116.3315,19.5347 Q117.6514,17.8828 120.1582,17.8828 Q120.8638,17.8828 121.5112,18.0322 Q122.1587,18.1816 122.7231,18.4805 L122.7231,21.2031 Q122.0923,20.6221 121.4988,20.3523 Q120.9053,20.0825 120.2744,20.0825 Q118.9297,20.0825 118.2449,21.1492 Q117.5601,22.2158 117.5601,24.3159 Q117.5601,26.4077 118.2449,27.4744 Q118.9297,28.541 120.2744,28.541 Q120.9053,28.541 121.4988,28.2712 Q122.0923,28.0015 122.7231,27.4204 Z "/><text fill="#000000" font-family="sans-serif" font-size="12" lengthAdjust="spacingAndGlyphs" textLength="69" x="140.75" y="28.5352">PushNotifier</text><line style="stroke: #A80036; stroke-width: 1.5;" x1="43.5" x2="274.5" y1="40" y2="40"/><rect fill="none" height="6" style="stroke: #C82930; stroke-width: 1.0;" width="6" x="50.5" y="48.9775"/><text fill="#000000" font-family="sans-serif" font-size="11" lengthAdjust="spacingAndGlyphs" textLength="135" x="62.5" y="54.6348">currentWeather : Weather</text><rect fill="none" height="6" style="stroke: #C82930; stroke-width: 1.0;" width="6" x="50.5" y="61.9326"/><text fill="#000000" font-family="sans-serif" font-size="11" lengthAdjust="spacingAndGlyphs" textLength="141" x="62.5" y="67.5898">currentHeadline : Headline</text><rect fill="none" height="6" style="stroke: #C82930; stroke-width: 1.0;" width="6" x="50.5" y="74.8877"/><text fill="#000000" font-family="sans-serif" font-size="11" lengthAdjust="spacingAndGlyphs" textLength="139" x="62.5" y="80.5449">subscribers : [Subscriber]</text><line style="stroke: #A80036; stroke-width: 1.5;" x1="43.5" x2="274.5" y1="86.8652" y2="86.8652"/><ellipse cx="53.5" cy="98.8428" fill="#84BE84" rx="3" ry="3" style="stroke: #038048; stroke-width: 1.0;"/><text fill="#000000" font-family="sans-serif" font-size="11" lengthAdjust="spacingAndGlyphs" textLength="93" x="62.5" y="101.5">changeHeadline()</text><ellipse cx="53.5" cy="111.7979" fill="#84BE84" rx="3" ry="3" style="stroke: #038048; stroke-width: 1.0;"/><text fill="#000000" font-family="sans-serif" font-size="11" lengthAdjust="spacingAndGlyphs" textLength="90" x="62.5" y="114.4551">changeWeather()</text><ellipse cx="53.5" cy="124.7529" fill="#84BE84" rx="3" ry="3" style="stroke: #038048; stroke-width: 1.0;"/><text fill="#000000" font-family="sans-serif" font-size="11" lengthAdjust="spacingAndGlyphs" textLength="201" x="62.5" y="127.4102">subscribe(newSubscriber:Subscriber)</text><ellipse cx="53.5" cy="137.708" fill="#84BE84" rx="3" ry="3" style="stroke: #038048; stroke-width: 1.0;"/><text fill="#000000" font-family="sans-serif" font-size="11" lengthAdjust="spacingAndGlyphs" textLength="207" x="62.5" y="140.3652">unsubscribe(exSubscriber:Subscriber)</text><ellipse cx="53.5" cy="150.6631" fill="#84BE84" rx="3" ry="3" style="stroke: #038048; stroke-width: 1.0;"/><text fill="#000000" font-family="sans-serif" font-size="11" lengthAdjust="spacingAndGlyphs" textLength="103" x="62.5" y="153.3203">notifySubscribers()</text><!--class Weather--><rect fill="#FEFECE" filter="url(#fcxdreb7ox3b5)" height="86.8652" id="Weather" style="stroke: #A80036; stroke-width: 1.5;" width="125" x="738" y="172.5"/><ellipse cx="773.7" cy="188.5" fill="#ADD1B2" rx="11" ry="11" style="stroke: #A80036; stroke-width: 1.0;"/><path d="M776.1731,194.6431 Q775.5921,194.9419 774.9529,195.0913 Q774.3138,195.2407 773.6082,195.2407 Q771.1014,195.2407 769.7815,193.5889 Q768.4617,191.937 768.4617,188.8159 Q768.4617,185.6865 769.7815,184.0347 Q771.1014,182.3828 773.6082,182.3828 Q774.3138,182.3828 774.9612,182.5322 Q775.6087,182.6816 776.1731,182.9805 L776.1731,185.7031 Q775.5423,185.1221 774.9488,184.8523 Q774.3553,184.5825 773.7244,184.5825 Q772.3797,184.5825 771.6949,185.6492 Q771.0101,186.7158 771.0101,188.8159 Q771.0101,190.9077 771.6949,191.9744 Q772.3797,193.041 773.7244,193.041 Q774.3553,193.041 774.9488,192.7712 Q775.5423,192.5015 776.1731,191.9204 Z "/><text fill="#000000" font-family="sans-serif" font-size="12" lengthAdjust="spacingAndGlyphs" textLength="47" x="792.3" y="193.0352">Weather</text><line style="stroke: #A80036; stroke-width: 1.5;" x1="739" x2="862" y1="204.5" y2="204.5"/><rect fill="none" height="6" style="stroke: #C82930; stroke-width: 1.0;" width="6" x="746" y="213.4775"/><text fill="#000000" font-family="sans-serif" font-size="11" lengthAdjust="spacingAndGlyphs" textLength="99" x="758" y="219.1348">temperature : float</text><rect fill="none" height="6" style="stroke: #C82930; stroke-width: 1.0;" width="6" x="746" y="226.4326"/><text fill="#000000" font-family="sans-serif" font-size="11" lengthAdjust="spacingAndGlyphs" textLength="80" x="758" y="232.0898">humidity : float</text><rect fill="none" height="6" style="stroke: #C82930; stroke-width: 1.0;" width="6" x="746" y="239.3877"/><text fill="#000000" font-family="sans-serif" font-size="11" lengthAdjust="spacingAndGlyphs" textLength="74" x="758" y="245.0449">outlook : float</text><line style="stroke: #A80036; stroke-width: 1.5;" x1="739" x2="862" y1="251.3652" y2="251.3652"/><!--class Headline--><rect fill="#FEFECE" filter="url(#fcxdreb7ox3b5)" height="86.8652" id="Headline" style="stroke: #A80036; stroke-width: 1.5;" width="95" x="753" y="42.5"/><ellipse cx="773.4" cy="58.5" fill="#ADD1B2" rx="11" ry="11" style="stroke: #A80036; stroke-width: 1.0;"/><path d="M775.8731,64.6431 Q775.2921,64.9419 774.6529,65.0913 Q774.0138,65.2407 773.3082,65.2407 Q770.8014,65.2407 769.4815,63.5889 Q768.1617,61.937 768.1617,58.8159 Q768.1617,55.6865 769.4815,54.0347 Q770.8014,52.3828 773.3082,52.3828 Q774.0138,52.3828 774.6612,52.5322 Q775.3087,52.6816 775.8731,52.9805 L775.8731,55.7031 Q775.2423,55.1221 774.6488,54.8523 Q774.0553,54.5825 773.4244,54.5825 Q772.0797,54.5825 771.3949,55.6492 Q770.7101,56.7158 770.7101,58.8159 Q770.7101,60.9077 771.3949,61.9744 Q772.0797,63.041 773.4244,63.041 Q774.0553,63.041 774.6488,62.7712 Q775.2423,62.5015 775.8731,61.9204 Z "/><text fill="#000000" font-family="sans-serif" font-size="12" lengthAdjust="spacingAndGlyphs" textLength="51" x="788.6" y="63.0352">Headline</text><line style="stroke: #A80036; stroke-width: 1.5;" x1="754" x2="847" y1="74.5" y2="74.5"/><rect fill="none" height="6" style="stroke: #C82930; stroke-width: 1.0;" width="6" x="761" y="83.4775"/><text fill="#000000" font-family="sans-serif" font-size="11" lengthAdjust="spacingAndGlyphs" textLength="69" x="773" y="89.1348">headline : str</text><rect fill="none" height="6" style="stroke: #C82930; stroke-width: 1.0;" width="6" x="761" y="96.4326"/><text fill="#000000" font-family="sans-serif" font-size="11" lengthAdjust="spacingAndGlyphs" textLength="59" x="773" y="102.0898">details : str</text><rect fill="none" height="6" style="stroke: #C82930; stroke-width: 1.0;" width="6" x="761" y="109.3877"/><text fill="#000000" font-family="sans-serif" font-size="11" lengthAdjust="spacingAndGlyphs" textLength="61" x="773" y="115.0449">source : str</text><line style="stroke: #A80036; stroke-width: 1.5;" x1="754" x2="847" y1="121.3652" y2="121.3652"/><!--class EmailSubscriber--><rect fill="#FEFECE" filter="url(#fcxdreb7ox3b5)" height="73.9102" id="EmailSubscriber" style="stroke: #A80036; stroke-width: 1.5;" width="306" x="6" y="195"/><ellipse cx="108.75" cy="211" fill="#ADD1B2" rx="11" ry="11" style="stroke: #A80036; stroke-width: 1.0;"/><path d="M111.2231,217.1431 Q110.6421,217.4419 110.0029,217.5913 Q109.3638,217.7407 108.6582,217.7407 Q106.1514,217.7407 104.8315,216.0889 Q103.5117,214.437 103.5117,211.3159 Q103.5117,208.1865 104.8315,206.5347 Q106.1514,204.8828 108.6582,204.8828 Q109.3638,204.8828 110.0112,205.0322 Q110.6587,205.1816 111.2231,205.4805 L111.2231,208.2031 Q110.5923,207.6221 109.9988,207.3523 Q109.4053,207.0825 108.7744,207.0825 Q107.4297,207.0825 106.7449,208.1492 Q106.0601,209.2158 106.0601,211.3159 Q106.0601,213.4077 106.7449,214.4744 Q107.4297,215.541 108.7744,215.541 Q109.4053,215.541 109.9988,215.2712 Q110.5923,215.0015 111.2231,214.4204 Z "/><text fill="#000000" font-family="sans-serif" font-size="12" lengthAdjust="spacingAndGlyphs" textLength="92" x="129.25" y="215.5352">EmailSubscriber</text><line style="stroke: #A80036; stroke-width: 1.5;" x1="7" x2="311" y1="227" y2="227"/><rect fill="none" height="6" style="stroke: #C82930; stroke-width: 1.0;" width="6" x="14" y="235.9775"/><text fill="#000000" font-family="sans-serif" font-size="11" lengthAdjust="spacingAndGlyphs" textLength="97" x="26" y="241.6348">emailAddress : str</text><line style="stroke: #A80036; stroke-width: 1.5;" x1="7" x2="311" y1="247.9551" y2="247.9551"/><ellipse cx="17" cy="259.9326" fill="#84BE84" rx="3" ry="3" style="stroke: #038048; stroke-width: 1.0;"/><text fill="#000000" font-family="sans-serif" font-size="11" lengthAdjust="spacingAndGlyphs" textLength="280" x="26" y="262.5898">update(newHeadline:Headline, newWeather: Weather)</text><!--class FileLogger--><rect fill="#FEFECE" filter="url(#fcxdreb7ox3b5)" height="73.9102" id="FileLogger" style="stroke: #A80036; stroke-width: 1.5;" width="306" x="6" y="304"/><ellipse cx="125.75" cy="320" fill="#ADD1B2" rx="11" ry="11" style="stroke: #A80036; stroke-width: 1.0;"/><path d="M128.2231,326.1431 Q127.6421,326.4419 127.0029,326.5913 Q126.3638,326.7407 125.6582,326.7407 Q123.1514,326.7407 121.8315,325.0889 Q120.5117,323.437 120.5117,320.3159 Q120.5117,317.1865 121.8315,315.5347 Q123.1514,313.8828 125.6582,313.8828 Q126.3638,313.8828 127.0112,314.0322 Q127.6587,314.1816 128.2231,314.4805 L128.2231,317.2031 Q127.5923,316.6221 126.9988,316.3523 Q126.4053,316.0825 125.7744,316.0825 Q124.4297,316.0825 123.7449,317.1492 Q123.0601,318.2158 123.0601,320.3159 Q123.0601,322.4077 123.7449,323.4744 Q124.4297,324.541 125.7744,324.541 Q126.4053,324.541 126.9988,324.2712 Q127.5923,324.0015 128.2231,323.4204 Z "/><text fill="#000000" font-family="sans-serif" font-size="12" lengthAdjust="spacingAndGlyphs" textLength="58" x="146.25" y="324.5352">FileLogger</text><line style="stroke: #A80036; stroke-width: 1.5;" x1="7" x2="311" y1="336" y2="336"/><rect fill="none" height="6" style="stroke: #C82930; stroke-width: 1.0;" width="6" x="14" y="344.9775"/><text fill="#000000" font-family="sans-serif" font-size="11" lengthAdjust="spacingAndGlyphs" textLength="69" x="26" y="350.6348">filename : str</text><line style="stroke: #A80036; stroke-width: 1.5;" x1="7" x2="311" y1="356.9551" y2="356.9551"/><ellipse cx="17" cy="368.9326" fill="#84BE84" rx="3" ry="3" style="stroke: #038048; stroke-width: 1.0;"/><text fill="#000000" font-family="sans-serif" font-size="11" lengthAdjust="spacingAndGlyphs" textLength="280" x="26" y="371.5898">update(newHeadline:Headline, newWeather: Weather)</text><!--link EmailSubscriber to Subscriber--><path d="M312.0963,232 C325.2344,232 338.5839,232 351.8639,232 " fill="none" id="EmailSubscriber-Subscriber" style="stroke: #A80036; stroke-width: 1.0; stroke-dasharray: 7.0,7.0;"/><polygon fill="none" points="351.9286,224.9999,371.9285,232,351.9285,238.9999,351.9286,224.9999" style="stroke: #A80036; stroke-width: 1.0;"/><!--link FileLogger to Subscriber--><path d="M283.4216,303.9455 C322.0694,292.4356 364.6139,279.7653 403.0888,268.3069 " fill="none" id="FileLogger-Subscriber" style="stroke: #A80036; stroke-width: 1.0; stroke-dasharray: 7.0,7.0;"/><polygon fill="none" points="401.3326,261.5261,422.4987,262.5264,405.3286,274.9437,401.3326,261.5261" style="stroke: #A80036; stroke-width: 1.0;"/><!--link PushNotifier to Subscriber--><path d="M287.7735,139.3251 C315.4778,150.9714 344.6513,163.0428 372,174 C390.8,181.5322 410.9953,189.3675 430.3505,196.7529 " fill="none" id="PushNotifier-Subscriber" style="stroke: #A80036; stroke-width: 1.0;"/><polygon fill="#A80036" points="442.5978,201.4094,435.6069,194.472,437.9242,199.6324,432.7638,201.9497,442.5978,201.4094" style="stroke: #A80036; stroke-width: 1.0;"/><line style="stroke: #A80036; stroke-width: 1.0;" x1="437.9242" x2="430.4465" y1="199.6324" y2="196.7893"/><polygon fill="#FFFFFF" points="275.5815,134.1877,279.5574,140.2037,286.6398,138.8475,282.6639,132.8315,275.5815,134.1877" style="stroke: #A80036; stroke-width: 1.0;"/><!--link PushNotifier to Weather--><path d="M288.5817,106.5469 C393.8695,125.4475 546.0244,154.0814 678,184 C693.2404,187.455 709.4635,191.4589 724.9482,195.4405 " fill="none" id="PushNotifier-Weather" style="stroke: #A80036; stroke-width: 1.0;"/><polygon fill="#A80036" points="737.7438,198.7671,730.0399,192.6312,732.9047,197.509,728.0269,200.3738,737.7438,198.7671" style="stroke: #A80036; stroke-width: 1.0;"/><line style="stroke: #A80036; stroke-width: 1.0;" x1="732.9047" x2="725.1621" y1="197.509" y2="195.496"/><polygon fill="#FFFFFF" points="275.6568,104.2333,280.8581,109.228,287.469,106.3478,282.2678,101.3531,275.6568,104.2333" style="stroke: #A80036; stroke-width: 1.0;"/><!--link PushNotifier to Headline--><path d="M288.7317,84.4045 C425.9632,84.8323 636.5789,85.4889 739.5587,85.81 " fill="none" id="PushNotifier-Headline" style="stroke: #A80036; stroke-width: 1.0;"/><polygon fill="#A80036" points="752.7621,85.8512,743.7746,81.8231,747.7621,85.8356,743.7497,89.8231,752.7621,85.8512" style="stroke: #A80036; stroke-width: 1.0;"/><line style="stroke: #A80036; stroke-width: 1.0;" x1="747.7621" x2="739.7622" y1="85.8356" y2="85.8106"/><polygon fill="#FFFFFF" points="275.5427,84.3633,281.5301,88.3821,287.5426,84.4009,281.5552,80.3821,275.5427,84.3633" style="stroke: #A80036; stroke-width: 1.0;"/><!--link Subscriber to Weather--><path d="M678.0573,223.111 C697.1382,222.0029 715.8223,220.9178 732.6209,219.9422 " fill="none" id="Subscriber-Weather" style="stroke: #A80036; stroke-width: 1.0; stroke-dasharray: 7.0,7.0;"/><polygon fill="#A80036" points="737.7721,219.643,728.5553,216.1717,732.7805,219.933,729.0193,224.1583,737.7721,219.643" style="stroke: #A80036; stroke-width: 1.0;"/><!--link Subscriber to Headline--><path d="M582.7538,201.3936 C631.6669,175.4724 701.1734,138.6377 748.4048,113.6076 " fill="none" id="Subscriber-Headline" style="stroke: #A80036; stroke-width: 1.0; stroke-dasharray: 7.0,7.0;"/><polygon fill="#A80036" points="752.9046,111.223,743.0792,111.9029,748.4866,113.5643,746.8253,118.9717,752.9046,111.223" style="stroke: #A80036; stroke-width: 1.0;"/><!--
@startuml
	left to right direction
  interface Subscriber{
    + {abstract} update(newHeadline:Headline, newWeather: Weather)
  }

  class PushNotifier{
    - currentWeather : Weather
    - currentHeadline : Headline
    - subscribers : [Subscriber]
    + changeHeadline()
    + changeWeather()
    + subscribe(newSubscriber:Subscriber)
    + unsubscribe(exSubscriber:Subscriber)
    + notifySubscribers()
  }

  class Weather{
    - temperature : float
    - humidity : float
    - outlook : float
  }

  class Headline{
    - headline : str
    - details : str
    - source : str
  }

  class EmailSubscriber{
	 - emailAddress : str
    + update(newHeadline:Headline, newWeather: Weather)
  }

  class FileLogger{
	 - filename : str
    + update(newHeadline:Headline, newWeather: Weather)
  }

  EmailSubscriber ..|> Subscriber
  FileLogger ..|> Subscriber
  PushNotifier o- -> Subscriber
  PushNotifier o- -> Weather
  PushNotifier o- -> Headline
	Subscriber ..> Weather
	Subscriber ..> Headline
@enduml

PlantUML version 1.2018.01(Mon Jan 29 02:08:22 PHT 2018)
(GPL source distribution)
Java Runtime: Java(TM) SE Runtime Environment
JVM: Java HotSpot(TM) 64-Bit Server VM
Java Version: 1.8.0_92-b14
Operating System: Mac OS X
OS Version: 10.14.6
Default Encoding: UTF-8
Language: en
Country: US
--></g></svg>