<?xml version="1.0" encoding="UTF-8" standalone="no"?><svg xmlns="http://www.w3.org/2000/svg" xmlns:xlink="http://www.w3.org/1999/xlink" contentScriptType="application/ecmascript" contentStyleType="text/css" height="400px" preserveAspectRatio="none" style="width:833px;height:400px;" version="1.1" viewBox="0 0 833 400" width="833px" zoomAndPan="magnify">
    <defs>
        <filter height="300%" id="f1rc17bmgu3pdh" width="300%" x="-1" y="-1">
            <feGaussianBlur result="blurOut" stdDeviation="2.0" />
            <feColorMatrix in="blurOut" result="blurOut2" type="matrix" values="0 0 0 0 0 0 0 0 0 0 0 0 0 0 0 0 0 0 .4 0" />
            <feOffset dx="4.0" dy="4.0" in="blurOut2" result="blurOut3" />
            <feBlend in="SourceGraphic" in2="blurOut3" mode="normal" />
        </filter>
    </defs>
    <g>
        <!--class Subscriber-->
        <rect fill="#FEFECE" filter="url(#f1rc17bmgu3pdh)" height="61.8359" id="Subscriber" style="stroke: #A80036; stroke-width: 1.5;" width="292" x="356" y="210" />
        <ellipse cx="467.25" cy="226" fill="#B4A7E5" rx="11" ry="11" style="stroke: #A80036; stroke-width: 1.0;" />
        <path d="M468.2031,222.6406 L468.2031,229.2969 L469.9219,229.2969 Q470.5313,229.2969 470.7969,229.5313 Q471.0625,229.7656 471.0625,230.1563 Q471.0625,230.5313 470.7969,230.7656 Q470.5313,231 469.9219,231 L464.7813,231 Q464.1719,231 463.9063,230.7656 Q463.6406,230.5313 463.6406,230.1406 Q463.6406,229.7656 463.9063,229.5313 Q464.1719,229.2969 464.7813,229.2969 L466.5,229.2969 L466.5,222.6406 L464.7813,222.6406 Q464.1719,222.6406 463.9063,222.4063 Q463.6406,222.1719 463.6406,221.7813 Q463.6406,221.4063 463.9063,221.1719 Q464.1719,220.9375 464.7813,220.9375 L469.9219,220.9375 Q470.5313,220.9375 470.7969,221.1719 Q471.0625,221.4063 471.0625,221.7813 Q471.0625,222.1719 470.7969,222.4063 Q470.5313,222.6406 469.9219,222.6406 L468.2031,222.6406 Z " /><text fill="#000000" font-family="sans-serif" font-size="12" font-style="italic" lengthAdjust="spacingAndGlyphs" textLength="61" x="487.75" y="230.9102">Subscriber</text>
        <line style="stroke: #A80036; stroke-width: 1.5;" x1="357" x2="647" y1="242" y2="242" />
        <line style="stroke: #A80036; stroke-width: 1.5;" x1="357" x2="647" y1="250" y2="250" />
        <ellipse cx="367" cy="262.418" fill="#84BE84" rx="3" ry="3" style="stroke: #038048; stroke-width: 1.0;" /><text fill="#000000" font-family="sans-serif" font-size="11" font-style="italic" lengthAdjust="spacingAndGlyphs" textLength="266" x="376" y="265.4189">update(newHeadline:Headline, newWeather: Weather)</text>
        <!--class PushNotifier-->
        <rect fill="#FEFECE" filter="url(#f1rc17bmgu3pdh)" height="158.6875" id="PushNotifier" style="stroke: #A80036; stroke-width: 1.5;" width="218" x="42" y="8.5" />
        <ellipse cx="112.75" cy="24.5" fill="#ADD1B2" rx="11" ry="11" style="stroke: #A80036; stroke-width: 1.0;" />
        <path d="M115.5156,20.375 Q115.6719,20.1563 115.8594,20.0469 Q116.0469,19.9375 116.2656,19.9375 Q116.6406,19.9375 116.875,20.1953 Q117.1094,20.4531 117.1094,21.0625 L117.1094,22.5156 Q117.1094,23.125 116.875,23.3906 Q116.6406,23.6563 116.2656,23.6563 Q115.9219,23.6563 115.7188,23.4531 Q115.5156,23.2656 115.4063,22.75 Q115.3594,22.3906 115.1719,22.2031 Q114.8438,21.8281 114.2344,21.6094 Q113.625,21.3906 113,21.3906 Q112.2344,21.3906 111.6016,21.7188 Q110.9688,22.0469 110.4766,22.7969 Q109.9844,23.5469 109.9844,24.5781 L109.9844,25.6719 Q109.9844,26.9063 110.875,27.7266 Q111.7656,28.5469 113.3594,28.5469 Q114.2969,28.5469 114.9531,28.2969 Q115.3438,28.1406 115.7656,27.7031 Q116.0313,27.4375 116.1797,27.3594 Q116.3281,27.2813 116.5313,27.2813 Q116.8594,27.2813 117.1172,27.5391 Q117.375,27.7969 117.375,28.1406 Q117.375,28.4844 117.0313,28.8906 Q116.5313,29.4688 115.7344,29.7969 Q114.6563,30.25 113.3594,30.25 Q111.8438,30.25 110.6406,29.625 Q109.6563,29.125 108.9688,28.0547 Q108.2813,26.9844 108.2813,25.7031 L108.2813,24.5469 Q108.2813,23.2188 108.8984,22.0703 Q109.5156,20.9219 110.6094,20.3047 Q111.7031,19.6875 112.9375,19.6875 Q113.6719,19.6875 114.3203,19.8516 Q114.9688,20.0156 115.5156,20.375 Z " /><text fill="#000000" font-family="sans-serif" font-size="12" lengthAdjust="spacingAndGlyphs" textLength="68" x="133.25" y="29.4102">PushNotifier</text>
        <line style="stroke: #A80036; stroke-width: 1.5;" x1="43" x2="259" y1="40.5" y2="40.5" />
        <rect fill="none" height="6" style="stroke: #C82930; stroke-width: 1.0;" width="6" x="50" y="49.918" /><text fill="#000000" font-family="sans-serif" font-size="11" lengthAdjust="spacingAndGlyphs" textLength="126" x="62" y="55.9189">currentWeather : Weather</text>
        <rect fill="none" height="6" style="stroke: #C82930; stroke-width: 1.0;" width="6" x="50" y="63.7539" /><text fill="#000000" font-family="sans-serif" font-size="11" lengthAdjust="spacingAndGlyphs" textLength="126" x="62" y="69.7549">currentHeadline : Headline</text>
        <rect fill="none" height="6" style="stroke: #C82930; stroke-width: 1.0;" width="6" x="50" y="77.5898" /><text fill="#000000" font-family="sans-serif" font-size="11" lengthAdjust="spacingAndGlyphs" textLength="126" x="62" y="83.5908">subscribers : [Subscriber]</text>
        <line style="stroke: #A80036; stroke-width: 1.5;" x1="43" x2="259" y1="90.0078" y2="90.0078" />
        <ellipse cx="53" cy="102.4258" fill="#84BE84" rx="3" ry="3" style="stroke: #038048; stroke-width: 1.0;" /><text fill="#000000" font-family="sans-serif" font-size="11" lengthAdjust="spacingAndGlyphs" textLength="192" x="62" y="105.4268">changeHeadline(newHeadline:Headline)</text>
        <ellipse cx="53" cy="116.2617" fill="#84BE84" rx="3" ry="3" style="stroke: #038048; stroke-width: 1.0;" /><text fill="#000000" font-family="sans-serif" font-size="11" lengthAdjust="spacingAndGlyphs" textLength="192" x="62" y="119.2627">changeWeather(newWeather:Weather)</text>
        <ellipse cx="53" cy="130.0977" fill="#84BE84" rx="3" ry="3" style="stroke: #038048; stroke-width: 1.0;" /><text fill="#000000" font-family="sans-serif" font-size="11" lengthAdjust="spacingAndGlyphs" textLength="187" x="62" y="133.0986">subscribe(newSubscriber:Subscriber)</text>
        <ellipse cx="53" cy="143.9336" fill="#84BE84" rx="3" ry="3" style="stroke: #038048; stroke-width: 1.0;" /><text fill="#000000" font-family="sans-serif" font-size="11" lengthAdjust="spacingAndGlyphs" textLength="189" x="62" y="146.9346">unsubscribe(exSubscriber:Subscriber)</text>
        <ellipse cx="53" cy="157.7695" fill="#84BE84" rx="3" ry="3" style="stroke: #038048; stroke-width: 1.0;" /><text fill="#000000" font-family="sans-serif" font-size="11" lengthAdjust="spacingAndGlyphs" textLength="94" x="62" y="160.7705">notifySubscribers()</text>
        <!--class Weather-->
        <rect fill="#FEFECE" filter="url(#f1rc17bmgu3pdh)" height="89.5078" id="Weather" style="stroke: #A80036; stroke-width: 1.5;" width="114" x="708" y="181" />
        <ellipse cx="739.2" cy="197" fill="#ADD1B2" rx="11" ry="11" style="stroke: #A80036; stroke-width: 1.0;" />
        <path d="M741.9656,192.875 Q742.1219,192.6563 742.3094,192.5469 Q742.4969,192.4375 742.7156,192.4375 Q743.0906,192.4375 743.325,192.6953 Q743.5594,192.9531 743.5594,193.5625 L743.5594,195.0156 Q743.5594,195.625 743.325,195.8906 Q743.0906,196.1563 742.7156,196.1563 Q742.3719,196.1563 742.1688,195.9531 Q741.9656,195.7656 741.8563,195.25 Q741.8094,194.8906 741.6219,194.7031 Q741.2938,194.3281 740.6844,194.1094 Q740.075,193.8906 739.45,193.8906 Q738.6844,193.8906 738.0516,194.2188 Q737.4188,194.5469 736.9266,195.2969 Q736.4344,196.0469 736.4344,197.0781 L736.4344,198.1719 Q736.4344,199.4063 737.325,200.2266 Q738.2156,201.0469 739.8094,201.0469 Q740.7469,201.0469 741.4031,200.7969 Q741.7938,200.6406 742.2156,200.2031 Q742.4813,199.9375 742.6297,199.8594 Q742.7781,199.7813 742.9813,199.7813 Q743.3094,199.7813 743.5672,200.0391 Q743.825,200.2969 743.825,200.6406 Q743.825,200.9844 743.4813,201.3906 Q742.9813,201.9688 742.1844,202.2969 Q741.1063,202.75 739.8094,202.75 Q738.2938,202.75 737.0906,202.125 Q736.1063,201.625 735.4188,200.5547 Q734.7313,199.4844 734.7313,198.2031 L734.7313,197.0469 Q734.7313,195.7188 735.3484,194.5703 Q735.9656,193.4219 737.0594,192.8047 Q738.1531,192.1875 739.3875,192.1875 Q740.1219,192.1875 740.7703,192.3516 Q741.4188,192.5156 741.9656,192.875 Z " /><text fill="#000000" font-family="sans-serif" font-size="12" lengthAdjust="spacingAndGlyphs" textLength="46" x="756.8" y="201.9102">Weather</text>
        <line style="stroke: #A80036; stroke-width: 1.5;" x1="709" x2="821" y1="213" y2="213" />
        <rect fill="none" height="6" style="stroke: #C82930; stroke-width: 1.0;" width="6" x="716" y="222.418" /><text fill="#000000" font-family="sans-serif" font-size="11" lengthAdjust="spacingAndGlyphs" textLength="88" x="728" y="228.4189">temperature : float</text>
        <rect fill="none" height="6" style="stroke: #C82930; stroke-width: 1.0;" width="6" x="716" y="236.2539" /><text fill="#000000" font-family="sans-serif" font-size="11" lengthAdjust="spacingAndGlyphs" textLength="69" x="728" y="242.2549">humidity : float</text>
        <rect fill="none" height="6" style="stroke: #C82930; stroke-width: 1.0;" width="6" x="716" y="250.0898" /><text fill="#000000" font-family="sans-serif" font-size="11" lengthAdjust="spacingAndGlyphs" textLength="64" x="728" y="256.0908">outlook : float</text>
        <line style="stroke: #A80036; stroke-width: 1.5;" x1="709" x2="821" y1="262.5078" y2="262.5078" />
        <!--class Headline-->
        <rect fill="#FEFECE" filter="url(#f1rc17bmgu3pdh)" height="89.5078" id="Headline" style="stroke: #A80036; stroke-width: 1.5;" width="88" x="721" y="49" />
        <ellipse cx="738.7" cy="65" fill="#ADD1B2" rx="11" ry="11" style="stroke: #A80036; stroke-width: 1.0;" />
        <path d="M741.4656,60.875 Q741.6219,60.6563 741.8094,60.5469 Q741.9969,60.4375 742.2156,60.4375 Q742.5906,60.4375 742.825,60.6953 Q743.0594,60.9531 743.0594,61.5625 L743.0594,63.0156 Q743.0594,63.625 742.825,63.8906 Q742.5906,64.1563 742.2156,64.1563 Q741.8719,64.1563 741.6688,63.9531 Q741.4656,63.7656 741.3563,63.25 Q741.3094,62.8906 741.1219,62.7031 Q740.7938,62.3281 740.1844,62.1094 Q739.575,61.8906 738.95,61.8906 Q738.1844,61.8906 737.5516,62.2188 Q736.9188,62.5469 736.4266,63.2969 Q735.9344,64.0469 735.9344,65.0781 L735.9344,66.1719 Q735.9344,67.4063 736.825,68.2266 Q737.7156,69.0469 739.3094,69.0469 Q740.2469,69.0469 740.9031,68.7969 Q741.2938,68.6406 741.7156,68.2031 Q741.9813,67.9375 742.1297,67.8594 Q742.2781,67.7813 742.4813,67.7813 Q742.8094,67.7813 743.0672,68.0391 Q743.325,68.2969 743.325,68.6406 Q743.325,68.9844 742.9813,69.3906 Q742.4813,69.9688 741.6844,70.2969 Q740.6063,70.75 739.3094,70.75 Q737.7938,70.75 736.5906,70.125 Q735.6063,69.625 734.9188,68.5547 Q734.2313,67.4844 734.2313,66.2031 L734.2313,65.0469 Q734.2313,63.7188 734.8484,62.5703 Q735.4656,61.4219 736.5594,60.8047 Q737.6531,60.1875 738.8875,60.1875 Q739.6219,60.1875 740.2703,60.3516 Q740.9188,60.5156 741.4656,60.875 Z " /><text fill="#000000" font-family="sans-serif" font-size="12" lengthAdjust="spacingAndGlyphs" textLength="50" x="753.3" y="69.9102">Headline</text>
        <line style="stroke: #A80036; stroke-width: 1.5;" x1="722" x2="808" y1="81" y2="81" />
        <rect fill="none" height="6" style="stroke: #C82930; stroke-width: 1.0;" width="6" x="729" y="90.418" /><text fill="#000000" font-family="sans-serif" font-size="11" lengthAdjust="spacingAndGlyphs" textLength="62" x="741" y="96.4189">headline : str</text>
        <rect fill="none" height="6" style="stroke: #C82930; stroke-width: 1.0;" width="6" x="729" y="104.2539" /><text fill="#000000" font-family="sans-serif" font-size="11" lengthAdjust="spacingAndGlyphs" textLength="53" x="741" y="110.2549">details : str</text>
        <rect fill="none" height="6" style="stroke: #C82930; stroke-width: 1.0;" width="6" x="729" y="118.0898" /><text fill="#000000" font-family="sans-serif" font-size="11" lengthAdjust="spacingAndGlyphs" textLength="56" x="741" y="124.0908">source : str</text>
        <line style="stroke: #A80036; stroke-width: 1.5;" x1="722" x2="808" y1="130.5078" y2="130.5078" />
        <!--class EmailSubscriber-->
        <rect fill="#FEFECE" filter="url(#f1rc17bmgu3pdh)" height="75.6719" id="EmailSubscriber" style="stroke: #A80036; stroke-width: 1.5;" width="290" x="6" y="203" />
        <ellipse cx="100.75" cy="219" fill="#ADD1B2" rx="11" ry="11" style="stroke: #A80036; stroke-width: 1.0;" />
        <path d="M103.5156,214.875 Q103.6719,214.6563 103.8594,214.5469 Q104.0469,214.4375 104.2656,214.4375 Q104.6406,214.4375 104.875,214.6953 Q105.1094,214.9531 105.1094,215.5625 L105.1094,217.0156 Q105.1094,217.625 104.875,217.8906 Q104.6406,218.1563 104.2656,218.1563 Q103.9219,218.1563 103.7188,217.9531 Q103.5156,217.7656 103.4063,217.25 Q103.3594,216.8906 103.1719,216.7031 Q102.8438,216.3281 102.2344,216.1094 Q101.625,215.8906 101,215.8906 Q100.2344,215.8906 99.6016,216.2188 Q98.9688,216.5469 98.4766,217.2969 Q97.9844,218.0469 97.9844,219.0781 L97.9844,220.1719 Q97.9844,221.4063 98.875,222.2266 Q99.7656,223.0469 101.3594,223.0469 Q102.2969,223.0469 102.9531,222.7969 Q103.3438,222.6406 103.7656,222.2031 Q104.0313,221.9375 104.1797,221.8594 Q104.3281,221.7813 104.5313,221.7813 Q104.8594,221.7813 105.1172,222.0391 Q105.375,222.2969 105.375,222.6406 Q105.375,222.9844 105.0313,223.3906 Q104.5313,223.9688 103.7344,224.2969 Q102.6563,224.75 101.3594,224.75 Q99.8438,224.75 98.6406,224.125 Q97.6563,223.625 96.9688,222.5547 Q96.2813,221.4844 96.2813,220.2031 L96.2813,219.0469 Q96.2813,217.7188 96.8984,216.5703 Q97.5156,215.4219 98.6094,214.8047 Q99.7031,214.1875 100.9375,214.1875 Q101.6719,214.1875 102.3203,214.3516 Q102.9688,214.5156 103.5156,214.875 Z " /><text fill="#000000" font-family="sans-serif" font-size="12" lengthAdjust="spacingAndGlyphs" textLength="92" x="121.25" y="223.9102">EmailSubscriber</text>
        <line style="stroke: #A80036; stroke-width: 1.5;" x1="7" x2="295" y1="235" y2="235" />
        <rect fill="none" height="6" style="stroke: #C82930; stroke-width: 1.0;" width="6" x="14" y="244.418" /><text fill="#000000" font-family="sans-serif" font-size="11" lengthAdjust="spacingAndGlyphs" textLength="88" x="26" y="250.4189">emailAddress : str</text>
        <line style="stroke: #A80036; stroke-width: 1.5;" x1="7" x2="295" y1="256.8359" y2="256.8359" />
        <ellipse cx="17" cy="269.2539" fill="#84BE84" rx="3" ry="3" style="stroke: #038048; stroke-width: 1.0;" /><text fill="#000000" font-family="sans-serif" font-size="11" lengthAdjust="spacingAndGlyphs" textLength="264" x="26" y="272.2549">update(newHeadline:Headline, newWeather: Weather)</text>
        <!--class FileLogger-->
        <rect fill="#FEFECE" filter="url(#f1rc17bmgu3pdh)" height="75.6719" id="FileLogger" style="stroke: #A80036; stroke-width: 1.5;" width="290" x="6" y="314" />
        <ellipse cx="117.25" cy="330" fill="#ADD1B2" rx="11" ry="11" style="stroke: #A80036; stroke-width: 1.0;" />
        <path d="M120.0156,325.875 Q120.1719,325.6563 120.3594,325.5469 Q120.5469,325.4375 120.7656,325.4375 Q121.1406,325.4375 121.375,325.6953 Q121.6094,325.9531 121.6094,326.5625 L121.6094,328.0156 Q121.6094,328.625 121.375,328.8906 Q121.1406,329.1563 120.7656,329.1563 Q120.4219,329.1563 120.2188,328.9531 Q120.0156,328.7656 119.9063,328.25 Q119.8594,327.8906 119.6719,327.7031 Q119.3438,327.3281 118.7344,327.1094 Q118.125,326.8906 117.5,326.8906 Q116.7344,326.8906 116.1016,327.2188 Q115.4688,327.5469 114.9766,328.2969 Q114.4844,329.0469 114.4844,330.0781 L114.4844,331.1719 Q114.4844,332.4063 115.375,333.2266 Q116.2656,334.0469 117.8594,334.0469 Q118.7969,334.0469 119.4531,333.7969 Q119.8438,333.6406 120.2656,333.2031 Q120.5313,332.9375 120.6797,332.8594 Q120.8281,332.7813 121.0313,332.7813 Q121.3594,332.7813 121.6172,333.0391 Q121.875,333.2969 121.875,333.6406 Q121.875,333.9844 121.5313,334.3906 Q121.0313,334.9688 120.2344,335.2969 Q119.1563,335.75 117.8594,335.75 Q116.3438,335.75 115.1406,335.125 Q114.1563,334.625 113.4688,333.5547 Q112.7813,332.4844 112.7813,331.2031 L112.7813,330.0469 Q112.7813,328.7188 113.3984,327.5703 Q114.0156,326.4219 115.1094,325.8047 Q116.2031,325.1875 117.4375,325.1875 Q118.1719,325.1875 118.8203,325.3516 Q119.4688,325.5156 120.0156,325.875 Z " /><text fill="#000000" font-family="sans-serif" font-size="12" lengthAdjust="spacingAndGlyphs" textLength="59" x="137.75" y="334.9102">FileLogger</text>
        <line style="stroke: #A80036; stroke-width: 1.5;" x1="7" x2="295" y1="346" y2="346" />
        <rect fill="none" height="6" style="stroke: #C82930; stroke-width: 1.0;" width="6" x="14" y="355.418" /><text fill="#000000" font-family="sans-serif" font-size="11" lengthAdjust="spacingAndGlyphs" textLength="62" x="26" y="361.4189">filename : str</text>
        <line style="stroke: #A80036; stroke-width: 1.5;" x1="7" x2="295" y1="367.8359" y2="367.8359" />
        <ellipse cx="17" cy="380.2539" fill="#84BE84" rx="3" ry="3" style="stroke: #038048; stroke-width: 1.0;" /><text fill="#000000" font-family="sans-serif" font-size="11" lengthAdjust="spacingAndGlyphs" textLength="264" x="26" y="383.2549">update(newHeadline:Headline, newWeather: Weather)</text>
        <!--link EmailSubscriber to Subscriber-->
        <path d="M296.219,241 C309.303,241 322.621,241 335.867,241 " fill="none" id="EmailSubscriber-Subscriber" style="stroke: #A80036; stroke-width: 1.0; stroke-dasharray: 7.0,7.0;" />
        <polygon fill="none" points="335.874,234,355.874,241,335.874,248,335.874,234" style="stroke: #A80036; stroke-width: 1.0;" />
        <!--link FileLogger to Subscriber-->
        <path d="M271.618,313.9554 C308.081,302.3583 348.103,289.629 384.365,278.096 " fill="none" id="FileLogger-Subscriber" style="stroke: #A80036; stroke-width: 1.0; stroke-dasharray: 7.0,7.0;" />
        <polygon fill="none" points="382.329,271.398,403.51,272.007,386.573,284.739,382.329,271.398" style="stroke: #A80036; stroke-width: 1.0;" />
        <!--link PushNotifier to Subscriber-->
        <path d="M272.078,145.263 C299.527,157.977 328.668,171.18 356,183 C372.984,190.345 391.219,197.896 408.829,205.021 " fill="none" id="PushNotifier-Subscriber" style="stroke: #A80036; stroke-width: 1.0;" />
        <polygon fill="#A80036" points="420.899,209.878,414.0428,202.8074,416.2605,208.0115,411.0564,210.2291,420.899,209.878" style="stroke: #A80036; stroke-width: 1.0;" />
        <line style="stroke: #A80036; stroke-width: 1.0;" x1="416.2605" x2="408.8385" y1="208.0115" y2="205.025" />
        <polygon fill="#FFFFFF" points="260.014,139.656,263.7693,145.8121,270.8962,144.7134,267.1409,138.5573,260.014,139.656" style="stroke: #A80036; stroke-width: 1.0;" />
        <!--link PushNotifier to Weather-->
        <path d="M273.424,110.699 C374.216,130.2 521.078,160.145 648,192 C663.346,195.851 679.713,200.383 695.17,204.86 " fill="none" id="PushNotifier-Weather" style="stroke: #A80036; stroke-width: 1.0;" />
        <polygon fill="#A80036" points="707.897,208.592,700.3858,202.2216,703.0989,207.1853,698.1352,209.8984,707.897,208.592" style="stroke: #A80036; stroke-width: 1.0;" />
        <line style="stroke: #A80036; stroke-width: 1.0;" x1="703.0989" x2="695.422" y1="207.1853" y2="204.934" />
        <polygon fill="#FFFFFF" points="260.441,108.195,265.5751,113.2587,272.2239,110.4672,267.0899,105.4035,260.441,108.195" style="stroke: #A80036; stroke-width: 1.0;" />
        <!--link PushNotifier to Headline-->
        <path d="M273.088,89.187 C404.751,90.478 609.488,92.485 707.705,93.448 " fill="none" id="PushNotifier-Headline" style="stroke: #A80036; stroke-width: 1.0;" />
        <polygon fill="#A80036" points="720.839,93.577,711.8786,89.4892,715.8392,93.5281,711.8003,97.4888,720.839,93.577" style="stroke: #A80036; stroke-width: 1.0;" />
        <line style="stroke: #A80036; stroke-width: 1.0;" x1="715.8392" x2="707.8395" y1="93.5281" y2="93.4495" />
        <polygon fill="#FFFFFF" points="260.005,89.059,265.9651,93.1181,272.0044,89.1777,266.0443,85.1185,260.005,89.059" style="stroke: #A80036; stroke-width: 1.0;" />
        <!--link Subscriber to Weather-->
        <path d="M648.002,232.667 C667.248,231.56 686.068,230.479 702.76,229.52 " fill="none" id="Subscriber-Weather" style="stroke: #A80036; stroke-width: 1.0; stroke-dasharray: 7.0,7.0;" />
        <polygon fill="#A80036" points="707.87,229.226,698.6551,225.7495,702.8783,229.5132,699.1146,233.7363,707.87,229.226" style="stroke: #A80036; stroke-width: 1.0;" />
        <!--link Subscriber to Headline-->
        <path d="M558.351,209.825 C605.224,183.426 671.718,145.975 716.279,120.877 " fill="none" id="Subscriber-Headline" style="stroke: #A80036; stroke-width: 1.0; stroke-dasharray: 7.0,7.0;" />
        <polygon fill="#A80036" points="720.791,118.336,710.9865,119.2692,716.4349,120.7905,714.9136,126.239,720.791,118.336" style="stroke: #A80036; stroke-width: 1.0;" />
        <!--
@startuml
	left to right direction
  interface Subscriber{
    + {abstract} update(newHeadline:Headline, newWeather: Weather)
  }

  class PushNotifier{
    - currentWeather : Weather
    - currentHeadline : Headline
    - subscribers : [Subscriber]
    + changeHeadline(newHeadline:Headline)
    + changeWeather(newWeather:Weather)
    + subscribe(newSubscriber:Subscriber)
    + unsubscribe(exSubscriber:Subscriber)
    + notifySubscribers()
  }

  class Weather{
    - temperature : float
    - humidity : float
    - outlook : float
  }

  class Headline{
    - headline : str
    - details : str
    - source : str
  }

  class EmailSubscriber{
	 - emailAddress : str
    + update(newHeadline:Headline, newWeather: Weather)
  }

  class FileLogger{
	 - filename : str
    + update(newHeadline:Headline, newWeather: Weather)
  }

  EmailSubscriber ..|> Subscriber
  FileLogger ..|> Subscriber
  PushNotifier o- -> Subscriber
  PushNotifier o- -> Weather
  PushNotifier o- -> Headline
	Subscriber ..> Weather
	Subscriber ..> Headline
@enduml

PlantUML version 1.2018.01(Mon Jan 29 02:08:22 CST 2018)
(GPL source distribution)
Java Runtime: Java(TM) SE Runtime Environment
JVM: Java HotSpot(TM) 64-Bit Server VM
Java Version: 1.8.0_221-b11
Operating System: Windows 10
OS Version: 10.0
Default Encoding: Cp1252
Language: en
Country: US
-->
    </g>
</svg>