<?xml version="1.0" encoding="UTF-8" standalone="no"?><svg xmlns="http://www.w3.org/2000/svg" xmlns:xlink="http://www.w3.org/1999/xlink" contentScriptType="application/ecmascript" contentStyleType="text/css" height="242px" preserveAspectRatio="none" style="width:214px;height:242px;" version="1.1" viewBox="0 0 214 242" width="214px" zoomAndPan="magnify"><defs><filter height="300%" id="f0expky" width="300%" x="-1" y="-1"><feGaussianBlur result="blurOut" stdDeviation="2.0"/><feColorMatrix in="blurOut" result="blurOut2" type="matrix" values="0 0 0 0 0 0 0 0 0 0 0 0 0 0 0 0 0 0 .4 0"/><feOffset dx="4.0" dy="4.0" in="blurOut2" result="blurOut3"/><feBlend in="SourceGraphic" in2="blurOut3" mode="normal"/></filter></defs><g><!--class BorrowableItem--><rect fill="#FEFECE" filter="url(#f0expky)" height="75.6719" style="stroke: #A80036; stroke-width: 1.5;" width="120" x="45" y="158"/><ellipse cx="60" cy="174" fill="#B4A7E5" rx="11" ry="11" style="stroke: #A80036; stroke-width: 1.0;"/><path d="M60.9531,170.6406 L60.9531,177.2969 L62.6719,177.2969 Q63.2813,177.2969 63.5469,177.5313 Q63.8125,177.7656 63.8125,178.1563 Q63.8125,178.5313 63.5469,178.7656 Q63.2813,179 62.6719,179 L57.5313,179 Q56.9219,179 56.6563,178.7656 Q56.3906,178.5313 56.3906,178.1406 Q56.3906,177.7656 56.6563,177.5313 Q56.9219,177.2969 57.5313,177.2969 L59.25,177.2969 L59.25,170.6406 L57.5313,170.6406 Q56.9219,170.6406 56.6563,170.4063 Q56.3906,170.1719 56.3906,169.7813 Q56.3906,169.4063 56.6563,169.1719 Q56.9219,168.9375 57.5313,168.9375 L62.6719,168.9375 Q63.2813,168.9375 63.5469,169.1719 Q63.8125,169.4063 63.8125,169.7813 Q63.8125,170.1719 63.5469,170.4063 Q63.2813,170.6406 62.6719,170.6406 L60.9531,170.6406 Z "/><text fill="#000000" font-family="sans-serif" font-size="12" font-style="italic" lengthAdjust="spacingAndGlyphs" textLength="88" x="74" y="178.9102">BorrowableItem</text><line style="stroke: #A80036; stroke-width: 1.5;" x1="46" x2="164" y1="190" y2="190"/><line style="stroke: #A80036; stroke-width: 1.5;" x1="46" x2="164" y1="198" y2="198"/><ellipse cx="56" cy="210.418" fill="#84BE84" rx="3" ry="3" style="stroke: #038048; stroke-width: 1.0;"/><text fill="#000000" font-family="sans-serif" font-size="11" font-style="italic" lengthAdjust="spacingAndGlyphs" textLength="42" x="65" y="213.4189">borrow()</text><ellipse cx="56" cy="224.2539" fill="#84BE84" rx="3" ry="3" style="stroke: #038048; stroke-width: 1.0;"/><text fill="#000000" font-family="sans-serif" font-size="11" font-style="italic" lengthAdjust="spacingAndGlyphs" textLength="57" x="65" y="227.2549">name() : str</text><!--class Book--><rect fill="#FEFECE" filter="url(#f0expky)" height="89.5078" style="stroke: #A80036; stroke-width: 1.5;" width="82" x="6" y="8"/><ellipse cx="30.9" cy="24" fill="#ADD1B2" rx="11" ry="11" style="stroke: #A80036; stroke-width: 1.0;"/><path d="M33.6656,19.875 Q33.8219,19.6563 34.0094,19.5469 Q34.1969,19.4375 34.4156,19.4375 Q34.7906,19.4375 35.025,19.6953 Q35.2594,19.9531 35.2594,20.5625 L35.2594,22.0156 Q35.2594,22.625 35.025,22.8906 Q34.7906,23.1563 34.4156,23.1563 Q34.0719,23.1563 33.8688,22.9531 Q33.6656,22.7656 33.5563,22.25 Q33.5094,21.8906 33.3219,21.7031 Q32.9938,21.3281 32.3844,21.1094 Q31.775,20.8906 31.15,20.8906 Q30.3844,20.8906 29.7516,21.2188 Q29.1188,21.5469 28.6266,22.2969 Q28.1344,23.0469 28.1344,24.0781 L28.1344,25.1719 Q28.1344,26.4063 29.025,27.2266 Q29.9156,28.0469 31.5094,28.0469 Q32.4469,28.0469 33.1031,27.7969 Q33.4938,27.6406 33.9156,27.2031 Q34.1813,26.9375 34.3297,26.8594 Q34.4781,26.7813 34.6813,26.7813 Q35.0094,26.7813 35.2672,27.0391 Q35.525,27.2969 35.525,27.6406 Q35.525,27.9844 35.1813,28.3906 Q34.6813,28.9688 33.8844,29.2969 Q32.8063,29.75 31.5094,29.75 Q29.9938,29.75 28.7906,29.125 Q27.8063,28.625 27.1188,27.5547 Q26.4313,26.4844 26.4313,25.2031 L26.4313,24.0469 Q26.4313,22.7188 27.0484,21.5703 Q27.6656,20.4219 28.7594,19.8047 Q29.8531,19.1875 31.0875,19.1875 Q31.8219,19.1875 32.4703,19.3516 Q33.1188,19.5156 33.6656,19.875 Z "/><text fill="#000000" font-family="sans-serif" font-size="12" lengthAdjust="spacingAndGlyphs" textLength="28" x="47.1" y="28.9102">Book</text><line style="stroke: #A80036; stroke-width: 1.5;" x1="7" x2="87" y1="40" y2="40"/><rect fill="none" height="6" style="stroke: #C82930; stroke-width: 1.0;" width="6" x="14" y="49.418"/><text fill="#000000" font-family="sans-serif" font-size="11" lengthAdjust="spacingAndGlyphs" textLength="38" x="26" y="55.4189">title : str</text><line style="stroke: #A80036; stroke-width: 1.5;" x1="7" x2="87" y1="61.8359" y2="61.8359"/><ellipse cx="17" cy="74.2539" fill="#84BE84" rx="3" ry="3" style="stroke: #038048; stroke-width: 1.0;"/><text fill="#000000" font-family="sans-serif" font-size="11" lengthAdjust="spacingAndGlyphs" textLength="44" x="26" y="77.2549">borrow()</text><ellipse cx="17" cy="88.0898" fill="#84BE84" rx="3" ry="3" style="stroke: #038048; stroke-width: 1.0;"/><text fill="#000000" font-family="sans-serif" font-size="11" lengthAdjust="spacingAndGlyphs" textLength="56" x="26" y="91.0908">name() : str</text><!--class IMacUnit--><rect fill="#FEFECE" filter="url(#f0expky)" height="89.5078" style="stroke: #A80036; stroke-width: 1.5;" width="82" x="123" y="8"/><ellipse cx="139.35" cy="24" fill="#ADD1B2" rx="11" ry="11" style="stroke: #A80036; stroke-width: 1.0;"/><path d="M142.1156,19.875 Q142.2719,19.6563 142.4594,19.5469 Q142.6469,19.4375 142.8656,19.4375 Q143.2406,19.4375 143.475,19.6953 Q143.7094,19.9531 143.7094,20.5625 L143.7094,22.0156 Q143.7094,22.625 143.475,22.8906 Q143.2406,23.1563 142.8656,23.1563 Q142.5219,23.1563 142.3188,22.9531 Q142.1156,22.7656 142.0063,22.25 Q141.9594,21.8906 141.7719,21.7031 Q141.4438,21.3281 140.8344,21.1094 Q140.225,20.8906 139.6,20.8906 Q138.8344,20.8906 138.2016,21.2188 Q137.5688,21.5469 137.0766,22.2969 Q136.5844,23.0469 136.5844,24.0781 L136.5844,25.1719 Q136.5844,26.4063 137.475,27.2266 Q138.3656,28.0469 139.9594,28.0469 Q140.8969,28.0469 141.5531,27.7969 Q141.9438,27.6406 142.3656,27.2031 Q142.6313,26.9375 142.7797,26.8594 Q142.9281,26.7813 143.1313,26.7813 Q143.4594,26.7813 143.7172,27.0391 Q143.975,27.2969 143.975,27.6406 Q143.975,27.9844 143.6313,28.3906 Q143.1313,28.9688 142.3344,29.2969 Q141.2563,29.75 139.9594,29.75 Q138.4438,29.75 137.2406,29.125 Q136.2563,28.625 135.5688,27.5547 Q134.8813,26.4844 134.8813,25.2031 L134.8813,24.0469 Q134.8813,22.7188 135.4984,21.5703 Q136.1156,20.4219 137.2094,19.8047 Q138.3031,19.1875 139.5375,19.1875 Q140.2719,19.1875 140.9203,19.3516 Q141.5688,19.5156 142.1156,19.875 Z "/><text fill="#000000" font-family="sans-serif" font-size="12" lengthAdjust="spacingAndGlyphs" textLength="47" x="153.65" y="28.9102">IMacUnit</text><line style="stroke: #A80036; stroke-width: 1.5;" x1="124" x2="204" y1="40" y2="40"/><rect fill="none" height="6" style="stroke: #C82930; stroke-width: 1.0;" width="6" x="131" y="49.418"/><text fill="#000000" font-family="sans-serif" font-size="11" lengthAdjust="spacingAndGlyphs" textLength="28" x="143" y="55.4189">id : int</text><line style="stroke: #A80036; stroke-width: 1.5;" x1="124" x2="204" y1="61.8359" y2="61.8359"/><ellipse cx="134" cy="74.2539" fill="#84BE84" rx="3" ry="3" style="stroke: #038048; stroke-width: 1.0;"/><text fill="#000000" font-family="sans-serif" font-size="11" lengthAdjust="spacingAndGlyphs" textLength="44" x="143" y="77.2549">borrow()</text><ellipse cx="134" cy="88.0898" fill="#84BE84" rx="3" ry="3" style="stroke: #038048; stroke-width: 1.0;"/><text fill="#000000" font-family="sans-serif" font-size="11" lengthAdjust="spacingAndGlyphs" textLength="56" x="143" y="91.0908">name() : str</text><path d="M65.1924,98.226 C70.4601,111.032 76.283,125.188 81.812,138.6292 " fill="none" style="stroke: #A80036; stroke-width: 1.0; stroke-dasharray: 7.0,7.0;"/><polygon fill="none" points="88.4686,136.4111,89.6034,157.5703,75.5212,141.737,88.4686,136.4111" style="stroke: #A80036; stroke-width: 1.0;"/><path d="M145.494,98.226 C140.073,111.181 134.074,125.517 128.392,139.0978 " fill="none" style="stroke: #A80036; stroke-width: 1.0; stroke-dasharray: 7.0,7.0;"/><polygon fill="none" points="134.84,141.8225,120.662,157.5703,121.925,136.4183,134.84,141.8225" style="stroke: #A80036; stroke-width: 1.0;"/></g></svg>