<?xml version="1.0" encoding="UTF-8" standalone="no"?><svg xmlns="http://www.w3.org/2000/svg" xmlns:xlink="http://www.w3.org/1999/xlink" contentScriptType="application/ecmascript" contentStyleType="text/css" height="228px" preserveAspectRatio="none" style="width:246px;height:228px;" version="1.1" viewBox="0 0 246 228" width="246px" zoomAndPan="magnify"><defs><filter height="300%" id="fynf3zo" width="300%" x="-1" y="-1"><feGaussianBlur result="blurOut" stdDeviation="2.0"/><feColorMatrix in="blurOut" result="blurOut2" type="matrix" values="0 0 0 0 0 0 0 0 0 0 0 0 0 0 0 0 0 0 .4 0"/><feOffset dx="4.0" dy="4.0" in="blurOut2" result="blurOut3"/><feBlend in="SourceGraphic" in2="blurOut3" mode="normal"/></filter></defs><g><!--class Robot--><rect fill="#FEFECE" filter="url(#fynf3zo)" height="89.5078" style="stroke: #A80036; stroke-width: 1.5;" width="169" x="32" y="130"/><ellipse cx="95.75" cy="146" fill="#ADD1B2" rx="11" ry="11" style="stroke: #A80036; stroke-width: 1.0;"/><path d="M98.5156,141.875 Q98.6719,141.6563 98.8594,141.5469 Q99.0469,141.4375 99.2656,141.4375 Q99.6406,141.4375 99.875,141.6953 Q100.1094,141.9531 100.1094,142.5625 L100.1094,144.0156 Q100.1094,144.625 99.875,144.8906 Q99.6406,145.1563 99.2656,145.1563 Q98.9219,145.1563 98.7188,144.9531 Q98.5156,144.7656 98.4063,144.25 Q98.3594,143.8906 98.1719,143.7031 Q97.8438,143.3281 97.2344,143.1094 Q96.625,142.8906 96,142.8906 Q95.2344,142.8906 94.6016,143.2188 Q93.9688,143.5469 93.4766,144.2969 Q92.9844,145.0469 92.9844,146.0781 L92.9844,147.1719 Q92.9844,148.4063 93.875,149.2266 Q94.7656,150.0469 96.3594,150.0469 Q97.2969,150.0469 97.9531,149.7969 Q98.3438,149.6406 98.7656,149.2031 Q99.0313,148.9375 99.1797,148.8594 Q99.3281,148.7813 99.5313,148.7813 Q99.8594,148.7813 100.1172,149.0391 Q100.375,149.2969 100.375,149.6406 Q100.375,149.9844 100.0313,150.3906 Q99.5313,150.9688 98.7344,151.2969 Q97.6563,151.75 96.3594,151.75 Q94.8438,151.75 93.6406,151.125 Q92.6563,150.625 91.9688,149.5547 Q91.2813,148.4844 91.2813,147.2031 L91.2813,146.0469 Q91.2813,144.7188 91.8984,143.5703 Q92.5156,142.4219 93.6094,141.8047 Q94.7031,141.1875 95.9375,141.1875 Q96.6719,141.1875 97.3203,141.3516 Q97.9688,141.5156 98.5156,141.875 Z "/><text fill="#000000" font-family="sans-serif" font-size="12" lengthAdjust="spacingAndGlyphs" textLength="33" x="116.25" y="150.9102">Robot</text><line style="stroke: #A80036; stroke-width: 1.5;" x1="33" x2="200" y1="162" y2="162"/><ellipse cx="43" cy="174.418" fill="none" rx="3" ry="3" style="stroke: #038048; stroke-width: 1.0;"/><text fill="#000000" font-family="sans-serif" font-size="11" lengthAdjust="spacingAndGlyphs" textLength="48" x="52" y="177.4189">name : str</text><line style="stroke: #A80036; stroke-width: 1.5;" x1="33" x2="200" y1="183.8359" y2="183.8359"/><ellipse cx="43" cy="196.2539" fill="#84BE84" rx="3" ry="3" style="stroke: #038048; stroke-width: 1.0;"/><text fill="#000000" font-family="sans-serif" font-size="11" lengthAdjust="spacingAndGlyphs" textLength="24" x="52" y="199.2549">talk()</text><ellipse cx="43" cy="210.0898" fill="#84BE84" rx="3" ry="3" style="stroke: #038048; stroke-width: 1.0;"/><text fill="#000000" font-family="sans-serif" font-size="11" lengthAdjust="spacingAndGlyphs" textLength="143" x="52" y="213.0908">communicate(partner : Robot)</text><!--class SkyBot--><rect fill="#FEFECE" filter="url(#fynf3zo)" height="61.8359" style="stroke: #A80036; stroke-width: 1.5;" width="89" x="6" y="8"/><ellipse cx="30" cy="24" fill="#ADD1B2" rx="11" ry="11" style="stroke: #A80036; stroke-width: 1.0;"/><path d="M32.7656,19.875 Q32.9219,19.6563 33.1094,19.5469 Q33.2969,19.4375 33.5156,19.4375 Q33.8906,19.4375 34.125,19.6953 Q34.3594,19.9531 34.3594,20.5625 L34.3594,22.0156 Q34.3594,22.625 34.125,22.8906 Q33.8906,23.1563 33.5156,23.1563 Q33.1719,23.1563 32.9688,22.9531 Q32.7656,22.7656 32.6563,22.25 Q32.6094,21.8906 32.4219,21.7031 Q32.0938,21.3281 31.4844,21.1094 Q30.875,20.8906 30.25,20.8906 Q29.4844,20.8906 28.8516,21.2188 Q28.2188,21.5469 27.7266,22.2969 Q27.2344,23.0469 27.2344,24.0781 L27.2344,25.1719 Q27.2344,26.4063 28.125,27.2266 Q29.0156,28.0469 30.6094,28.0469 Q31.5469,28.0469 32.2031,27.7969 Q32.5938,27.6406 33.0156,27.2031 Q33.2813,26.9375 33.4297,26.8594 Q33.5781,26.7813 33.7813,26.7813 Q34.1094,26.7813 34.3672,27.0391 Q34.625,27.2969 34.625,27.6406 Q34.625,27.9844 34.2813,28.3906 Q33.7813,28.9688 32.9844,29.2969 Q31.9063,29.75 30.6094,29.75 Q29.0938,29.75 27.8906,29.125 Q26.9063,28.625 26.2188,27.5547 Q25.5313,26.4844 25.5313,25.2031 L25.5313,24.0469 Q25.5313,22.7188 26.1484,21.5703 Q26.7656,20.4219 27.8594,19.8047 Q28.9531,19.1875 30.1875,19.1875 Q30.9219,19.1875 31.5703,19.3516 Q32.2188,19.5156 32.7656,19.875 Z "/><text fill="#000000" font-family="sans-serif" font-size="12" lengthAdjust="spacingAndGlyphs" textLength="37" x="46" y="28.9102">SkyBot</text><line style="stroke: #A80036; stroke-width: 1.5;" x1="7" x2="94" y1="40" y2="40"/><line style="stroke: #A80036; stroke-width: 1.5;" x1="7" x2="94" y1="48" y2="48"/><ellipse cx="17" cy="60.418" fill="#84BE84" rx="3" ry="3" style="stroke: #038048; stroke-width: 1.0;"/><text fill="#000000" font-family="sans-serif" font-size="11" lengthAdjust="spacingAndGlyphs" textLength="63" x="26" y="63.4189">fly(height:int)</text><!--class ShadeBot--><rect fill="#FEFECE" filter="url(#fynf3zo)" height="61.8359" style="stroke: #A80036; stroke-width: 1.5;" width="107" x="130" y="8"/><ellipse cx="154.45" cy="24" fill="#ADD1B2" rx="11" ry="11" style="stroke: #A80036; stroke-width: 1.0;"/><path d="M157.2156,19.875 Q157.3719,19.6563 157.5594,19.5469 Q157.7469,19.4375 157.9656,19.4375 Q158.3406,19.4375 158.575,19.6953 Q158.8094,19.9531 158.8094,20.5625 L158.8094,22.0156 Q158.8094,22.625 158.575,22.8906 Q158.3406,23.1563 157.9656,23.1563 Q157.6219,23.1563 157.4188,22.9531 Q157.2156,22.7656 157.1063,22.25 Q157.0594,21.8906 156.8719,21.7031 Q156.5438,21.3281 155.9344,21.1094 Q155.325,20.8906 154.7,20.8906 Q153.9344,20.8906 153.3016,21.2188 Q152.6688,21.5469 152.1766,22.2969 Q151.6844,23.0469 151.6844,24.0781 L151.6844,25.1719 Q151.6844,26.4063 152.575,27.2266 Q153.4656,28.0469 155.0594,28.0469 Q155.9969,28.0469 156.6531,27.7969 Q157.0438,27.6406 157.4656,27.2031 Q157.7313,26.9375 157.8797,26.8594 Q158.0281,26.7813 158.2313,26.7813 Q158.5594,26.7813 158.8172,27.0391 Q159.075,27.2969 159.075,27.6406 Q159.075,27.9844 158.7313,28.3906 Q158.2313,28.9688 157.4344,29.2969 Q156.3563,29.75 155.0594,29.75 Q153.5438,29.75 152.3406,29.125 Q151.3563,28.625 150.6688,27.5547 Q149.9813,26.4844 149.9813,25.2031 L149.9813,24.0469 Q149.9813,22.7188 150.5984,21.5703 Q151.2156,20.4219 152.3094,19.8047 Q153.4031,19.1875 154.6375,19.1875 Q155.3719,19.1875 156.0203,19.3516 Q156.6688,19.5156 157.2156,19.875 Z "/><text fill="#000000" font-family="sans-serif" font-size="12" lengthAdjust="spacingAndGlyphs" textLength="54" x="170.55" y="28.9102">ShadeBot</text><line style="stroke: #A80036; stroke-width: 1.5;" x1="131" x2="236" y1="40" y2="40"/><ellipse cx="141" cy="52.418" fill="none" rx="3" ry="3" style="stroke: #038048; stroke-width: 1.0;"/><text fill="#000000" font-family="sans-serif" font-size="11" lengthAdjust="spacingAndGlyphs" textLength="81" x="150" y="55.4189">visorOpacity : int</text><line style="stroke: #A80036; stroke-width: 1.5;" x1="131" x2="236" y1="61.8359" y2="61.8359"/><path d="M65.3117,70.072 C71.4045,82.442 78.7003,97.255 85.8484,111.768 " fill="none" style="stroke: #A80036; stroke-width: 1.0;"/><polygon fill="none" points="92.1645,108.749,94.722,129.784,79.6053,114.935,92.1645,108.749" style="stroke: #A80036; stroke-width: 1.0;"/><path d="M168.464,70.072 C162.279,82.442 154.872,97.255 147.616,111.768 " fill="none" style="stroke: #A80036; stroke-width: 1.0;"/><polygon fill="none" points="153.813,115.026,138.608,129.784,141.291,108.765,153.813,115.026" style="stroke: #A80036; stroke-width: 1.0;"/></g></svg>