<?xml version="1.0" encoding="UTF-8" standalone="no"?><svg xmlns="http://www.w3.org/2000/svg" xmlns:xlink="http://www.w3.org/1999/xlink" contentScriptType="application/ecmascript" contentStyleType="text/css" height="568px" preserveAspectRatio="none" style="width:621px;height:568px;" version="1.1" viewBox="0 0 621 568"
    width="621px" zoomAndPan="magnify"><defs><filter height="300%" id="f1swkc9jaukv65" width="300%" x="-1" y="-1"><feGaussianBlur result="blurOut" stdDeviation="2.0"/><feColorMatrix in="blurOut" result="blurOut2" type="matrix" values="0 0 0 0 0 0 0 0 0 0 0 0 0 0 0 0 0 0 .4 0"/><feOffset dx="4.0" dy="4.0" in="blurOut2" result="blurOut3"/><feBlend in="SourceGraphic" in2="blurOut3" mode="normal"/></filter></defs><g><!--class Operation--><rect fill="#FEFECE" filter="url(#f1swkc9jaukv65)" height="73.9102" id="Operation" style="stroke: #A80036; stroke-width: 1.5;" width="272" x="338" y="226.5"/><ellipse cx="441.25" cy="242.5" fill="#B4A7E5" rx="11" ry="11" style="stroke: #A80036; stroke-width: 1.0;"/><path d="M437.6777,238.7651 L437.6777,236.6069 L445.0571,236.6069 L445.0571,238.7651 L442.5918,238.7651 L442.5918,246.8418 L445.0571,246.8418 L445.0571,249 L437.6777,249 L437.6777,246.8418 L440.1431,246.8418 L440.1431,238.7651 Z "/><text fill="#000000" font-family="sans-serif" font-size="12" font-style="italic" lengthAdjust="spacingAndGlyphs" textLength="57" x="461.75" y="247.0352">Operation</text><line style="stroke: #A80036; stroke-width: 1.5;" x1="339" x2="609" y1="258.5" y2="258.5"/><line style="stroke: #A80036; stroke-width: 1.5;" x1="339" x2="609" y1="266.5" y2="266.5"/><ellipse cx="349" cy="278.4775" fill="#84BE84" rx="3" ry="3" style="stroke: #038048; stroke-width: 1.0;"/><text fill="#000000" font-family="sans-serif" font-size="11" font-style="italic" lengthAdjust="spacingAndGlyphs" textLength="246" x="358" y="281.1348">execute(left:Fraction, right:Fraction) : Fraction</text><ellipse cx="349" cy="291.4326" fill="#84BE84" rx="3" ry="3" style="stroke: #038048; stroke-width: 1.0;"/><text fill="#000000" font-family="sans-serif" font-size="11" font-style="italic" lengthAdjust="spacingAndGlyphs" textLength="71" x="358" y="294.0898">__str__() : str</text><!--class Addition--><rect fill="#FEFECE" filter="url(#f1swkc9jaukv65)" height="73.9102" id="Addition" style="stroke: #A80036; stroke-width: 1.5;" width="272" x="6" y="8.5"/><ellipse cx="113.75" cy="24.5" fill="#ADD1B2" rx="11" ry="11" style="stroke: #A80036; stroke-width: 1.0;"/><path d="M116.2231,30.6431 Q115.6421,30.9419 115.0029,31.0913 Q114.3638,31.2407 113.6582,31.2407 Q111.1514,31.2407 109.8315,29.5889 Q108.5117,27.937 108.5117,24.8159 Q108.5117,21.6865 109.8315,20.0347 Q111.1514,18.3828 113.6582,18.3828 Q114.3638,18.3828 115.0112,18.5322 Q115.6587,18.6816 116.2231,18.9805 L116.2231,21.7031 Q115.5923,21.1221 114.9988,20.8523 Q114.4053,20.5825 113.7744,20.5825 Q112.4297,20.5825 111.7449,21.6492 Q111.0601,22.7158 111.0601,24.8159 Q111.0601,26.9077 111.7449,27.9744 Q112.4297,29.041 113.7744,29.041 Q114.4053,29.041 114.9988,28.7712 Q115.5923,28.5015 116.2231,27.9204 Z "/><text fill="#000000" font-family="sans-serif" font-size="12" lengthAdjust="spacingAndGlyphs" textLength="48" x="134.25" y="29.0352">Addition</text><line style="stroke: #A80036; stroke-width: 1.5;" x1="7" x2="277" y1="40.5" y2="40.5"/><line style="stroke: #A80036; stroke-width: 1.5;" x1="7" x2="277" y1="48.5" y2="48.5"/><ellipse cx="17" cy="60.4775" fill="#84BE84" rx="3" ry="3" style="stroke: #038048; stroke-width: 1.0;"/><text fill="#000000" font-family="sans-serif" font-size="11" lengthAdjust="spacingAndGlyphs" textLength="246" x="26" y="63.1348">execute(left:Fraction, right:Fraction) : Fraction</text><ellipse cx="17" cy="73.4326" fill="#84BE84" rx="3" ry="3" style="stroke: #038048; stroke-width: 1.0;"/><text fill="#000000" font-family="sans-serif" font-size="11" lengthAdjust="spacingAndGlyphs" textLength="71" x="26" y="76.0898">__str__() : str</text><!--class Subtraction--><rect fill="#FEFECE" filter="url(#f1swkc9jaukv65)" height="73.9102" id="Subtraction" style="stroke: #A80036; stroke-width: 1.5;" width="272" x="6" y="117.5"/><ellipse cx="105.75" cy="133.5" fill="#ADD1B2" rx="11" ry="11" style="stroke: #A80036; stroke-width: 1.0;"/><path d="M108.2231,139.6431 Q107.6421,139.9419 107.0029,140.0913 Q106.3638,140.2407 105.6582,140.2407 Q103.1514,140.2407 101.8315,138.5889 Q100.5117,136.937 100.5117,133.8159 Q100.5117,130.6865 101.8315,129.0347 Q103.1514,127.3828 105.6582,127.3828 Q106.3638,127.3828 107.0112,127.5322 Q107.6587,127.6816 108.2231,127.9805 L108.2231,130.7031 Q107.5923,130.1221 106.9988,129.8523 Q106.4053,129.5825 105.7744,129.5825 Q104.4297,129.5825 103.7449,130.6492 Q103.0601,131.7158 103.0601,133.8159 Q103.0601,135.9077 103.7449,136.9744 Q104.4297,138.041 105.7744,138.041 Q106.4053,138.041 106.9988,137.7712 Q107.5923,137.5015 108.2231,136.9204 Z "/><text fill="#000000" font-family="sans-serif" font-size="12" lengthAdjust="spacingAndGlyphs" textLength="64" x="126.25" y="138.0352">Subtraction</text><line style="stroke: #A80036; stroke-width: 1.5;" x1="7" x2="277" y1="149.5" y2="149.5"/><line style="stroke: #A80036; stroke-width: 1.5;" x1="7" x2="277" y1="157.5" y2="157.5"/><ellipse cx="17" cy="169.4775" fill="#84BE84" rx="3" ry="3" style="stroke: #038048; stroke-width: 1.0;"/><text fill="#000000" font-family="sans-serif" font-size="11" lengthAdjust="spacingAndGlyphs" textLength="246" x="26" y="172.1348">execute(left:Fraction, right:Fraction) : Fraction</text><ellipse cx="17" cy="182.4326" fill="#84BE84" rx="3" ry="3" style="stroke: #038048; stroke-width: 1.0;"/><text fill="#000000" font-family="sans-serif" font-size="11" lengthAdjust="spacingAndGlyphs" textLength="71" x="26" y="185.0898">__str__() : str</text><!--class Multiplication--><rect fill="#FEFECE" filter="url(#f1swkc9jaukv65)" height="73.9102" id="Multiplication" style="stroke: #A80036; stroke-width: 1.5;" width="272" x="6" y="226.5"/><ellipse cx="100.25" cy="242.5" fill="#ADD1B2" rx="11" ry="11" style="stroke: #A80036; stroke-width: 1.0;"/><path d="M102.7231,248.6431 Q102.1421,248.9419 101.5029,249.0913 Q100.8638,249.2407 100.1582,249.2407 Q97.6514,249.2407 96.3315,247.5889 Q95.0117,245.937 95.0117,242.8159 Q95.0117,239.6865 96.3315,238.0347 Q97.6514,236.3828 100.1582,236.3828 Q100.8638,236.3828 101.5112,236.5322 Q102.1587,236.6816 102.7231,236.9805 L102.7231,239.7031 Q102.0923,239.1221 101.4988,238.8523 Q100.9053,238.5825 100.2744,238.5825 Q98.9297,238.5825 98.2449,239.6492 Q97.5601,240.7158 97.5601,242.8159 Q97.5601,244.9077 98.2449,245.9744 Q98.9297,247.041 100.2744,247.041 Q100.9053,247.041 101.4988,246.7712 Q102.0923,246.5015 102.7231,245.9204 Z "/><text fill="#000000" font-family="sans-serif" font-size="12" lengthAdjust="spacingAndGlyphs" textLength="75" x="120.75" y="247.0352">Multiplication</text><line style="stroke: #A80036; stroke-width: 1.5;" x1="7" x2="277" y1="258.5" y2="258.5"/><line style="stroke: #A80036; stroke-width: 1.5;" x1="7" x2="277" y1="266.5" y2="266.5"/><ellipse cx="17" cy="278.4775" fill="#84BE84" rx="3" ry="3" style="stroke: #038048; stroke-width: 1.0;"/><text fill="#000000" font-family="sans-serif" font-size="11" lengthAdjust="spacingAndGlyphs" textLength="246" x="26" y="281.1348">execute(left:Fraction, right:Fraction) : Fraction</text><ellipse cx="17" cy="291.4326" fill="#84BE84" rx="3" ry="3" style="stroke: #038048; stroke-width: 1.0;"/><text fill="#000000" font-family="sans-serif" font-size="11" lengthAdjust="spacingAndGlyphs" textLength="71" x="26" y="294.0898">__str__() : str</text><!--class Division--><rect fill="#FEFECE" filter="url(#f1swkc9jaukv65)" height="73.9102" id="Division" style="stroke: #A80036; stroke-width: 1.5;" width="272" x="6" y="335.5"/><ellipse cx="115.75" cy="351.5" fill="#ADD1B2" rx="11" ry="11" style="stroke: #A80036; stroke-width: 1.0;"/><path d="M118.2231,357.6431 Q117.6421,357.9419 117.0029,358.0913 Q116.3638,358.2407 115.6582,358.2407 Q113.1514,358.2407 111.8315,356.5889 Q110.5117,354.937 110.5117,351.8159 Q110.5117,348.6865 111.8315,347.0347 Q113.1514,345.3828 115.6582,345.3828 Q116.3638,345.3828 117.0112,345.5322 Q117.6587,345.6816 118.2231,345.9805 L118.2231,348.7031 Q117.5923,348.1221 116.9988,347.8523 Q116.4053,347.5825 115.7744,347.5825 Q114.4297,347.5825 113.7449,348.6492 Q113.0601,349.7158 113.0601,351.8159 Q113.0601,353.9077 113.7449,354.9744 Q114.4297,356.041 115.7744,356.041 Q116.4053,356.041 116.9988,355.7712 Q117.5923,355.5015 118.2231,354.9204 Z "/><text fill="#000000" font-family="sans-serif" font-size="12" lengthAdjust="spacingAndGlyphs" textLength="44" x="136.25" y="356.0352">Division</text><line style="stroke: #A80036; stroke-width: 1.5;" x1="7" x2="277" y1="367.5" y2="367.5"/><line style="stroke: #A80036; stroke-width: 1.5;" x1="7" x2="277" y1="375.5" y2="375.5"/><ellipse cx="17" cy="387.4775" fill="#84BE84" rx="3" ry="3" style="stroke: #038048; stroke-width: 1.0;"/><text fill="#000000" font-family="sans-serif" font-size="11" lengthAdjust="spacingAndGlyphs" textLength="246" x="26" y="390.1348">execute(left:Fraction, right:Fraction) : Fraction</text><ellipse cx="17" cy="400.4326" fill="#84BE84" rx="3" ry="3" style="stroke: #038048; stroke-width: 1.0;"/><text fill="#000000" font-family="sans-serif" font-size="11" lengthAdjust="spacingAndGlyphs" textLength="71" x="26" y="403.0898">__str__() : str</text><!--class Calculation--><rect fill="#FEFECE" filter="url(#f1swkc9jaukv65)" height="112.7754" id="Calculation" style="stroke: #A80036; stroke-width: 1.5;" width="141" x="71.5" y="445"/><ellipse cx="107.65" cy="461" fill="#ADD1B2" rx="11" ry="11" style="stroke: #A80036; stroke-width: 1.0;"/><path d="M110.1231,467.1431 Q109.5421,467.4419 108.9029,467.5913 Q108.2638,467.7407 107.5582,467.7407 Q105.0514,467.7407 103.7315,466.0889 Q102.4117,464.437 102.4117,461.3159 Q102.4117,458.1865 103.7315,456.5347 Q105.0514,454.8828 107.5582,454.8828 Q108.2638,454.8828 108.9112,455.0322 Q109.5587,455.1816 110.1231,455.4805 L110.1231,458.2031 Q109.4923,457.6221 108.8988,457.3523 Q108.3053,457.0825 107.6744,457.0825 Q106.3297,457.0825 105.6449,458.1492 Q104.9601,459.2158 104.9601,461.3159 Q104.9601,463.4077 105.6449,464.4744 Q106.3297,465.541 107.6744,465.541 Q108.3053,465.541 108.8988,465.2712 Q109.4923,465.0015 110.1231,464.4204 Z "/><text fill="#000000" font-family="sans-serif" font-size="12" lengthAdjust="spacingAndGlyphs" textLength="62" x="126.35" y="465.5352">Calculation</text><line style="stroke: #A80036; stroke-width: 1.5;" x1="72.5" x2="211.5" y1="477" y2="477"/><rect fill="none" height="6" style="stroke: #C82930; stroke-width: 1.0;" width="6" x="79.5" y="485.9775"/><text fill="#000000" font-family="sans-serif" font-size="11" lengthAdjust="spacingAndGlyphs" textLength="70" x="91.5" y="491.6348">left : Fraction</text><rect fill="none" height="6" style="stroke: #C82930; stroke-width: 1.0;" width="6" x="79.5" y="498.9326"/><text fill="#000000" font-family="sans-serif" font-size="11" lengthAdjust="spacingAndGlyphs" textLength="79" x="91.5" y="504.5898">right : Fraction</text><rect fill="none" height="6" style="stroke: #C82930; stroke-width: 1.0;" width="6" x="79.5" y="511.8877"/><text fill="#000000" font-family="sans-serif" font-size="11" lengthAdjust="spacingAndGlyphs" textLength="115" x="91.5" y="517.5449">operation : Operation</text><rect fill="none" height="6" style="stroke: #C82930; stroke-width: 1.0;" width="6" x="79.5" y="524.8428"/><text fill="#000000" font-family="sans-serif" font-size="11" lengthAdjust="spacingAndGlyphs" textLength="84" x="91.5" y="530.5">result : Fraction</text><line style="stroke: #A80036; stroke-width: 1.5;" x1="72.5" x2="211.5" y1="536.8203" y2="536.8203"/><ellipse cx="82.5" cy="548.7979" fill="#84BE84" rx="3" ry="3" style="stroke: #038048; stroke-width: 1.0;"/><text fill="#000000" font-family="sans-serif" font-size="11" lengthAdjust="spacingAndGlyphs" textLength="71" x="91.5" y="551.4551">__str__() : str</text><!--class Fraction--><rect fill="#FEFECE" filter="url(#f1swkc9jaukv65)" height="86.8652" id="Fraction" style="stroke: #A80036; stroke-width: 1.5;" width="97" x="425.5" y="458"/><ellipse cx="449.5" cy="474" fill="#ADD1B2" rx="11" ry="11" style="stroke: #A80036; stroke-width: 1.0;"/><path d="M451.9731,480.1431 Q451.3921,480.4419 450.7529,480.5913 Q450.1138,480.7407 449.4082,480.7407 Q446.9014,480.7407 445.5815,479.0889 Q444.2617,477.437 444.2617,474.3159 Q444.2617,471.1865 445.5815,469.5347 Q446.9014,467.8828 449.4082,467.8828 Q450.1138,467.8828 450.7612,468.0322 Q451.4087,468.1816 451.9731,468.4805 L451.9731,471.2031 Q451.3423,470.6221 450.7488,470.3523 Q450.1553,470.0825 449.5244,470.0825 Q448.1797,470.0825 447.4949,471.1492 Q446.8101,472.2158 446.8101,474.3159 Q446.8101,476.4077 447.4949,477.4744 Q448.1797,478.541 449.5244,478.541 Q450.1553,478.541 450.7488,478.2712 Q451.3423,478.0015 451.9731,477.4204 Z "/><text fill="#000000" font-family="sans-serif" font-size="12" lengthAdjust="spacingAndGlyphs" textLength="45" x="465.5" y="478.5352">Fraction</text><line style="stroke: #A80036; stroke-width: 1.5;" x1="426.5" x2="521.5" y1="490" y2="490"/><rect fill="none" height="6" style="stroke: #C82930; stroke-width: 1.0;" width="6" x="433.5" y="498.9775"/><text fill="#000000" font-family="sans-serif" font-size="11" lengthAdjust="spacingAndGlyphs" textLength="47" x="445.5" y="504.6348">num : int</text><rect fill="none" height="6" style="stroke: #C82930; stroke-width: 1.0;" width="6" x="433.5" y="511.9326"/><text fill="#000000" font-family="sans-serif" font-size="11" lengthAdjust="spacingAndGlyphs" textLength="60" x="445.5" y="517.5898">denom : int</text><line style="stroke: #A80036; stroke-width: 1.5;" x1="426.5" x2="521.5" y1="523.9102" y2="523.9102"/><ellipse cx="436.5" cy="535.8877" fill="#84BE84" rx="3" ry="3" style="stroke: #038048; stroke-width: 1.0;"/><text fill="#000000" font-family="sans-serif" font-size="11" lengthAdjust="spacingAndGlyphs" textLength="71" x="445.5" y="538.5449">__str__() : str</text><!--link Addition to Operation--><path d="M245.7799,82.6538 C256.9033,87.8217 267.8519,93.4533 278,99.5 C331.2648,131.2373 384.7826,177.195 422.4049,212.3904 " fill="none" id="Addition-Operation" style="stroke: #A80036; stroke-width: 1.0; stroke-dasharray: 7.0,7.0;"/><polygon fill="none" points="427.3267,207.4108,437.008,226.2596,417.6856,217.5622,427.3267,207.4108" style="stroke: #A80036; stroke-width: 1.0;"/><!--link Subtraction to Operation--><path d="M254.8633,191.5545 C282.8717,200.75 313.1362,210.6863 341.9719,220.1534 " fill="none" id="Subtraction-Operation" style="stroke: #A80036; stroke-width: 1.0; stroke-dasharray: 7.0,7.0;"/><polygon fill="none" points="344.3485,213.566,361.167,226.4554,339.9814,226.8675,344.3485,213.566" style="stroke: #A80036; stroke-width: 1.0;"/><!--link Division to Operation--><path d="M254.8633,335.4455 C282.8717,326.25 313.1362,316.3137 341.9719,306.8466 " fill="none" id="Division-Operation" style="stroke: #A80036; stroke-width: 1.0; stroke-dasharray: 7.0,7.0;"/><polygon fill="none" points="339.9814,300.1325,361.167,300.5446,344.3485,313.434,339.9814,300.1325" style="stroke: #A80036; stroke-width: 1.0;"/><!--link Multiplication to Operation--><path d="M278.4743,263.5 C291.3263,263.5 304.4221,263.5 317.4403,263.5 " fill="none" id="Multiplication-Operation" style="stroke: #A80036; stroke-width: 1.0; stroke-dasharray: 7.0,7.0;"/><polygon fill="none" points="317.7874,256.4999,337.7873,263.5,317.7873,270.4999,317.7874,256.4999" style="stroke: #A80036; stroke-width: 1.0;"/><!--link Calculation to Fraction--><path d="M225.9206,501.5 C283.8799,501.5 359.6783,501.5 412.1638,501.5 " fill="none" id="Calculation-Fraction" style="stroke: #A80036; stroke-width: 1.0;"/><polygon fill="#A80036" points="425.3132,501.5,416.3132,497.5,420.3132,501.5,416.3132,505.5,425.3132,501.5" style="stroke: #A80036; stroke-width: 1.0;"/><line style="stroke: #A80036; stroke-width: 1.0;" x1="420.3132" x2="412.3132" y1="501.5" y2="501.4999"/><polygon fill="#A80036" points="212.8151,501.5,218.8151,505.5,224.8151,501.5,218.8151,497.5,212.8151,501.5" style="stroke: #A80036; stroke-width: 1.0;"/><!--link Calculation to Operation--><path d="M224.232,460.1716 C242.3486,450.1338 261.1491,438.9673 278,427.5 C330.8645,391.5249 386.3264,344.0779 424.7064,309.4776 " fill="none" id="Calculation-Operation" style="stroke: #A80036; stroke-width: 1.0;"/><polygon fill="#A80036" points="434.5722,300.5269,425.2189,303.6118,430.8691,303.8865,430.5943,309.5367,434.5722,300.5269" style="stroke: #A80036; stroke-width: 1.0;"/><line style="stroke: #A80036; stroke-width: 1.0;" x1="430.8691" x2="424.9441" y1="303.8865" y2="309.262"/><polygon fill="#FFFFFF" points="212.7596,466.4318,219.9425,467.0691,223.2934,460.6838,216.1105,460.0466,212.7596,466.4318" style="stroke: #A80036; stroke-width: 1.0;"/><!--
@startuml
   left to right direction
   interface Operation{
      + {abstract} execute(left:Fraction, right:Fraction) : Fraction
      + {abstract} __str__() : str
   }

   class Addition{
      + execute(left:Fraction, right:Fraction) : Fraction
      + __str__() : str
   }

   class Subtraction{
      + execute(left:Fraction, right:Fraction) : Fraction
      + __str__() : str
   }

   class Multiplication{
      + execute(left:Fraction, right:Fraction) : Fraction
      + __str__() : str
   }

   class Division{
      + execute(left:Fraction, right:Fraction) : Fraction
      + __str__() : str
   }

   class Calculation{
      - left : Fraction
      - right : Fraction
      - operation : Operation
      - result : Fraction
      + __str__() : str
   }

   class Fraction{
      - num : int
      - denom : int
      + __str__() : str
   }

   Addition ..|> Operation
   Subtraction ..|> Operation
   Division ..|> Operation
   Multiplication ..|> Operation

   Calculation *- -> Fraction
   Calculation o- -> Operation

@enduml

PlantUML version 1.2018.01(Mon Jan 29 02:08:22 PHT 2018)
(GPL source distribution)
Java Runtime: Java(TM) SE Runtime Environment
JVM: Java HotSpot(TM) 64-Bit Server VM
Java Version: 1.8.0_92-b14
Operating System: Mac OS X
OS Version: 10.14.6
Default Encoding: UTF-8
Language: en
Country: US
--></g></svg>